G04 #@! TF.GenerationSoftware,KiCad,Pcbnew,5.1.5-52549c5~86~ubuntu19.10.1*
G04 #@! TF.CreationDate,2020-04-22T22:15:28+03:00*
G04 #@! TF.ProjectId,control,636f6e74-726f-46c2-9e6b-696361645f70,rev?*
G04 #@! TF.SameCoordinates,Original*
G04 #@! TF.FileFunction,Paste,Bot*
G04 #@! TF.FilePolarity,Positive*
%FSLAX46Y46*%
G04 Gerber Fmt 4.6, Leading zero omitted, Abs format (unit mm)*
G04 Created by KiCad (PCBNEW 5.1.5-52549c5~86~ubuntu19.10.1) date 2020-04-22 22:15:28*
%MOMM*%
%LPD*%
G04 APERTURE LIST*
%ADD10C,0.100000*%
G04 APERTURE END LIST*
D10*
G36*
X56509009Y-175707408D02*
G01*
X56557545Y-175714607D01*
X56605142Y-175726530D01*
X56651342Y-175743060D01*
X56695698Y-175764039D01*
X56737785Y-175789265D01*
X56777197Y-175818495D01*
X56813553Y-175851447D01*
X56846505Y-175887803D01*
X56875735Y-175927215D01*
X56900961Y-175969302D01*
X56921940Y-176013658D01*
X56938470Y-176059858D01*
X56950393Y-176107455D01*
X56957592Y-176155991D01*
X56960000Y-176205000D01*
X56960000Y-183205000D01*
X56957592Y-183254009D01*
X56950393Y-183302545D01*
X56938470Y-183350142D01*
X56921940Y-183396342D01*
X56900961Y-183440698D01*
X56875735Y-183482785D01*
X56846505Y-183522197D01*
X56813553Y-183558553D01*
X56777197Y-183591505D01*
X56737785Y-183620735D01*
X56695698Y-183645961D01*
X56651342Y-183666940D01*
X56605142Y-183683470D01*
X56557545Y-183695393D01*
X56509009Y-183702592D01*
X56460000Y-183705000D01*
X55460000Y-183705000D01*
X55410991Y-183702592D01*
X55362455Y-183695393D01*
X55314858Y-183683470D01*
X55268658Y-183666940D01*
X55224302Y-183645961D01*
X55182215Y-183620735D01*
X55142803Y-183591505D01*
X55106447Y-183558553D01*
X55073495Y-183522197D01*
X55044265Y-183482785D01*
X55019039Y-183440698D01*
X54998060Y-183396342D01*
X54981530Y-183350142D01*
X54969607Y-183302545D01*
X54962408Y-183254009D01*
X54960000Y-183205000D01*
X54960000Y-176205000D01*
X54962408Y-176155991D01*
X54969607Y-176107455D01*
X54981530Y-176059858D01*
X54998060Y-176013658D01*
X55019039Y-175969302D01*
X55044265Y-175927215D01*
X55073495Y-175887803D01*
X55106447Y-175851447D01*
X55142803Y-175818495D01*
X55182215Y-175789265D01*
X55224302Y-175764039D01*
X55268658Y-175743060D01*
X55314858Y-175726530D01*
X55362455Y-175714607D01*
X55410991Y-175707408D01*
X55460000Y-175705000D01*
X56460000Y-175705000D01*
X56509009Y-175707408D01*
G37*
G36*
X59009009Y-175707408D02*
G01*
X59057545Y-175714607D01*
X59105142Y-175726530D01*
X59151342Y-175743060D01*
X59195698Y-175764039D01*
X59237785Y-175789265D01*
X59277197Y-175818495D01*
X59313553Y-175851447D01*
X59346505Y-175887803D01*
X59375735Y-175927215D01*
X59400961Y-175969302D01*
X59421940Y-176013658D01*
X59438470Y-176059858D01*
X59450393Y-176107455D01*
X59457592Y-176155991D01*
X59460000Y-176205000D01*
X59460000Y-183205000D01*
X59457592Y-183254009D01*
X59450393Y-183302545D01*
X59438470Y-183350142D01*
X59421940Y-183396342D01*
X59400961Y-183440698D01*
X59375735Y-183482785D01*
X59346505Y-183522197D01*
X59313553Y-183558553D01*
X59277197Y-183591505D01*
X59237785Y-183620735D01*
X59195698Y-183645961D01*
X59151342Y-183666940D01*
X59105142Y-183683470D01*
X59057545Y-183695393D01*
X59009009Y-183702592D01*
X58960000Y-183705000D01*
X57960000Y-183705000D01*
X57910991Y-183702592D01*
X57862455Y-183695393D01*
X57814858Y-183683470D01*
X57768658Y-183666940D01*
X57724302Y-183645961D01*
X57682215Y-183620735D01*
X57642803Y-183591505D01*
X57606447Y-183558553D01*
X57573495Y-183522197D01*
X57544265Y-183482785D01*
X57519039Y-183440698D01*
X57498060Y-183396342D01*
X57481530Y-183350142D01*
X57469607Y-183302545D01*
X57462408Y-183254009D01*
X57460000Y-183205000D01*
X57460000Y-176205000D01*
X57462408Y-176155991D01*
X57469607Y-176107455D01*
X57481530Y-176059858D01*
X57498060Y-176013658D01*
X57519039Y-175969302D01*
X57544265Y-175927215D01*
X57573495Y-175887803D01*
X57606447Y-175851447D01*
X57642803Y-175818495D01*
X57682215Y-175789265D01*
X57724302Y-175764039D01*
X57768658Y-175743060D01*
X57814858Y-175726530D01*
X57862455Y-175714607D01*
X57910991Y-175707408D01*
X57960000Y-175705000D01*
X58960000Y-175705000D01*
X59009009Y-175707408D01*
G37*
G36*
X61509009Y-175707408D02*
G01*
X61557545Y-175714607D01*
X61605142Y-175726530D01*
X61651342Y-175743060D01*
X61695698Y-175764039D01*
X61737785Y-175789265D01*
X61777197Y-175818495D01*
X61813553Y-175851447D01*
X61846505Y-175887803D01*
X61875735Y-175927215D01*
X61900961Y-175969302D01*
X61921940Y-176013658D01*
X61938470Y-176059858D01*
X61950393Y-176107455D01*
X61957592Y-176155991D01*
X61960000Y-176205000D01*
X61960000Y-183205000D01*
X61957592Y-183254009D01*
X61950393Y-183302545D01*
X61938470Y-183350142D01*
X61921940Y-183396342D01*
X61900961Y-183440698D01*
X61875735Y-183482785D01*
X61846505Y-183522197D01*
X61813553Y-183558553D01*
X61777197Y-183591505D01*
X61737785Y-183620735D01*
X61695698Y-183645961D01*
X61651342Y-183666940D01*
X61605142Y-183683470D01*
X61557545Y-183695393D01*
X61509009Y-183702592D01*
X61460000Y-183705000D01*
X60460000Y-183705000D01*
X60410991Y-183702592D01*
X60362455Y-183695393D01*
X60314858Y-183683470D01*
X60268658Y-183666940D01*
X60224302Y-183645961D01*
X60182215Y-183620735D01*
X60142803Y-183591505D01*
X60106447Y-183558553D01*
X60073495Y-183522197D01*
X60044265Y-183482785D01*
X60019039Y-183440698D01*
X59998060Y-183396342D01*
X59981530Y-183350142D01*
X59969607Y-183302545D01*
X59962408Y-183254009D01*
X59960000Y-183205000D01*
X59960000Y-176205000D01*
X59962408Y-176155991D01*
X59969607Y-176107455D01*
X59981530Y-176059858D01*
X59998060Y-176013658D01*
X60019039Y-175969302D01*
X60044265Y-175927215D01*
X60073495Y-175887803D01*
X60106447Y-175851447D01*
X60142803Y-175818495D01*
X60182215Y-175789265D01*
X60224302Y-175764039D01*
X60268658Y-175743060D01*
X60314858Y-175726530D01*
X60362455Y-175714607D01*
X60410991Y-175707408D01*
X60460000Y-175705000D01*
X61460000Y-175705000D01*
X61509009Y-175707408D01*
G37*
G36*
X64009009Y-175707408D02*
G01*
X64057545Y-175714607D01*
X64105142Y-175726530D01*
X64151342Y-175743060D01*
X64195698Y-175764039D01*
X64237785Y-175789265D01*
X64277197Y-175818495D01*
X64313553Y-175851447D01*
X64346505Y-175887803D01*
X64375735Y-175927215D01*
X64400961Y-175969302D01*
X64421940Y-176013658D01*
X64438470Y-176059858D01*
X64450393Y-176107455D01*
X64457592Y-176155991D01*
X64460000Y-176205000D01*
X64460000Y-183205000D01*
X64457592Y-183254009D01*
X64450393Y-183302545D01*
X64438470Y-183350142D01*
X64421940Y-183396342D01*
X64400961Y-183440698D01*
X64375735Y-183482785D01*
X64346505Y-183522197D01*
X64313553Y-183558553D01*
X64277197Y-183591505D01*
X64237785Y-183620735D01*
X64195698Y-183645961D01*
X64151342Y-183666940D01*
X64105142Y-183683470D01*
X64057545Y-183695393D01*
X64009009Y-183702592D01*
X63960000Y-183705000D01*
X62960000Y-183705000D01*
X62910991Y-183702592D01*
X62862455Y-183695393D01*
X62814858Y-183683470D01*
X62768658Y-183666940D01*
X62724302Y-183645961D01*
X62682215Y-183620735D01*
X62642803Y-183591505D01*
X62606447Y-183558553D01*
X62573495Y-183522197D01*
X62544265Y-183482785D01*
X62519039Y-183440698D01*
X62498060Y-183396342D01*
X62481530Y-183350142D01*
X62469607Y-183302545D01*
X62462408Y-183254009D01*
X62460000Y-183205000D01*
X62460000Y-176205000D01*
X62462408Y-176155991D01*
X62469607Y-176107455D01*
X62481530Y-176059858D01*
X62498060Y-176013658D01*
X62519039Y-175969302D01*
X62544265Y-175927215D01*
X62573495Y-175887803D01*
X62606447Y-175851447D01*
X62642803Y-175818495D01*
X62682215Y-175789265D01*
X62724302Y-175764039D01*
X62768658Y-175743060D01*
X62814858Y-175726530D01*
X62862455Y-175714607D01*
X62910991Y-175707408D01*
X62960000Y-175705000D01*
X63960000Y-175705000D01*
X64009009Y-175707408D01*
G37*
G36*
X66509009Y-175707408D02*
G01*
X66557545Y-175714607D01*
X66605142Y-175726530D01*
X66651342Y-175743060D01*
X66695698Y-175764039D01*
X66737785Y-175789265D01*
X66777197Y-175818495D01*
X66813553Y-175851447D01*
X66846505Y-175887803D01*
X66875735Y-175927215D01*
X66900961Y-175969302D01*
X66921940Y-176013658D01*
X66938470Y-176059858D01*
X66950393Y-176107455D01*
X66957592Y-176155991D01*
X66960000Y-176205000D01*
X66960000Y-183205000D01*
X66957592Y-183254009D01*
X66950393Y-183302545D01*
X66938470Y-183350142D01*
X66921940Y-183396342D01*
X66900961Y-183440698D01*
X66875735Y-183482785D01*
X66846505Y-183522197D01*
X66813553Y-183558553D01*
X66777197Y-183591505D01*
X66737785Y-183620735D01*
X66695698Y-183645961D01*
X66651342Y-183666940D01*
X66605142Y-183683470D01*
X66557545Y-183695393D01*
X66509009Y-183702592D01*
X66460000Y-183705000D01*
X65460000Y-183705000D01*
X65410991Y-183702592D01*
X65362455Y-183695393D01*
X65314858Y-183683470D01*
X65268658Y-183666940D01*
X65224302Y-183645961D01*
X65182215Y-183620735D01*
X65142803Y-183591505D01*
X65106447Y-183558553D01*
X65073495Y-183522197D01*
X65044265Y-183482785D01*
X65019039Y-183440698D01*
X64998060Y-183396342D01*
X64981530Y-183350142D01*
X64969607Y-183302545D01*
X64962408Y-183254009D01*
X64960000Y-183205000D01*
X64960000Y-176205000D01*
X64962408Y-176155991D01*
X64969607Y-176107455D01*
X64981530Y-176059858D01*
X64998060Y-176013658D01*
X65019039Y-175969302D01*
X65044265Y-175927215D01*
X65073495Y-175887803D01*
X65106447Y-175851447D01*
X65142803Y-175818495D01*
X65182215Y-175789265D01*
X65224302Y-175764039D01*
X65268658Y-175743060D01*
X65314858Y-175726530D01*
X65362455Y-175714607D01*
X65410991Y-175707408D01*
X65460000Y-175705000D01*
X66460000Y-175705000D01*
X66509009Y-175707408D01*
G37*
G36*
X69009009Y-175707408D02*
G01*
X69057545Y-175714607D01*
X69105142Y-175726530D01*
X69151342Y-175743060D01*
X69195698Y-175764039D01*
X69237785Y-175789265D01*
X69277197Y-175818495D01*
X69313553Y-175851447D01*
X69346505Y-175887803D01*
X69375735Y-175927215D01*
X69400961Y-175969302D01*
X69421940Y-176013658D01*
X69438470Y-176059858D01*
X69450393Y-176107455D01*
X69457592Y-176155991D01*
X69460000Y-176205000D01*
X69460000Y-183205000D01*
X69457592Y-183254009D01*
X69450393Y-183302545D01*
X69438470Y-183350142D01*
X69421940Y-183396342D01*
X69400961Y-183440698D01*
X69375735Y-183482785D01*
X69346505Y-183522197D01*
X69313553Y-183558553D01*
X69277197Y-183591505D01*
X69237785Y-183620735D01*
X69195698Y-183645961D01*
X69151342Y-183666940D01*
X69105142Y-183683470D01*
X69057545Y-183695393D01*
X69009009Y-183702592D01*
X68960000Y-183705000D01*
X67960000Y-183705000D01*
X67910991Y-183702592D01*
X67862455Y-183695393D01*
X67814858Y-183683470D01*
X67768658Y-183666940D01*
X67724302Y-183645961D01*
X67682215Y-183620735D01*
X67642803Y-183591505D01*
X67606447Y-183558553D01*
X67573495Y-183522197D01*
X67544265Y-183482785D01*
X67519039Y-183440698D01*
X67498060Y-183396342D01*
X67481530Y-183350142D01*
X67469607Y-183302545D01*
X67462408Y-183254009D01*
X67460000Y-183205000D01*
X67460000Y-176205000D01*
X67462408Y-176155991D01*
X67469607Y-176107455D01*
X67481530Y-176059858D01*
X67498060Y-176013658D01*
X67519039Y-175969302D01*
X67544265Y-175927215D01*
X67573495Y-175887803D01*
X67606447Y-175851447D01*
X67642803Y-175818495D01*
X67682215Y-175789265D01*
X67724302Y-175764039D01*
X67768658Y-175743060D01*
X67814858Y-175726530D01*
X67862455Y-175714607D01*
X67910991Y-175707408D01*
X67960000Y-175705000D01*
X68960000Y-175705000D01*
X69009009Y-175707408D01*
G37*
G36*
X71509009Y-175707408D02*
G01*
X71557545Y-175714607D01*
X71605142Y-175726530D01*
X71651342Y-175743060D01*
X71695698Y-175764039D01*
X71737785Y-175789265D01*
X71777197Y-175818495D01*
X71813553Y-175851447D01*
X71846505Y-175887803D01*
X71875735Y-175927215D01*
X71900961Y-175969302D01*
X71921940Y-176013658D01*
X71938470Y-176059858D01*
X71950393Y-176107455D01*
X71957592Y-176155991D01*
X71960000Y-176205000D01*
X71960000Y-183205000D01*
X71957592Y-183254009D01*
X71950393Y-183302545D01*
X71938470Y-183350142D01*
X71921940Y-183396342D01*
X71900961Y-183440698D01*
X71875735Y-183482785D01*
X71846505Y-183522197D01*
X71813553Y-183558553D01*
X71777197Y-183591505D01*
X71737785Y-183620735D01*
X71695698Y-183645961D01*
X71651342Y-183666940D01*
X71605142Y-183683470D01*
X71557545Y-183695393D01*
X71509009Y-183702592D01*
X71460000Y-183705000D01*
X70460000Y-183705000D01*
X70410991Y-183702592D01*
X70362455Y-183695393D01*
X70314858Y-183683470D01*
X70268658Y-183666940D01*
X70224302Y-183645961D01*
X70182215Y-183620735D01*
X70142803Y-183591505D01*
X70106447Y-183558553D01*
X70073495Y-183522197D01*
X70044265Y-183482785D01*
X70019039Y-183440698D01*
X69998060Y-183396342D01*
X69981530Y-183350142D01*
X69969607Y-183302545D01*
X69962408Y-183254009D01*
X69960000Y-183205000D01*
X69960000Y-176205000D01*
X69962408Y-176155991D01*
X69969607Y-176107455D01*
X69981530Y-176059858D01*
X69998060Y-176013658D01*
X70019039Y-175969302D01*
X70044265Y-175927215D01*
X70073495Y-175887803D01*
X70106447Y-175851447D01*
X70142803Y-175818495D01*
X70182215Y-175789265D01*
X70224302Y-175764039D01*
X70268658Y-175743060D01*
X70314858Y-175726530D01*
X70362455Y-175714607D01*
X70410991Y-175707408D01*
X70460000Y-175705000D01*
X71460000Y-175705000D01*
X71509009Y-175707408D01*
G37*
G36*
X74009009Y-175707408D02*
G01*
X74057545Y-175714607D01*
X74105142Y-175726530D01*
X74151342Y-175743060D01*
X74195698Y-175764039D01*
X74237785Y-175789265D01*
X74277197Y-175818495D01*
X74313553Y-175851447D01*
X74346505Y-175887803D01*
X74375735Y-175927215D01*
X74400961Y-175969302D01*
X74421940Y-176013658D01*
X74438470Y-176059858D01*
X74450393Y-176107455D01*
X74457592Y-176155991D01*
X74460000Y-176205000D01*
X74460000Y-183205000D01*
X74457592Y-183254009D01*
X74450393Y-183302545D01*
X74438470Y-183350142D01*
X74421940Y-183396342D01*
X74400961Y-183440698D01*
X74375735Y-183482785D01*
X74346505Y-183522197D01*
X74313553Y-183558553D01*
X74277197Y-183591505D01*
X74237785Y-183620735D01*
X74195698Y-183645961D01*
X74151342Y-183666940D01*
X74105142Y-183683470D01*
X74057545Y-183695393D01*
X74009009Y-183702592D01*
X73960000Y-183705000D01*
X72960000Y-183705000D01*
X72910991Y-183702592D01*
X72862455Y-183695393D01*
X72814858Y-183683470D01*
X72768658Y-183666940D01*
X72724302Y-183645961D01*
X72682215Y-183620735D01*
X72642803Y-183591505D01*
X72606447Y-183558553D01*
X72573495Y-183522197D01*
X72544265Y-183482785D01*
X72519039Y-183440698D01*
X72498060Y-183396342D01*
X72481530Y-183350142D01*
X72469607Y-183302545D01*
X72462408Y-183254009D01*
X72460000Y-183205000D01*
X72460000Y-176205000D01*
X72462408Y-176155991D01*
X72469607Y-176107455D01*
X72481530Y-176059858D01*
X72498060Y-176013658D01*
X72519039Y-175969302D01*
X72544265Y-175927215D01*
X72573495Y-175887803D01*
X72606447Y-175851447D01*
X72642803Y-175818495D01*
X72682215Y-175789265D01*
X72724302Y-175764039D01*
X72768658Y-175743060D01*
X72814858Y-175726530D01*
X72862455Y-175714607D01*
X72910991Y-175707408D01*
X72960000Y-175705000D01*
X73960000Y-175705000D01*
X74009009Y-175707408D01*
G37*
G36*
X76509009Y-175707408D02*
G01*
X76557545Y-175714607D01*
X76605142Y-175726530D01*
X76651342Y-175743060D01*
X76695698Y-175764039D01*
X76737785Y-175789265D01*
X76777197Y-175818495D01*
X76813553Y-175851447D01*
X76846505Y-175887803D01*
X76875735Y-175927215D01*
X76900961Y-175969302D01*
X76921940Y-176013658D01*
X76938470Y-176059858D01*
X76950393Y-176107455D01*
X76957592Y-176155991D01*
X76960000Y-176205000D01*
X76960000Y-183205000D01*
X76957592Y-183254009D01*
X76950393Y-183302545D01*
X76938470Y-183350142D01*
X76921940Y-183396342D01*
X76900961Y-183440698D01*
X76875735Y-183482785D01*
X76846505Y-183522197D01*
X76813553Y-183558553D01*
X76777197Y-183591505D01*
X76737785Y-183620735D01*
X76695698Y-183645961D01*
X76651342Y-183666940D01*
X76605142Y-183683470D01*
X76557545Y-183695393D01*
X76509009Y-183702592D01*
X76460000Y-183705000D01*
X75460000Y-183705000D01*
X75410991Y-183702592D01*
X75362455Y-183695393D01*
X75314858Y-183683470D01*
X75268658Y-183666940D01*
X75224302Y-183645961D01*
X75182215Y-183620735D01*
X75142803Y-183591505D01*
X75106447Y-183558553D01*
X75073495Y-183522197D01*
X75044265Y-183482785D01*
X75019039Y-183440698D01*
X74998060Y-183396342D01*
X74981530Y-183350142D01*
X74969607Y-183302545D01*
X74962408Y-183254009D01*
X74960000Y-183205000D01*
X74960000Y-176205000D01*
X74962408Y-176155991D01*
X74969607Y-176107455D01*
X74981530Y-176059858D01*
X74998060Y-176013658D01*
X75019039Y-175969302D01*
X75044265Y-175927215D01*
X75073495Y-175887803D01*
X75106447Y-175851447D01*
X75142803Y-175818495D01*
X75182215Y-175789265D01*
X75224302Y-175764039D01*
X75268658Y-175743060D01*
X75314858Y-175726530D01*
X75362455Y-175714607D01*
X75410991Y-175707408D01*
X75460000Y-175705000D01*
X76460000Y-175705000D01*
X76509009Y-175707408D01*
G37*
G36*
X79009009Y-175707408D02*
G01*
X79057545Y-175714607D01*
X79105142Y-175726530D01*
X79151342Y-175743060D01*
X79195698Y-175764039D01*
X79237785Y-175789265D01*
X79277197Y-175818495D01*
X79313553Y-175851447D01*
X79346505Y-175887803D01*
X79375735Y-175927215D01*
X79400961Y-175969302D01*
X79421940Y-176013658D01*
X79438470Y-176059858D01*
X79450393Y-176107455D01*
X79457592Y-176155991D01*
X79460000Y-176205000D01*
X79460000Y-183205000D01*
X79457592Y-183254009D01*
X79450393Y-183302545D01*
X79438470Y-183350142D01*
X79421940Y-183396342D01*
X79400961Y-183440698D01*
X79375735Y-183482785D01*
X79346505Y-183522197D01*
X79313553Y-183558553D01*
X79277197Y-183591505D01*
X79237785Y-183620735D01*
X79195698Y-183645961D01*
X79151342Y-183666940D01*
X79105142Y-183683470D01*
X79057545Y-183695393D01*
X79009009Y-183702592D01*
X78960000Y-183705000D01*
X77960000Y-183705000D01*
X77910991Y-183702592D01*
X77862455Y-183695393D01*
X77814858Y-183683470D01*
X77768658Y-183666940D01*
X77724302Y-183645961D01*
X77682215Y-183620735D01*
X77642803Y-183591505D01*
X77606447Y-183558553D01*
X77573495Y-183522197D01*
X77544265Y-183482785D01*
X77519039Y-183440698D01*
X77498060Y-183396342D01*
X77481530Y-183350142D01*
X77469607Y-183302545D01*
X77462408Y-183254009D01*
X77460000Y-183205000D01*
X77460000Y-176205000D01*
X77462408Y-176155991D01*
X77469607Y-176107455D01*
X77481530Y-176059858D01*
X77498060Y-176013658D01*
X77519039Y-175969302D01*
X77544265Y-175927215D01*
X77573495Y-175887803D01*
X77606447Y-175851447D01*
X77642803Y-175818495D01*
X77682215Y-175789265D01*
X77724302Y-175764039D01*
X77768658Y-175743060D01*
X77814858Y-175726530D01*
X77862455Y-175714607D01*
X77910991Y-175707408D01*
X77960000Y-175705000D01*
X78960000Y-175705000D01*
X79009009Y-175707408D01*
G37*
G36*
X81509009Y-175707408D02*
G01*
X81557545Y-175714607D01*
X81605142Y-175726530D01*
X81651342Y-175743060D01*
X81695698Y-175764039D01*
X81737785Y-175789265D01*
X81777197Y-175818495D01*
X81813553Y-175851447D01*
X81846505Y-175887803D01*
X81875735Y-175927215D01*
X81900961Y-175969302D01*
X81921940Y-176013658D01*
X81938470Y-176059858D01*
X81950393Y-176107455D01*
X81957592Y-176155991D01*
X81960000Y-176205000D01*
X81960000Y-183205000D01*
X81957592Y-183254009D01*
X81950393Y-183302545D01*
X81938470Y-183350142D01*
X81921940Y-183396342D01*
X81900961Y-183440698D01*
X81875735Y-183482785D01*
X81846505Y-183522197D01*
X81813553Y-183558553D01*
X81777197Y-183591505D01*
X81737785Y-183620735D01*
X81695698Y-183645961D01*
X81651342Y-183666940D01*
X81605142Y-183683470D01*
X81557545Y-183695393D01*
X81509009Y-183702592D01*
X81460000Y-183705000D01*
X80460000Y-183705000D01*
X80410991Y-183702592D01*
X80362455Y-183695393D01*
X80314858Y-183683470D01*
X80268658Y-183666940D01*
X80224302Y-183645961D01*
X80182215Y-183620735D01*
X80142803Y-183591505D01*
X80106447Y-183558553D01*
X80073495Y-183522197D01*
X80044265Y-183482785D01*
X80019039Y-183440698D01*
X79998060Y-183396342D01*
X79981530Y-183350142D01*
X79969607Y-183302545D01*
X79962408Y-183254009D01*
X79960000Y-183205000D01*
X79960000Y-176205000D01*
X79962408Y-176155991D01*
X79969607Y-176107455D01*
X79981530Y-176059858D01*
X79998060Y-176013658D01*
X80019039Y-175969302D01*
X80044265Y-175927215D01*
X80073495Y-175887803D01*
X80106447Y-175851447D01*
X80142803Y-175818495D01*
X80182215Y-175789265D01*
X80224302Y-175764039D01*
X80268658Y-175743060D01*
X80314858Y-175726530D01*
X80362455Y-175714607D01*
X80410991Y-175707408D01*
X80460000Y-175705000D01*
X81460000Y-175705000D01*
X81509009Y-175707408D01*
G37*
G36*
X84009009Y-175707408D02*
G01*
X84057545Y-175714607D01*
X84105142Y-175726530D01*
X84151342Y-175743060D01*
X84195698Y-175764039D01*
X84237785Y-175789265D01*
X84277197Y-175818495D01*
X84313553Y-175851447D01*
X84346505Y-175887803D01*
X84375735Y-175927215D01*
X84400961Y-175969302D01*
X84421940Y-176013658D01*
X84438470Y-176059858D01*
X84450393Y-176107455D01*
X84457592Y-176155991D01*
X84460000Y-176205000D01*
X84460000Y-183205000D01*
X84457592Y-183254009D01*
X84450393Y-183302545D01*
X84438470Y-183350142D01*
X84421940Y-183396342D01*
X84400961Y-183440698D01*
X84375735Y-183482785D01*
X84346505Y-183522197D01*
X84313553Y-183558553D01*
X84277197Y-183591505D01*
X84237785Y-183620735D01*
X84195698Y-183645961D01*
X84151342Y-183666940D01*
X84105142Y-183683470D01*
X84057545Y-183695393D01*
X84009009Y-183702592D01*
X83960000Y-183705000D01*
X82960000Y-183705000D01*
X82910991Y-183702592D01*
X82862455Y-183695393D01*
X82814858Y-183683470D01*
X82768658Y-183666940D01*
X82724302Y-183645961D01*
X82682215Y-183620735D01*
X82642803Y-183591505D01*
X82606447Y-183558553D01*
X82573495Y-183522197D01*
X82544265Y-183482785D01*
X82519039Y-183440698D01*
X82498060Y-183396342D01*
X82481530Y-183350142D01*
X82469607Y-183302545D01*
X82462408Y-183254009D01*
X82460000Y-183205000D01*
X82460000Y-176205000D01*
X82462408Y-176155991D01*
X82469607Y-176107455D01*
X82481530Y-176059858D01*
X82498060Y-176013658D01*
X82519039Y-175969302D01*
X82544265Y-175927215D01*
X82573495Y-175887803D01*
X82606447Y-175851447D01*
X82642803Y-175818495D01*
X82682215Y-175789265D01*
X82724302Y-175764039D01*
X82768658Y-175743060D01*
X82814858Y-175726530D01*
X82862455Y-175714607D01*
X82910991Y-175707408D01*
X82960000Y-175705000D01*
X83960000Y-175705000D01*
X84009009Y-175707408D01*
G37*
G36*
X86509009Y-175707408D02*
G01*
X86557545Y-175714607D01*
X86605142Y-175726530D01*
X86651342Y-175743060D01*
X86695698Y-175764039D01*
X86737785Y-175789265D01*
X86777197Y-175818495D01*
X86813553Y-175851447D01*
X86846505Y-175887803D01*
X86875735Y-175927215D01*
X86900961Y-175969302D01*
X86921940Y-176013658D01*
X86938470Y-176059858D01*
X86950393Y-176107455D01*
X86957592Y-176155991D01*
X86960000Y-176205000D01*
X86960000Y-183205000D01*
X86957592Y-183254009D01*
X86950393Y-183302545D01*
X86938470Y-183350142D01*
X86921940Y-183396342D01*
X86900961Y-183440698D01*
X86875735Y-183482785D01*
X86846505Y-183522197D01*
X86813553Y-183558553D01*
X86777197Y-183591505D01*
X86737785Y-183620735D01*
X86695698Y-183645961D01*
X86651342Y-183666940D01*
X86605142Y-183683470D01*
X86557545Y-183695393D01*
X86509009Y-183702592D01*
X86460000Y-183705000D01*
X85460000Y-183705000D01*
X85410991Y-183702592D01*
X85362455Y-183695393D01*
X85314858Y-183683470D01*
X85268658Y-183666940D01*
X85224302Y-183645961D01*
X85182215Y-183620735D01*
X85142803Y-183591505D01*
X85106447Y-183558553D01*
X85073495Y-183522197D01*
X85044265Y-183482785D01*
X85019039Y-183440698D01*
X84998060Y-183396342D01*
X84981530Y-183350142D01*
X84969607Y-183302545D01*
X84962408Y-183254009D01*
X84960000Y-183205000D01*
X84960000Y-176205000D01*
X84962408Y-176155991D01*
X84969607Y-176107455D01*
X84981530Y-176059858D01*
X84998060Y-176013658D01*
X85019039Y-175969302D01*
X85044265Y-175927215D01*
X85073495Y-175887803D01*
X85106447Y-175851447D01*
X85142803Y-175818495D01*
X85182215Y-175789265D01*
X85224302Y-175764039D01*
X85268658Y-175743060D01*
X85314858Y-175726530D01*
X85362455Y-175714607D01*
X85410991Y-175707408D01*
X85460000Y-175705000D01*
X86460000Y-175705000D01*
X86509009Y-175707408D01*
G37*
G36*
X89009009Y-175707408D02*
G01*
X89057545Y-175714607D01*
X89105142Y-175726530D01*
X89151342Y-175743060D01*
X89195698Y-175764039D01*
X89237785Y-175789265D01*
X89277197Y-175818495D01*
X89313553Y-175851447D01*
X89346505Y-175887803D01*
X89375735Y-175927215D01*
X89400961Y-175969302D01*
X89421940Y-176013658D01*
X89438470Y-176059858D01*
X89450393Y-176107455D01*
X89457592Y-176155991D01*
X89460000Y-176205000D01*
X89460000Y-183205000D01*
X89457592Y-183254009D01*
X89450393Y-183302545D01*
X89438470Y-183350142D01*
X89421940Y-183396342D01*
X89400961Y-183440698D01*
X89375735Y-183482785D01*
X89346505Y-183522197D01*
X89313553Y-183558553D01*
X89277197Y-183591505D01*
X89237785Y-183620735D01*
X89195698Y-183645961D01*
X89151342Y-183666940D01*
X89105142Y-183683470D01*
X89057545Y-183695393D01*
X89009009Y-183702592D01*
X88960000Y-183705000D01*
X87960000Y-183705000D01*
X87910991Y-183702592D01*
X87862455Y-183695393D01*
X87814858Y-183683470D01*
X87768658Y-183666940D01*
X87724302Y-183645961D01*
X87682215Y-183620735D01*
X87642803Y-183591505D01*
X87606447Y-183558553D01*
X87573495Y-183522197D01*
X87544265Y-183482785D01*
X87519039Y-183440698D01*
X87498060Y-183396342D01*
X87481530Y-183350142D01*
X87469607Y-183302545D01*
X87462408Y-183254009D01*
X87460000Y-183205000D01*
X87460000Y-176205000D01*
X87462408Y-176155991D01*
X87469607Y-176107455D01*
X87481530Y-176059858D01*
X87498060Y-176013658D01*
X87519039Y-175969302D01*
X87544265Y-175927215D01*
X87573495Y-175887803D01*
X87606447Y-175851447D01*
X87642803Y-175818495D01*
X87682215Y-175789265D01*
X87724302Y-175764039D01*
X87768658Y-175743060D01*
X87814858Y-175726530D01*
X87862455Y-175714607D01*
X87910991Y-175707408D01*
X87960000Y-175705000D01*
X88960000Y-175705000D01*
X89009009Y-175707408D01*
G37*
G36*
X91509009Y-175707408D02*
G01*
X91557545Y-175714607D01*
X91605142Y-175726530D01*
X91651342Y-175743060D01*
X91695698Y-175764039D01*
X91737785Y-175789265D01*
X91777197Y-175818495D01*
X91813553Y-175851447D01*
X91846505Y-175887803D01*
X91875735Y-175927215D01*
X91900961Y-175969302D01*
X91921940Y-176013658D01*
X91938470Y-176059858D01*
X91950393Y-176107455D01*
X91957592Y-176155991D01*
X91960000Y-176205000D01*
X91960000Y-183205000D01*
X91957592Y-183254009D01*
X91950393Y-183302545D01*
X91938470Y-183350142D01*
X91921940Y-183396342D01*
X91900961Y-183440698D01*
X91875735Y-183482785D01*
X91846505Y-183522197D01*
X91813553Y-183558553D01*
X91777197Y-183591505D01*
X91737785Y-183620735D01*
X91695698Y-183645961D01*
X91651342Y-183666940D01*
X91605142Y-183683470D01*
X91557545Y-183695393D01*
X91509009Y-183702592D01*
X91460000Y-183705000D01*
X90460000Y-183705000D01*
X90410991Y-183702592D01*
X90362455Y-183695393D01*
X90314858Y-183683470D01*
X90268658Y-183666940D01*
X90224302Y-183645961D01*
X90182215Y-183620735D01*
X90142803Y-183591505D01*
X90106447Y-183558553D01*
X90073495Y-183522197D01*
X90044265Y-183482785D01*
X90019039Y-183440698D01*
X89998060Y-183396342D01*
X89981530Y-183350142D01*
X89969607Y-183302545D01*
X89962408Y-183254009D01*
X89960000Y-183205000D01*
X89960000Y-176205000D01*
X89962408Y-176155991D01*
X89969607Y-176107455D01*
X89981530Y-176059858D01*
X89998060Y-176013658D01*
X90019039Y-175969302D01*
X90044265Y-175927215D01*
X90073495Y-175887803D01*
X90106447Y-175851447D01*
X90142803Y-175818495D01*
X90182215Y-175789265D01*
X90224302Y-175764039D01*
X90268658Y-175743060D01*
X90314858Y-175726530D01*
X90362455Y-175714607D01*
X90410991Y-175707408D01*
X90460000Y-175705000D01*
X91460000Y-175705000D01*
X91509009Y-175707408D01*
G37*
G36*
X94009009Y-175707408D02*
G01*
X94057545Y-175714607D01*
X94105142Y-175726530D01*
X94151342Y-175743060D01*
X94195698Y-175764039D01*
X94237785Y-175789265D01*
X94277197Y-175818495D01*
X94313553Y-175851447D01*
X94346505Y-175887803D01*
X94375735Y-175927215D01*
X94400961Y-175969302D01*
X94421940Y-176013658D01*
X94438470Y-176059858D01*
X94450393Y-176107455D01*
X94457592Y-176155991D01*
X94460000Y-176205000D01*
X94460000Y-183205000D01*
X94457592Y-183254009D01*
X94450393Y-183302545D01*
X94438470Y-183350142D01*
X94421940Y-183396342D01*
X94400961Y-183440698D01*
X94375735Y-183482785D01*
X94346505Y-183522197D01*
X94313553Y-183558553D01*
X94277197Y-183591505D01*
X94237785Y-183620735D01*
X94195698Y-183645961D01*
X94151342Y-183666940D01*
X94105142Y-183683470D01*
X94057545Y-183695393D01*
X94009009Y-183702592D01*
X93960000Y-183705000D01*
X92960000Y-183705000D01*
X92910991Y-183702592D01*
X92862455Y-183695393D01*
X92814858Y-183683470D01*
X92768658Y-183666940D01*
X92724302Y-183645961D01*
X92682215Y-183620735D01*
X92642803Y-183591505D01*
X92606447Y-183558553D01*
X92573495Y-183522197D01*
X92544265Y-183482785D01*
X92519039Y-183440698D01*
X92498060Y-183396342D01*
X92481530Y-183350142D01*
X92469607Y-183302545D01*
X92462408Y-183254009D01*
X92460000Y-183205000D01*
X92460000Y-176205000D01*
X92462408Y-176155991D01*
X92469607Y-176107455D01*
X92481530Y-176059858D01*
X92498060Y-176013658D01*
X92519039Y-175969302D01*
X92544265Y-175927215D01*
X92573495Y-175887803D01*
X92606447Y-175851447D01*
X92642803Y-175818495D01*
X92682215Y-175789265D01*
X92724302Y-175764039D01*
X92768658Y-175743060D01*
X92814858Y-175726530D01*
X92862455Y-175714607D01*
X92910991Y-175707408D01*
X92960000Y-175705000D01*
X93960000Y-175705000D01*
X94009009Y-175707408D01*
G37*
G36*
X96509009Y-175707408D02*
G01*
X96557545Y-175714607D01*
X96605142Y-175726530D01*
X96651342Y-175743060D01*
X96695698Y-175764039D01*
X96737785Y-175789265D01*
X96777197Y-175818495D01*
X96813553Y-175851447D01*
X96846505Y-175887803D01*
X96875735Y-175927215D01*
X96900961Y-175969302D01*
X96921940Y-176013658D01*
X96938470Y-176059858D01*
X96950393Y-176107455D01*
X96957592Y-176155991D01*
X96960000Y-176205000D01*
X96960000Y-183205000D01*
X96957592Y-183254009D01*
X96950393Y-183302545D01*
X96938470Y-183350142D01*
X96921940Y-183396342D01*
X96900961Y-183440698D01*
X96875735Y-183482785D01*
X96846505Y-183522197D01*
X96813553Y-183558553D01*
X96777197Y-183591505D01*
X96737785Y-183620735D01*
X96695698Y-183645961D01*
X96651342Y-183666940D01*
X96605142Y-183683470D01*
X96557545Y-183695393D01*
X96509009Y-183702592D01*
X96460000Y-183705000D01*
X95460000Y-183705000D01*
X95410991Y-183702592D01*
X95362455Y-183695393D01*
X95314858Y-183683470D01*
X95268658Y-183666940D01*
X95224302Y-183645961D01*
X95182215Y-183620735D01*
X95142803Y-183591505D01*
X95106447Y-183558553D01*
X95073495Y-183522197D01*
X95044265Y-183482785D01*
X95019039Y-183440698D01*
X94998060Y-183396342D01*
X94981530Y-183350142D01*
X94969607Y-183302545D01*
X94962408Y-183254009D01*
X94960000Y-183205000D01*
X94960000Y-176205000D01*
X94962408Y-176155991D01*
X94969607Y-176107455D01*
X94981530Y-176059858D01*
X94998060Y-176013658D01*
X95019039Y-175969302D01*
X95044265Y-175927215D01*
X95073495Y-175887803D01*
X95106447Y-175851447D01*
X95142803Y-175818495D01*
X95182215Y-175789265D01*
X95224302Y-175764039D01*
X95268658Y-175743060D01*
X95314858Y-175726530D01*
X95362455Y-175714607D01*
X95410991Y-175707408D01*
X95460000Y-175705000D01*
X96460000Y-175705000D01*
X96509009Y-175707408D01*
G37*
G36*
X99009009Y-175707408D02*
G01*
X99057545Y-175714607D01*
X99105142Y-175726530D01*
X99151342Y-175743060D01*
X99195698Y-175764039D01*
X99237785Y-175789265D01*
X99277197Y-175818495D01*
X99313553Y-175851447D01*
X99346505Y-175887803D01*
X99375735Y-175927215D01*
X99400961Y-175969302D01*
X99421940Y-176013658D01*
X99438470Y-176059858D01*
X99450393Y-176107455D01*
X99457592Y-176155991D01*
X99460000Y-176205000D01*
X99460000Y-183205000D01*
X99457592Y-183254009D01*
X99450393Y-183302545D01*
X99438470Y-183350142D01*
X99421940Y-183396342D01*
X99400961Y-183440698D01*
X99375735Y-183482785D01*
X99346505Y-183522197D01*
X99313553Y-183558553D01*
X99277197Y-183591505D01*
X99237785Y-183620735D01*
X99195698Y-183645961D01*
X99151342Y-183666940D01*
X99105142Y-183683470D01*
X99057545Y-183695393D01*
X99009009Y-183702592D01*
X98960000Y-183705000D01*
X97960000Y-183705000D01*
X97910991Y-183702592D01*
X97862455Y-183695393D01*
X97814858Y-183683470D01*
X97768658Y-183666940D01*
X97724302Y-183645961D01*
X97682215Y-183620735D01*
X97642803Y-183591505D01*
X97606447Y-183558553D01*
X97573495Y-183522197D01*
X97544265Y-183482785D01*
X97519039Y-183440698D01*
X97498060Y-183396342D01*
X97481530Y-183350142D01*
X97469607Y-183302545D01*
X97462408Y-183254009D01*
X97460000Y-183205000D01*
X97460000Y-176205000D01*
X97462408Y-176155991D01*
X97469607Y-176107455D01*
X97481530Y-176059858D01*
X97498060Y-176013658D01*
X97519039Y-175969302D01*
X97544265Y-175927215D01*
X97573495Y-175887803D01*
X97606447Y-175851447D01*
X97642803Y-175818495D01*
X97682215Y-175789265D01*
X97724302Y-175764039D01*
X97768658Y-175743060D01*
X97814858Y-175726530D01*
X97862455Y-175714607D01*
X97910991Y-175707408D01*
X97960000Y-175705000D01*
X98960000Y-175705000D01*
X99009009Y-175707408D01*
G37*
G36*
X101509009Y-175707408D02*
G01*
X101557545Y-175714607D01*
X101605142Y-175726530D01*
X101651342Y-175743060D01*
X101695698Y-175764039D01*
X101737785Y-175789265D01*
X101777197Y-175818495D01*
X101813553Y-175851447D01*
X101846505Y-175887803D01*
X101875735Y-175927215D01*
X101900961Y-175969302D01*
X101921940Y-176013658D01*
X101938470Y-176059858D01*
X101950393Y-176107455D01*
X101957592Y-176155991D01*
X101960000Y-176205000D01*
X101960000Y-183205000D01*
X101957592Y-183254009D01*
X101950393Y-183302545D01*
X101938470Y-183350142D01*
X101921940Y-183396342D01*
X101900961Y-183440698D01*
X101875735Y-183482785D01*
X101846505Y-183522197D01*
X101813553Y-183558553D01*
X101777197Y-183591505D01*
X101737785Y-183620735D01*
X101695698Y-183645961D01*
X101651342Y-183666940D01*
X101605142Y-183683470D01*
X101557545Y-183695393D01*
X101509009Y-183702592D01*
X101460000Y-183705000D01*
X100460000Y-183705000D01*
X100410991Y-183702592D01*
X100362455Y-183695393D01*
X100314858Y-183683470D01*
X100268658Y-183666940D01*
X100224302Y-183645961D01*
X100182215Y-183620735D01*
X100142803Y-183591505D01*
X100106447Y-183558553D01*
X100073495Y-183522197D01*
X100044265Y-183482785D01*
X100019039Y-183440698D01*
X99998060Y-183396342D01*
X99981530Y-183350142D01*
X99969607Y-183302545D01*
X99962408Y-183254009D01*
X99960000Y-183205000D01*
X99960000Y-176205000D01*
X99962408Y-176155991D01*
X99969607Y-176107455D01*
X99981530Y-176059858D01*
X99998060Y-176013658D01*
X100019039Y-175969302D01*
X100044265Y-175927215D01*
X100073495Y-175887803D01*
X100106447Y-175851447D01*
X100142803Y-175818495D01*
X100182215Y-175789265D01*
X100224302Y-175764039D01*
X100268658Y-175743060D01*
X100314858Y-175726530D01*
X100362455Y-175714607D01*
X100410991Y-175707408D01*
X100460000Y-175705000D01*
X101460000Y-175705000D01*
X101509009Y-175707408D01*
G37*
G36*
X104009009Y-175707408D02*
G01*
X104057545Y-175714607D01*
X104105142Y-175726530D01*
X104151342Y-175743060D01*
X104195698Y-175764039D01*
X104237785Y-175789265D01*
X104277197Y-175818495D01*
X104313553Y-175851447D01*
X104346505Y-175887803D01*
X104375735Y-175927215D01*
X104400961Y-175969302D01*
X104421940Y-176013658D01*
X104438470Y-176059858D01*
X104450393Y-176107455D01*
X104457592Y-176155991D01*
X104460000Y-176205000D01*
X104460000Y-183205000D01*
X104457592Y-183254009D01*
X104450393Y-183302545D01*
X104438470Y-183350142D01*
X104421940Y-183396342D01*
X104400961Y-183440698D01*
X104375735Y-183482785D01*
X104346505Y-183522197D01*
X104313553Y-183558553D01*
X104277197Y-183591505D01*
X104237785Y-183620735D01*
X104195698Y-183645961D01*
X104151342Y-183666940D01*
X104105142Y-183683470D01*
X104057545Y-183695393D01*
X104009009Y-183702592D01*
X103960000Y-183705000D01*
X102960000Y-183705000D01*
X102910991Y-183702592D01*
X102862455Y-183695393D01*
X102814858Y-183683470D01*
X102768658Y-183666940D01*
X102724302Y-183645961D01*
X102682215Y-183620735D01*
X102642803Y-183591505D01*
X102606447Y-183558553D01*
X102573495Y-183522197D01*
X102544265Y-183482785D01*
X102519039Y-183440698D01*
X102498060Y-183396342D01*
X102481530Y-183350142D01*
X102469607Y-183302545D01*
X102462408Y-183254009D01*
X102460000Y-183205000D01*
X102460000Y-176205000D01*
X102462408Y-176155991D01*
X102469607Y-176107455D01*
X102481530Y-176059858D01*
X102498060Y-176013658D01*
X102519039Y-175969302D01*
X102544265Y-175927215D01*
X102573495Y-175887803D01*
X102606447Y-175851447D01*
X102642803Y-175818495D01*
X102682215Y-175789265D01*
X102724302Y-175764039D01*
X102768658Y-175743060D01*
X102814858Y-175726530D01*
X102862455Y-175714607D01*
X102910991Y-175707408D01*
X102960000Y-175705000D01*
X103960000Y-175705000D01*
X104009009Y-175707408D01*
G37*
G36*
X106509009Y-175707408D02*
G01*
X106557545Y-175714607D01*
X106605142Y-175726530D01*
X106651342Y-175743060D01*
X106695698Y-175764039D01*
X106737785Y-175789265D01*
X106777197Y-175818495D01*
X106813553Y-175851447D01*
X106846505Y-175887803D01*
X106875735Y-175927215D01*
X106900961Y-175969302D01*
X106921940Y-176013658D01*
X106938470Y-176059858D01*
X106950393Y-176107455D01*
X106957592Y-176155991D01*
X106960000Y-176205000D01*
X106960000Y-183205000D01*
X106957592Y-183254009D01*
X106950393Y-183302545D01*
X106938470Y-183350142D01*
X106921940Y-183396342D01*
X106900961Y-183440698D01*
X106875735Y-183482785D01*
X106846505Y-183522197D01*
X106813553Y-183558553D01*
X106777197Y-183591505D01*
X106737785Y-183620735D01*
X106695698Y-183645961D01*
X106651342Y-183666940D01*
X106605142Y-183683470D01*
X106557545Y-183695393D01*
X106509009Y-183702592D01*
X106460000Y-183705000D01*
X105460000Y-183705000D01*
X105410991Y-183702592D01*
X105362455Y-183695393D01*
X105314858Y-183683470D01*
X105268658Y-183666940D01*
X105224302Y-183645961D01*
X105182215Y-183620735D01*
X105142803Y-183591505D01*
X105106447Y-183558553D01*
X105073495Y-183522197D01*
X105044265Y-183482785D01*
X105019039Y-183440698D01*
X104998060Y-183396342D01*
X104981530Y-183350142D01*
X104969607Y-183302545D01*
X104962408Y-183254009D01*
X104960000Y-183205000D01*
X104960000Y-176205000D01*
X104962408Y-176155991D01*
X104969607Y-176107455D01*
X104981530Y-176059858D01*
X104998060Y-176013658D01*
X105019039Y-175969302D01*
X105044265Y-175927215D01*
X105073495Y-175887803D01*
X105106447Y-175851447D01*
X105142803Y-175818495D01*
X105182215Y-175789265D01*
X105224302Y-175764039D01*
X105268658Y-175743060D01*
X105314858Y-175726530D01*
X105362455Y-175714607D01*
X105410991Y-175707408D01*
X105460000Y-175705000D01*
X106460000Y-175705000D01*
X106509009Y-175707408D01*
G37*
G36*
X109009009Y-175707408D02*
G01*
X109057545Y-175714607D01*
X109105142Y-175726530D01*
X109151342Y-175743060D01*
X109195698Y-175764039D01*
X109237785Y-175789265D01*
X109277197Y-175818495D01*
X109313553Y-175851447D01*
X109346505Y-175887803D01*
X109375735Y-175927215D01*
X109400961Y-175969302D01*
X109421940Y-176013658D01*
X109438470Y-176059858D01*
X109450393Y-176107455D01*
X109457592Y-176155991D01*
X109460000Y-176205000D01*
X109460000Y-183205000D01*
X109457592Y-183254009D01*
X109450393Y-183302545D01*
X109438470Y-183350142D01*
X109421940Y-183396342D01*
X109400961Y-183440698D01*
X109375735Y-183482785D01*
X109346505Y-183522197D01*
X109313553Y-183558553D01*
X109277197Y-183591505D01*
X109237785Y-183620735D01*
X109195698Y-183645961D01*
X109151342Y-183666940D01*
X109105142Y-183683470D01*
X109057545Y-183695393D01*
X109009009Y-183702592D01*
X108960000Y-183705000D01*
X107960000Y-183705000D01*
X107910991Y-183702592D01*
X107862455Y-183695393D01*
X107814858Y-183683470D01*
X107768658Y-183666940D01*
X107724302Y-183645961D01*
X107682215Y-183620735D01*
X107642803Y-183591505D01*
X107606447Y-183558553D01*
X107573495Y-183522197D01*
X107544265Y-183482785D01*
X107519039Y-183440698D01*
X107498060Y-183396342D01*
X107481530Y-183350142D01*
X107469607Y-183302545D01*
X107462408Y-183254009D01*
X107460000Y-183205000D01*
X107460000Y-176205000D01*
X107462408Y-176155991D01*
X107469607Y-176107455D01*
X107481530Y-176059858D01*
X107498060Y-176013658D01*
X107519039Y-175969302D01*
X107544265Y-175927215D01*
X107573495Y-175887803D01*
X107606447Y-175851447D01*
X107642803Y-175818495D01*
X107682215Y-175789265D01*
X107724302Y-175764039D01*
X107768658Y-175743060D01*
X107814858Y-175726530D01*
X107862455Y-175714607D01*
X107910991Y-175707408D01*
X107960000Y-175705000D01*
X108960000Y-175705000D01*
X109009009Y-175707408D01*
G37*
G36*
X111509009Y-175707408D02*
G01*
X111557545Y-175714607D01*
X111605142Y-175726530D01*
X111651342Y-175743060D01*
X111695698Y-175764039D01*
X111737785Y-175789265D01*
X111777197Y-175818495D01*
X111813553Y-175851447D01*
X111846505Y-175887803D01*
X111875735Y-175927215D01*
X111900961Y-175969302D01*
X111921940Y-176013658D01*
X111938470Y-176059858D01*
X111950393Y-176107455D01*
X111957592Y-176155991D01*
X111960000Y-176205000D01*
X111960000Y-183205000D01*
X111957592Y-183254009D01*
X111950393Y-183302545D01*
X111938470Y-183350142D01*
X111921940Y-183396342D01*
X111900961Y-183440698D01*
X111875735Y-183482785D01*
X111846505Y-183522197D01*
X111813553Y-183558553D01*
X111777197Y-183591505D01*
X111737785Y-183620735D01*
X111695698Y-183645961D01*
X111651342Y-183666940D01*
X111605142Y-183683470D01*
X111557545Y-183695393D01*
X111509009Y-183702592D01*
X111460000Y-183705000D01*
X110460000Y-183705000D01*
X110410991Y-183702592D01*
X110362455Y-183695393D01*
X110314858Y-183683470D01*
X110268658Y-183666940D01*
X110224302Y-183645961D01*
X110182215Y-183620735D01*
X110142803Y-183591505D01*
X110106447Y-183558553D01*
X110073495Y-183522197D01*
X110044265Y-183482785D01*
X110019039Y-183440698D01*
X109998060Y-183396342D01*
X109981530Y-183350142D01*
X109969607Y-183302545D01*
X109962408Y-183254009D01*
X109960000Y-183205000D01*
X109960000Y-176205000D01*
X109962408Y-176155991D01*
X109969607Y-176107455D01*
X109981530Y-176059858D01*
X109998060Y-176013658D01*
X110019039Y-175969302D01*
X110044265Y-175927215D01*
X110073495Y-175887803D01*
X110106447Y-175851447D01*
X110142803Y-175818495D01*
X110182215Y-175789265D01*
X110224302Y-175764039D01*
X110268658Y-175743060D01*
X110314858Y-175726530D01*
X110362455Y-175714607D01*
X110410991Y-175707408D01*
X110460000Y-175705000D01*
X111460000Y-175705000D01*
X111509009Y-175707408D01*
G37*
G36*
X114009009Y-175707408D02*
G01*
X114057545Y-175714607D01*
X114105142Y-175726530D01*
X114151342Y-175743060D01*
X114195698Y-175764039D01*
X114237785Y-175789265D01*
X114277197Y-175818495D01*
X114313553Y-175851447D01*
X114346505Y-175887803D01*
X114375735Y-175927215D01*
X114400961Y-175969302D01*
X114421940Y-176013658D01*
X114438470Y-176059858D01*
X114450393Y-176107455D01*
X114457592Y-176155991D01*
X114460000Y-176205000D01*
X114460000Y-183205000D01*
X114457592Y-183254009D01*
X114450393Y-183302545D01*
X114438470Y-183350142D01*
X114421940Y-183396342D01*
X114400961Y-183440698D01*
X114375735Y-183482785D01*
X114346505Y-183522197D01*
X114313553Y-183558553D01*
X114277197Y-183591505D01*
X114237785Y-183620735D01*
X114195698Y-183645961D01*
X114151342Y-183666940D01*
X114105142Y-183683470D01*
X114057545Y-183695393D01*
X114009009Y-183702592D01*
X113960000Y-183705000D01*
X112960000Y-183705000D01*
X112910991Y-183702592D01*
X112862455Y-183695393D01*
X112814858Y-183683470D01*
X112768658Y-183666940D01*
X112724302Y-183645961D01*
X112682215Y-183620735D01*
X112642803Y-183591505D01*
X112606447Y-183558553D01*
X112573495Y-183522197D01*
X112544265Y-183482785D01*
X112519039Y-183440698D01*
X112498060Y-183396342D01*
X112481530Y-183350142D01*
X112469607Y-183302545D01*
X112462408Y-183254009D01*
X112460000Y-183205000D01*
X112460000Y-176205000D01*
X112462408Y-176155991D01*
X112469607Y-176107455D01*
X112481530Y-176059858D01*
X112498060Y-176013658D01*
X112519039Y-175969302D01*
X112544265Y-175927215D01*
X112573495Y-175887803D01*
X112606447Y-175851447D01*
X112642803Y-175818495D01*
X112682215Y-175789265D01*
X112724302Y-175764039D01*
X112768658Y-175743060D01*
X112814858Y-175726530D01*
X112862455Y-175714607D01*
X112910991Y-175707408D01*
X112960000Y-175705000D01*
X113960000Y-175705000D01*
X114009009Y-175707408D01*
G37*
M02*
