G04 DipTrace 4.2.0.1*
G04 KKV_TopSilk.gbr*
%MOMM*%
G04 #@! TF.FileFunction,Legend,Top*
G04 #@! TF.Part,Single*
%ADD10C,0.25*%
%ADD13C,0.12*%
%ADD22C,0.318*%
%ADD23C,0.444*%
%ADD24C,0.5*%
%ADD52C,0.11765*%
%ADD53C,0.23529*%
%FSLAX35Y35*%
G04*
G71*
G90*
G75*
G01*
G04 TopSilk*
%LPD*%
X-6580200Y-2892400D2*
D13*
X-6436200D1*
X-6580200Y-3072400D2*
X-6436200D1*
X-6025700Y-7377043D2*
D10*
X-5416707D1*
X-6025700Y-7681843D2*
X-5416707D1*
G03X-5416707Y-7377043I303J152400D01*
G01*
X-6025700D2*
G03X-6025700Y-7681843I-303J-152400D01*
G01*
X-470550Y-2998700D2*
D13*
X-736550D1*
Y-4100700D1*
X-470550D1*
Y-2998700D1*
G36*
X-427950Y-3144100D2*
X-424739Y-3144310D1*
X-421583Y-3144938D1*
X-418536Y-3145973D1*
X-415650Y-3147396D1*
X-412974Y-3149184D1*
X-410555Y-3151305D1*
X-408434Y-3153724D1*
X-406646Y-3156400D1*
X-405223Y-3159286D1*
X-404188Y-3162333D1*
X-403560Y-3165489D1*
X-403350Y-3168700D1*
X-403560Y-3171911D1*
X-404188Y-3175067D1*
X-405223Y-3178114D1*
X-406646Y-3181000D1*
X-408434Y-3183676D1*
X-410555Y-3186095D1*
X-412974Y-3188216D1*
X-415650Y-3190004D1*
X-418536Y-3191427D1*
X-421583Y-3192462D1*
X-424739Y-3193090D1*
X-427950Y-3193300D1*
D1*
X-431161Y-3193090D1*
X-434317Y-3192462D1*
X-437364Y-3191427D1*
X-440250Y-3190004D1*
X-442926Y-3188216D1*
X-445345Y-3186095D1*
X-447466Y-3183676D1*
X-449254Y-3181000D1*
X-450677Y-3178114D1*
X-451712Y-3175067D1*
X-452340Y-3171911D1*
X-452550Y-3168700D1*
X-452340Y-3165489D1*
X-451712Y-3162333D1*
X-450677Y-3159286D1*
X-449254Y-3156400D1*
X-447466Y-3153724D1*
X-445345Y-3151305D1*
X-442926Y-3149184D1*
X-440250Y-3147396D1*
X-437364Y-3145973D1*
X-434317Y-3144938D1*
X-431161Y-3144310D1*
X-427950Y-3144100D1*
D1*
G37*
X-6610500Y-3903250D2*
D13*
Y-3857250D1*
X-6470500Y-3903250D2*
Y-3857250D1*
X-4209723Y-5159210D2*
Y-5425210D1*
X-1583723D1*
Y-5159210D1*
X-4209723D1*
G36*
X-4064323Y-5116610D2*
X-4064113Y-5113399D1*
X-4063485Y-5110243D1*
X-4062451Y-5107196D1*
X-4061028Y-5104310D1*
X-4059240Y-5101634D1*
X-4057118Y-5099215D1*
X-4054699Y-5097094D1*
X-4052023Y-5095306D1*
X-4049137Y-5093883D1*
X-4046090Y-5092848D1*
X-4042934Y-5092220D1*
X-4039723Y-5092010D1*
X-4036512Y-5092220D1*
X-4033356Y-5092848D1*
X-4030309Y-5093883D1*
X-4027423Y-5095306D1*
X-4024748Y-5097094D1*
X-4022329Y-5099215D1*
X-4020207Y-5101634D1*
X-4018419Y-5104310D1*
X-4016996Y-5107196D1*
X-4015962Y-5110243D1*
X-4015334Y-5113399D1*
X-4015123Y-5116610D1*
D1*
X-4015334Y-5119821D1*
X-4015962Y-5122977D1*
X-4016996Y-5126024D1*
X-4018419Y-5128910D1*
X-4020207Y-5131586D1*
X-4022329Y-5134005D1*
X-4024748Y-5136126D1*
X-4027423Y-5137914D1*
X-4030309Y-5139337D1*
X-4033356Y-5140372D1*
X-4036512Y-5141000D1*
X-4039723Y-5141210D1*
X-4042934Y-5141000D1*
X-4046090Y-5140372D1*
X-4049137Y-5139337D1*
X-4052023Y-5137914D1*
X-4054699Y-5136126D1*
X-4057118Y-5134005D1*
X-4059240Y-5131586D1*
X-4061028Y-5128910D1*
X-4062451Y-5126024D1*
X-4063485Y-5122977D1*
X-4064113Y-5119821D1*
X-4064323Y-5116610D1*
D1*
G37*
X-4336850Y-6686367D2*
D13*
Y-6952367D1*
X-1964850D1*
Y-6686367D1*
X-4336850D1*
G36*
X-4191450Y-6643767D2*
X-4191240Y-6640556D1*
X-4190612Y-6637400D1*
X-4189577Y-6634353D1*
X-4188154Y-6631467D1*
X-4186366Y-6628791D1*
X-4184245Y-6626372D1*
X-4181826Y-6624250D1*
X-4179150Y-6622462D1*
X-4176264Y-6621039D1*
X-4173217Y-6620005D1*
X-4170061Y-6619377D1*
X-4166850Y-6619167D1*
X-4163639Y-6619377D1*
X-4160483Y-6620005D1*
X-4157436Y-6621039D1*
X-4154550Y-6622462D1*
X-4151874Y-6624250D1*
X-4149455Y-6626372D1*
X-4147334Y-6628791D1*
X-4145546Y-6631467D1*
X-4144123Y-6634353D1*
X-4143088Y-6637400D1*
X-4142460Y-6640556D1*
X-4142250Y-6643767D1*
D1*
X-4142460Y-6646978D1*
X-4143088Y-6650134D1*
X-4144123Y-6653181D1*
X-4145546Y-6656067D1*
X-4147334Y-6658742D1*
X-4149455Y-6661161D1*
X-4151874Y-6663283D1*
X-4154550Y-6665071D1*
X-4157436Y-6666494D1*
X-4160483Y-6667528D1*
X-4163639Y-6668156D1*
X-4166850Y-6668367D1*
X-4170061Y-6668156D1*
X-4173217Y-6667528D1*
X-4176264Y-6666494D1*
X-4179150Y-6665071D1*
X-4181826Y-6663283D1*
X-4184245Y-6661161D1*
X-4186366Y-6658742D1*
X-4188154Y-6656067D1*
X-4189577Y-6653181D1*
X-4190612Y-6650134D1*
X-4191240Y-6646978D1*
X-4191450Y-6643767D1*
D1*
G37*
X-603500Y-722733D2*
D13*
X-824793D1*
X-603500Y-122733D2*
X-382220D1*
X-778500Y-422733D2*
G02X-778500Y-422733I175000J0D01*
G01*
X-800503Y-243667D2*
X-798810Y-240233D1*
X-796267Y-236427D1*
X-793250Y-232983D1*
X-789807Y-229967D1*
X-786000Y-227423D1*
X-781893Y-225397D1*
X-777560Y-223927D1*
X-773070Y-223033D1*
X-768500Y-222733D1*
X-763930Y-223033D1*
X-759440Y-223927D1*
X-755107Y-225397D1*
X-751000Y-227423D1*
X-747193Y-229967D1*
X-743750Y-232983D1*
X-740733Y-236427D1*
X-738190Y-240233D1*
X-736163Y-244340D1*
X-734693Y-248673D1*
X-733800Y-253163D1*
X-733500Y-257733D1*
X-733800Y-262303D1*
X-734693Y-266793D1*
X-736163Y-271127D1*
X-738190Y-275233D1*
X-740733Y-279040D1*
X-743750Y-282483D1*
X-747193Y-285500D1*
X-751000Y-288043D1*
X-755107Y-290070D1*
X-759440Y-291540D1*
X-763930Y-292433D1*
X-768500Y-292733D1*
X-773070Y-292433D1*
X-777560Y-291540D1*
X-781893Y-290070D1*
X-786000Y-288043D1*
X-789807Y-285500D1*
X-793250Y-282483D1*
X-796267Y-279040D1*
X-798810Y-275233D1*
X-800503Y-271800D1*
X-473500Y-257733D2*
G02X-473500Y-257733I35000J0D01*
G01*
Y-587733D2*
G02X-473500Y-587733I35000J0D01*
G01*
X-803500D2*
G02X-803500Y-587733I35000J0D01*
G01*
X-903500Y-522203D2*
Y-325730D1*
X-800503Y-122733D2*
X-603500D1*
X-303500Y-323263D2*
Y-522203D1*
X-382207Y-722733D2*
X-603500D1*
G36*
X-1100500Y-197733D2*
X-1100286Y-194470D1*
X-1099648Y-191263D1*
X-1098597Y-188166D1*
X-1097151Y-185233D1*
X-1095334Y-182514D1*
X-1093178Y-180056D1*
X-1090719Y-177899D1*
X-1088000Y-176083D1*
X-1085067Y-174636D1*
X-1081970Y-173585D1*
X-1078763Y-172947D1*
X-1075500Y-172733D1*
X-1072237Y-172947D1*
X-1069030Y-173585D1*
X-1065933Y-174636D1*
X-1063000Y-176083D1*
X-1060281Y-177899D1*
X-1057822Y-180056D1*
X-1055666Y-182514D1*
X-1053849Y-185233D1*
X-1052403Y-188166D1*
X-1051352Y-191263D1*
X-1050714Y-194470D1*
X-1050500Y-197733D1*
D1*
X-1050714Y-200996D1*
X-1051352Y-204204D1*
X-1052403Y-207300D1*
X-1053849Y-210233D1*
X-1055666Y-212952D1*
X-1057822Y-215411D1*
X-1060281Y-217567D1*
X-1063000Y-219384D1*
X-1065933Y-220830D1*
X-1069030Y-221881D1*
X-1072237Y-222519D1*
X-1075500Y-222733D1*
X-1078763Y-222519D1*
X-1081970Y-221881D1*
X-1085067Y-220830D1*
X-1088000Y-219384D1*
X-1090719Y-217567D1*
X-1093178Y-215411D1*
X-1095334Y-212952D1*
X-1097151Y-210233D1*
X-1098597Y-207300D1*
X-1099648Y-204204D1*
X-1100286Y-200996D1*
X-1100500Y-197733D1*
D1*
G37*
X-603500Y-1722733D2*
D13*
X-824793D1*
X-603500Y-1122733D2*
X-382220D1*
X-778500Y-1422733D2*
G02X-778500Y-1422733I175000J0D01*
G01*
X-800503Y-1243667D2*
X-798810Y-1240233D1*
X-796267Y-1236427D1*
X-793250Y-1232983D1*
X-789807Y-1229967D1*
X-786000Y-1227423D1*
X-781893Y-1225397D1*
X-777560Y-1223927D1*
X-773070Y-1223033D1*
X-768500Y-1222733D1*
X-763930Y-1223033D1*
X-759440Y-1223927D1*
X-755107Y-1225397D1*
X-751000Y-1227423D1*
X-747193Y-1229967D1*
X-743750Y-1232983D1*
X-740733Y-1236427D1*
X-738190Y-1240233D1*
X-736163Y-1244340D1*
X-734693Y-1248673D1*
X-733800Y-1253163D1*
X-733500Y-1257733D1*
X-733800Y-1262303D1*
X-734693Y-1266793D1*
X-736163Y-1271127D1*
X-738190Y-1275233D1*
X-740733Y-1279040D1*
X-743750Y-1282483D1*
X-747193Y-1285500D1*
X-751000Y-1288043D1*
X-755107Y-1290070D1*
X-759440Y-1291540D1*
X-763930Y-1292433D1*
X-768500Y-1292733D1*
X-773070Y-1292433D1*
X-777560Y-1291540D1*
X-781893Y-1290070D1*
X-786000Y-1288043D1*
X-789807Y-1285500D1*
X-793250Y-1282483D1*
X-796267Y-1279040D1*
X-798810Y-1275233D1*
X-800503Y-1271800D1*
X-473500Y-1257733D2*
G02X-473500Y-1257733I35000J0D01*
G01*
Y-1587733D2*
G02X-473500Y-1587733I35000J0D01*
G01*
X-803500D2*
G02X-803500Y-1587733I35000J0D01*
G01*
X-903500Y-1522203D2*
Y-1325730D1*
X-800503Y-1122733D2*
X-603500D1*
X-303500Y-1323263D2*
Y-1522203D1*
X-382207Y-1722733D2*
X-603500D1*
G36*
X-1100500Y-1197733D2*
X-1100286Y-1194470D1*
X-1099648Y-1191263D1*
X-1098597Y-1188166D1*
X-1097151Y-1185233D1*
X-1095334Y-1182514D1*
X-1093178Y-1180056D1*
X-1090719Y-1177899D1*
X-1088000Y-1176083D1*
X-1085067Y-1174636D1*
X-1081970Y-1173585D1*
X-1078763Y-1172947D1*
X-1075500Y-1172733D1*
X-1072237Y-1172947D1*
X-1069030Y-1173585D1*
X-1065933Y-1174636D1*
X-1063000Y-1176083D1*
X-1060281Y-1177899D1*
X-1057822Y-1180056D1*
X-1055666Y-1182514D1*
X-1053849Y-1185233D1*
X-1052403Y-1188166D1*
X-1051352Y-1191263D1*
X-1050714Y-1194470D1*
X-1050500Y-1197733D1*
D1*
X-1050714Y-1200996D1*
X-1051352Y-1204204D1*
X-1052403Y-1207300D1*
X-1053849Y-1210233D1*
X-1055666Y-1212952D1*
X-1057822Y-1215411D1*
X-1060281Y-1217567D1*
X-1063000Y-1219384D1*
X-1065933Y-1220830D1*
X-1069030Y-1221881D1*
X-1072237Y-1222519D1*
X-1075500Y-1222733D1*
X-1078763Y-1222519D1*
X-1081970Y-1221881D1*
X-1085067Y-1220830D1*
X-1088000Y-1219384D1*
X-1090719Y-1217567D1*
X-1093178Y-1215411D1*
X-1095334Y-1212952D1*
X-1097151Y-1210233D1*
X-1098597Y-1207300D1*
X-1099648Y-1204204D1*
X-1100286Y-1200996D1*
X-1100500Y-1197733D1*
D1*
G37*
X-603500Y-2722733D2*
D13*
X-824793D1*
X-603500Y-2122733D2*
X-382220D1*
X-778500Y-2422733D2*
G02X-778500Y-2422733I175000J0D01*
G01*
X-800503Y-2243667D2*
X-798810Y-2240233D1*
X-796267Y-2236427D1*
X-793250Y-2232983D1*
X-789807Y-2229967D1*
X-786000Y-2227423D1*
X-781893Y-2225397D1*
X-777560Y-2223927D1*
X-773070Y-2223033D1*
X-768500Y-2222733D1*
X-763930Y-2223033D1*
X-759440Y-2223927D1*
X-755107Y-2225397D1*
X-751000Y-2227423D1*
X-747193Y-2229967D1*
X-743750Y-2232983D1*
X-740733Y-2236427D1*
X-738190Y-2240233D1*
X-736163Y-2244340D1*
X-734693Y-2248673D1*
X-733800Y-2253163D1*
X-733500Y-2257733D1*
X-733800Y-2262303D1*
X-734693Y-2266793D1*
X-736163Y-2271127D1*
X-738190Y-2275233D1*
X-740733Y-2279040D1*
X-743750Y-2282483D1*
X-747193Y-2285500D1*
X-751000Y-2288043D1*
X-755107Y-2290070D1*
X-759440Y-2291540D1*
X-763930Y-2292433D1*
X-768500Y-2292733D1*
X-773070Y-2292433D1*
X-777560Y-2291540D1*
X-781893Y-2290070D1*
X-786000Y-2288043D1*
X-789807Y-2285500D1*
X-793250Y-2282483D1*
X-796267Y-2279040D1*
X-798810Y-2275233D1*
X-800503Y-2271800D1*
X-473500Y-2257733D2*
G02X-473500Y-2257733I35000J0D01*
G01*
Y-2587733D2*
G02X-473500Y-2587733I35000J0D01*
G01*
X-803500D2*
G02X-803500Y-2587733I35000J0D01*
G01*
X-903500Y-2522203D2*
Y-2325730D1*
X-800503Y-2122733D2*
X-603500D1*
X-303500Y-2323263D2*
Y-2522203D1*
X-382207Y-2722733D2*
X-603500D1*
G36*
X-1100500Y-2197733D2*
X-1100286Y-2194470D1*
X-1099648Y-2191263D1*
X-1098597Y-2188166D1*
X-1097151Y-2185233D1*
X-1095334Y-2182514D1*
X-1093178Y-2180056D1*
X-1090719Y-2177899D1*
X-1088000Y-2176083D1*
X-1085067Y-2174636D1*
X-1081970Y-2173585D1*
X-1078763Y-2172947D1*
X-1075500Y-2172733D1*
X-1072237Y-2172947D1*
X-1069030Y-2173585D1*
X-1065933Y-2174636D1*
X-1063000Y-2176083D1*
X-1060281Y-2177899D1*
X-1057822Y-2180056D1*
X-1055666Y-2182514D1*
X-1053849Y-2185233D1*
X-1052403Y-2188166D1*
X-1051352Y-2191263D1*
X-1050714Y-2194470D1*
X-1050500Y-2197733D1*
D1*
X-1050714Y-2200996D1*
X-1051352Y-2204204D1*
X-1052403Y-2207300D1*
X-1053849Y-2210233D1*
X-1055666Y-2212952D1*
X-1057822Y-2215411D1*
X-1060281Y-2217567D1*
X-1063000Y-2219384D1*
X-1065933Y-2220830D1*
X-1069030Y-2221881D1*
X-1072237Y-2222519D1*
X-1075500Y-2222733D1*
X-1078763Y-2222519D1*
X-1081970Y-2221881D1*
X-1085067Y-2220830D1*
X-1088000Y-2219384D1*
X-1090719Y-2217567D1*
X-1093178Y-2215411D1*
X-1095334Y-2212952D1*
X-1097151Y-2210233D1*
X-1098597Y-2207300D1*
X-1099648Y-2204204D1*
X-1100286Y-2200996D1*
X-1100500Y-2197733D1*
D1*
G37*
X-756753Y-3296080D2*
D10*
X-5856533D1*
Y-4576020D1*
X-756753D2*
X-5856533D1*
X-746533Y-3296080D2*
Y-3856033D1*
Y-4576020D2*
Y-4016067D1*
Y-3856033D2*
G03X-746533Y-4016067I301J-80017D01*
G01*
X-6253470Y-3365990D2*
Y-7085990D1*
X-7533357D2*
X-6253470D1*
X-7533357Y-3365990D2*
Y-7085990D1*
Y-3365990D2*
X-6973407D1*
X-6253470D2*
X-6813420D1*
X-6973407D2*
G03X-6813420Y-3365990I79993J13D01*
G01*
X-5074633Y-5379223D2*
Y-7339223D1*
X-5594653D2*
X-5074633D1*
X-5594653Y-5379223D2*
Y-7339223D1*
Y-5379223D2*
X-5394653D1*
X-5074633D2*
X-5274633D1*
X-5394653D2*
G03X-5274633Y-5379223I60010J33D01*
G01*
X-4196670Y-5782190D2*
X-1596670D1*
Y-6302210D2*
Y-5782190D1*
X-4196670Y-6302210D2*
X-1596670D1*
X-4196670D2*
Y-6102210D1*
Y-5782190D2*
Y-5982190D1*
Y-6102210D2*
G03X-4196670Y-5982190I-210J60010D01*
G01*
X-4322480Y-7334217D2*
X-1722480D1*
Y-7854237D2*
Y-7334217D1*
X-4322480Y-7854237D2*
X-1722480D1*
X-4322480D2*
Y-7654237D1*
Y-7334217D2*
Y-7534217D1*
Y-7654237D2*
G03X-4322480Y-7534217I-210J60010D01*
G01*
X-4255250Y-74733D2*
Y-2674733D1*
X-1655250D1*
Y-74733D1*
X-4255250D1*
X-7097000Y-511000D2*
Y-1241000D1*
X-6927000Y-1371000D2*
X-6617000D1*
X-5577000Y-1251000D2*
Y-511000D1*
G36*
X-6667000Y-1436000D2*
X-6666786Y-1432737D1*
X-6666148Y-1429530D1*
X-6665097Y-1426433D1*
X-6663651Y-1423500D1*
X-6661834Y-1420781D1*
X-6659678Y-1418322D1*
X-6657219Y-1416166D1*
X-6654500Y-1414349D1*
X-6651567Y-1412903D1*
X-6648470Y-1411852D1*
X-6645263Y-1411214D1*
X-6642000Y-1411000D1*
X-6638737Y-1411214D1*
X-6635530Y-1411852D1*
X-6632433Y-1412903D1*
X-6629500Y-1414349D1*
X-6626781Y-1416166D1*
X-6624322Y-1418322D1*
X-6622166Y-1420781D1*
X-6620349Y-1423500D1*
X-6618903Y-1426433D1*
X-6617852Y-1429530D1*
X-6617214Y-1432737D1*
X-6617000Y-1436000D1*
D1*
X-6617214Y-1439263D1*
X-6617852Y-1442470D1*
X-6618903Y-1445567D1*
X-6620349Y-1448500D1*
X-6622166Y-1451219D1*
X-6624322Y-1453678D1*
X-6626781Y-1455834D1*
X-6629500Y-1457651D1*
X-6632433Y-1459097D1*
X-6635530Y-1460148D1*
X-6638737Y-1460786D1*
X-6642000Y-1461000D1*
X-6645263Y-1460786D1*
X-6648470Y-1460148D1*
X-6651567Y-1459097D1*
X-6654500Y-1457651D1*
X-6657219Y-1455834D1*
X-6659678Y-1453678D1*
X-6661834Y-1451219D1*
X-6663651Y-1448500D1*
X-6665097Y-1445567D1*
X-6666148Y-1442470D1*
X-6666786Y-1439263D1*
X-6667000Y-1436000D1*
D1*
G37*
X-5318040Y-2532750D2*
D13*
X-5331047D1*
X-5583043D2*
X-5616053D1*
X-5753047D2*
X-5859050D1*
X-5996043D2*
X-6109047D1*
X-6246040D2*
X-6359050D1*
X-6496043D2*
X-6609047D1*
X-6746040D2*
X-6859047D1*
X-6996040D2*
X-7109050D1*
X-7246043D2*
X-7359047D1*
X-7496040D2*
X-7541617D1*
X-7595113Y-2273953D2*
Y-1976750D1*
X-7825113Y-1776750D1*
Y-440947D1*
Y-123953D2*
Y-32750D1*
X-5165113D1*
Y-123953D1*
Y-440947D2*
Y-2273950D1*
X-762000Y-3301983D2*
X-5842000D1*
X-762000Y-4571983D2*
X-5842000D1*
X-4171600Y-6310183D2*
X-1619600D1*
Y-5780183D2*
X-4171600D1*
X-4298600Y-7859583D2*
X-1746600D1*
Y-7329583D2*
X-4298600D1*
X-5599000Y-5454983D2*
Y-7244983D1*
X-5069000D2*
Y-5454983D1*
X-7565500Y-8492733D2*
D22*
Y-8314953D1*
Y-8437173D2*
X-7458830Y-8314953D1*
X-7525500Y-8403843D2*
X-7458830Y-8492733D1*
X-7316610Y-8466063D2*
Y-8421623D1*
X-7329940Y-8399403D1*
X-7356610Y-8392733D1*
X-7383280Y-8399403D1*
X-7396610Y-8421623D1*
Y-8466063D1*
X-7383280Y-8488293D1*
X-7356610Y-8492733D1*
X-7329940Y-8488293D1*
X-7316610Y-8466063D1*
X-7254390Y-8492733D2*
Y-8392733D1*
Y-8437173D2*
X-7174390D1*
Y-8492733D2*
Y-8392733D1*
X-7112170D2*
X-7032170D1*
X-7072170Y-8492733D2*
Y-8392733D1*
X-6969950D2*
Y-8537173D1*
Y-8459403D2*
X-6956620Y-8488293D1*
X-6929950Y-8492733D1*
X-6903280Y-8488293D1*
X-6889950Y-8466063D1*
Y-8421623D1*
X-6903280Y-8399403D1*
X-6929950Y-8392733D1*
X-6956620Y-8399403D1*
X-6969950Y-8426063D1*
X-6747730Y-8466063D2*
Y-8421623D1*
X-6761060Y-8399403D1*
X-6787730Y-8392733D1*
X-6814400Y-8399403D1*
X-6827730Y-8421623D1*
Y-8466063D1*
X-6814400Y-8488293D1*
X-6787730Y-8492733D1*
X-6761060Y-8488293D1*
X-6747730Y-8466063D1*
X-6685510Y-8492733D2*
X-6672180Y-8481623D1*
Y-8414953D1*
X-6645510Y-8392733D1*
X-6605510D1*
Y-8492733D1*
X-6543290D2*
X-6529960Y-8481623D1*
Y-8414953D1*
X-6503290Y-8392733D1*
X-6463290D1*
Y-8492733D1*
X-6321070Y-8481623D2*
X-6342400Y-8492733D1*
X-6369070D1*
X-6395740Y-8481623D1*
X-6401070Y-8459403D1*
Y-8421623D1*
X-6387740Y-8399403D1*
X-6361070Y-8392733D1*
X-6334400Y-8399403D1*
X-6321070Y-8414953D1*
Y-8437173D1*
X-6401070D1*
X-6258850Y-8392733D2*
Y-8537173D1*
Y-8459403D2*
X-6245520Y-8488293D1*
X-6218850Y-8492733D1*
X-6192180Y-8488293D1*
X-6178850Y-8466063D1*
Y-8421623D1*
X-6192180Y-8399403D1*
X-6218850Y-8392733D1*
X-6245520Y-8399403D1*
X-6258850Y-8426063D1*
X-6051740Y-8414953D2*
X-5945070D1*
X-5737960Y-8492733D2*
Y-8314953D1*
X-5817960Y-8426063D1*
Y-8448293D1*
X-5711290D1*
X-5477510Y-8348293D2*
Y-8459403D1*
X-5490850Y-8481623D1*
X-5517510Y-8492733D1*
X-5544180D1*
X-5570850Y-8481623D1*
X-5584180Y-8459403D1*
Y-8348293D1*
X-5570850Y-8326063D1*
X-5544180Y-8314953D1*
X-5517510D1*
X-5490850Y-8326063D1*
X-5477510Y-8348293D1*
X-5404620Y-8492733D2*
X-5415290D1*
Y-8483843D1*
X-5404620D1*
Y-8492733D1*
X-5415290D1*
X-5342400D2*
Y-8314953D1*
X-5235730Y-8492733D2*
Y-8314953D1*
X-5342400Y-8403843D2*
X-5235730D1*
X-5162840Y-8492733D2*
X-5173510D1*
Y-8483843D1*
X-5162840D1*
Y-8492733D1*
X-5173510D1*
X-5100620D2*
Y-8314953D1*
X-4993950D1*
Y-8337173D1*
X-4921060Y-8492733D2*
X-4931730D1*
Y-8483843D1*
X-4921060D1*
Y-8492733D1*
X-4931730D1*
X-4858840D2*
Y-8314953D1*
X-4792170Y-8426063D1*
X-4725510Y-8314953D1*
Y-8492733D1*
X-4652620D2*
X-4663290D1*
Y-8483843D1*
X-4652620D1*
Y-8492733D1*
X-4663290D1*
X-4590400D2*
Y-8470513D1*
X-4457070D1*
Y-8492733D1*
X-4563730Y-8470513D2*
Y-8348293D1*
X-4523730Y-8314953D1*
X-4483730D1*
Y-8470513D1*
X-4384180Y-8492733D2*
X-4394850D1*
Y-8483843D1*
X-4384180D1*
Y-8492733D1*
X-4394850D1*
X-4257070D2*
Y-8481623D1*
X-4177070D1*
Y-8492733D1*
X-4243740Y-8481623D2*
Y-8414953D1*
X-4217070Y-8392733D1*
X-4190400D1*
Y-8481623D1*
X-4114850Y-8492733D2*
X-4101520Y-8481623D1*
Y-8414953D1*
X-4074850Y-8392733D1*
X-4034850D1*
Y-8492733D1*
X-3972630D2*
X-3919300Y-8437173D1*
X-3892630D1*
X-3945960D1*
X-3959300Y-8426063D1*
Y-8403843D1*
X-3945960Y-8392733D1*
X-3892630D1*
Y-8492733D1*
X-3700630D2*
X-3673960D1*
X-3647300Y-8470513D1*
X-3567300Y-8314953D1*
X-3700630D2*
X-3633960Y-8426063D1*
X-3505080Y-8492733D2*
Y-8314953D1*
Y-8437173D2*
X-3398410Y-8314953D1*
X-3465080Y-8403843D2*
X-3398410Y-8492733D1*
X-3336190D2*
Y-8314953D1*
X-3229520Y-8492733D2*
Y-8314953D1*
X-3336190Y-8403843D2*
X-3229520D1*
X-3167300Y-8314953D2*
Y-8492733D1*
X-3033970D1*
Y-8514953D1*
X-3060630Y-8314953D2*
Y-8492733D1*
X-2906860Y-8337173D2*
X-2880190Y-8314953D1*
X-2826860D1*
X-2800190Y-8337173D1*
Y-8470513D1*
X-2826860Y-8492733D1*
X-2880190D1*
X-2906860Y-8470513D1*
X-2866860Y-8403843D2*
X-2800190D1*
X-2737970Y-8492733D2*
X-2724640Y-8481623D1*
Y-8414953D1*
X-2697970Y-8392733D1*
X-2657970D1*
Y-8492733D1*
X-2585080D2*
X-2595750D1*
Y-8483843D1*
X-2585080D1*
Y-8492733D1*
X-2595750D1*
X-2351300Y-8348293D2*
Y-8459403D1*
X-2364640Y-8481623D1*
X-2391300Y-8492733D1*
X-2417970D1*
X-2444640Y-8481623D1*
X-2457970Y-8459403D1*
Y-8348293D1*
X-2444640Y-8326063D1*
X-2417970Y-8314953D1*
X-2391300D1*
X-2364640Y-8326063D1*
X-2351300Y-8348293D1*
X-2182410Y-8314953D2*
X-2289080D1*
Y-8392733D1*
X-2275750D1*
X-2249080Y-8381623D1*
X-2222410D1*
X-2195750Y-8392733D1*
X-2182410Y-8414953D1*
Y-8459403D1*
X-2195750Y-8481623D1*
X-2222410Y-8492733D1*
X-2249080D1*
X-2275750Y-8481623D1*
X-2289080Y-8459403D1*
X-2120190Y-8381623D2*
X-2053520Y-8314953D1*
Y-8492733D1*
X-1991300Y-8381623D2*
X-1924630Y-8314953D1*
Y-8492733D1*
X-1284260Y-4906993D2*
X-1328710D1*
X-1284260Y-4946993D2*
X-1328710D1*
X-1462040Y-5009213D2*
X-1284260D1*
X-1406480D2*
X-1284260Y-5115883D1*
X-1373150Y-5049213D2*
X-1462040Y-5115883D1*
Y-5178103D2*
X-1284260Y-5244773D1*
X-1462040Y-5311433D1*
X-1395370Y-5204773D2*
Y-5284773D1*
X-1462040Y-5373653D2*
X-1284260D1*
X-1406480D2*
X-1284260Y-5480323D1*
X-1373150Y-5413653D2*
X-1462040Y-5480323D1*
Y-5542543D2*
X-1284260Y-5609213D1*
X-1462040Y-5675873D1*
X-1395370Y-5569213D2*
Y-5649213D1*
X-1284260Y-5738093D2*
X-1462040Y-5804763D1*
X-1284260Y-5871423D1*
X-1462040Y-6026973D2*
Y-5933643D1*
X-1284260D1*
Y-6026973D1*
X-1373150Y-5933643D2*
Y-6026973D1*
X-1284260Y-6089193D2*
X-1328710D1*
X-1284260Y-6129193D2*
X-1328710D1*
X-7072777Y-7437933D2*
X-7028327Y-7260153D1*
X-6983887Y-7437933D1*
X-7054997Y-7371263D2*
X-7001667D1*
X-6921667Y-7437933D2*
Y-7337933D1*
X-6886107D1*
X-6877217Y-7349043D1*
Y-7371263D1*
X-6886107Y-7382373D1*
X-6921667D1*
X-6886107D2*
X-6868327Y-7404593D1*
Y-7426813D1*
X-6877217Y-7437933D1*
X-6921667D1*
X-6806117Y-7337933D2*
X-6752777D1*
X-6779447Y-7437933D2*
Y-7337933D1*
X-6637227Y-7411263D2*
Y-7366813D1*
X-6646117Y-7344593D1*
X-6663897Y-7337933D1*
X-6681677Y-7344593D1*
X-6690567Y-7366813D1*
Y-7411263D1*
X-6681677Y-7433483D1*
X-6663897Y-7437933D1*
X-6646117Y-7433483D1*
X-6637227Y-7411263D1*
X-6575017Y-7337933D2*
Y-7482373D1*
Y-7404593D2*
X-6566127Y-7433483D1*
X-6548347Y-7437933D1*
X-6530567Y-7433483D1*
X-6521677Y-7411263D1*
Y-7366813D1*
X-6530567Y-7344593D1*
X-6548347Y-7337933D1*
X-6566127Y-7344593D1*
X-6575017Y-7371263D1*
X-6459467Y-7337933D2*
Y-7437933D1*
X-6432797D1*
X-6415017Y-7415703D1*
Y-7393483D1*
X-6432797Y-7371263D1*
X-6459467D1*
X-6379467Y-7337933D2*
Y-7437933D1*
X-6317247D2*
X-6310137D1*
Y-7429043D1*
X-6317247D1*
Y-7437933D1*
X-6310137Y-7304593D2*
X-6317247D1*
Y-7295703D1*
X-6310137D1*
Y-7304593D1*
X-7738790Y-7731140D2*
X-7694340Y-7553360D1*
X-7649900Y-7731140D1*
X-7721010Y-7664470D2*
X-7667680D1*
X-7587680Y-7731140D2*
X-7578790Y-7720020D1*
Y-7653360D1*
X-7561010Y-7631140D1*
X-7534340D1*
Y-7731140D1*
X-7418790Y-7720020D2*
X-7433020Y-7731140D1*
X-7450790D1*
X-7468570Y-7720020D1*
X-7472130Y-7697800D1*
Y-7660020D1*
X-7463240Y-7637800D1*
X-7445460Y-7631140D1*
X-7427680Y-7637800D1*
X-7418790Y-7653360D1*
Y-7675580D1*
X-7472130D1*
X-7356580Y-7731140D2*
Y-7631140D1*
X-7329910Y-7664470D2*
X-7303240Y-7731140D1*
X-7356580Y-7686690D2*
X-7303240Y-7631140D1*
X-7196580Y-7637800D2*
X-7214360Y-7631140D1*
X-7232140Y-7637800D1*
X-7241030Y-7660020D1*
Y-7704470D1*
X-7232140Y-7726690D1*
X-7214360Y-7731140D1*
X-7196580Y-7726690D1*
X-7081030Y-7720020D2*
X-7095260Y-7731140D1*
X-7113030D1*
X-7130810Y-7720020D1*
X-7134370Y-7697800D1*
Y-7660020D1*
X-7125480Y-7637800D1*
X-7107700Y-7631140D1*
X-7089920Y-7637800D1*
X-7081030Y-7653360D1*
Y-7675580D1*
X-7134370D1*
X-7018820Y-7631140D2*
Y-7731140D1*
X-6965480Y-7631140D1*
Y-7731140D1*
X-6992150Y-7620020D2*
Y-7608910D1*
X-6839270Y-7731140D2*
Y-7553360D1*
X-6768160D1*
Y-7575580D1*
X-6705940Y-7631140D2*
X-6670380Y-7731140D1*
X-6634830Y-7631140D1*
X-6670380Y-7731140D2*
X-6679270Y-7764470D1*
X-6688160Y-7775580D1*
X-6697050D1*
X-6572610Y-7631140D2*
Y-7775580D1*
Y-7697800D2*
X-6563720Y-7726690D1*
X-6545940Y-7731140D1*
X-6528160Y-7726690D1*
X-6519270Y-7704470D1*
Y-7660020D1*
X-6528160Y-7637800D1*
X-6545940Y-7631140D1*
X-6563720Y-7637800D1*
X-6572610Y-7664470D1*
X-6403720Y-7704470D2*
Y-7660020D1*
X-6412610Y-7637800D1*
X-6430390Y-7631140D1*
X-6448170Y-7637800D1*
X-6457060Y-7660020D1*
Y-7704470D1*
X-6448170Y-7726690D1*
X-6430390Y-7731140D1*
X-6412610Y-7726690D1*
X-6403720Y-7704470D1*
X-6341510Y-7731140D2*
Y-7631140D1*
X-6305950D1*
X-6297060Y-7642250D1*
Y-7664470D1*
X-6305950Y-7675580D1*
X-6341510D1*
X-6305950D2*
X-6288170Y-7697800D1*
Y-7720020D1*
X-6297060Y-7731140D1*
X-6341510D1*
X-610160Y-4378263D2*
X-432380D1*
Y-4422703D1*
X-443490Y-4440483D1*
X-465710Y-4449373D1*
X-487930D1*
X-510160Y-4440483D1*
X-521270Y-4422703D1*
Y-4378263D1*
X-599040Y-4564923D2*
X-610160Y-4550703D1*
Y-4532923D1*
X-599040Y-4515143D1*
X-576820Y-4511593D1*
X-539040D1*
X-516820Y-4520473D1*
X-510160Y-4538253D1*
X-516820Y-4556033D1*
X-532380Y-4564923D1*
X-554600D1*
Y-4511593D1*
X-610160Y-4627143D2*
X-510160D1*
Y-4680473D1*
X-610160D1*
Y-4742693D2*
X-599040Y-4751573D1*
X-532380D1*
X-510160Y-4769353D1*
Y-4796023D1*
X-610160D1*
X-510160Y-4858243D2*
X-610160D1*
X-510160Y-4911573D1*
X-610160D1*
Y-4973793D2*
X-510160D1*
X-543490Y-5000453D2*
X-610160Y-5027123D1*
X-565710Y-4973793D2*
X-510160Y-5027123D1*
X-521270Y-5089343D2*
X-510160Y-5107113D1*
Y-5128453D1*
X-532380Y-5142673D1*
X-610160D1*
X-576820D2*
X-554600Y-5133783D1*
X-550160Y-5116003D1*
X-554600Y-5098233D1*
X-576820Y-5089343D1*
X-599040Y-5092893D1*
X-610160Y-5107113D1*
Y-5116003D1*
Y-5119563D1*
X-599040Y-5133783D1*
X-576820Y-5142673D1*
X-583490Y-5322223D2*
X-539040D1*
X-516820Y-5313333D1*
X-510160Y-5295553D1*
X-516820Y-5277773D1*
X-539040Y-5268893D1*
X-583490D1*
X-605710Y-5277773D1*
X-610160Y-5295553D1*
X-605710Y-5313333D1*
X-583490Y-5322223D1*
X-510160Y-5384443D2*
Y-5437773D1*
X-610160Y-5411103D2*
X-510160D1*
X-610160Y-5499993D2*
Y-5507103D1*
X-601270D1*
Y-5499993D1*
X-610160D1*
X-476820Y-5507103D2*
Y-5499993D1*
X-467930D1*
Y-5507103D1*
X-476820D1*
X-853040Y-5019903D2*
X-864160Y-5005683D1*
Y-4987903D1*
X-853040Y-4970123D1*
X-830820Y-4966573D1*
X-793040D1*
X-770820Y-4975463D1*
X-764160Y-4993233D1*
X-770820Y-5011013D1*
X-786380Y-5019903D1*
X-808600D1*
Y-4966573D1*
X-864160Y-5082123D2*
X-686380D1*
X-853040Y-5197673D2*
X-864160Y-5183453D1*
Y-5165673D1*
X-853040Y-5147893D1*
X-830820Y-5144343D1*
X-793040D1*
X-770820Y-5153223D1*
X-764160Y-5171003D1*
X-770820Y-5188783D1*
X-786380Y-5197673D1*
X-808600D1*
Y-5144343D1*
X-770820Y-5304333D2*
X-764160Y-5286553D1*
X-770820Y-5268783D1*
X-793040Y-5259893D1*
X-837490D1*
X-859710Y-5268783D1*
X-864160Y-5286553D1*
X-859710Y-5304333D1*
X-686380Y-5384323D2*
X-853040D1*
X-864160Y-5393213D1*
X-859710Y-5402103D1*
X-764160Y-5366553D2*
Y-5402103D1*
X-864160Y-5464333D2*
X-764160D1*
X-786380D2*
X-764160Y-5482103D1*
Y-5499883D1*
X-837490Y-5615443D2*
X-793040D1*
X-770820Y-5606553D1*
X-764160Y-5588773D1*
X-770820Y-5571003D1*
X-793040Y-5562113D1*
X-837490D1*
X-859710Y-5571003D1*
X-864160Y-5588773D1*
X-859710Y-5606553D1*
X-837490Y-5615443D1*
X-853040Y-5677663D2*
X-864160Y-5695433D1*
Y-5713213D1*
X-853040Y-5730993D1*
X-830820D1*
X-819710Y-5722103D1*
X-808600Y-5686543D1*
X-797490Y-5677663D1*
X-775270D1*
X-764160Y-5695433D1*
Y-5713213D1*
X-775270Y-5730993D1*
X-770820Y-5837653D2*
X-764160Y-5819873D1*
X-770820Y-5802103D1*
X-793040Y-5793213D1*
X-837490D1*
X-859710Y-5802103D1*
X-864160Y-5819873D1*
X-859710Y-5837653D1*
X-775270Y-5899873D2*
X-764160Y-5917643D1*
Y-5938983D1*
X-786380Y-5953203D1*
X-864160D1*
X-830820D2*
X-808600Y-5944313D1*
X-804160Y-5926533D1*
X-808600Y-5908763D1*
X-830820Y-5899873D1*
X-853040Y-5903423D1*
X-864160Y-5917643D1*
Y-5926533D1*
Y-5930093D1*
X-853040Y-5944313D1*
X-830820Y-5953203D1*
X-686380Y-6033193D2*
X-853040D1*
X-864160Y-6042083D1*
X-859710Y-6050973D1*
X-764160Y-6015423D2*
Y-6050973D1*
X-1167500Y-4948733D2*
X-989720D1*
Y-4993173D1*
X-1000830Y-5010953D1*
X-1023060Y-5019843D1*
X-1045280D1*
X-1067500Y-5010953D1*
X-1078610Y-4993173D1*
X-1089720Y-5010953D1*
X-1111940Y-5019843D1*
X-1134170D1*
X-1156390Y-5010953D1*
X-1167500Y-4993173D1*
Y-4948733D1*
X-1078610D2*
Y-4993173D1*
X-1167500Y-5144283D2*
Y-5082063D1*
X-989720D1*
Y-5144283D1*
X-1078610Y-5082063D2*
Y-5144283D1*
X-1167500Y-5206503D2*
X-989720D1*
Y-5250943D1*
X-1000830Y-5268723D1*
X-1023060Y-5277613D1*
X-1045280D1*
X-1067500Y-5268723D1*
X-1078610Y-5250943D1*
Y-5206503D1*
X-1134170Y-5410943D2*
X-1156390Y-5402053D1*
X-1167500Y-5384273D1*
Y-5366503D1*
X-1156390Y-5348723D1*
X-1134170Y-5339833D1*
X-1023060D1*
X-1000830Y-5348723D1*
X-989720Y-5366503D1*
Y-5384273D1*
X-1000830Y-5402053D1*
X-1023060Y-5410943D1*
X-989720Y-5473163D2*
X-1167500D1*
X-989720Y-5544273D1*
X-1167500D1*
Y-5606493D2*
X-1078610Y-5650933D1*
Y-5677603D1*
Y-5624273D1*
X-1056390Y-5606493D1*
X-1011940D1*
X-989720Y-5624273D1*
Y-5677603D1*
X-1167500D1*
Y-5874933D2*
Y-5803823D1*
X-1156390D1*
X-1134170Y-5812713D1*
X-1067500Y-5866043D1*
X-1045280Y-5874933D1*
X-1023060D1*
X-1000830Y-5866043D1*
X-989720Y-5848263D1*
Y-5830493D1*
X-1000830Y-5812713D1*
X-1023060Y-5803823D1*
X-1167500Y-5944263D2*
Y-5937153D1*
X-1158610D1*
Y-5944263D1*
X-1167500D1*
Y-5937153D1*
X-1023060Y-6077593D2*
X-1134170D1*
X-1156390Y-6068703D1*
X-1167500Y-6050923D1*
Y-6033153D1*
X-1156390Y-6015373D1*
X-1134170Y-6006483D1*
X-1023060D1*
X-1000830Y-6015373D1*
X-989720Y-6033153D1*
Y-6050923D1*
X-1000830Y-6068703D1*
X-1023060Y-6077593D1*
X-290390Y-3786783D2*
D23*
X-321500Y-3774333D1*
X-337060Y-3749443D1*
Y-3724553D1*
X-321500Y-3699663D1*
X-290390Y-3687223D1*
X-134840D1*
X-103730Y-3699663D1*
X-88170Y-3724553D1*
Y-3749443D1*
X-103730Y-3774333D1*
X-134840Y-3786783D1*
X-337060Y-3873893D2*
X-305950D1*
Y-3998333D1*
X-337060D1*
X-305950Y-3898783D2*
X-134840D1*
X-88170Y-3936113D1*
Y-3973453D1*
X-305950D1*
X-337060Y-4172553D2*
Y-4085443D1*
X-88170D1*
Y-4172553D1*
X-212620Y-4085443D2*
Y-4172553D1*
X-337060Y-4259663D2*
X-305950Y-4284553D1*
X-119280D1*
X-88170Y-4309443D1*
Y-4359223D1*
X-337060D1*
Y-4446333D2*
X-88170Y-4508553D1*
X-337060Y-4570773D1*
X-243730Y-4471223D2*
Y-4545893D1*
X-337060Y-4657883D2*
X-88170D1*
X-337060Y-4757443D2*
X-88170D1*
X-212620Y-4657883D2*
Y-4757443D1*
X-134840Y-4944113D2*
X-290390D1*
X-321500Y-4931663D1*
X-337060Y-4906773D1*
Y-4881883D1*
X-321500Y-4856993D1*
X-290390Y-4844553D1*
X-134840D1*
X-103730Y-4856993D1*
X-88170Y-4881883D1*
Y-4906773D1*
X-103730Y-4931663D1*
X-134840Y-4944113D1*
X-337060Y-5120823D2*
X-88170D1*
Y-5183043D1*
X-103730Y-5207933D1*
X-134840Y-5220383D1*
X-165950D1*
X-197060Y-5207933D1*
X-212620Y-5183043D1*
X-228170Y-5207933D1*
X-259280Y-5220383D1*
X-290390D1*
X-321500Y-5207933D1*
X-337060Y-5183043D1*
Y-5120823D1*
X-212620D2*
Y-5183043D1*
X-290390Y-5496653D2*
X-321500Y-5484203D1*
X-337060Y-5459313D1*
Y-5434423D1*
X-321500Y-5409533D1*
X-290390Y-5397093D1*
X-134840D1*
X-103730Y-5409533D1*
X-88170Y-5434423D1*
Y-5459313D1*
X-103730Y-5484203D1*
X-134840Y-5496653D1*
X-290390Y-5683323D2*
X-321500Y-5670873D1*
X-337060Y-5645983D1*
Y-5621093D1*
X-321500Y-5596203D1*
X-290390Y-5583763D1*
X-134840D1*
X-103730Y-5596203D1*
X-88170Y-5621093D1*
Y-5645983D1*
X-103730Y-5670873D1*
X-134840Y-5683323D1*
X-290390Y-5869993D2*
X-321500Y-5857543D1*
X-337060Y-5832653D1*
Y-5807763D1*
X-321500Y-5782873D1*
X-290390Y-5770433D1*
X-134840D1*
X-103730Y-5782873D1*
X-88170Y-5807763D1*
Y-5832653D1*
X-103730Y-5857543D1*
X-134840Y-5869993D1*
X-337060Y-5957103D2*
X-88170D1*
Y-6019323D1*
X-103730Y-6044213D1*
X-134840Y-6056663D1*
X-165950D1*
X-197060Y-6044213D1*
X-212620Y-6019323D1*
Y-5957103D1*
X-7653387Y-8029910D2*
D22*
X-7724497Y-7941020D1*
X-7733387Y-7918800D1*
Y-7896580D1*
X-7715607Y-7874360D1*
X-7697827D1*
X-7680057Y-7896580D1*
Y-7918800D1*
X-7688937Y-7941020D1*
X-7733387Y-7974360D1*
X-7742277Y-7996580D1*
Y-8018800D1*
X-7733387Y-8041020D1*
X-7715607Y-8052140D1*
X-7697827D1*
X-7680057Y-8041020D1*
X-7662277Y-7996580D1*
X-7527167Y-7963250D2*
X-7509387Y-7952140D1*
X-7488057D1*
X-7473827Y-7974360D1*
Y-8052140D1*
Y-8018800D2*
X-7482717Y-7996580D1*
X-7500497Y-7992140D1*
X-7518277Y-7996580D1*
X-7527167Y-8018800D1*
X-7523607Y-8041020D1*
X-7509387Y-8052140D1*
X-7500497D1*
X-7496947D1*
X-7482717Y-8041020D1*
X-7473827Y-8018800D1*
X-7411617Y-8052140D2*
Y-7952140D1*
Y-7969910D2*
X-7393837Y-7952140D1*
X-7376057Y-7958800D1*
X-7367167Y-7974360D1*
Y-8052140D1*
Y-7969910D2*
X-7349397Y-7952140D1*
X-7331617Y-7958800D1*
X-7322727Y-7974360D1*
Y-8052140D1*
X-7260507D2*
Y-7952140D1*
Y-7918800D2*
D3*
X-7198287Y-8085470D2*
X-7180507Y-8096580D1*
X-7168067D1*
X-7150287Y-8085470D1*
X-7144947Y-8063250D1*
Y-7952140D1*
Y-7981020D2*
X-7153837Y-7958800D1*
X-7171617Y-7952140D1*
X-7189397Y-7958800D1*
X-7198287Y-7981020D1*
Y-8025470D1*
X-7189397Y-8047690D1*
X-7171617Y-8052140D1*
X-7153837Y-8047690D1*
X-7144947Y-8025470D1*
X-7029397D2*
Y-7981020D1*
X-7038287Y-7958800D1*
X-7056067Y-7952140D1*
X-7073847Y-7958800D1*
X-7082737Y-7981020D1*
Y-8025470D1*
X-7073847Y-8047690D1*
X-7056067Y-8052140D1*
X-7038287Y-8047690D1*
X-7029397Y-8025470D1*
X-6967187Y-8041020D2*
X-6949407Y-8052140D1*
X-6931627D1*
X-6913847Y-8041020D1*
Y-8018800D1*
X-6922737Y-8007690D1*
X-6958297Y-7996580D1*
X-6967187Y-7985470D1*
Y-7963250D1*
X-6949407Y-7952140D1*
X-6931627D1*
X-6913847Y-7963250D1*
X-6670297Y-8052140D2*
Y-7874360D1*
Y-7981020D2*
X-6679187Y-7958800D1*
X-6696967Y-7952140D1*
X-6714747Y-7958800D1*
X-6723637Y-7981020D1*
Y-8025470D1*
X-6714747Y-8047690D1*
X-6696967Y-8052140D1*
X-6679187Y-8047690D1*
X-6670297Y-8025470D1*
X-6554747Y-8041020D2*
X-6568977Y-8052140D1*
X-6586747D1*
X-6604527Y-8041020D1*
X-6608087Y-8018800D1*
Y-7981020D1*
X-6599197Y-7958800D1*
X-6581417Y-7952140D1*
X-6563637Y-7958800D1*
X-6554747Y-7974360D1*
Y-7996580D1*
X-6608087D1*
X-6364537Y-7874360D2*
X-6293427D1*
X-6364537Y-8052140D1*
X-6293427D1*
X-6231207Y-7874360D2*
X-6142317Y-8052140D1*
X-6231207D2*
X-6142317Y-7874360D1*
X-6080097Y-7974360D2*
X-6008987D1*
X-5946767Y-8052140D2*
Y-7874360D1*
X-5902317D1*
X-5884547Y-7885470D1*
X-5875657Y-7907690D1*
Y-7929910D1*
X-5884547Y-7952140D1*
X-5902317Y-7963250D1*
X-5946767D1*
X-5813437Y-8052140D2*
Y-7874360D1*
Y-7996580D2*
X-5742327Y-7874360D1*
X-5786767Y-7963250D2*
X-5742327Y-8052140D1*
X-5672997D2*
X-5680107D1*
Y-8043250D1*
X-5672997D1*
Y-8052140D1*
X-5680107D1*
X-5575217Y-7963250D2*
X-5548557Y-7985470D1*
X-5539667Y-8007690D1*
Y-8052140D1*
X-5610777D2*
Y-7874360D1*
X-5566327D1*
X-5548557Y-7885470D1*
X-5539667Y-7907690D1*
Y-7929910D1*
X-5548557Y-7952140D1*
X-5566327Y-7963250D1*
X-5610777D1*
X-5477447Y-7874360D2*
Y-8018800D1*
X-5468557Y-8041020D1*
X-5450777Y-8052140D1*
X-5432997D1*
X-5415227Y-8041020D1*
X-5406337Y-8018800D1*
Y-7874360D1*
D24*
X-7177543Y-2724413D3*
X-682952Y-1814387D2*
D53*
X-694542Y-1799731D1*
X-712062Y-1792487D1*
X-735377D1*
X-752897Y-1799731D1*
X-764622Y-1814387D1*
Y-1828874D1*
X-758692Y-1843531D1*
X-752897Y-1850774D1*
X-741307Y-1858018D1*
X-706267Y-1872674D1*
X-694542Y-1879918D1*
X-688747Y-1887331D1*
X-682952Y-1901818D1*
Y-1923718D1*
X-694542Y-1938206D1*
X-712062Y-1945618D1*
X-735377D1*
X-752897Y-1938206D1*
X-764622Y-1923718D1*
X-569564Y-1792487D2*
X-645305D1*
Y-1945618D1*
X-569564D1*
X-645305Y-1865431D2*
X-598675D1*
X-491082Y-1792487D2*
Y-1945618D1*
X-531917Y-1792487D2*
X-450247D1*
X-712197Y-800341D2*
Y-931573D1*
X-764622Y-866041D2*
X-659637D1*
X-626462Y-2786133D2*
X-559077D1*
X-2863335Y-1455434D2*
X-2810910D1*
X-2793390Y-1448022D1*
X-2787460Y-1440778D1*
X-2781665Y-1426290D1*
Y-1411634D1*
X-2787460Y-1397146D1*
X-2793390Y-1389734D1*
X-2810910Y-1382490D1*
X-2863335D1*
Y-1535622D1*
X-2822500Y-1455434D2*
X-2781665Y-1535622D1*
X-2744018Y-1477334D2*
X-2674073D1*
Y-1462678D1*
X-2679868Y-1448022D1*
X-2685663Y-1440778D1*
X-2697388Y-1433534D1*
X-2714908D1*
X-2726498Y-1440778D1*
X-2738223Y-1455434D1*
X-2744018Y-1477334D1*
Y-1491822D1*
X-2738223Y-1513722D1*
X-2726498Y-1528209D1*
X-2714908Y-1535622D1*
X-2697388D1*
X-2685663Y-1528209D1*
X-2674073Y-1513722D1*
X-2636426Y-1382490D2*
X-2607181Y-1535622D1*
X-2578071Y-1382490D1*
X-2548961Y-1535622D1*
X-2519716Y-1382490D1*
X-2452958Y-1433534D2*
X-2464549Y-1440778D1*
X-2476274Y-1455434D1*
X-2482069Y-1477334D1*
Y-1491822D1*
X-2476274Y-1513722D1*
X-2464549Y-1528209D1*
X-2452958Y-1535622D1*
X-2435438D1*
X-2423714Y-1528209D1*
X-2412123Y-1513722D1*
X-2406194Y-1491822D1*
Y-1477334D1*
X-2412123Y-1455434D1*
X-2423714Y-1440778D1*
X-2435438Y-1433534D1*
X-2452958D1*
X-2368546D2*
Y-1535622D1*
Y-1477334D2*
X-2362617Y-1455434D1*
X-2351026Y-1440778D1*
X-2339302Y-1433534D1*
X-2321782D1*
X-2284134Y-1382490D2*
Y-1535622D1*
X-2225779Y-1433534D2*
X-2284134Y-1506478D1*
X-2260819Y-1477334D2*
X-2219984Y-1535622D1*
X-2063829Y-1382490D2*
Y-1535622D1*
X-2011269D1*
X-1993749Y-1528209D1*
X-1987954Y-1520965D1*
X-1982158Y-1506478D1*
Y-1484578D1*
X-1987954Y-1469922D1*
X-1993749Y-1462678D1*
X-2011269Y-1455434D1*
X-1993749Y-1448022D1*
X-1987954Y-1440778D1*
X-1982158Y-1426290D1*
Y-1411634D1*
X-1987954Y-1397146D1*
X-1993749Y-1389734D1*
X-2011269Y-1382490D1*
X-2063829D1*
Y-1455434D2*
X-2011269D1*
X-1938582Y-1433534D2*
X-1903676Y-1535622D1*
X-1915267Y-1564765D1*
X-1926991Y-1579422D1*
X-1938582Y-1586665D1*
X-1944511D1*
X-1868636Y-1433534D2*
X-1903676Y-1535622D1*
X-2744827Y-1659952D2*
Y-1813084D1*
X-2663157Y-1659952D2*
Y-1813084D1*
X-2744827Y-1732896D2*
X-2663157D1*
X-2555564Y-1710996D2*
Y-1813084D1*
Y-1732896D2*
X-2567154Y-1718240D1*
X-2578879Y-1710996D1*
X-2596265D1*
X-2607989Y-1718240D1*
X-2619580Y-1732896D1*
X-2625509Y-1754796D1*
Y-1769284D1*
X-2619580Y-1791184D1*
X-2607989Y-1805671D1*
X-2596265Y-1813084D1*
X-2578879D1*
X-2567154Y-1805671D1*
X-2555564Y-1791184D1*
X-2517917Y-1710996D2*
Y-1813084D1*
Y-1740140D2*
X-2500397Y-1718240D1*
X-2488672Y-1710996D1*
X-2471287D1*
X-2459562Y-1718240D1*
X-2453767Y-1740140D1*
Y-1813084D1*
X-2416120Y-1710996D2*
X-2351970D1*
X-2416120Y-1813084D1*
X-2351970D1*
X-2255968D2*
Y-1660120D1*
X-2314323Y-1762040D1*
X-2226858D1*
X-2119265Y-1660120D2*
X-2177486D1*
X-2183281Y-1725652D1*
X-2177486Y-1718408D1*
X-2159966Y-1710996D1*
X-2142580D1*
X-2125060Y-1718408D1*
X-2113335Y-1732896D1*
X-2107540Y-1754796D1*
Y-1769284D1*
X-2113335Y-1791184D1*
X-2125060Y-1805840D1*
X-2142580Y-1813084D1*
X-2159966D1*
X-2177486Y-1805840D1*
X-2183281Y-1798427D1*
X-2189210Y-1783940D1*
X-6539724Y-3179970D2*
D52*
X-6543346Y-3172727D1*
X-6550674Y-3165398D1*
X-6557918Y-3161777D1*
X-6572490D1*
X-6579818Y-3165398D1*
X-6587061Y-3172727D1*
X-6590768Y-3179970D1*
X-6594390Y-3190920D1*
Y-3209198D1*
X-6590768Y-3220064D1*
X-6587061Y-3227392D1*
X-6579818Y-3234636D1*
X-6572490Y-3238342D1*
X-6557918D1*
X-6550674Y-3234636D1*
X-6543346Y-3227392D1*
X-6539724Y-3220064D1*
X-6512488Y-3180055D2*
Y-3176433D1*
X-6508866Y-3169105D1*
X-6505244Y-3165483D1*
X-6497916Y-3161861D1*
X-6483344D1*
X-6476100Y-3165483D1*
X-6472479Y-3169105D1*
X-6468772Y-3176433D1*
Y-3183677D1*
X-6472479Y-3191005D1*
X-6479722Y-3201870D1*
X-6516194Y-3238342D1*
X-6465150D1*
X-5731157Y-7527669D2*
X-5734779Y-7520425D1*
X-5742107Y-7513097D1*
X-5749351Y-7509475D1*
X-5763923D1*
X-5771251Y-7513097D1*
X-5778495Y-7520425D1*
X-5782201Y-7527669D1*
X-5785823Y-7538619D1*
Y-7556897D1*
X-5782201Y-7567762D1*
X-5778495Y-7575090D1*
X-5771251Y-7582334D1*
X-5763923Y-7586040D1*
X-5749351D1*
X-5742107Y-7582334D1*
X-5734779Y-7575090D1*
X-5731157Y-7567762D1*
X-5700300Y-7509559D2*
X-5660290D1*
X-5682106Y-7538703D1*
X-5671156D1*
X-5663912Y-7542325D1*
X-5660290Y-7545947D1*
X-5656584Y-7556897D1*
Y-7564140D1*
X-5660290Y-7575090D1*
X-5667534Y-7582419D1*
X-5678484Y-7586040D1*
X-5689434D1*
X-5700300Y-7582419D1*
X-5703922Y-7578712D1*
X-5707628Y-7571469D1*
X-546177Y-4184436D2*
X-604464D1*
X-615414Y-4180814D1*
X-619036Y-4177107D1*
X-622742Y-4169864D1*
Y-4162536D1*
X-619036Y-4155292D1*
X-615414Y-4151670D1*
X-604464Y-4147964D1*
X-597220D1*
X-560833Y-4207965D2*
X-557127Y-4215293D1*
X-546261Y-4226243D1*
X-622742D1*
X-6737402Y-3894926D2*
Y-3862160D1*
X-6741108Y-3851210D1*
X-6744730Y-3847504D1*
X-6751973Y-3843882D1*
X-6759302D1*
X-6766545Y-3847504D1*
X-6770252Y-3851210D1*
X-6773873Y-3862160D1*
Y-3894926D1*
X-6697308D1*
X-6737402Y-3869404D2*
X-6697308Y-3843882D1*
X-6759217Y-3820352D2*
X-6762923Y-3813024D1*
X-6773789Y-3802074D1*
X-6697308D1*
X-2987669Y-5074208D2*
X-2954903D1*
X-2943953Y-5070502D1*
X-2940247Y-5066880D1*
X-2936625Y-5059637D1*
Y-5052308D1*
X-2940247Y-5045065D1*
X-2943953Y-5041358D1*
X-2954903Y-5037737D1*
X-2987669D1*
Y-5114302D1*
X-2962147Y-5074208D2*
X-2936625Y-5114302D1*
X-2862052Y-5048687D2*
X-2869296Y-5041358D1*
X-2880246Y-5037737D1*
X-2894818D1*
X-2905768Y-5041358D1*
X-2913096Y-5048687D1*
Y-5055930D1*
X-2909390Y-5063258D1*
X-2905768Y-5066880D1*
X-2898524Y-5070502D1*
X-2876624Y-5077830D1*
X-2869296Y-5081452D1*
X-2865674Y-5085158D1*
X-2862052Y-5092402D1*
Y-5103352D1*
X-2869296Y-5110596D1*
X-2880246Y-5114302D1*
X-2894818D1*
X-2905768Y-5110596D1*
X-2913096Y-5103352D1*
X-2838522Y-5052393D2*
X-2831194Y-5048687D1*
X-2820244Y-5037821D1*
Y-5114302D1*
X-1922542Y-6811938D2*
X-1889776D1*
X-1878826Y-6808232D1*
X-1875120Y-6804610D1*
X-1871498Y-6797367D1*
Y-6790038D1*
X-1875120Y-6782795D1*
X-1878826Y-6779088D1*
X-1889776Y-6775467D1*
X-1922542D1*
Y-6852032D1*
X-1897020Y-6811938D2*
X-1871498Y-6852032D1*
X-1796925Y-6786417D2*
X-1804169Y-6779088D1*
X-1815119Y-6775467D1*
X-1829691D1*
X-1840641Y-6779088D1*
X-1847969Y-6786417D1*
Y-6793660D1*
X-1844262Y-6800988D1*
X-1840641Y-6804610D1*
X-1833397Y-6808232D1*
X-1811497Y-6815560D1*
X-1804169Y-6819182D1*
X-1800547Y-6822888D1*
X-1796925Y-6830132D1*
Y-6841082D1*
X-1804169Y-6848326D1*
X-1815119Y-6852032D1*
X-1829691D1*
X-1840641Y-6848326D1*
X-1847969Y-6841082D1*
X-1769689Y-6793745D2*
Y-6790123D1*
X-1766067Y-6782795D1*
X-1762445Y-6779173D1*
X-1755117Y-6775551D1*
X-1740545D1*
X-1733301Y-6779173D1*
X-1729680Y-6782795D1*
X-1725973Y-6790123D1*
Y-6797367D1*
X-1729680Y-6804695D1*
X-1736923Y-6815560D1*
X-1773395Y-6852032D1*
X-1722351D1*
X-1073998Y-406687D2*
X-1081242Y-399358D1*
X-1092192Y-395737D1*
X-1106764D1*
X-1117714Y-399358D1*
X-1125042Y-406687D1*
Y-413930D1*
X-1121336Y-421258D1*
X-1117714Y-424880D1*
X-1110470Y-428502D1*
X-1088570Y-435830D1*
X-1081242Y-439452D1*
X-1077620Y-443158D1*
X-1073998Y-450402D1*
Y-461352D1*
X-1081242Y-468596D1*
X-1092192Y-472302D1*
X-1106764D1*
X-1117714Y-468596D1*
X-1125042Y-461352D1*
X-1050469Y-410393D2*
X-1043141Y-406687D1*
X-1032191Y-395821D1*
Y-472302D1*
X-1090381Y-1406683D2*
X-1097625Y-1399355D1*
X-1108575Y-1395733D1*
X-1123147D1*
X-1134097Y-1399355D1*
X-1141425Y-1406683D1*
Y-1413927D1*
X-1137719Y-1421255D1*
X-1134097Y-1424877D1*
X-1126853Y-1428499D1*
X-1104953Y-1435827D1*
X-1097625Y-1439449D1*
X-1094003Y-1443155D1*
X-1090381Y-1450399D1*
Y-1461349D1*
X-1097625Y-1468593D1*
X-1108575Y-1472299D1*
X-1123147D1*
X-1134097Y-1468593D1*
X-1141425Y-1461349D1*
X-1063146Y-1414011D2*
Y-1410389D1*
X-1059524Y-1403061D1*
X-1055902Y-1399439D1*
X-1048574Y-1395817D1*
X-1034002D1*
X-1026758Y-1399439D1*
X-1023136Y-1403061D1*
X-1019430Y-1410389D1*
Y-1417633D1*
X-1023136Y-1424961D1*
X-1030380Y-1435827D1*
X-1066852Y-1472299D1*
X-1015808D1*
X-1074001Y-2406683D2*
X-1081245Y-2399355D1*
X-1092195Y-2395733D1*
X-1106767D1*
X-1117717Y-2399355D1*
X-1125045Y-2406683D1*
Y-2413927D1*
X-1121339Y-2421255D1*
X-1117717Y-2424877D1*
X-1110473Y-2428499D1*
X-1088573Y-2435827D1*
X-1081245Y-2439449D1*
X-1077623Y-2443155D1*
X-1074001Y-2450399D1*
Y-2461349D1*
X-1081245Y-2468593D1*
X-1092195Y-2472299D1*
X-1106767D1*
X-1117717Y-2468593D1*
X-1125045Y-2461349D1*
X-1043144Y-2395817D2*
X-1003134D1*
X-1024950Y-2424961D1*
X-1014000D1*
X-1006756Y-2428583D1*
X-1003134Y-2432205D1*
X-999428Y-2443155D1*
Y-2450399D1*
X-1003134Y-2461349D1*
X-1010378Y-2468677D1*
X-1021328Y-2472299D1*
X-1032278D1*
X-1043144Y-2468677D1*
X-1046766Y-2464971D1*
X-1050472Y-2457727D1*
X-974259Y-3365777D2*
Y-3420442D1*
X-970637Y-3431392D1*
X-963309Y-3438636D1*
X-952359Y-3442342D1*
X-945115D1*
X-934165Y-3438636D1*
X-926837Y-3431392D1*
X-923215Y-3420442D1*
Y-3365777D1*
X-899686Y-3380433D2*
X-892358Y-3376727D1*
X-881408Y-3365861D1*
Y-3442342D1*
X-6473222Y-6889917D2*
Y-6944582D1*
X-6469600Y-6955532D1*
X-6462272Y-6962776D1*
X-6451322Y-6966482D1*
X-6444078D1*
X-6433128Y-6962776D1*
X-6425800Y-6955532D1*
X-6422178Y-6944582D1*
Y-6889917D1*
X-6394942Y-6908195D2*
Y-6904573D1*
X-6391321Y-6897245D1*
X-6387699Y-6893623D1*
X-6380371Y-6890001D1*
X-6365799D1*
X-6358555Y-6893623D1*
X-6354933Y-6897245D1*
X-6351227Y-6904573D1*
Y-6911817D1*
X-6354933Y-6919145D1*
X-6362177Y-6930010D1*
X-6398649Y-6966482D1*
X-6347605D1*
X-5397452Y-6316350D2*
Y-6371016D1*
X-5393830Y-6381966D1*
X-5386502Y-6389209D1*
X-5375552Y-6392916D1*
X-5368308D1*
X-5357358Y-6389209D1*
X-5350030Y-6381966D1*
X-5346408Y-6371016D1*
Y-6316350D1*
X-5315551Y-6316434D2*
X-5275541D1*
X-5297357Y-6345578D1*
X-5286407D1*
X-5279163Y-6349200D1*
X-5275541Y-6352822D1*
X-5271835Y-6363772D1*
Y-6371016D1*
X-5275541Y-6381966D1*
X-5282785Y-6389294D1*
X-5293735Y-6392916D1*
X-5304685D1*
X-5315551Y-6389294D1*
X-5319172Y-6385588D1*
X-5322879Y-6378344D1*
X-1783890Y-6140527D2*
Y-6195192D1*
X-1780268Y-6206142D1*
X-1772940Y-6213386D1*
X-1761990Y-6217092D1*
X-1754746D1*
X-1743796Y-6213386D1*
X-1736468Y-6206142D1*
X-1732846Y-6195192D1*
Y-6140527D1*
X-1672844Y-6217092D2*
Y-6140611D1*
X-1709316Y-6191570D1*
X-1654650D1*
X-1898489Y-7711453D2*
Y-7766119D1*
X-1894867Y-7777069D1*
X-1887539Y-7784313D1*
X-1876589Y-7788019D1*
X-1869345D1*
X-1858395Y-7784313D1*
X-1851067Y-7777069D1*
X-1847445Y-7766119D1*
Y-7711453D1*
X-1780200Y-7711537D2*
X-1816587D1*
X-1820209Y-7744303D1*
X-1816587Y-7740681D1*
X-1805637Y-7736975D1*
X-1794771D1*
X-1783821Y-7740681D1*
X-1776493Y-7747925D1*
X-1772871Y-7758875D1*
Y-7766119D1*
X-1776493Y-7777069D1*
X-1783821Y-7784397D1*
X-1794771Y-7788019D1*
X-1805637D1*
X-1816587Y-7784397D1*
X-1820209Y-7780691D1*
X-1823915Y-7773447D1*
X-3698609Y-178210D2*
Y-232876D1*
X-3694987Y-243826D1*
X-3687659Y-251069D1*
X-3676709Y-254776D1*
X-3669465D1*
X-3658515Y-251069D1*
X-3651187Y-243826D1*
X-3647565Y-232876D1*
Y-178210D1*
X-3624036D2*
Y-254776D1*
X-3598514D1*
X-3587564Y-251069D1*
X-3580236Y-243826D1*
X-3576614Y-236498D1*
X-3572992Y-225632D1*
Y-207354D1*
X-3576614Y-196404D1*
X-3580236Y-189160D1*
X-3587564Y-181832D1*
X-3598514Y-178210D1*
X-3624036D1*
X-3549462Y-192866D2*
X-3542134Y-189160D1*
X-3531184Y-178294D1*
Y-254776D1*
X-6420712Y-638127D2*
X-6369668Y-714692D1*
Y-638127D2*
X-6420712Y-714692D1*
X-6295095Y-649077D2*
X-6302339Y-641748D1*
X-6313289Y-638127D1*
X-6327861D1*
X-6338811Y-641748D1*
X-6346139Y-649077D1*
Y-656320D1*
X-6342433Y-663648D1*
X-6338811Y-667270D1*
X-6331567Y-670892D1*
X-6309667Y-678220D1*
X-6302339Y-681842D1*
X-6298717Y-685548D1*
X-6295095Y-692792D1*
Y-703742D1*
X-6302339Y-710986D1*
X-6313289Y-714692D1*
X-6327861D1*
X-6338811Y-710986D1*
X-6346139Y-703742D1*
X-6271566Y-652783D2*
X-6264238Y-649077D1*
X-6253288Y-638211D1*
Y-714692D1*
X-7606202Y-176227D2*
X-7555158Y-252792D1*
Y-176227D2*
X-7606202Y-252792D1*
X-7480585Y-187177D2*
X-7487829Y-179848D1*
X-7498779Y-176227D1*
X-7513351D1*
X-7524301Y-179848D1*
X-7531629Y-187177D1*
Y-194420D1*
X-7527922Y-201748D1*
X-7524301Y-205370D1*
X-7517057Y-208992D1*
X-7495157Y-216320D1*
X-7487829Y-219942D1*
X-7484207Y-223648D1*
X-7480585Y-230892D1*
Y-241842D1*
X-7487829Y-249086D1*
X-7498779Y-252792D1*
X-7513351D1*
X-7524301Y-249086D1*
X-7531629Y-241842D1*
X-7453349Y-194505D2*
Y-190883D1*
X-7449727Y-183555D1*
X-7446105Y-179933D1*
X-7438777Y-176311D1*
X-7424205D1*
X-7416961Y-179933D1*
X-7413340Y-183555D1*
X-7409633Y-190883D1*
Y-198127D1*
X-7413340Y-205455D1*
X-7420583Y-216320D1*
X-7457055Y-252792D1*
X-7406011D1*
M02*
