M48
METRIC,0000.00
T01C0.4
T02C0.9
T03C1.0
T04C1.1
T05C1.6
T06C2.0
T07C3.0
%
T01
X-004699Y-000381
X-004699Y-000508
X-004699Y-000635
X-004699Y-000762
X-004699Y-000889
X-004699Y-001016
X-004141Y-001549
X-003979Y-001792
X-003639Y-001607
X-003709Y-002538
X-004771Y-003379
X-004889Y-003497
X-005094Y-003640
X-005648Y-004436
X-005957Y-004719
X-007232Y-004471
X-006950Y-003078
X-006870Y-002945
X-006604Y-002350
X-006604Y-002223
X-006604Y-002096
X-005937Y-002096
X-005937Y-002223
X-005937Y-002350
X-004692Y-005353
X-004040Y-006061
X-004488Y-006492
X-004520Y-007560
X-004231Y-007575
X-004970Y-007790
X-005050Y-007790
X-006604Y-006985
X-006731Y-006985
X-006858Y-006985
X-006985Y-006985
X-007112Y-006985
X-007239Y-006985
X-003150Y-007570
X-003276Y-008237
X-003148Y-005437
X-002793Y-005100
X-002669Y-004478
X-003039Y-004174
X-001901Y-004330
X-001792Y-004064
X-001232Y-005033
X-001232Y-005160
X-001232Y-005287
X-001232Y-005414
X-001232Y-005541
X-001232Y-005668
X-000699Y-005715
X-000699Y-005842
X-000699Y-005969
X-000699Y-006096
X-000699Y-006223
X-000699Y-005588
T02
X-005467Y-007529
X-005716Y-007121
X-005716Y-006867
X-005716Y-006613
X-005716Y-006359
X-005716Y-006105
X-005716Y-005851
X-005716Y-005597
X-006133Y-005607
X-006133Y-005353
X-006133Y-005099
X-006133Y-004845
X-006133Y-004591
X-006133Y-004337
X-006133Y-004083
X-006133Y-003829
X-006133Y-003575
X-005720Y-003174
X-005466Y-003174
X-005212Y-003174
X-004958Y-003174
X-004704Y-003174
X-004450Y-003174
X-004196Y-003174
X-003942Y-003174
X-003688Y-003174
X-003434Y-003174
X-003180Y-003174
X-002926Y-003174
X-002672Y-003174
X-002418Y-003174
X-002164Y-003174
X-001910Y-003174
X-001656Y-003174
X-001402Y-003174
X-001148Y-003174
X-000894Y-003174
X-000604Y-003169
X-000604Y-003423
X-000604Y-003677
X-000604Y-003931
X-000894Y-004698
X-001148Y-004698
X-001402Y-004698
X-001656Y-004698
X-001910Y-004698
X-002164Y-004698
X-002418Y-004698
X-002672Y-004698
X-002926Y-004698
X-003180Y-004698
X-003434Y-004698
X-003688Y-004698
X-003942Y-004698
X-004196Y-004698
X-004450Y-004698
X-004704Y-004698
X-004958Y-004698
X-005212Y-004698
X-005466Y-004698
X-005720Y-004698
X-005335Y-004063
X-005335Y-003809
X-004954Y-005597
X-004954Y-005851
X-004954Y-006105
X-004954Y-006359
X-004954Y-006613
X-004954Y-006867
X-004954Y-007121
X-004165Y-007213
X-003911Y-007213
X-003657Y-007213
X-003403Y-007213
X-003149Y-007213
X-002895Y-007213
X-002641Y-007213
X-002387Y-007213
X-002133Y-007213
X-001879Y-007213
X-002135Y-006819
X-002389Y-006819
X-002643Y-006819
X-002897Y-006819
X-003151Y-006819
X-003405Y-006819
X-003659Y-006819
X-003913Y-006819
X-004167Y-006819
X-004040Y-006423
X-003786Y-006423
X-003532Y-006423
X-003278Y-006423
X-003024Y-006423
X-002770Y-006423
X-002516Y-006423
X-002262Y-006423
X-002008Y-006423
X-001754Y-006423
X-001754Y-005661
X-002008Y-005661
X-002262Y-005661
X-002516Y-005661
X-002770Y-005661
X-003024Y-005661
X-003278Y-005661
X-003532Y-005661
X-003786Y-005661
X-004040Y-005661
X-004040Y-005292
X-003786Y-005292
X-003532Y-005292
X-003278Y-005292
X-003024Y-005292
X-002770Y-005292
X-002516Y-005292
X-002262Y-005292
X-002008Y-005292
X-001754Y-005292
X-001879Y-007975
X-002133Y-007975
X-002387Y-007975
X-002641Y-007975
X-002895Y-007975
X-003149Y-007975
X-003403Y-007975
X-003657Y-007975
X-003911Y-007975
X-004165Y-007975
X-005975Y-007529
X-006133Y-006877
X-006133Y-006623
X-006133Y-006369
X-006133Y-006115
X-006133Y-005861
X-007653Y-005861
X-007653Y-006115
X-007653Y-006369
X-007653Y-006623
X-007653Y-006877
X-007653Y-005607
X-007653Y-005353
X-007653Y-005099
X-007653Y-004845
X-007653Y-004591
X-007653Y-004337
X-007653Y-004083
X-007653Y-003829
X-007653Y-003575
X-003336Y-000225
X-003082Y-000225
X-002828Y-000225
X-002574Y-000225
T03
X-000928Y-000198
X-000929Y-000648
X-000928Y-001198
X-000929Y-001648
X-000928Y-002198
X-000929Y-002648
X-000278Y-002648
X-000278Y-002198
X-000278Y-001648
X-000278Y-001198
X-000278Y-000648
X-000278Y-000198
X-005844Y-000341
X-006642Y-000341
T04
X-005340Y-002332
T05
X-007440Y-002332
T06
X-004055Y-002475
X-004055Y-000275
X-001855Y-000275
X-001855Y-002475
T07
X-004600Y-001500
X-001300Y-006500
X-007300Y-007300
T00
M30
