M48
INCH,TZ
T1C0.0236
T2C0.0300
T3C0.0315
T4C0.0394
T5C0.0433
%
G90
G05
T1
X24649Y-46661
X25256Y-46247
X28524Y-53254
X29742Y-52090
X32428Y-48447
X32978Y-65143
X33056Y-48033
X33523Y-55574
X34278Y-64077
X34691Y-59308
X35354Y-64309
X35848Y-44545
X36100Y-58344
X37500Y-45970
X39100Y-66925
X39600Y-56050
X39666Y-64534
X40057Y-50920
X41123Y-54521
X41500Y-52097
X44477Y-51529
X44977Y-50500
T2
X29500Y-47000
X29500Y-53000
X30500Y-47000
X30500Y-53000
X31000Y-48500
X31000Y-49500
X31000Y-50500
X31000Y-51500
X31500Y-47000
X31500Y-53000
X32500Y-47000
X32500Y-53000
X33500Y-47000
X33500Y-53000
X34500Y-47000
X34500Y-53000
X35500Y-47000
X35500Y-53000
X36500Y-47000
X36500Y-53000
X37500Y-47000
X37500Y-53000
X38500Y-47000
X38500Y-53000
X39500Y-47000
X39500Y-53000
X40500Y-47000
X40500Y-53000
X41500Y-47000
X41500Y-53000
X42500Y-47000
X42500Y-53000
X43500Y-47000
X43500Y-53000
X44500Y-47000
X44500Y-53000
X45500Y-47000
X45500Y-53000
X46500Y-47000
X46500Y-53000
X47500Y-47000
X47500Y-53000
X48500Y-47000
X48500Y-53000
T3
X36100Y-55300
X37100Y-55300
X38100Y-55300
X39100Y-55300
X40100Y-55300
X41100Y-55300
X42100Y-55300
X43100Y-55300
X44100Y-55300
X45100Y-55300
X35600Y-61400
X36600Y-61400
X37600Y-61400
X38600Y-61400
X39600Y-61400
X40600Y-61400
X41600Y-61400
X42600Y-61400
X43600Y-61400
X29500Y-56500
X29500Y-57500
X29500Y-58500
X29500Y-59500
X29500Y-60500
X29500Y-61500
X29500Y-62500
X32500Y-56500
X32500Y-57500
X32500Y-58500
X32500Y-59500
X32500Y-60500
X32500Y-61500
X32500Y-62500
X21500Y-48500
X21500Y-49500
X21500Y-50500
X21500Y-51500
X21500Y-52500
X21500Y-53500
X21500Y-54500
X21500Y-55500
X21500Y-56500
X21500Y-57500
X21500Y-58500
X21500Y-59500
X21500Y-60500
X21500Y-61500
X27500Y-48500
X27500Y-49500
X27500Y-50500
X27500Y-51500
X27500Y-52500
X27500Y-53500
X27500Y-54500
X27500Y-55500
X27500Y-56500
X27500Y-57500
X27500Y-58500
X27500Y-59500
X27500Y-60500
X27500Y-61500
X36100Y-56800
X36100Y-59800
X37100Y-56800
X37100Y-59800
X38100Y-56800
X38100Y-59800
X39100Y-56800
X39100Y-59800
X40100Y-56800
X40100Y-59800
X41100Y-56800
X41100Y-59800
X42100Y-56800
X42100Y-59800
X43100Y-56800
X43100Y-59800
X44100Y-56800
X44100Y-59800
X45100Y-56800
X45100Y-59800
X35600Y-62900
X35600Y-65900
X36600Y-62900
X36600Y-65900
X37600Y-62900
X37600Y-65900
X38600Y-62900
X38600Y-65900
X39600Y-62900
X39600Y-65900
X40600Y-62900
X40600Y-65900
X41600Y-62900
X41600Y-65900
X42600Y-62900
X42600Y-65900
X43600Y-62900
X43600Y-65900
X44600Y-62900
X44600Y-65900
T4
X34500Y-35500
X35500Y-35500
X36500Y-35500
X37500Y-35500
X26000Y-63000
X27969Y-63000
X50700Y-43100
X50700Y-44100
X50700Y-45100
T5
X40441Y-35228
X40441Y-37000
X43000Y-35228
X43000Y-37000
X44441Y-35228
X44441Y-37000
X47000Y-35228
X47000Y-37000
X48441Y-35228
X48441Y-37000
X51000Y-35228
X51000Y-37000
T0
M30
