G04 #@! TF.GenerationSoftware,KiCad,Pcbnew,5.1.5-52549c5~86~ubuntu19.10.1*
G04 #@! TF.CreationDate,2020-04-22T22:15:28+03:00*
G04 #@! TF.ProjectId,control,636f6e74-726f-46c2-9e6b-696361645f70,rev?*
G04 #@! TF.SameCoordinates,Original*
G04 #@! TF.FileFunction,Legend,Top*
G04 #@! TF.FilePolarity,Positive*
%FSLAX46Y46*%
G04 Gerber Fmt 4.6, Leading zero omitted, Abs format (unit mm)*
G04 Created by KiCad (PCBNEW 5.1.5-52549c5~86~ubuntu19.10.1) date 2020-04-22 22:15:28*
%MOMM*%
%LPD*%
G04 APERTURE LIST*
%ADD10C,0.120000*%
%ADD11C,0.150000*%
G04 APERTURE END LIST*
D10*
X124460000Y-118110000D02*
X124460000Y-135890000D01*
X124460000Y-135890000D02*
X73660000Y-135890000D01*
X73660000Y-135890000D02*
X73660000Y-118110000D01*
X73660000Y-118110000D02*
X124460000Y-118110000D01*
X124460000Y-124460000D02*
X119380000Y-124460000D01*
X119380000Y-124460000D02*
X119380000Y-129540000D01*
X119380000Y-129540000D02*
X124460000Y-129540000D01*
X124460000Y-120650000D02*
X73660000Y-120650000D01*
X124460000Y-133350000D02*
X73660000Y-133350000D01*
X80010000Y-121920000D02*
X77470000Y-121920000D01*
X77470000Y-121920000D02*
X77470000Y-132080000D01*
X77470000Y-132080000D02*
X80010000Y-132080000D01*
X80010000Y-132080000D02*
X80010000Y-121920000D01*
X64670000Y-158650000D02*
X72410000Y-158650000D01*
X64670000Y-161390000D02*
X72410000Y-161390000D01*
X64670000Y-158650000D02*
X64670000Y-161390000D01*
X72410000Y-158650000D02*
X72410000Y-161390000D01*
X103881422Y-97080000D02*
X104398578Y-97080000D01*
X103881422Y-98500000D02*
X104398578Y-98500000D01*
X128196578Y-98500000D02*
X127679422Y-98500000D01*
X128196578Y-97080000D02*
X127679422Y-97080000D01*
X118368578Y-97080000D02*
X117851422Y-97080000D01*
X118368578Y-98500000D02*
X117851422Y-98500000D01*
X90364000Y-147082000D02*
G75*
G02X90364000Y-149082000I0J-1000000D01*
G01*
X90364000Y-149082000D02*
X90364000Y-150732000D01*
X90364000Y-150732000D02*
X115884000Y-150732000D01*
X115884000Y-150732000D02*
X115884000Y-145432000D01*
X115884000Y-145432000D02*
X90364000Y-145432000D01*
X90364000Y-145432000D02*
X90364000Y-147082000D01*
X89094000Y-160926000D02*
X89094000Y-162576000D01*
X114614000Y-160926000D02*
X89094000Y-160926000D01*
X114614000Y-166226000D02*
X114614000Y-160926000D01*
X89094000Y-166226000D02*
X114614000Y-166226000D01*
X89094000Y-164576000D02*
X89094000Y-166226000D01*
X89094000Y-162576000D02*
G75*
G02X89094000Y-164576000I0J-1000000D01*
G01*
X53840000Y-88055000D02*
X53840000Y-88475000D01*
X80680000Y-88055000D02*
X53840000Y-88055000D01*
X80680000Y-88475000D02*
X80680000Y-88055000D01*
X80680000Y-109975000D02*
X80680000Y-92075000D01*
X53840000Y-105375000D02*
X53840000Y-92075000D01*
X56140000Y-107675000D02*
X53840000Y-105375000D01*
X56140000Y-109975000D02*
X56140000Y-107675000D01*
X74510000Y-113295000D02*
X73810000Y-113295000D01*
X72110000Y-113295000D02*
X71310000Y-113295000D01*
X69610000Y-113295000D02*
X68810000Y-113295000D01*
X57110000Y-113295000D02*
X56910000Y-113295000D01*
X67110000Y-113295000D02*
X66310000Y-113295000D01*
X64510000Y-113295000D02*
X63810000Y-113295000D01*
X62110000Y-113295000D02*
X61310000Y-113295000D01*
X59610000Y-113295000D02*
X58810000Y-113295000D01*
X88900000Y-91500000D02*
X88900000Y-88840000D01*
X88900000Y-91500000D02*
X96580000Y-91500000D01*
X96580000Y-91500000D02*
X96580000Y-88840000D01*
X88900000Y-88840000D02*
X96580000Y-88840000D01*
X86300000Y-88840000D02*
X87630000Y-88840000D01*
X86300000Y-90170000D02*
X86300000Y-88840000D01*
X130108000Y-108144000D02*
X127448000Y-108144000D01*
X130108000Y-113284000D02*
X130108000Y-108144000D01*
X127448000Y-113284000D02*
X127448000Y-108144000D01*
X130108000Y-113284000D02*
X127448000Y-113284000D01*
X130108000Y-114554000D02*
X130108000Y-115884000D01*
X130108000Y-115884000D02*
X128778000Y-115884000D01*
X94540000Y-112771422D02*
X94540000Y-113288578D01*
X95960000Y-112771422D02*
X95960000Y-113288578D01*
X93420000Y-112771422D02*
X93420000Y-113288578D01*
X92000000Y-112771422D02*
X92000000Y-113288578D01*
X107359422Y-97080000D02*
X107876578Y-97080000D01*
X107359422Y-98500000D02*
X107876578Y-98500000D01*
X124386578Y-98500000D02*
X123869422Y-98500000D01*
X124386578Y-97080000D02*
X123869422Y-97080000D01*
X114226578Y-97080000D02*
X113709422Y-97080000D01*
X114226578Y-98500000D02*
X113709422Y-98500000D01*
X90254000Y-139062000D02*
X90254000Y-141862000D01*
X90254000Y-141862000D02*
X115994000Y-141862000D01*
X115994000Y-141862000D02*
X115994000Y-139062000D01*
X115994000Y-139062000D02*
X90254000Y-139062000D01*
X92964000Y-139062000D02*
X92964000Y-141862000D01*
X88984000Y-154556000D02*
X88984000Y-157356000D01*
X88984000Y-157356000D02*
X112184000Y-157356000D01*
X112184000Y-157356000D02*
X112184000Y-154556000D01*
X112184000Y-154556000D02*
X88984000Y-154556000D01*
X91694000Y-154556000D02*
X91694000Y-157356000D01*
X108220000Y-88480000D02*
X103720000Y-88480000D01*
X109470000Y-92480000D02*
X109470000Y-90980000D01*
X103720000Y-94980000D02*
X108220000Y-94980000D01*
X102470000Y-90980000D02*
X102470000Y-92480000D01*
X122790000Y-90980000D02*
X122790000Y-92480000D01*
X124040000Y-94980000D02*
X128540000Y-94980000D01*
X129790000Y-92480000D02*
X129790000Y-90980000D01*
X128540000Y-88480000D02*
X124040000Y-88480000D01*
X118380000Y-88480000D02*
X113880000Y-88480000D01*
X119630000Y-92480000D02*
X119630000Y-90980000D01*
X113880000Y-94980000D02*
X118380000Y-94980000D01*
X112630000Y-90980000D02*
X112630000Y-92480000D01*
X63230000Y-121860000D02*
G75*
G02X61230000Y-121860000I-1000000J0D01*
G01*
X61230000Y-121860000D02*
X55770000Y-121860000D01*
X55770000Y-121860000D02*
X55770000Y-157540000D01*
X55770000Y-157540000D02*
X68690000Y-157540000D01*
X68690000Y-157540000D02*
X68690000Y-121860000D01*
X68690000Y-121860000D02*
X63230000Y-121860000D01*
X79740000Y-142180000D02*
G75*
G02X77740000Y-142180000I-1000000J0D01*
G01*
X77740000Y-142180000D02*
X76090000Y-142180000D01*
X76090000Y-142180000D02*
X76090000Y-160080000D01*
X76090000Y-160080000D02*
X81390000Y-160080000D01*
X81390000Y-160080000D02*
X81390000Y-142180000D01*
X81390000Y-142180000D02*
X79740000Y-142180000D01*
D11*
X108458095Y-128992380D02*
X108458095Y-129801904D01*
X108505714Y-129897142D01*
X108553333Y-129944761D01*
X108648571Y-129992380D01*
X108839047Y-129992380D01*
X108934285Y-129944761D01*
X108981904Y-129897142D01*
X109029523Y-129801904D01*
X109029523Y-128992380D01*
X109410476Y-128992380D02*
X110029523Y-128992380D01*
X109696190Y-129373333D01*
X109839047Y-129373333D01*
X109934285Y-129420952D01*
X109981904Y-129468571D01*
X110029523Y-129563809D01*
X110029523Y-129801904D01*
X109981904Y-129897142D01*
X109934285Y-129944761D01*
X109839047Y-129992380D01*
X109553333Y-129992380D01*
X109458095Y-129944761D01*
X109410476Y-129897142D01*
X79422666Y-169124380D02*
X79422666Y-169838666D01*
X79375047Y-169981523D01*
X79279809Y-170076761D01*
X79136952Y-170124380D01*
X79041714Y-170124380D01*
X80422666Y-170124380D02*
X79851238Y-170124380D01*
X80136952Y-170124380D02*
X80136952Y-169124380D01*
X80041714Y-169267238D01*
X79946476Y-169362476D01*
X79851238Y-169410095D01*
X64095333Y-162917142D02*
X64047714Y-162964761D01*
X63904857Y-163012380D01*
X63809619Y-163012380D01*
X63666761Y-162964761D01*
X63571523Y-162869523D01*
X63523904Y-162774285D01*
X63476285Y-162583809D01*
X63476285Y-162440952D01*
X63523904Y-162250476D01*
X63571523Y-162155238D01*
X63666761Y-162060000D01*
X63809619Y-162012380D01*
X63904857Y-162012380D01*
X64047714Y-162060000D01*
X64095333Y-162107619D01*
X65047714Y-163012380D02*
X64476285Y-163012380D01*
X64762000Y-163012380D02*
X64762000Y-162012380D01*
X64666761Y-162155238D01*
X64571523Y-162250476D01*
X64476285Y-162298095D01*
X103719333Y-99925142D02*
X103671714Y-99972761D01*
X103528857Y-100020380D01*
X103433619Y-100020380D01*
X103290761Y-99972761D01*
X103195523Y-99877523D01*
X103147904Y-99782285D01*
X103100285Y-99591809D01*
X103100285Y-99448952D01*
X103147904Y-99258476D01*
X103195523Y-99163238D01*
X103290761Y-99068000D01*
X103433619Y-99020380D01*
X103528857Y-99020380D01*
X103671714Y-99068000D01*
X103719333Y-99115619D01*
X104052666Y-99020380D02*
X104719333Y-99020380D01*
X104290761Y-100020380D01*
X127771333Y-99797142D02*
X127723714Y-99844761D01*
X127580857Y-99892380D01*
X127485619Y-99892380D01*
X127342761Y-99844761D01*
X127247523Y-99749523D01*
X127199904Y-99654285D01*
X127152285Y-99463809D01*
X127152285Y-99320952D01*
X127199904Y-99130476D01*
X127247523Y-99035238D01*
X127342761Y-98940000D01*
X127485619Y-98892380D01*
X127580857Y-98892380D01*
X127723714Y-98940000D01*
X127771333Y-98987619D01*
X128342761Y-99320952D02*
X128247523Y-99273333D01*
X128199904Y-99225714D01*
X128152285Y-99130476D01*
X128152285Y-99082857D01*
X128199904Y-98987619D01*
X128247523Y-98940000D01*
X128342761Y-98892380D01*
X128533238Y-98892380D01*
X128628476Y-98940000D01*
X128676095Y-98987619D01*
X128723714Y-99082857D01*
X128723714Y-99130476D01*
X128676095Y-99225714D01*
X128628476Y-99273333D01*
X128533238Y-99320952D01*
X128342761Y-99320952D01*
X128247523Y-99368571D01*
X128199904Y-99416190D01*
X128152285Y-99511428D01*
X128152285Y-99701904D01*
X128199904Y-99797142D01*
X128247523Y-99844761D01*
X128342761Y-99892380D01*
X128533238Y-99892380D01*
X128628476Y-99844761D01*
X128676095Y-99797142D01*
X128723714Y-99701904D01*
X128723714Y-99511428D01*
X128676095Y-99416190D01*
X128628476Y-99368571D01*
X128533238Y-99320952D01*
X117943333Y-99797142D02*
X117895714Y-99844761D01*
X117752857Y-99892380D01*
X117657619Y-99892380D01*
X117514761Y-99844761D01*
X117419523Y-99749523D01*
X117371904Y-99654285D01*
X117324285Y-99463809D01*
X117324285Y-99320952D01*
X117371904Y-99130476D01*
X117419523Y-99035238D01*
X117514761Y-98940000D01*
X117657619Y-98892380D01*
X117752857Y-98892380D01*
X117895714Y-98940000D01*
X117943333Y-98987619D01*
X118419523Y-99892380D02*
X118610000Y-99892380D01*
X118705238Y-99844761D01*
X118752857Y-99797142D01*
X118848095Y-99654285D01*
X118895714Y-99463809D01*
X118895714Y-99082857D01*
X118848095Y-98987619D01*
X118800476Y-98940000D01*
X118705238Y-98892380D01*
X118514761Y-98892380D01*
X118419523Y-98940000D01*
X118371904Y-98987619D01*
X118324285Y-99082857D01*
X118324285Y-99320952D01*
X118371904Y-99416190D01*
X118419523Y-99463809D01*
X118514761Y-99511428D01*
X118705238Y-99511428D01*
X118800476Y-99463809D01*
X118848095Y-99416190D01*
X118895714Y-99320952D01*
X117800380Y-148058095D02*
X116800380Y-148058095D01*
X116800380Y-147820000D01*
X116848000Y-147677142D01*
X116943238Y-147581904D01*
X117038476Y-147534285D01*
X117228952Y-147486666D01*
X117371809Y-147486666D01*
X117562285Y-147534285D01*
X117657523Y-147581904D01*
X117752761Y-147677142D01*
X117800380Y-147820000D01*
X117800380Y-148058095D01*
X117800380Y-146534285D02*
X117800380Y-147105714D01*
X117800380Y-146820000D02*
X116800380Y-146820000D01*
X116943238Y-146915238D01*
X117038476Y-147010476D01*
X117086095Y-147105714D01*
X94940380Y-170918095D02*
X93940380Y-170918095D01*
X93940380Y-170680000D01*
X93988000Y-170537142D01*
X94083238Y-170441904D01*
X94178476Y-170394285D01*
X94368952Y-170346666D01*
X94511809Y-170346666D01*
X94702285Y-170394285D01*
X94797523Y-170441904D01*
X94892761Y-170537142D01*
X94940380Y-170680000D01*
X94940380Y-170918095D01*
X94035619Y-169965714D02*
X93988000Y-169918095D01*
X93940380Y-169822857D01*
X93940380Y-169584761D01*
X93988000Y-169489523D01*
X94035619Y-169441904D01*
X94130857Y-169394285D01*
X94226095Y-169394285D01*
X94368952Y-169441904D01*
X94940380Y-170013333D01*
X94940380Y-169394285D01*
X66976666Y-114652380D02*
X66976666Y-115366666D01*
X66929047Y-115509523D01*
X66833809Y-115604761D01*
X66690952Y-115652380D01*
X66595714Y-115652380D01*
X67405238Y-114747619D02*
X67452857Y-114700000D01*
X67548095Y-114652380D01*
X67786190Y-114652380D01*
X67881428Y-114700000D01*
X67929047Y-114747619D01*
X67976666Y-114842857D01*
X67976666Y-114938095D01*
X67929047Y-115080952D01*
X67357619Y-115652380D01*
X67976666Y-115652380D01*
X84312380Y-90503333D02*
X85026666Y-90503333D01*
X85169523Y-90550952D01*
X85264761Y-90646190D01*
X85312380Y-90789047D01*
X85312380Y-90884285D01*
X84312380Y-90122380D02*
X84312380Y-89503333D01*
X84693333Y-89836666D01*
X84693333Y-89693809D01*
X84740952Y-89598571D01*
X84788571Y-89550952D01*
X84883809Y-89503333D01*
X85121904Y-89503333D01*
X85217142Y-89550952D01*
X85264761Y-89598571D01*
X85312380Y-89693809D01*
X85312380Y-89979523D01*
X85264761Y-90074761D01*
X85217142Y-90122380D01*
X128444666Y-116336380D02*
X128444666Y-117050666D01*
X128397047Y-117193523D01*
X128301809Y-117288761D01*
X128158952Y-117336380D01*
X128063714Y-117336380D01*
X129349428Y-116669714D02*
X129349428Y-117336380D01*
X129111333Y-116288761D02*
X128873238Y-117003047D01*
X129492285Y-117003047D01*
X95702380Y-110402666D02*
X95226190Y-110736000D01*
X95702380Y-110974095D02*
X94702380Y-110974095D01*
X94702380Y-110593142D01*
X94750000Y-110497904D01*
X94797619Y-110450285D01*
X94892857Y-110402666D01*
X95035714Y-110402666D01*
X95130952Y-110450285D01*
X95178571Y-110497904D01*
X95226190Y-110593142D01*
X95226190Y-110974095D01*
X95702380Y-109450285D02*
X95702380Y-110021714D01*
X95702380Y-109736000D02*
X94702380Y-109736000D01*
X94845238Y-109831238D01*
X94940476Y-109926476D01*
X94988095Y-110021714D01*
X93162380Y-110402666D02*
X92686190Y-110736000D01*
X93162380Y-110974095D02*
X92162380Y-110974095D01*
X92162380Y-110593142D01*
X92210000Y-110497904D01*
X92257619Y-110450285D01*
X92352857Y-110402666D01*
X92495714Y-110402666D01*
X92590952Y-110450285D01*
X92638571Y-110497904D01*
X92686190Y-110593142D01*
X92686190Y-110974095D01*
X92257619Y-110021714D02*
X92210000Y-109974095D01*
X92162380Y-109878857D01*
X92162380Y-109640761D01*
X92210000Y-109545523D01*
X92257619Y-109497904D01*
X92352857Y-109450285D01*
X92448095Y-109450285D01*
X92590952Y-109497904D01*
X93162380Y-110069333D01*
X93162380Y-109450285D01*
X107529333Y-100020380D02*
X107196000Y-99544190D01*
X106957904Y-100020380D02*
X106957904Y-99020380D01*
X107338857Y-99020380D01*
X107434095Y-99068000D01*
X107481714Y-99115619D01*
X107529333Y-99210857D01*
X107529333Y-99353714D01*
X107481714Y-99448952D01*
X107434095Y-99496571D01*
X107338857Y-99544190D01*
X106957904Y-99544190D01*
X108434095Y-99020380D02*
X107957904Y-99020380D01*
X107910285Y-99496571D01*
X107957904Y-99448952D01*
X108053142Y-99401333D01*
X108291238Y-99401333D01*
X108386476Y-99448952D01*
X108434095Y-99496571D01*
X108481714Y-99591809D01*
X108481714Y-99829904D01*
X108434095Y-99925142D01*
X108386476Y-99972761D01*
X108291238Y-100020380D01*
X108053142Y-100020380D01*
X107957904Y-99972761D01*
X107910285Y-99925142D01*
X123961333Y-99892380D02*
X123628000Y-99416190D01*
X123389904Y-99892380D02*
X123389904Y-98892380D01*
X123770857Y-98892380D01*
X123866095Y-98940000D01*
X123913714Y-98987619D01*
X123961333Y-99082857D01*
X123961333Y-99225714D01*
X123913714Y-99320952D01*
X123866095Y-99368571D01*
X123770857Y-99416190D01*
X123389904Y-99416190D01*
X124818476Y-98892380D02*
X124628000Y-98892380D01*
X124532761Y-98940000D01*
X124485142Y-98987619D01*
X124389904Y-99130476D01*
X124342285Y-99320952D01*
X124342285Y-99701904D01*
X124389904Y-99797142D01*
X124437523Y-99844761D01*
X124532761Y-99892380D01*
X124723238Y-99892380D01*
X124818476Y-99844761D01*
X124866095Y-99797142D01*
X124913714Y-99701904D01*
X124913714Y-99463809D01*
X124866095Y-99368571D01*
X124818476Y-99320952D01*
X124723238Y-99273333D01*
X124532761Y-99273333D01*
X124437523Y-99320952D01*
X124389904Y-99368571D01*
X124342285Y-99463809D01*
X113801333Y-99892380D02*
X113468000Y-99416190D01*
X113229904Y-99892380D02*
X113229904Y-98892380D01*
X113610857Y-98892380D01*
X113706095Y-98940000D01*
X113753714Y-98987619D01*
X113801333Y-99082857D01*
X113801333Y-99225714D01*
X113753714Y-99320952D01*
X113706095Y-99368571D01*
X113610857Y-99416190D01*
X113229904Y-99416190D01*
X114134666Y-98892380D02*
X114801333Y-98892380D01*
X114372761Y-99892380D01*
X87193523Y-141168380D02*
X86860190Y-140692190D01*
X86622095Y-141168380D02*
X86622095Y-140168380D01*
X87003047Y-140168380D01*
X87098285Y-140216000D01*
X87145904Y-140263619D01*
X87193523Y-140358857D01*
X87193523Y-140501714D01*
X87145904Y-140596952D01*
X87098285Y-140644571D01*
X87003047Y-140692190D01*
X86622095Y-140692190D01*
X87622095Y-141168380D02*
X87622095Y-140168380D01*
X88193523Y-141168380D01*
X88193523Y-140168380D01*
X89193523Y-141168380D02*
X88622095Y-141168380D01*
X88907809Y-141168380D02*
X88907809Y-140168380D01*
X88812571Y-140311238D01*
X88717333Y-140406476D01*
X88622095Y-140454095D01*
X117673523Y-156662380D02*
X117340190Y-156186190D01*
X117102095Y-156662380D02*
X117102095Y-155662380D01*
X117483047Y-155662380D01*
X117578285Y-155710000D01*
X117625904Y-155757619D01*
X117673523Y-155852857D01*
X117673523Y-155995714D01*
X117625904Y-156090952D01*
X117578285Y-156138571D01*
X117483047Y-156186190D01*
X117102095Y-156186190D01*
X118102095Y-156662380D02*
X118102095Y-155662380D01*
X118673523Y-156662380D01*
X118673523Y-155662380D01*
X119102095Y-155757619D02*
X119149714Y-155710000D01*
X119244952Y-155662380D01*
X119483047Y-155662380D01*
X119578285Y-155710000D01*
X119625904Y-155757619D01*
X119673523Y-155852857D01*
X119673523Y-155948095D01*
X119625904Y-156090952D01*
X119054476Y-156662380D01*
X119673523Y-156662380D01*
X104850952Y-96384761D02*
X104993809Y-96432380D01*
X105231904Y-96432380D01*
X105327142Y-96384761D01*
X105374761Y-96337142D01*
X105422380Y-96241904D01*
X105422380Y-96146666D01*
X105374761Y-96051428D01*
X105327142Y-96003809D01*
X105231904Y-95956190D01*
X105041428Y-95908571D01*
X104946190Y-95860952D01*
X104898571Y-95813333D01*
X104850952Y-95718095D01*
X104850952Y-95622857D01*
X104898571Y-95527619D01*
X104946190Y-95480000D01*
X105041428Y-95432380D01*
X105279523Y-95432380D01*
X105422380Y-95480000D01*
X105850952Y-95908571D02*
X106184285Y-95908571D01*
X106327142Y-96432380D02*
X105850952Y-96432380D01*
X105850952Y-95432380D01*
X106327142Y-95432380D01*
X106612857Y-95432380D02*
X107184285Y-95432380D01*
X106898571Y-96432380D02*
X106898571Y-95432380D01*
X125337619Y-96432380D02*
X124861428Y-96432380D01*
X124861428Y-95432380D01*
X125670952Y-95908571D02*
X126004285Y-95908571D01*
X126147142Y-96432380D02*
X125670952Y-96432380D01*
X125670952Y-95432380D01*
X126147142Y-95432380D01*
X126909047Y-95908571D02*
X126575714Y-95908571D01*
X126575714Y-96432380D02*
X126575714Y-95432380D01*
X127051904Y-95432380D01*
X127290000Y-95432380D02*
X127861428Y-95432380D01*
X127575714Y-96432380D02*
X127575714Y-95432380D01*
X114796666Y-96432380D02*
X114463333Y-95956190D01*
X114225238Y-96432380D02*
X114225238Y-95432380D01*
X114606190Y-95432380D01*
X114701428Y-95480000D01*
X114749047Y-95527619D01*
X114796666Y-95622857D01*
X114796666Y-95765714D01*
X114749047Y-95860952D01*
X114701428Y-95908571D01*
X114606190Y-95956190D01*
X114225238Y-95956190D01*
X115225238Y-96432380D02*
X115225238Y-95432380D01*
X116225238Y-95480000D02*
X116130000Y-95432380D01*
X115987142Y-95432380D01*
X115844285Y-95480000D01*
X115749047Y-95575238D01*
X115701428Y-95670476D01*
X115653809Y-95860952D01*
X115653809Y-96003809D01*
X115701428Y-96194285D01*
X115749047Y-96289523D01*
X115844285Y-96384761D01*
X115987142Y-96432380D01*
X116082380Y-96432380D01*
X116225238Y-96384761D01*
X116272857Y-96337142D01*
X116272857Y-96003809D01*
X116082380Y-96003809D01*
X116701428Y-96432380D02*
X116701428Y-95432380D01*
X116701428Y-95908571D02*
X117272857Y-95908571D01*
X117272857Y-96432380D02*
X117272857Y-95432380D01*
X117606190Y-95432380D02*
X118177619Y-95432380D01*
X117891904Y-96432380D02*
X117891904Y-95432380D01*
X61468095Y-120312380D02*
X61468095Y-121121904D01*
X61515714Y-121217142D01*
X61563333Y-121264761D01*
X61658571Y-121312380D01*
X61849047Y-121312380D01*
X61944285Y-121264761D01*
X61991904Y-121217142D01*
X62039523Y-121121904D01*
X62039523Y-120312380D01*
X63039523Y-121312380D02*
X62468095Y-121312380D01*
X62753809Y-121312380D02*
X62753809Y-120312380D01*
X62658571Y-120455238D01*
X62563333Y-120550476D01*
X62468095Y-120598095D01*
X77978095Y-140632380D02*
X77978095Y-141441904D01*
X78025714Y-141537142D01*
X78073333Y-141584761D01*
X78168571Y-141632380D01*
X78359047Y-141632380D01*
X78454285Y-141584761D01*
X78501904Y-141537142D01*
X78549523Y-141441904D01*
X78549523Y-140632380D01*
X78978095Y-140727619D02*
X79025714Y-140680000D01*
X79120952Y-140632380D01*
X79359047Y-140632380D01*
X79454285Y-140680000D01*
X79501904Y-140727619D01*
X79549523Y-140822857D01*
X79549523Y-140918095D01*
X79501904Y-141060952D01*
X78930476Y-141632380D01*
X79549523Y-141632380D01*
M02*
