G04 #@! TF.GenerationSoftware,KiCad,Pcbnew,5.1.5-52549c5~86~ubuntu19.10.1*
G04 #@! TF.CreationDate,2020-04-22T22:15:28+03:00*
G04 #@! TF.ProjectId,control,636f6e74-726f-46c2-9e6b-696361645f70,rev?*
G04 #@! TF.SameCoordinates,Original*
G04 #@! TF.FileFunction,Soldermask,Top*
G04 #@! TF.FilePolarity,Negative*
%FSLAX46Y46*%
G04 Gerber Fmt 4.6, Leading zero omitted, Abs format (unit mm)*
G04 Created by KiCad (PCBNEW 5.1.5-52549c5~86~ubuntu19.10.1) date 2020-04-22 22:15:28*
%MOMM*%
%LPD*%
G04 APERTURE LIST*
%ADD10C,0.100000*%
G04 APERTURE END LIST*
D10*
G36*
X114138210Y-175663489D02*
G01*
X114224950Y-175689802D01*
X114304889Y-175732530D01*
X114374962Y-175790038D01*
X114432470Y-175860111D01*
X114475198Y-175940050D01*
X114501511Y-176026790D01*
X114511000Y-176123140D01*
X114511000Y-183286860D01*
X114501511Y-183383210D01*
X114475198Y-183469950D01*
X114432470Y-183549889D01*
X114374962Y-183619962D01*
X114304889Y-183677470D01*
X114224950Y-183720198D01*
X114138210Y-183746511D01*
X114041860Y-183756000D01*
X112878140Y-183756000D01*
X112781790Y-183746511D01*
X112695050Y-183720198D01*
X112615111Y-183677470D01*
X112545038Y-183619962D01*
X112487530Y-183549889D01*
X112444802Y-183469950D01*
X112418489Y-183383210D01*
X112409000Y-183286860D01*
X112409000Y-176123140D01*
X112418489Y-176026790D01*
X112444802Y-175940050D01*
X112487530Y-175860111D01*
X112545038Y-175790038D01*
X112615111Y-175732530D01*
X112695050Y-175689802D01*
X112781790Y-175663489D01*
X112878140Y-175654000D01*
X114041860Y-175654000D01*
X114138210Y-175663489D01*
G37*
G36*
X71638210Y-175663489D02*
G01*
X71724950Y-175689802D01*
X71804889Y-175732530D01*
X71874962Y-175790038D01*
X71932470Y-175860111D01*
X71975198Y-175940050D01*
X72001511Y-176026790D01*
X72011000Y-176123140D01*
X72011000Y-183286860D01*
X72001511Y-183383210D01*
X71975198Y-183469950D01*
X71932470Y-183549889D01*
X71874962Y-183619962D01*
X71804889Y-183677470D01*
X71724950Y-183720198D01*
X71638210Y-183746511D01*
X71541860Y-183756000D01*
X70378140Y-183756000D01*
X70281790Y-183746511D01*
X70195050Y-183720198D01*
X70115111Y-183677470D01*
X70045038Y-183619962D01*
X69987530Y-183549889D01*
X69944802Y-183469950D01*
X69918489Y-183383210D01*
X69909000Y-183286860D01*
X69909000Y-176123140D01*
X69918489Y-176026790D01*
X69944802Y-175940050D01*
X69987530Y-175860111D01*
X70045038Y-175790038D01*
X70115111Y-175732530D01*
X70195050Y-175689802D01*
X70281790Y-175663489D01*
X70378140Y-175654000D01*
X71541860Y-175654000D01*
X71638210Y-175663489D01*
G37*
G36*
X89138210Y-175663489D02*
G01*
X89224950Y-175689802D01*
X89304889Y-175732530D01*
X89374962Y-175790038D01*
X89432470Y-175860111D01*
X89475198Y-175940050D01*
X89501511Y-176026790D01*
X89511000Y-176123140D01*
X89511000Y-183286860D01*
X89501511Y-183383210D01*
X89475198Y-183469950D01*
X89432470Y-183549889D01*
X89374962Y-183619962D01*
X89304889Y-183677470D01*
X89224950Y-183720198D01*
X89138210Y-183746511D01*
X89041860Y-183756000D01*
X87878140Y-183756000D01*
X87781790Y-183746511D01*
X87695050Y-183720198D01*
X87615111Y-183677470D01*
X87545038Y-183619962D01*
X87487530Y-183549889D01*
X87444802Y-183469950D01*
X87418489Y-183383210D01*
X87409000Y-183286860D01*
X87409000Y-176123140D01*
X87418489Y-176026790D01*
X87444802Y-175940050D01*
X87487530Y-175860111D01*
X87545038Y-175790038D01*
X87615111Y-175732530D01*
X87695050Y-175689802D01*
X87781790Y-175663489D01*
X87878140Y-175654000D01*
X89041860Y-175654000D01*
X89138210Y-175663489D01*
G37*
G36*
X86638210Y-175663489D02*
G01*
X86724950Y-175689802D01*
X86804889Y-175732530D01*
X86874962Y-175790038D01*
X86932470Y-175860111D01*
X86975198Y-175940050D01*
X87001511Y-176026790D01*
X87011000Y-176123140D01*
X87011000Y-183286860D01*
X87001511Y-183383210D01*
X86975198Y-183469950D01*
X86932470Y-183549889D01*
X86874962Y-183619962D01*
X86804889Y-183677470D01*
X86724950Y-183720198D01*
X86638210Y-183746511D01*
X86541860Y-183756000D01*
X85378140Y-183756000D01*
X85281790Y-183746511D01*
X85195050Y-183720198D01*
X85115111Y-183677470D01*
X85045038Y-183619962D01*
X84987530Y-183549889D01*
X84944802Y-183469950D01*
X84918489Y-183383210D01*
X84909000Y-183286860D01*
X84909000Y-176123140D01*
X84918489Y-176026790D01*
X84944802Y-175940050D01*
X84987530Y-175860111D01*
X85045038Y-175790038D01*
X85115111Y-175732530D01*
X85195050Y-175689802D01*
X85281790Y-175663489D01*
X85378140Y-175654000D01*
X86541860Y-175654000D01*
X86638210Y-175663489D01*
G37*
G36*
X64138210Y-175663489D02*
G01*
X64224950Y-175689802D01*
X64304889Y-175732530D01*
X64374962Y-175790038D01*
X64432470Y-175860111D01*
X64475198Y-175940050D01*
X64501511Y-176026790D01*
X64511000Y-176123140D01*
X64511000Y-183286860D01*
X64501511Y-183383210D01*
X64475198Y-183469950D01*
X64432470Y-183549889D01*
X64374962Y-183619962D01*
X64304889Y-183677470D01*
X64224950Y-183720198D01*
X64138210Y-183746511D01*
X64041860Y-183756000D01*
X62878140Y-183756000D01*
X62781790Y-183746511D01*
X62695050Y-183720198D01*
X62615111Y-183677470D01*
X62545038Y-183619962D01*
X62487530Y-183549889D01*
X62444802Y-183469950D01*
X62418489Y-183383210D01*
X62409000Y-183286860D01*
X62409000Y-176123140D01*
X62418489Y-176026790D01*
X62444802Y-175940050D01*
X62487530Y-175860111D01*
X62545038Y-175790038D01*
X62615111Y-175732530D01*
X62695050Y-175689802D01*
X62781790Y-175663489D01*
X62878140Y-175654000D01*
X64041860Y-175654000D01*
X64138210Y-175663489D01*
G37*
G36*
X96638210Y-175663489D02*
G01*
X96724950Y-175689802D01*
X96804889Y-175732530D01*
X96874962Y-175790038D01*
X96932470Y-175860111D01*
X96975198Y-175940050D01*
X97001511Y-176026790D01*
X97011000Y-176123140D01*
X97011000Y-183286860D01*
X97001511Y-183383210D01*
X96975198Y-183469950D01*
X96932470Y-183549889D01*
X96874962Y-183619962D01*
X96804889Y-183677470D01*
X96724950Y-183720198D01*
X96638210Y-183746511D01*
X96541860Y-183756000D01*
X95378140Y-183756000D01*
X95281790Y-183746511D01*
X95195050Y-183720198D01*
X95115111Y-183677470D01*
X95045038Y-183619962D01*
X94987530Y-183549889D01*
X94944802Y-183469950D01*
X94918489Y-183383210D01*
X94909000Y-183286860D01*
X94909000Y-176123140D01*
X94918489Y-176026790D01*
X94944802Y-175940050D01*
X94987530Y-175860111D01*
X95045038Y-175790038D01*
X95115111Y-175732530D01*
X95195050Y-175689802D01*
X95281790Y-175663489D01*
X95378140Y-175654000D01*
X96541860Y-175654000D01*
X96638210Y-175663489D01*
G37*
G36*
X79138210Y-175663489D02*
G01*
X79224950Y-175689802D01*
X79304889Y-175732530D01*
X79374962Y-175790038D01*
X79432470Y-175860111D01*
X79475198Y-175940050D01*
X79501511Y-176026790D01*
X79511000Y-176123140D01*
X79511000Y-183286860D01*
X79501511Y-183383210D01*
X79475198Y-183469950D01*
X79432470Y-183549889D01*
X79374962Y-183619962D01*
X79304889Y-183677470D01*
X79224950Y-183720198D01*
X79138210Y-183746511D01*
X79041860Y-183756000D01*
X77878140Y-183756000D01*
X77781790Y-183746511D01*
X77695050Y-183720198D01*
X77615111Y-183677470D01*
X77545038Y-183619962D01*
X77487530Y-183549889D01*
X77444802Y-183469950D01*
X77418489Y-183383210D01*
X77409000Y-183286860D01*
X77409000Y-176123140D01*
X77418489Y-176026790D01*
X77444802Y-175940050D01*
X77487530Y-175860111D01*
X77545038Y-175790038D01*
X77615111Y-175732530D01*
X77695050Y-175689802D01*
X77781790Y-175663489D01*
X77878140Y-175654000D01*
X79041860Y-175654000D01*
X79138210Y-175663489D01*
G37*
G36*
X59138210Y-175663489D02*
G01*
X59224950Y-175689802D01*
X59304889Y-175732530D01*
X59374962Y-175790038D01*
X59432470Y-175860111D01*
X59475198Y-175940050D01*
X59501511Y-176026790D01*
X59511000Y-176123140D01*
X59511000Y-183286860D01*
X59501511Y-183383210D01*
X59475198Y-183469950D01*
X59432470Y-183549889D01*
X59374962Y-183619962D01*
X59304889Y-183677470D01*
X59224950Y-183720198D01*
X59138210Y-183746511D01*
X59041860Y-183756000D01*
X57878140Y-183756000D01*
X57781790Y-183746511D01*
X57695050Y-183720198D01*
X57615111Y-183677470D01*
X57545038Y-183619962D01*
X57487530Y-183549889D01*
X57444802Y-183469950D01*
X57418489Y-183383210D01*
X57409000Y-183286860D01*
X57409000Y-176123140D01*
X57418489Y-176026790D01*
X57444802Y-175940050D01*
X57487530Y-175860111D01*
X57545038Y-175790038D01*
X57615111Y-175732530D01*
X57695050Y-175689802D01*
X57781790Y-175663489D01*
X57878140Y-175654000D01*
X59041860Y-175654000D01*
X59138210Y-175663489D01*
G37*
G36*
X84138210Y-175663489D02*
G01*
X84224950Y-175689802D01*
X84304889Y-175732530D01*
X84374962Y-175790038D01*
X84432470Y-175860111D01*
X84475198Y-175940050D01*
X84501511Y-176026790D01*
X84511000Y-176123140D01*
X84511000Y-183286860D01*
X84501511Y-183383210D01*
X84475198Y-183469950D01*
X84432470Y-183549889D01*
X84374962Y-183619962D01*
X84304889Y-183677470D01*
X84224950Y-183720198D01*
X84138210Y-183746511D01*
X84041860Y-183756000D01*
X82878140Y-183756000D01*
X82781790Y-183746511D01*
X82695050Y-183720198D01*
X82615111Y-183677470D01*
X82545038Y-183619962D01*
X82487530Y-183549889D01*
X82444802Y-183469950D01*
X82418489Y-183383210D01*
X82409000Y-183286860D01*
X82409000Y-176123140D01*
X82418489Y-176026790D01*
X82444802Y-175940050D01*
X82487530Y-175860111D01*
X82545038Y-175790038D01*
X82615111Y-175732530D01*
X82695050Y-175689802D01*
X82781790Y-175663489D01*
X82878140Y-175654000D01*
X84041860Y-175654000D01*
X84138210Y-175663489D01*
G37*
G36*
X99138210Y-175663489D02*
G01*
X99224950Y-175689802D01*
X99304889Y-175732530D01*
X99374962Y-175790038D01*
X99432470Y-175860111D01*
X99475198Y-175940050D01*
X99501511Y-176026790D01*
X99511000Y-176123140D01*
X99511000Y-183286860D01*
X99501511Y-183383210D01*
X99475198Y-183469950D01*
X99432470Y-183549889D01*
X99374962Y-183619962D01*
X99304889Y-183677470D01*
X99224950Y-183720198D01*
X99138210Y-183746511D01*
X99041860Y-183756000D01*
X97878140Y-183756000D01*
X97781790Y-183746511D01*
X97695050Y-183720198D01*
X97615111Y-183677470D01*
X97545038Y-183619962D01*
X97487530Y-183549889D01*
X97444802Y-183469950D01*
X97418489Y-183383210D01*
X97409000Y-183286860D01*
X97409000Y-176123140D01*
X97418489Y-176026790D01*
X97444802Y-175940050D01*
X97487530Y-175860111D01*
X97545038Y-175790038D01*
X97615111Y-175732530D01*
X97695050Y-175689802D01*
X97781790Y-175663489D01*
X97878140Y-175654000D01*
X99041860Y-175654000D01*
X99138210Y-175663489D01*
G37*
G36*
X74138210Y-175663489D02*
G01*
X74224950Y-175689802D01*
X74304889Y-175732530D01*
X74374962Y-175790038D01*
X74432470Y-175860111D01*
X74475198Y-175940050D01*
X74501511Y-176026790D01*
X74511000Y-176123140D01*
X74511000Y-183286860D01*
X74501511Y-183383210D01*
X74475198Y-183469950D01*
X74432470Y-183549889D01*
X74374962Y-183619962D01*
X74304889Y-183677470D01*
X74224950Y-183720198D01*
X74138210Y-183746511D01*
X74041860Y-183756000D01*
X72878140Y-183756000D01*
X72781790Y-183746511D01*
X72695050Y-183720198D01*
X72615111Y-183677470D01*
X72545038Y-183619962D01*
X72487530Y-183549889D01*
X72444802Y-183469950D01*
X72418489Y-183383210D01*
X72409000Y-183286860D01*
X72409000Y-176123140D01*
X72418489Y-176026790D01*
X72444802Y-175940050D01*
X72487530Y-175860111D01*
X72545038Y-175790038D01*
X72615111Y-175732530D01*
X72695050Y-175689802D01*
X72781790Y-175663489D01*
X72878140Y-175654000D01*
X74041860Y-175654000D01*
X74138210Y-175663489D01*
G37*
G36*
X81638210Y-175663489D02*
G01*
X81724950Y-175689802D01*
X81804889Y-175732530D01*
X81874962Y-175790038D01*
X81932470Y-175860111D01*
X81975198Y-175940050D01*
X82001511Y-176026790D01*
X82011000Y-176123140D01*
X82011000Y-183286860D01*
X82001511Y-183383210D01*
X81975198Y-183469950D01*
X81932470Y-183549889D01*
X81874962Y-183619962D01*
X81804889Y-183677470D01*
X81724950Y-183720198D01*
X81638210Y-183746511D01*
X81541860Y-183756000D01*
X80378140Y-183756000D01*
X80281790Y-183746511D01*
X80195050Y-183720198D01*
X80115111Y-183677470D01*
X80045038Y-183619962D01*
X79987530Y-183549889D01*
X79944802Y-183469950D01*
X79918489Y-183383210D01*
X79909000Y-183286860D01*
X79909000Y-176123140D01*
X79918489Y-176026790D01*
X79944802Y-175940050D01*
X79987530Y-175860111D01*
X80045038Y-175790038D01*
X80115111Y-175732530D01*
X80195050Y-175689802D01*
X80281790Y-175663489D01*
X80378140Y-175654000D01*
X81541860Y-175654000D01*
X81638210Y-175663489D01*
G37*
G36*
X94138210Y-175663489D02*
G01*
X94224950Y-175689802D01*
X94304889Y-175732530D01*
X94374962Y-175790038D01*
X94432470Y-175860111D01*
X94475198Y-175940050D01*
X94501511Y-176026790D01*
X94511000Y-176123140D01*
X94511000Y-183286860D01*
X94501511Y-183383210D01*
X94475198Y-183469950D01*
X94432470Y-183549889D01*
X94374962Y-183619962D01*
X94304889Y-183677470D01*
X94224950Y-183720198D01*
X94138210Y-183746511D01*
X94041860Y-183756000D01*
X92878140Y-183756000D01*
X92781790Y-183746511D01*
X92695050Y-183720198D01*
X92615111Y-183677470D01*
X92545038Y-183619962D01*
X92487530Y-183549889D01*
X92444802Y-183469950D01*
X92418489Y-183383210D01*
X92409000Y-183286860D01*
X92409000Y-176123140D01*
X92418489Y-176026790D01*
X92444802Y-175940050D01*
X92487530Y-175860111D01*
X92545038Y-175790038D01*
X92615111Y-175732530D01*
X92695050Y-175689802D01*
X92781790Y-175663489D01*
X92878140Y-175654000D01*
X94041860Y-175654000D01*
X94138210Y-175663489D01*
G37*
G36*
X109138210Y-175663489D02*
G01*
X109224950Y-175689802D01*
X109304889Y-175732530D01*
X109374962Y-175790038D01*
X109432470Y-175860111D01*
X109475198Y-175940050D01*
X109501511Y-176026790D01*
X109511000Y-176123140D01*
X109511000Y-183286860D01*
X109501511Y-183383210D01*
X109475198Y-183469950D01*
X109432470Y-183549889D01*
X109374962Y-183619962D01*
X109304889Y-183677470D01*
X109224950Y-183720198D01*
X109138210Y-183746511D01*
X109041860Y-183756000D01*
X107878140Y-183756000D01*
X107781790Y-183746511D01*
X107695050Y-183720198D01*
X107615111Y-183677470D01*
X107545038Y-183619962D01*
X107487530Y-183549889D01*
X107444802Y-183469950D01*
X107418489Y-183383210D01*
X107409000Y-183286860D01*
X107409000Y-176123140D01*
X107418489Y-176026790D01*
X107444802Y-175940050D01*
X107487530Y-175860111D01*
X107545038Y-175790038D01*
X107615111Y-175732530D01*
X107695050Y-175689802D01*
X107781790Y-175663489D01*
X107878140Y-175654000D01*
X109041860Y-175654000D01*
X109138210Y-175663489D01*
G37*
G36*
X66638210Y-175663489D02*
G01*
X66724950Y-175689802D01*
X66804889Y-175732530D01*
X66874962Y-175790038D01*
X66932470Y-175860111D01*
X66975198Y-175940050D01*
X67001511Y-176026790D01*
X67011000Y-176123140D01*
X67011000Y-183286860D01*
X67001511Y-183383210D01*
X66975198Y-183469950D01*
X66932470Y-183549889D01*
X66874962Y-183619962D01*
X66804889Y-183677470D01*
X66724950Y-183720198D01*
X66638210Y-183746511D01*
X66541860Y-183756000D01*
X65378140Y-183756000D01*
X65281790Y-183746511D01*
X65195050Y-183720198D01*
X65115111Y-183677470D01*
X65045038Y-183619962D01*
X64987530Y-183549889D01*
X64944802Y-183469950D01*
X64918489Y-183383210D01*
X64909000Y-183286860D01*
X64909000Y-176123140D01*
X64918489Y-176026790D01*
X64944802Y-175940050D01*
X64987530Y-175860111D01*
X65045038Y-175790038D01*
X65115111Y-175732530D01*
X65195050Y-175689802D01*
X65281790Y-175663489D01*
X65378140Y-175654000D01*
X66541860Y-175654000D01*
X66638210Y-175663489D01*
G37*
G36*
X61638210Y-175663489D02*
G01*
X61724950Y-175689802D01*
X61804889Y-175732530D01*
X61874962Y-175790038D01*
X61932470Y-175860111D01*
X61975198Y-175940050D01*
X62001511Y-176026790D01*
X62011000Y-176123140D01*
X62011000Y-183286860D01*
X62001511Y-183383210D01*
X61975198Y-183469950D01*
X61932470Y-183549889D01*
X61874962Y-183619962D01*
X61804889Y-183677470D01*
X61724950Y-183720198D01*
X61638210Y-183746511D01*
X61541860Y-183756000D01*
X60378140Y-183756000D01*
X60281790Y-183746511D01*
X60195050Y-183720198D01*
X60115111Y-183677470D01*
X60045038Y-183619962D01*
X59987530Y-183549889D01*
X59944802Y-183469950D01*
X59918489Y-183383210D01*
X59909000Y-183286860D01*
X59909000Y-176123140D01*
X59918489Y-176026790D01*
X59944802Y-175940050D01*
X59987530Y-175860111D01*
X60045038Y-175790038D01*
X60115111Y-175732530D01*
X60195050Y-175689802D01*
X60281790Y-175663489D01*
X60378140Y-175654000D01*
X61541860Y-175654000D01*
X61638210Y-175663489D01*
G37*
G36*
X56638210Y-175663489D02*
G01*
X56724950Y-175689802D01*
X56804889Y-175732530D01*
X56874962Y-175790038D01*
X56932470Y-175860111D01*
X56975198Y-175940050D01*
X57001511Y-176026790D01*
X57011000Y-176123140D01*
X57011000Y-183286860D01*
X57001511Y-183383210D01*
X56975198Y-183469950D01*
X56932470Y-183549889D01*
X56874962Y-183619962D01*
X56804889Y-183677470D01*
X56724950Y-183720198D01*
X56638210Y-183746511D01*
X56541860Y-183756000D01*
X55378140Y-183756000D01*
X55281790Y-183746511D01*
X55195050Y-183720198D01*
X55115111Y-183677470D01*
X55045038Y-183619962D01*
X54987530Y-183549889D01*
X54944802Y-183469950D01*
X54918489Y-183383210D01*
X54909000Y-183286860D01*
X54909000Y-176123140D01*
X54918489Y-176026790D01*
X54944802Y-175940050D01*
X54987530Y-175860111D01*
X55045038Y-175790038D01*
X55115111Y-175732530D01*
X55195050Y-175689802D01*
X55281790Y-175663489D01*
X55378140Y-175654000D01*
X56541860Y-175654000D01*
X56638210Y-175663489D01*
G37*
G36*
X69138210Y-175663489D02*
G01*
X69224950Y-175689802D01*
X69304889Y-175732530D01*
X69374962Y-175790038D01*
X69432470Y-175860111D01*
X69475198Y-175940050D01*
X69501511Y-176026790D01*
X69511000Y-176123140D01*
X69511000Y-183286860D01*
X69501511Y-183383210D01*
X69475198Y-183469950D01*
X69432470Y-183549889D01*
X69374962Y-183619962D01*
X69304889Y-183677470D01*
X69224950Y-183720198D01*
X69138210Y-183746511D01*
X69041860Y-183756000D01*
X67878140Y-183756000D01*
X67781790Y-183746511D01*
X67695050Y-183720198D01*
X67615111Y-183677470D01*
X67545038Y-183619962D01*
X67487530Y-183549889D01*
X67444802Y-183469950D01*
X67418489Y-183383210D01*
X67409000Y-183286860D01*
X67409000Y-176123140D01*
X67418489Y-176026790D01*
X67444802Y-175940050D01*
X67487530Y-175860111D01*
X67545038Y-175790038D01*
X67615111Y-175732530D01*
X67695050Y-175689802D01*
X67781790Y-175663489D01*
X67878140Y-175654000D01*
X69041860Y-175654000D01*
X69138210Y-175663489D01*
G37*
G36*
X91638210Y-175663489D02*
G01*
X91724950Y-175689802D01*
X91804889Y-175732530D01*
X91874962Y-175790038D01*
X91932470Y-175860111D01*
X91975198Y-175940050D01*
X92001511Y-176026790D01*
X92011000Y-176123140D01*
X92011000Y-183286860D01*
X92001511Y-183383210D01*
X91975198Y-183469950D01*
X91932470Y-183549889D01*
X91874962Y-183619962D01*
X91804889Y-183677470D01*
X91724950Y-183720198D01*
X91638210Y-183746511D01*
X91541860Y-183756000D01*
X90378140Y-183756000D01*
X90281790Y-183746511D01*
X90195050Y-183720198D01*
X90115111Y-183677470D01*
X90045038Y-183619962D01*
X89987530Y-183549889D01*
X89944802Y-183469950D01*
X89918489Y-183383210D01*
X89909000Y-183286860D01*
X89909000Y-176123140D01*
X89918489Y-176026790D01*
X89944802Y-175940050D01*
X89987530Y-175860111D01*
X90045038Y-175790038D01*
X90115111Y-175732530D01*
X90195050Y-175689802D01*
X90281790Y-175663489D01*
X90378140Y-175654000D01*
X91541860Y-175654000D01*
X91638210Y-175663489D01*
G37*
G36*
X76638210Y-175663489D02*
G01*
X76724950Y-175689802D01*
X76804889Y-175732530D01*
X76874962Y-175790038D01*
X76932470Y-175860111D01*
X76975198Y-175940050D01*
X77001511Y-176026790D01*
X77011000Y-176123140D01*
X77011000Y-183286860D01*
X77001511Y-183383210D01*
X76975198Y-183469950D01*
X76932470Y-183549889D01*
X76874962Y-183619962D01*
X76804889Y-183677470D01*
X76724950Y-183720198D01*
X76638210Y-183746511D01*
X76541860Y-183756000D01*
X75378140Y-183756000D01*
X75281790Y-183746511D01*
X75195050Y-183720198D01*
X75115111Y-183677470D01*
X75045038Y-183619962D01*
X74987530Y-183549889D01*
X74944802Y-183469950D01*
X74918489Y-183383210D01*
X74909000Y-183286860D01*
X74909000Y-176123140D01*
X74918489Y-176026790D01*
X74944802Y-175940050D01*
X74987530Y-175860111D01*
X75045038Y-175790038D01*
X75115111Y-175732530D01*
X75195050Y-175689802D01*
X75281790Y-175663489D01*
X75378140Y-175654000D01*
X76541860Y-175654000D01*
X76638210Y-175663489D01*
G37*
G36*
X111638210Y-175663489D02*
G01*
X111724950Y-175689802D01*
X111804889Y-175732530D01*
X111874962Y-175790038D01*
X111932470Y-175860111D01*
X111975198Y-175940050D01*
X112001511Y-176026790D01*
X112011000Y-176123140D01*
X112011000Y-183286860D01*
X112001511Y-183383210D01*
X111975198Y-183469950D01*
X111932470Y-183549889D01*
X111874962Y-183619962D01*
X111804889Y-183677470D01*
X111724950Y-183720198D01*
X111638210Y-183746511D01*
X111541860Y-183756000D01*
X110378140Y-183756000D01*
X110281790Y-183746511D01*
X110195050Y-183720198D01*
X110115111Y-183677470D01*
X110045038Y-183619962D01*
X109987530Y-183549889D01*
X109944802Y-183469950D01*
X109918489Y-183383210D01*
X109909000Y-183286860D01*
X109909000Y-176123140D01*
X109918489Y-176026790D01*
X109944802Y-175940050D01*
X109987530Y-175860111D01*
X110045038Y-175790038D01*
X110115111Y-175732530D01*
X110195050Y-175689802D01*
X110281790Y-175663489D01*
X110378140Y-175654000D01*
X111541860Y-175654000D01*
X111638210Y-175663489D01*
G37*
G36*
X101638210Y-175663489D02*
G01*
X101724950Y-175689802D01*
X101804889Y-175732530D01*
X101874962Y-175790038D01*
X101932470Y-175860111D01*
X101975198Y-175940050D01*
X102001511Y-176026790D01*
X102011000Y-176123140D01*
X102011000Y-183286860D01*
X102001511Y-183383210D01*
X101975198Y-183469950D01*
X101932470Y-183549889D01*
X101874962Y-183619962D01*
X101804889Y-183677470D01*
X101724950Y-183720198D01*
X101638210Y-183746511D01*
X101541860Y-183756000D01*
X100378140Y-183756000D01*
X100281790Y-183746511D01*
X100195050Y-183720198D01*
X100115111Y-183677470D01*
X100045038Y-183619962D01*
X99987530Y-183549889D01*
X99944802Y-183469950D01*
X99918489Y-183383210D01*
X99909000Y-183286860D01*
X99909000Y-176123140D01*
X99918489Y-176026790D01*
X99944802Y-175940050D01*
X99987530Y-175860111D01*
X100045038Y-175790038D01*
X100115111Y-175732530D01*
X100195050Y-175689802D01*
X100281790Y-175663489D01*
X100378140Y-175654000D01*
X101541860Y-175654000D01*
X101638210Y-175663489D01*
G37*
G36*
X106638210Y-175663489D02*
G01*
X106724950Y-175689802D01*
X106804889Y-175732530D01*
X106874962Y-175790038D01*
X106932470Y-175860111D01*
X106975198Y-175940050D01*
X107001511Y-176026790D01*
X107011000Y-176123140D01*
X107011000Y-183286860D01*
X107001511Y-183383210D01*
X106975198Y-183469950D01*
X106932470Y-183549889D01*
X106874962Y-183619962D01*
X106804889Y-183677470D01*
X106724950Y-183720198D01*
X106638210Y-183746511D01*
X106541860Y-183756000D01*
X105378140Y-183756000D01*
X105281790Y-183746511D01*
X105195050Y-183720198D01*
X105115111Y-183677470D01*
X105045038Y-183619962D01*
X104987530Y-183549889D01*
X104944802Y-183469950D01*
X104918489Y-183383210D01*
X104909000Y-183286860D01*
X104909000Y-176123140D01*
X104918489Y-176026790D01*
X104944802Y-175940050D01*
X104987530Y-175860111D01*
X105045038Y-175790038D01*
X105115111Y-175732530D01*
X105195050Y-175689802D01*
X105281790Y-175663489D01*
X105378140Y-175654000D01*
X106541860Y-175654000D01*
X106638210Y-175663489D01*
G37*
G36*
X104138210Y-175663489D02*
G01*
X104224950Y-175689802D01*
X104304889Y-175732530D01*
X104374962Y-175790038D01*
X104432470Y-175860111D01*
X104475198Y-175940050D01*
X104501511Y-176026790D01*
X104511000Y-176123140D01*
X104511000Y-183286860D01*
X104501511Y-183383210D01*
X104475198Y-183469950D01*
X104432470Y-183549889D01*
X104374962Y-183619962D01*
X104304889Y-183677470D01*
X104224950Y-183720198D01*
X104138210Y-183746511D01*
X104041860Y-183756000D01*
X102878140Y-183756000D01*
X102781790Y-183746511D01*
X102695050Y-183720198D01*
X102615111Y-183677470D01*
X102545038Y-183619962D01*
X102487530Y-183549889D01*
X102444802Y-183469950D01*
X102418489Y-183383210D01*
X102409000Y-183286860D01*
X102409000Y-176123140D01*
X102418489Y-176026790D01*
X102444802Y-175940050D01*
X102487530Y-175860111D01*
X102545038Y-175790038D01*
X102615111Y-175732530D01*
X102695050Y-175689802D01*
X102781790Y-175663489D01*
X102878140Y-175654000D01*
X104041860Y-175654000D01*
X104138210Y-175663489D01*
G37*
G36*
X95752228Y-166567703D02*
G01*
X95907100Y-166631853D01*
X96046481Y-166724985D01*
X96165015Y-166843519D01*
X96258147Y-166982900D01*
X96322297Y-167137772D01*
X96355000Y-167302184D01*
X96355000Y-167469816D01*
X96322297Y-167634228D01*
X96258147Y-167789100D01*
X96165015Y-167928481D01*
X96046481Y-168047015D01*
X95907100Y-168140147D01*
X95752228Y-168204297D01*
X95587816Y-168237000D01*
X95420184Y-168237000D01*
X95255772Y-168204297D01*
X95100900Y-168140147D01*
X94961519Y-168047015D01*
X94842985Y-167928481D01*
X94749853Y-167789100D01*
X94685703Y-167634228D01*
X94653000Y-167469816D01*
X94653000Y-167302184D01*
X94685703Y-167137772D01*
X94749853Y-166982900D01*
X94842985Y-166843519D01*
X94961519Y-166724985D01*
X95100900Y-166631853D01*
X95255772Y-166567703D01*
X95420184Y-166535000D01*
X95587816Y-166535000D01*
X95752228Y-166567703D01*
G37*
G36*
X113532228Y-166567703D02*
G01*
X113687100Y-166631853D01*
X113826481Y-166724985D01*
X113945015Y-166843519D01*
X114038147Y-166982900D01*
X114102297Y-167137772D01*
X114135000Y-167302184D01*
X114135000Y-167469816D01*
X114102297Y-167634228D01*
X114038147Y-167789100D01*
X113945015Y-167928481D01*
X113826481Y-168047015D01*
X113687100Y-168140147D01*
X113532228Y-168204297D01*
X113367816Y-168237000D01*
X113200184Y-168237000D01*
X113035772Y-168204297D01*
X112880900Y-168140147D01*
X112741519Y-168047015D01*
X112622985Y-167928481D01*
X112529853Y-167789100D01*
X112465703Y-167634228D01*
X112433000Y-167469816D01*
X112433000Y-167302184D01*
X112465703Y-167137772D01*
X112529853Y-166982900D01*
X112622985Y-166843519D01*
X112741519Y-166724985D01*
X112880900Y-166631853D01*
X113035772Y-166567703D01*
X113200184Y-166535000D01*
X113367816Y-166535000D01*
X113532228Y-166567703D01*
G37*
G36*
X103372228Y-166567703D02*
G01*
X103527100Y-166631853D01*
X103666481Y-166724985D01*
X103785015Y-166843519D01*
X103878147Y-166982900D01*
X103942297Y-167137772D01*
X103975000Y-167302184D01*
X103975000Y-167469816D01*
X103942297Y-167634228D01*
X103878147Y-167789100D01*
X103785015Y-167928481D01*
X103666481Y-168047015D01*
X103527100Y-168140147D01*
X103372228Y-168204297D01*
X103207816Y-168237000D01*
X103040184Y-168237000D01*
X102875772Y-168204297D01*
X102720900Y-168140147D01*
X102581519Y-168047015D01*
X102462985Y-167928481D01*
X102369853Y-167789100D01*
X102305703Y-167634228D01*
X102273000Y-167469816D01*
X102273000Y-167302184D01*
X102305703Y-167137772D01*
X102369853Y-166982900D01*
X102462985Y-166843519D01*
X102581519Y-166724985D01*
X102720900Y-166631853D01*
X102875772Y-166567703D01*
X103040184Y-166535000D01*
X103207816Y-166535000D01*
X103372228Y-166567703D01*
G37*
G36*
X110992228Y-166567703D02*
G01*
X111147100Y-166631853D01*
X111286481Y-166724985D01*
X111405015Y-166843519D01*
X111498147Y-166982900D01*
X111562297Y-167137772D01*
X111595000Y-167302184D01*
X111595000Y-167469816D01*
X111562297Y-167634228D01*
X111498147Y-167789100D01*
X111405015Y-167928481D01*
X111286481Y-168047015D01*
X111147100Y-168140147D01*
X110992228Y-168204297D01*
X110827816Y-168237000D01*
X110660184Y-168237000D01*
X110495772Y-168204297D01*
X110340900Y-168140147D01*
X110201519Y-168047015D01*
X110082985Y-167928481D01*
X109989853Y-167789100D01*
X109925703Y-167634228D01*
X109893000Y-167469816D01*
X109893000Y-167302184D01*
X109925703Y-167137772D01*
X109989853Y-166982900D01*
X110082985Y-166843519D01*
X110201519Y-166724985D01*
X110340900Y-166631853D01*
X110495772Y-166567703D01*
X110660184Y-166535000D01*
X110827816Y-166535000D01*
X110992228Y-166567703D01*
G37*
G36*
X100832228Y-166567703D02*
G01*
X100987100Y-166631853D01*
X101126481Y-166724985D01*
X101245015Y-166843519D01*
X101338147Y-166982900D01*
X101402297Y-167137772D01*
X101435000Y-167302184D01*
X101435000Y-167469816D01*
X101402297Y-167634228D01*
X101338147Y-167789100D01*
X101245015Y-167928481D01*
X101126481Y-168047015D01*
X100987100Y-168140147D01*
X100832228Y-168204297D01*
X100667816Y-168237000D01*
X100500184Y-168237000D01*
X100335772Y-168204297D01*
X100180900Y-168140147D01*
X100041519Y-168047015D01*
X99922985Y-167928481D01*
X99829853Y-167789100D01*
X99765703Y-167634228D01*
X99733000Y-167469816D01*
X99733000Y-167302184D01*
X99765703Y-167137772D01*
X99829853Y-166982900D01*
X99922985Y-166843519D01*
X100041519Y-166724985D01*
X100180900Y-166631853D01*
X100335772Y-166567703D01*
X100500184Y-166535000D01*
X100667816Y-166535000D01*
X100832228Y-166567703D01*
G37*
G36*
X98292228Y-166567703D02*
G01*
X98447100Y-166631853D01*
X98586481Y-166724985D01*
X98705015Y-166843519D01*
X98798147Y-166982900D01*
X98862297Y-167137772D01*
X98895000Y-167302184D01*
X98895000Y-167469816D01*
X98862297Y-167634228D01*
X98798147Y-167789100D01*
X98705015Y-167928481D01*
X98586481Y-168047015D01*
X98447100Y-168140147D01*
X98292228Y-168204297D01*
X98127816Y-168237000D01*
X97960184Y-168237000D01*
X97795772Y-168204297D01*
X97640900Y-168140147D01*
X97501519Y-168047015D01*
X97382985Y-167928481D01*
X97289853Y-167789100D01*
X97225703Y-167634228D01*
X97193000Y-167469816D01*
X97193000Y-167302184D01*
X97225703Y-167137772D01*
X97289853Y-166982900D01*
X97382985Y-166843519D01*
X97501519Y-166724985D01*
X97640900Y-166631853D01*
X97795772Y-166567703D01*
X97960184Y-166535000D01*
X98127816Y-166535000D01*
X98292228Y-166567703D01*
G37*
G36*
X93212228Y-166567703D02*
G01*
X93367100Y-166631853D01*
X93506481Y-166724985D01*
X93625015Y-166843519D01*
X93718147Y-166982900D01*
X93782297Y-167137772D01*
X93815000Y-167302184D01*
X93815000Y-167469816D01*
X93782297Y-167634228D01*
X93718147Y-167789100D01*
X93625015Y-167928481D01*
X93506481Y-168047015D01*
X93367100Y-168140147D01*
X93212228Y-168204297D01*
X93047816Y-168237000D01*
X92880184Y-168237000D01*
X92715772Y-168204297D01*
X92560900Y-168140147D01*
X92421519Y-168047015D01*
X92302985Y-167928481D01*
X92209853Y-167789100D01*
X92145703Y-167634228D01*
X92113000Y-167469816D01*
X92113000Y-167302184D01*
X92145703Y-167137772D01*
X92209853Y-166982900D01*
X92302985Y-166843519D01*
X92421519Y-166724985D01*
X92560900Y-166631853D01*
X92715772Y-166567703D01*
X92880184Y-166535000D01*
X93047816Y-166535000D01*
X93212228Y-166567703D01*
G37*
G36*
X91275000Y-168237000D02*
G01*
X89573000Y-168237000D01*
X89573000Y-166535000D01*
X91275000Y-166535000D01*
X91275000Y-168237000D01*
G37*
G36*
X105912228Y-166567703D02*
G01*
X106067100Y-166631853D01*
X106206481Y-166724985D01*
X106325015Y-166843519D01*
X106418147Y-166982900D01*
X106482297Y-167137772D01*
X106515000Y-167302184D01*
X106515000Y-167469816D01*
X106482297Y-167634228D01*
X106418147Y-167789100D01*
X106325015Y-167928481D01*
X106206481Y-168047015D01*
X106067100Y-168140147D01*
X105912228Y-168204297D01*
X105747816Y-168237000D01*
X105580184Y-168237000D01*
X105415772Y-168204297D01*
X105260900Y-168140147D01*
X105121519Y-168047015D01*
X105002985Y-167928481D01*
X104909853Y-167789100D01*
X104845703Y-167634228D01*
X104813000Y-167469816D01*
X104813000Y-167302184D01*
X104845703Y-167137772D01*
X104909853Y-166982900D01*
X105002985Y-166843519D01*
X105121519Y-166724985D01*
X105260900Y-166631853D01*
X105415772Y-166567703D01*
X105580184Y-166535000D01*
X105747816Y-166535000D01*
X105912228Y-166567703D01*
G37*
G36*
X108452228Y-166567703D02*
G01*
X108607100Y-166631853D01*
X108746481Y-166724985D01*
X108865015Y-166843519D01*
X108958147Y-166982900D01*
X109022297Y-167137772D01*
X109055000Y-167302184D01*
X109055000Y-167469816D01*
X109022297Y-167634228D01*
X108958147Y-167789100D01*
X108865015Y-167928481D01*
X108746481Y-168047015D01*
X108607100Y-168140147D01*
X108452228Y-168204297D01*
X108287816Y-168237000D01*
X108120184Y-168237000D01*
X107955772Y-168204297D01*
X107800900Y-168140147D01*
X107661519Y-168047015D01*
X107542985Y-167928481D01*
X107449853Y-167789100D01*
X107385703Y-167634228D01*
X107353000Y-167469816D01*
X107353000Y-167302184D01*
X107385703Y-167137772D01*
X107449853Y-166982900D01*
X107542985Y-166843519D01*
X107661519Y-166724985D01*
X107800900Y-166631853D01*
X107955772Y-166567703D01*
X108120184Y-166535000D01*
X108287816Y-166535000D01*
X108452228Y-166567703D01*
G37*
G36*
X71346564Y-159009389D02*
G01*
X71537833Y-159088615D01*
X71537835Y-159088616D01*
X71709973Y-159203635D01*
X71856365Y-159350027D01*
X71968449Y-159517772D01*
X71971385Y-159522167D01*
X72050611Y-159713436D01*
X72091000Y-159916484D01*
X72091000Y-160123516D01*
X72050611Y-160326564D01*
X72009003Y-160427015D01*
X71971384Y-160517835D01*
X71856365Y-160689973D01*
X71709973Y-160836365D01*
X71537835Y-160951384D01*
X71537834Y-160951385D01*
X71537833Y-160951385D01*
X71346564Y-161030611D01*
X71143516Y-161071000D01*
X70936484Y-161071000D01*
X70733436Y-161030611D01*
X70542167Y-160951385D01*
X70542166Y-160951385D01*
X70542165Y-160951384D01*
X70370027Y-160836365D01*
X70223635Y-160689973D01*
X70108616Y-160517835D01*
X70070997Y-160427015D01*
X70029389Y-160326564D01*
X69989000Y-160123516D01*
X69989000Y-159916484D01*
X70029389Y-159713436D01*
X70108615Y-159522167D01*
X70111552Y-159517772D01*
X70223635Y-159350027D01*
X70370027Y-159203635D01*
X70542165Y-159088616D01*
X70542167Y-159088615D01*
X70733436Y-159009389D01*
X70936484Y-158969000D01*
X71143516Y-158969000D01*
X71346564Y-159009389D01*
G37*
G36*
X66346564Y-159009389D02*
G01*
X66537833Y-159088615D01*
X66537835Y-159088616D01*
X66709973Y-159203635D01*
X66856365Y-159350027D01*
X66968449Y-159517772D01*
X66971385Y-159522167D01*
X67050611Y-159713436D01*
X67091000Y-159916484D01*
X67091000Y-160123516D01*
X67050611Y-160326564D01*
X67009003Y-160427015D01*
X66971384Y-160517835D01*
X66856365Y-160689973D01*
X66709973Y-160836365D01*
X66537835Y-160951384D01*
X66537834Y-160951385D01*
X66537833Y-160951385D01*
X66346564Y-161030611D01*
X66143516Y-161071000D01*
X65936484Y-161071000D01*
X65733436Y-161030611D01*
X65542167Y-160951385D01*
X65542166Y-160951385D01*
X65542165Y-160951384D01*
X65370027Y-160836365D01*
X65223635Y-160689973D01*
X65108616Y-160517835D01*
X65070997Y-160427015D01*
X65029389Y-160326564D01*
X64989000Y-160123516D01*
X64989000Y-159916484D01*
X65029389Y-159713436D01*
X65108615Y-159522167D01*
X65111552Y-159517772D01*
X65223635Y-159350027D01*
X65370027Y-159203635D01*
X65542165Y-159088616D01*
X65542167Y-159088615D01*
X65733436Y-159009389D01*
X65936484Y-158969000D01*
X66143516Y-158969000D01*
X66346564Y-159009389D01*
G37*
G36*
X110992228Y-158947703D02*
G01*
X111147100Y-159011853D01*
X111286481Y-159104985D01*
X111405015Y-159223519D01*
X111498147Y-159362900D01*
X111562297Y-159517772D01*
X111595000Y-159682184D01*
X111595000Y-159849816D01*
X111562297Y-160014228D01*
X111498147Y-160169100D01*
X111405015Y-160308481D01*
X111286481Y-160427015D01*
X111147100Y-160520147D01*
X110992228Y-160584297D01*
X110827816Y-160617000D01*
X110660184Y-160617000D01*
X110495772Y-160584297D01*
X110340900Y-160520147D01*
X110201519Y-160427015D01*
X110082985Y-160308481D01*
X109989853Y-160169100D01*
X109925703Y-160014228D01*
X109893000Y-159849816D01*
X109893000Y-159682184D01*
X109925703Y-159517772D01*
X109989853Y-159362900D01*
X110082985Y-159223519D01*
X110201519Y-159104985D01*
X110340900Y-159011853D01*
X110495772Y-158947703D01*
X110660184Y-158915000D01*
X110827816Y-158915000D01*
X110992228Y-158947703D01*
G37*
G36*
X100832228Y-158947703D02*
G01*
X100987100Y-159011853D01*
X101126481Y-159104985D01*
X101245015Y-159223519D01*
X101338147Y-159362900D01*
X101402297Y-159517772D01*
X101435000Y-159682184D01*
X101435000Y-159849816D01*
X101402297Y-160014228D01*
X101338147Y-160169100D01*
X101245015Y-160308481D01*
X101126481Y-160427015D01*
X100987100Y-160520147D01*
X100832228Y-160584297D01*
X100667816Y-160617000D01*
X100500184Y-160617000D01*
X100335772Y-160584297D01*
X100180900Y-160520147D01*
X100041519Y-160427015D01*
X99922985Y-160308481D01*
X99829853Y-160169100D01*
X99765703Y-160014228D01*
X99733000Y-159849816D01*
X99733000Y-159682184D01*
X99765703Y-159517772D01*
X99829853Y-159362900D01*
X99922985Y-159223519D01*
X100041519Y-159104985D01*
X100180900Y-159011853D01*
X100335772Y-158947703D01*
X100500184Y-158915000D01*
X100667816Y-158915000D01*
X100832228Y-158947703D01*
G37*
G36*
X98292228Y-158947703D02*
G01*
X98447100Y-159011853D01*
X98586481Y-159104985D01*
X98705015Y-159223519D01*
X98798147Y-159362900D01*
X98862297Y-159517772D01*
X98895000Y-159682184D01*
X98895000Y-159849816D01*
X98862297Y-160014228D01*
X98798147Y-160169100D01*
X98705015Y-160308481D01*
X98586481Y-160427015D01*
X98447100Y-160520147D01*
X98292228Y-160584297D01*
X98127816Y-160617000D01*
X97960184Y-160617000D01*
X97795772Y-160584297D01*
X97640900Y-160520147D01*
X97501519Y-160427015D01*
X97382985Y-160308481D01*
X97289853Y-160169100D01*
X97225703Y-160014228D01*
X97193000Y-159849816D01*
X97193000Y-159682184D01*
X97225703Y-159517772D01*
X97289853Y-159362900D01*
X97382985Y-159223519D01*
X97501519Y-159104985D01*
X97640900Y-159011853D01*
X97795772Y-158947703D01*
X97960184Y-158915000D01*
X98127816Y-158915000D01*
X98292228Y-158947703D01*
G37*
G36*
X113532228Y-158947703D02*
G01*
X113687100Y-159011853D01*
X113826481Y-159104985D01*
X113945015Y-159223519D01*
X114038147Y-159362900D01*
X114102297Y-159517772D01*
X114135000Y-159682184D01*
X114135000Y-159849816D01*
X114102297Y-160014228D01*
X114038147Y-160169100D01*
X113945015Y-160308481D01*
X113826481Y-160427015D01*
X113687100Y-160520147D01*
X113532228Y-160584297D01*
X113367816Y-160617000D01*
X113200184Y-160617000D01*
X113035772Y-160584297D01*
X112880900Y-160520147D01*
X112741519Y-160427015D01*
X112622985Y-160308481D01*
X112529853Y-160169100D01*
X112465703Y-160014228D01*
X112433000Y-159849816D01*
X112433000Y-159682184D01*
X112465703Y-159517772D01*
X112529853Y-159362900D01*
X112622985Y-159223519D01*
X112741519Y-159104985D01*
X112880900Y-159011853D01*
X113035772Y-158947703D01*
X113200184Y-158915000D01*
X113367816Y-158915000D01*
X113532228Y-158947703D01*
G37*
G36*
X95752228Y-158947703D02*
G01*
X95907100Y-159011853D01*
X96046481Y-159104985D01*
X96165015Y-159223519D01*
X96258147Y-159362900D01*
X96322297Y-159517772D01*
X96355000Y-159682184D01*
X96355000Y-159849816D01*
X96322297Y-160014228D01*
X96258147Y-160169100D01*
X96165015Y-160308481D01*
X96046481Y-160427015D01*
X95907100Y-160520147D01*
X95752228Y-160584297D01*
X95587816Y-160617000D01*
X95420184Y-160617000D01*
X95255772Y-160584297D01*
X95100900Y-160520147D01*
X94961519Y-160427015D01*
X94842985Y-160308481D01*
X94749853Y-160169100D01*
X94685703Y-160014228D01*
X94653000Y-159849816D01*
X94653000Y-159682184D01*
X94685703Y-159517772D01*
X94749853Y-159362900D01*
X94842985Y-159223519D01*
X94961519Y-159104985D01*
X95100900Y-159011853D01*
X95255772Y-158947703D01*
X95420184Y-158915000D01*
X95587816Y-158915000D01*
X95752228Y-158947703D01*
G37*
G36*
X93212228Y-158947703D02*
G01*
X93367100Y-159011853D01*
X93506481Y-159104985D01*
X93625015Y-159223519D01*
X93718147Y-159362900D01*
X93782297Y-159517772D01*
X93815000Y-159682184D01*
X93815000Y-159849816D01*
X93782297Y-160014228D01*
X93718147Y-160169100D01*
X93625015Y-160308481D01*
X93506481Y-160427015D01*
X93367100Y-160520147D01*
X93212228Y-160584297D01*
X93047816Y-160617000D01*
X92880184Y-160617000D01*
X92715772Y-160584297D01*
X92560900Y-160520147D01*
X92421519Y-160427015D01*
X92302985Y-160308481D01*
X92209853Y-160169100D01*
X92145703Y-160014228D01*
X92113000Y-159849816D01*
X92113000Y-159682184D01*
X92145703Y-159517772D01*
X92209853Y-159362900D01*
X92302985Y-159223519D01*
X92421519Y-159104985D01*
X92560900Y-159011853D01*
X92715772Y-158947703D01*
X92880184Y-158915000D01*
X93047816Y-158915000D01*
X93212228Y-158947703D01*
G37*
G36*
X108452228Y-158947703D02*
G01*
X108607100Y-159011853D01*
X108746481Y-159104985D01*
X108865015Y-159223519D01*
X108958147Y-159362900D01*
X109022297Y-159517772D01*
X109055000Y-159682184D01*
X109055000Y-159849816D01*
X109022297Y-160014228D01*
X108958147Y-160169100D01*
X108865015Y-160308481D01*
X108746481Y-160427015D01*
X108607100Y-160520147D01*
X108452228Y-160584297D01*
X108287816Y-160617000D01*
X108120184Y-160617000D01*
X107955772Y-160584297D01*
X107800900Y-160520147D01*
X107661519Y-160427015D01*
X107542985Y-160308481D01*
X107449853Y-160169100D01*
X107385703Y-160014228D01*
X107353000Y-159849816D01*
X107353000Y-159682184D01*
X107385703Y-159517772D01*
X107449853Y-159362900D01*
X107542985Y-159223519D01*
X107661519Y-159104985D01*
X107800900Y-159011853D01*
X107955772Y-158947703D01*
X108120184Y-158915000D01*
X108287816Y-158915000D01*
X108452228Y-158947703D01*
G37*
G36*
X90672228Y-158947703D02*
G01*
X90827100Y-159011853D01*
X90966481Y-159104985D01*
X91085015Y-159223519D01*
X91178147Y-159362900D01*
X91242297Y-159517772D01*
X91275000Y-159682184D01*
X91275000Y-159849816D01*
X91242297Y-160014228D01*
X91178147Y-160169100D01*
X91085015Y-160308481D01*
X90966481Y-160427015D01*
X90827100Y-160520147D01*
X90672228Y-160584297D01*
X90507816Y-160617000D01*
X90340184Y-160617000D01*
X90175772Y-160584297D01*
X90020900Y-160520147D01*
X89881519Y-160427015D01*
X89762985Y-160308481D01*
X89669853Y-160169100D01*
X89605703Y-160014228D01*
X89573000Y-159849816D01*
X89573000Y-159682184D01*
X89605703Y-159517772D01*
X89669853Y-159362900D01*
X89762985Y-159223519D01*
X89881519Y-159104985D01*
X90020900Y-159011853D01*
X90175772Y-158947703D01*
X90340184Y-158915000D01*
X90507816Y-158915000D01*
X90672228Y-158947703D01*
G37*
G36*
X103372228Y-158947703D02*
G01*
X103527100Y-159011853D01*
X103666481Y-159104985D01*
X103785015Y-159223519D01*
X103878147Y-159362900D01*
X103942297Y-159517772D01*
X103975000Y-159682184D01*
X103975000Y-159849816D01*
X103942297Y-160014228D01*
X103878147Y-160169100D01*
X103785015Y-160308481D01*
X103666481Y-160427015D01*
X103527100Y-160520147D01*
X103372228Y-160584297D01*
X103207816Y-160617000D01*
X103040184Y-160617000D01*
X102875772Y-160584297D01*
X102720900Y-160520147D01*
X102581519Y-160427015D01*
X102462985Y-160308481D01*
X102369853Y-160169100D01*
X102305703Y-160014228D01*
X102273000Y-159849816D01*
X102273000Y-159682184D01*
X102305703Y-159517772D01*
X102369853Y-159362900D01*
X102462985Y-159223519D01*
X102581519Y-159104985D01*
X102720900Y-159011853D01*
X102875772Y-158947703D01*
X103040184Y-158915000D01*
X103207816Y-158915000D01*
X103372228Y-158947703D01*
G37*
G36*
X105912228Y-158947703D02*
G01*
X106067100Y-159011853D01*
X106206481Y-159104985D01*
X106325015Y-159223519D01*
X106418147Y-159362900D01*
X106482297Y-159517772D01*
X106515000Y-159682184D01*
X106515000Y-159849816D01*
X106482297Y-160014228D01*
X106418147Y-160169100D01*
X106325015Y-160308481D01*
X106206481Y-160427015D01*
X106067100Y-160520147D01*
X105912228Y-160584297D01*
X105747816Y-160617000D01*
X105580184Y-160617000D01*
X105415772Y-160584297D01*
X105260900Y-160520147D01*
X105121519Y-160427015D01*
X105002985Y-160308481D01*
X104909853Y-160169100D01*
X104845703Y-160014228D01*
X104813000Y-159849816D01*
X104813000Y-159682184D01*
X104845703Y-159517772D01*
X104909853Y-159362900D01*
X105002985Y-159223519D01*
X105121519Y-159104985D01*
X105260900Y-159011853D01*
X105415772Y-158947703D01*
X105580184Y-158915000D01*
X105747816Y-158915000D01*
X105912228Y-158947703D01*
G37*
G36*
X82798228Y-157931703D02*
G01*
X82953100Y-157995853D01*
X83092481Y-158088985D01*
X83211015Y-158207519D01*
X83304147Y-158346900D01*
X83368297Y-158501772D01*
X83401000Y-158666184D01*
X83401000Y-158833816D01*
X83368297Y-158998228D01*
X83304147Y-159153100D01*
X83211015Y-159292481D01*
X83092481Y-159411015D01*
X82953100Y-159504147D01*
X82798228Y-159568297D01*
X82633816Y-159601000D01*
X82466184Y-159601000D01*
X82301772Y-159568297D01*
X82146900Y-159504147D01*
X82007519Y-159411015D01*
X81888985Y-159292481D01*
X81795853Y-159153100D01*
X81731703Y-158998228D01*
X81699000Y-158833816D01*
X81699000Y-158666184D01*
X81731703Y-158501772D01*
X81795853Y-158346900D01*
X81888985Y-158207519D01*
X82007519Y-158088985D01*
X82146900Y-157995853D01*
X82301772Y-157931703D01*
X82466184Y-157899000D01*
X82633816Y-157899000D01*
X82798228Y-157931703D01*
G37*
G36*
X75178228Y-157931703D02*
G01*
X75333100Y-157995853D01*
X75472481Y-158088985D01*
X75591015Y-158207519D01*
X75684147Y-158346900D01*
X75748297Y-158501772D01*
X75781000Y-158666184D01*
X75781000Y-158833816D01*
X75748297Y-158998228D01*
X75684147Y-159153100D01*
X75591015Y-159292481D01*
X75472481Y-159411015D01*
X75333100Y-159504147D01*
X75178228Y-159568297D01*
X75013816Y-159601000D01*
X74846184Y-159601000D01*
X74681772Y-159568297D01*
X74526900Y-159504147D01*
X74387519Y-159411015D01*
X74268985Y-159292481D01*
X74175853Y-159153100D01*
X74111703Y-158998228D01*
X74079000Y-158833816D01*
X74079000Y-158666184D01*
X74111703Y-158501772D01*
X74175853Y-158346900D01*
X74268985Y-158207519D01*
X74387519Y-158088985D01*
X74526900Y-157995853D01*
X74681772Y-157931703D01*
X74846184Y-157899000D01*
X75013816Y-157899000D01*
X75178228Y-157931703D01*
G37*
G36*
X75178228Y-155391703D02*
G01*
X75333100Y-155455853D01*
X75472481Y-155548985D01*
X75591015Y-155667519D01*
X75684147Y-155806900D01*
X75748297Y-155961772D01*
X75781000Y-156126184D01*
X75781000Y-156293816D01*
X75748297Y-156458228D01*
X75684147Y-156613100D01*
X75591015Y-156752481D01*
X75472481Y-156871015D01*
X75333100Y-156964147D01*
X75178228Y-157028297D01*
X75013816Y-157061000D01*
X74846184Y-157061000D01*
X74681772Y-157028297D01*
X74526900Y-156964147D01*
X74387519Y-156871015D01*
X74268985Y-156752481D01*
X74175853Y-156613100D01*
X74111703Y-156458228D01*
X74079000Y-156293816D01*
X74079000Y-156126184D01*
X74111703Y-155961772D01*
X74175853Y-155806900D01*
X74268985Y-155667519D01*
X74387519Y-155548985D01*
X74526900Y-155455853D01*
X74681772Y-155391703D01*
X74846184Y-155359000D01*
X75013816Y-155359000D01*
X75178228Y-155391703D01*
G37*
G36*
X54858228Y-155391703D02*
G01*
X55013100Y-155455853D01*
X55152481Y-155548985D01*
X55271015Y-155667519D01*
X55364147Y-155806900D01*
X55428297Y-155961772D01*
X55461000Y-156126184D01*
X55461000Y-156293816D01*
X55428297Y-156458228D01*
X55364147Y-156613100D01*
X55271015Y-156752481D01*
X55152481Y-156871015D01*
X55013100Y-156964147D01*
X54858228Y-157028297D01*
X54693816Y-157061000D01*
X54526184Y-157061000D01*
X54361772Y-157028297D01*
X54206900Y-156964147D01*
X54067519Y-156871015D01*
X53948985Y-156752481D01*
X53855853Y-156613100D01*
X53791703Y-156458228D01*
X53759000Y-156293816D01*
X53759000Y-156126184D01*
X53791703Y-155961772D01*
X53855853Y-155806900D01*
X53948985Y-155667519D01*
X54067519Y-155548985D01*
X54206900Y-155455853D01*
X54361772Y-155391703D01*
X54526184Y-155359000D01*
X54693816Y-155359000D01*
X54858228Y-155391703D01*
G37*
G36*
X82798228Y-155391703D02*
G01*
X82953100Y-155455853D01*
X83092481Y-155548985D01*
X83211015Y-155667519D01*
X83304147Y-155806900D01*
X83368297Y-155961772D01*
X83401000Y-156126184D01*
X83401000Y-156293816D01*
X83368297Y-156458228D01*
X83304147Y-156613100D01*
X83211015Y-156752481D01*
X83092481Y-156871015D01*
X82953100Y-156964147D01*
X82798228Y-157028297D01*
X82633816Y-157061000D01*
X82466184Y-157061000D01*
X82301772Y-157028297D01*
X82146900Y-156964147D01*
X82007519Y-156871015D01*
X81888985Y-156752481D01*
X81795853Y-156613100D01*
X81731703Y-156458228D01*
X81699000Y-156293816D01*
X81699000Y-156126184D01*
X81731703Y-155961772D01*
X81795853Y-155806900D01*
X81888985Y-155667519D01*
X82007519Y-155548985D01*
X82146900Y-155455853D01*
X82301772Y-155391703D01*
X82466184Y-155359000D01*
X82633816Y-155359000D01*
X82798228Y-155391703D01*
G37*
G36*
X70098228Y-155391703D02*
G01*
X70253100Y-155455853D01*
X70392481Y-155548985D01*
X70511015Y-155667519D01*
X70604147Y-155806900D01*
X70668297Y-155961772D01*
X70701000Y-156126184D01*
X70701000Y-156293816D01*
X70668297Y-156458228D01*
X70604147Y-156613100D01*
X70511015Y-156752481D01*
X70392481Y-156871015D01*
X70253100Y-156964147D01*
X70098228Y-157028297D01*
X69933816Y-157061000D01*
X69766184Y-157061000D01*
X69601772Y-157028297D01*
X69446900Y-156964147D01*
X69307519Y-156871015D01*
X69188985Y-156752481D01*
X69095853Y-156613100D01*
X69031703Y-156458228D01*
X68999000Y-156293816D01*
X68999000Y-156126184D01*
X69031703Y-155961772D01*
X69095853Y-155806900D01*
X69188985Y-155667519D01*
X69307519Y-155548985D01*
X69446900Y-155455853D01*
X69601772Y-155391703D01*
X69766184Y-155359000D01*
X69933816Y-155359000D01*
X70098228Y-155391703D01*
G37*
G36*
X100832228Y-155137703D02*
G01*
X100987100Y-155201853D01*
X101126481Y-155294985D01*
X101245015Y-155413519D01*
X101338147Y-155552900D01*
X101402297Y-155707772D01*
X101435000Y-155872184D01*
X101435000Y-156039816D01*
X101402297Y-156204228D01*
X101338147Y-156359100D01*
X101245015Y-156498481D01*
X101126481Y-156617015D01*
X100987100Y-156710147D01*
X100832228Y-156774297D01*
X100667816Y-156807000D01*
X100500184Y-156807000D01*
X100335772Y-156774297D01*
X100180900Y-156710147D01*
X100041519Y-156617015D01*
X99922985Y-156498481D01*
X99829853Y-156359100D01*
X99765703Y-156204228D01*
X99733000Y-156039816D01*
X99733000Y-155872184D01*
X99765703Y-155707772D01*
X99829853Y-155552900D01*
X99922985Y-155413519D01*
X100041519Y-155294985D01*
X100180900Y-155201853D01*
X100335772Y-155137703D01*
X100500184Y-155105000D01*
X100667816Y-155105000D01*
X100832228Y-155137703D01*
G37*
G36*
X98292228Y-155137703D02*
G01*
X98447100Y-155201853D01*
X98586481Y-155294985D01*
X98705015Y-155413519D01*
X98798147Y-155552900D01*
X98862297Y-155707772D01*
X98895000Y-155872184D01*
X98895000Y-156039816D01*
X98862297Y-156204228D01*
X98798147Y-156359100D01*
X98705015Y-156498481D01*
X98586481Y-156617015D01*
X98447100Y-156710147D01*
X98292228Y-156774297D01*
X98127816Y-156807000D01*
X97960184Y-156807000D01*
X97795772Y-156774297D01*
X97640900Y-156710147D01*
X97501519Y-156617015D01*
X97382985Y-156498481D01*
X97289853Y-156359100D01*
X97225703Y-156204228D01*
X97193000Y-156039816D01*
X97193000Y-155872184D01*
X97225703Y-155707772D01*
X97289853Y-155552900D01*
X97382985Y-155413519D01*
X97501519Y-155294985D01*
X97640900Y-155201853D01*
X97795772Y-155137703D01*
X97960184Y-155105000D01*
X98127816Y-155105000D01*
X98292228Y-155137703D01*
G37*
G36*
X95752228Y-155137703D02*
G01*
X95907100Y-155201853D01*
X96046481Y-155294985D01*
X96165015Y-155413519D01*
X96258147Y-155552900D01*
X96322297Y-155707772D01*
X96355000Y-155872184D01*
X96355000Y-156039816D01*
X96322297Y-156204228D01*
X96258147Y-156359100D01*
X96165015Y-156498481D01*
X96046481Y-156617015D01*
X95907100Y-156710147D01*
X95752228Y-156774297D01*
X95587816Y-156807000D01*
X95420184Y-156807000D01*
X95255772Y-156774297D01*
X95100900Y-156710147D01*
X94961519Y-156617015D01*
X94842985Y-156498481D01*
X94749853Y-156359100D01*
X94685703Y-156204228D01*
X94653000Y-156039816D01*
X94653000Y-155872184D01*
X94685703Y-155707772D01*
X94749853Y-155552900D01*
X94842985Y-155413519D01*
X94961519Y-155294985D01*
X95100900Y-155201853D01*
X95255772Y-155137703D01*
X95420184Y-155105000D01*
X95587816Y-155105000D01*
X95752228Y-155137703D01*
G37*
G36*
X93212228Y-155137703D02*
G01*
X93367100Y-155201853D01*
X93506481Y-155294985D01*
X93625015Y-155413519D01*
X93718147Y-155552900D01*
X93782297Y-155707772D01*
X93815000Y-155872184D01*
X93815000Y-156039816D01*
X93782297Y-156204228D01*
X93718147Y-156359100D01*
X93625015Y-156498481D01*
X93506481Y-156617015D01*
X93367100Y-156710147D01*
X93212228Y-156774297D01*
X93047816Y-156807000D01*
X92880184Y-156807000D01*
X92715772Y-156774297D01*
X92560900Y-156710147D01*
X92421519Y-156617015D01*
X92302985Y-156498481D01*
X92209853Y-156359100D01*
X92145703Y-156204228D01*
X92113000Y-156039816D01*
X92113000Y-155872184D01*
X92145703Y-155707772D01*
X92209853Y-155552900D01*
X92302985Y-155413519D01*
X92421519Y-155294985D01*
X92560900Y-155201853D01*
X92715772Y-155137703D01*
X92880184Y-155105000D01*
X93047816Y-155105000D01*
X93212228Y-155137703D01*
G37*
G36*
X108452228Y-155137703D02*
G01*
X108607100Y-155201853D01*
X108746481Y-155294985D01*
X108865015Y-155413519D01*
X108958147Y-155552900D01*
X109022297Y-155707772D01*
X109055000Y-155872184D01*
X109055000Y-156039816D01*
X109022297Y-156204228D01*
X108958147Y-156359100D01*
X108865015Y-156498481D01*
X108746481Y-156617015D01*
X108607100Y-156710147D01*
X108452228Y-156774297D01*
X108287816Y-156807000D01*
X108120184Y-156807000D01*
X107955772Y-156774297D01*
X107800900Y-156710147D01*
X107661519Y-156617015D01*
X107542985Y-156498481D01*
X107449853Y-156359100D01*
X107385703Y-156204228D01*
X107353000Y-156039816D01*
X107353000Y-155872184D01*
X107385703Y-155707772D01*
X107449853Y-155552900D01*
X107542985Y-155413519D01*
X107661519Y-155294985D01*
X107800900Y-155201853D01*
X107955772Y-155137703D01*
X108120184Y-155105000D01*
X108287816Y-155105000D01*
X108452228Y-155137703D01*
G37*
G36*
X105912228Y-155137703D02*
G01*
X106067100Y-155201853D01*
X106206481Y-155294985D01*
X106325015Y-155413519D01*
X106418147Y-155552900D01*
X106482297Y-155707772D01*
X106515000Y-155872184D01*
X106515000Y-156039816D01*
X106482297Y-156204228D01*
X106418147Y-156359100D01*
X106325015Y-156498481D01*
X106206481Y-156617015D01*
X106067100Y-156710147D01*
X105912228Y-156774297D01*
X105747816Y-156807000D01*
X105580184Y-156807000D01*
X105415772Y-156774297D01*
X105260900Y-156710147D01*
X105121519Y-156617015D01*
X105002985Y-156498481D01*
X104909853Y-156359100D01*
X104845703Y-156204228D01*
X104813000Y-156039816D01*
X104813000Y-155872184D01*
X104845703Y-155707772D01*
X104909853Y-155552900D01*
X105002985Y-155413519D01*
X105121519Y-155294985D01*
X105260900Y-155201853D01*
X105415772Y-155137703D01*
X105580184Y-155105000D01*
X105747816Y-155105000D01*
X105912228Y-155137703D01*
G37*
G36*
X91275000Y-156807000D02*
G01*
X89573000Y-156807000D01*
X89573000Y-155105000D01*
X91275000Y-155105000D01*
X91275000Y-156807000D01*
G37*
G36*
X110992228Y-155137703D02*
G01*
X111147100Y-155201853D01*
X111286481Y-155294985D01*
X111405015Y-155413519D01*
X111498147Y-155552900D01*
X111562297Y-155707772D01*
X111595000Y-155872184D01*
X111595000Y-156039816D01*
X111562297Y-156204228D01*
X111498147Y-156359100D01*
X111405015Y-156498481D01*
X111286481Y-156617015D01*
X111147100Y-156710147D01*
X110992228Y-156774297D01*
X110827816Y-156807000D01*
X110660184Y-156807000D01*
X110495772Y-156774297D01*
X110340900Y-156710147D01*
X110201519Y-156617015D01*
X110082985Y-156498481D01*
X109989853Y-156359100D01*
X109925703Y-156204228D01*
X109893000Y-156039816D01*
X109893000Y-155872184D01*
X109925703Y-155707772D01*
X109989853Y-155552900D01*
X110082985Y-155413519D01*
X110201519Y-155294985D01*
X110340900Y-155201853D01*
X110495772Y-155137703D01*
X110660184Y-155105000D01*
X110827816Y-155105000D01*
X110992228Y-155137703D01*
G37*
G36*
X103372228Y-155137703D02*
G01*
X103527100Y-155201853D01*
X103666481Y-155294985D01*
X103785015Y-155413519D01*
X103878147Y-155552900D01*
X103942297Y-155707772D01*
X103975000Y-155872184D01*
X103975000Y-156039816D01*
X103942297Y-156204228D01*
X103878147Y-156359100D01*
X103785015Y-156498481D01*
X103666481Y-156617015D01*
X103527100Y-156710147D01*
X103372228Y-156774297D01*
X103207816Y-156807000D01*
X103040184Y-156807000D01*
X102875772Y-156774297D01*
X102720900Y-156710147D01*
X102581519Y-156617015D01*
X102462985Y-156498481D01*
X102369853Y-156359100D01*
X102305703Y-156204228D01*
X102273000Y-156039816D01*
X102273000Y-155872184D01*
X102305703Y-155707772D01*
X102369853Y-155552900D01*
X102462985Y-155413519D01*
X102581519Y-155294985D01*
X102720900Y-155201853D01*
X102875772Y-155137703D01*
X103040184Y-155105000D01*
X103207816Y-155105000D01*
X103372228Y-155137703D01*
G37*
G36*
X54858228Y-152851703D02*
G01*
X55013100Y-152915853D01*
X55152481Y-153008985D01*
X55271015Y-153127519D01*
X55364147Y-153266900D01*
X55428297Y-153421772D01*
X55461000Y-153586184D01*
X55461000Y-153753816D01*
X55428297Y-153918228D01*
X55364147Y-154073100D01*
X55271015Y-154212481D01*
X55152481Y-154331015D01*
X55013100Y-154424147D01*
X54858228Y-154488297D01*
X54693816Y-154521000D01*
X54526184Y-154521000D01*
X54361772Y-154488297D01*
X54206900Y-154424147D01*
X54067519Y-154331015D01*
X53948985Y-154212481D01*
X53855853Y-154073100D01*
X53791703Y-153918228D01*
X53759000Y-153753816D01*
X53759000Y-153586184D01*
X53791703Y-153421772D01*
X53855853Y-153266900D01*
X53948985Y-153127519D01*
X54067519Y-153008985D01*
X54206900Y-152915853D01*
X54361772Y-152851703D01*
X54526184Y-152819000D01*
X54693816Y-152819000D01*
X54858228Y-152851703D01*
G37*
G36*
X70098228Y-152851703D02*
G01*
X70253100Y-152915853D01*
X70392481Y-153008985D01*
X70511015Y-153127519D01*
X70604147Y-153266900D01*
X70668297Y-153421772D01*
X70701000Y-153586184D01*
X70701000Y-153753816D01*
X70668297Y-153918228D01*
X70604147Y-154073100D01*
X70511015Y-154212481D01*
X70392481Y-154331015D01*
X70253100Y-154424147D01*
X70098228Y-154488297D01*
X69933816Y-154521000D01*
X69766184Y-154521000D01*
X69601772Y-154488297D01*
X69446900Y-154424147D01*
X69307519Y-154331015D01*
X69188985Y-154212481D01*
X69095853Y-154073100D01*
X69031703Y-153918228D01*
X68999000Y-153753816D01*
X68999000Y-153586184D01*
X69031703Y-153421772D01*
X69095853Y-153266900D01*
X69188985Y-153127519D01*
X69307519Y-153008985D01*
X69446900Y-152915853D01*
X69601772Y-152851703D01*
X69766184Y-152819000D01*
X69933816Y-152819000D01*
X70098228Y-152851703D01*
G37*
G36*
X75178228Y-152851703D02*
G01*
X75333100Y-152915853D01*
X75472481Y-153008985D01*
X75591015Y-153127519D01*
X75684147Y-153266900D01*
X75748297Y-153421772D01*
X75781000Y-153586184D01*
X75781000Y-153753816D01*
X75748297Y-153918228D01*
X75684147Y-154073100D01*
X75591015Y-154212481D01*
X75472481Y-154331015D01*
X75333100Y-154424147D01*
X75178228Y-154488297D01*
X75013816Y-154521000D01*
X74846184Y-154521000D01*
X74681772Y-154488297D01*
X74526900Y-154424147D01*
X74387519Y-154331015D01*
X74268985Y-154212481D01*
X74175853Y-154073100D01*
X74111703Y-153918228D01*
X74079000Y-153753816D01*
X74079000Y-153586184D01*
X74111703Y-153421772D01*
X74175853Y-153266900D01*
X74268985Y-153127519D01*
X74387519Y-153008985D01*
X74526900Y-152915853D01*
X74681772Y-152851703D01*
X74846184Y-152819000D01*
X75013816Y-152819000D01*
X75178228Y-152851703D01*
G37*
G36*
X82798228Y-152851703D02*
G01*
X82953100Y-152915853D01*
X83092481Y-153008985D01*
X83211015Y-153127519D01*
X83304147Y-153266900D01*
X83368297Y-153421772D01*
X83401000Y-153586184D01*
X83401000Y-153753816D01*
X83368297Y-153918228D01*
X83304147Y-154073100D01*
X83211015Y-154212481D01*
X83092481Y-154331015D01*
X82953100Y-154424147D01*
X82798228Y-154488297D01*
X82633816Y-154521000D01*
X82466184Y-154521000D01*
X82301772Y-154488297D01*
X82146900Y-154424147D01*
X82007519Y-154331015D01*
X81888985Y-154212481D01*
X81795853Y-154073100D01*
X81731703Y-153918228D01*
X81699000Y-153753816D01*
X81699000Y-153586184D01*
X81731703Y-153421772D01*
X81795853Y-153266900D01*
X81888985Y-153127519D01*
X82007519Y-153008985D01*
X82146900Y-152915853D01*
X82301772Y-152851703D01*
X82466184Y-152819000D01*
X82633816Y-152819000D01*
X82798228Y-152851703D01*
G37*
G36*
X104642228Y-151073703D02*
G01*
X104797100Y-151137853D01*
X104936481Y-151230985D01*
X105055015Y-151349519D01*
X105148147Y-151488900D01*
X105212297Y-151643772D01*
X105245000Y-151808184D01*
X105245000Y-151975816D01*
X105212297Y-152140228D01*
X105148147Y-152295100D01*
X105055015Y-152434481D01*
X104936481Y-152553015D01*
X104797100Y-152646147D01*
X104642228Y-152710297D01*
X104477816Y-152743000D01*
X104310184Y-152743000D01*
X104145772Y-152710297D01*
X103990900Y-152646147D01*
X103851519Y-152553015D01*
X103732985Y-152434481D01*
X103639853Y-152295100D01*
X103575703Y-152140228D01*
X103543000Y-151975816D01*
X103543000Y-151808184D01*
X103575703Y-151643772D01*
X103639853Y-151488900D01*
X103732985Y-151349519D01*
X103851519Y-151230985D01*
X103990900Y-151137853D01*
X104145772Y-151073703D01*
X104310184Y-151041000D01*
X104477816Y-151041000D01*
X104642228Y-151073703D01*
G37*
G36*
X92545000Y-152743000D02*
G01*
X90843000Y-152743000D01*
X90843000Y-151041000D01*
X92545000Y-151041000D01*
X92545000Y-152743000D01*
G37*
G36*
X112262228Y-151073703D02*
G01*
X112417100Y-151137853D01*
X112556481Y-151230985D01*
X112675015Y-151349519D01*
X112768147Y-151488900D01*
X112832297Y-151643772D01*
X112865000Y-151808184D01*
X112865000Y-151975816D01*
X112832297Y-152140228D01*
X112768147Y-152295100D01*
X112675015Y-152434481D01*
X112556481Y-152553015D01*
X112417100Y-152646147D01*
X112262228Y-152710297D01*
X112097816Y-152743000D01*
X111930184Y-152743000D01*
X111765772Y-152710297D01*
X111610900Y-152646147D01*
X111471519Y-152553015D01*
X111352985Y-152434481D01*
X111259853Y-152295100D01*
X111195703Y-152140228D01*
X111163000Y-151975816D01*
X111163000Y-151808184D01*
X111195703Y-151643772D01*
X111259853Y-151488900D01*
X111352985Y-151349519D01*
X111471519Y-151230985D01*
X111610900Y-151137853D01*
X111765772Y-151073703D01*
X111930184Y-151041000D01*
X112097816Y-151041000D01*
X112262228Y-151073703D01*
G37*
G36*
X109722228Y-151073703D02*
G01*
X109877100Y-151137853D01*
X110016481Y-151230985D01*
X110135015Y-151349519D01*
X110228147Y-151488900D01*
X110292297Y-151643772D01*
X110325000Y-151808184D01*
X110325000Y-151975816D01*
X110292297Y-152140228D01*
X110228147Y-152295100D01*
X110135015Y-152434481D01*
X110016481Y-152553015D01*
X109877100Y-152646147D01*
X109722228Y-152710297D01*
X109557816Y-152743000D01*
X109390184Y-152743000D01*
X109225772Y-152710297D01*
X109070900Y-152646147D01*
X108931519Y-152553015D01*
X108812985Y-152434481D01*
X108719853Y-152295100D01*
X108655703Y-152140228D01*
X108623000Y-151975816D01*
X108623000Y-151808184D01*
X108655703Y-151643772D01*
X108719853Y-151488900D01*
X108812985Y-151349519D01*
X108931519Y-151230985D01*
X109070900Y-151137853D01*
X109225772Y-151073703D01*
X109390184Y-151041000D01*
X109557816Y-151041000D01*
X109722228Y-151073703D01*
G37*
G36*
X107182228Y-151073703D02*
G01*
X107337100Y-151137853D01*
X107476481Y-151230985D01*
X107595015Y-151349519D01*
X107688147Y-151488900D01*
X107752297Y-151643772D01*
X107785000Y-151808184D01*
X107785000Y-151975816D01*
X107752297Y-152140228D01*
X107688147Y-152295100D01*
X107595015Y-152434481D01*
X107476481Y-152553015D01*
X107337100Y-152646147D01*
X107182228Y-152710297D01*
X107017816Y-152743000D01*
X106850184Y-152743000D01*
X106685772Y-152710297D01*
X106530900Y-152646147D01*
X106391519Y-152553015D01*
X106272985Y-152434481D01*
X106179853Y-152295100D01*
X106115703Y-152140228D01*
X106083000Y-151975816D01*
X106083000Y-151808184D01*
X106115703Y-151643772D01*
X106179853Y-151488900D01*
X106272985Y-151349519D01*
X106391519Y-151230985D01*
X106530900Y-151137853D01*
X106685772Y-151073703D01*
X106850184Y-151041000D01*
X107017816Y-151041000D01*
X107182228Y-151073703D01*
G37*
G36*
X94482228Y-151073703D02*
G01*
X94637100Y-151137853D01*
X94776481Y-151230985D01*
X94895015Y-151349519D01*
X94988147Y-151488900D01*
X95052297Y-151643772D01*
X95085000Y-151808184D01*
X95085000Y-151975816D01*
X95052297Y-152140228D01*
X94988147Y-152295100D01*
X94895015Y-152434481D01*
X94776481Y-152553015D01*
X94637100Y-152646147D01*
X94482228Y-152710297D01*
X94317816Y-152743000D01*
X94150184Y-152743000D01*
X93985772Y-152710297D01*
X93830900Y-152646147D01*
X93691519Y-152553015D01*
X93572985Y-152434481D01*
X93479853Y-152295100D01*
X93415703Y-152140228D01*
X93383000Y-151975816D01*
X93383000Y-151808184D01*
X93415703Y-151643772D01*
X93479853Y-151488900D01*
X93572985Y-151349519D01*
X93691519Y-151230985D01*
X93830900Y-151137853D01*
X93985772Y-151073703D01*
X94150184Y-151041000D01*
X94317816Y-151041000D01*
X94482228Y-151073703D01*
G37*
G36*
X114802228Y-151073703D02*
G01*
X114957100Y-151137853D01*
X115096481Y-151230985D01*
X115215015Y-151349519D01*
X115308147Y-151488900D01*
X115372297Y-151643772D01*
X115405000Y-151808184D01*
X115405000Y-151975816D01*
X115372297Y-152140228D01*
X115308147Y-152295100D01*
X115215015Y-152434481D01*
X115096481Y-152553015D01*
X114957100Y-152646147D01*
X114802228Y-152710297D01*
X114637816Y-152743000D01*
X114470184Y-152743000D01*
X114305772Y-152710297D01*
X114150900Y-152646147D01*
X114011519Y-152553015D01*
X113892985Y-152434481D01*
X113799853Y-152295100D01*
X113735703Y-152140228D01*
X113703000Y-151975816D01*
X113703000Y-151808184D01*
X113735703Y-151643772D01*
X113799853Y-151488900D01*
X113892985Y-151349519D01*
X114011519Y-151230985D01*
X114150900Y-151137853D01*
X114305772Y-151073703D01*
X114470184Y-151041000D01*
X114637816Y-151041000D01*
X114802228Y-151073703D01*
G37*
G36*
X102102228Y-151073703D02*
G01*
X102257100Y-151137853D01*
X102396481Y-151230985D01*
X102515015Y-151349519D01*
X102608147Y-151488900D01*
X102672297Y-151643772D01*
X102705000Y-151808184D01*
X102705000Y-151975816D01*
X102672297Y-152140228D01*
X102608147Y-152295100D01*
X102515015Y-152434481D01*
X102396481Y-152553015D01*
X102257100Y-152646147D01*
X102102228Y-152710297D01*
X101937816Y-152743000D01*
X101770184Y-152743000D01*
X101605772Y-152710297D01*
X101450900Y-152646147D01*
X101311519Y-152553015D01*
X101192985Y-152434481D01*
X101099853Y-152295100D01*
X101035703Y-152140228D01*
X101003000Y-151975816D01*
X101003000Y-151808184D01*
X101035703Y-151643772D01*
X101099853Y-151488900D01*
X101192985Y-151349519D01*
X101311519Y-151230985D01*
X101450900Y-151137853D01*
X101605772Y-151073703D01*
X101770184Y-151041000D01*
X101937816Y-151041000D01*
X102102228Y-151073703D01*
G37*
G36*
X99562228Y-151073703D02*
G01*
X99717100Y-151137853D01*
X99856481Y-151230985D01*
X99975015Y-151349519D01*
X100068147Y-151488900D01*
X100132297Y-151643772D01*
X100165000Y-151808184D01*
X100165000Y-151975816D01*
X100132297Y-152140228D01*
X100068147Y-152295100D01*
X99975015Y-152434481D01*
X99856481Y-152553015D01*
X99717100Y-152646147D01*
X99562228Y-152710297D01*
X99397816Y-152743000D01*
X99230184Y-152743000D01*
X99065772Y-152710297D01*
X98910900Y-152646147D01*
X98771519Y-152553015D01*
X98652985Y-152434481D01*
X98559853Y-152295100D01*
X98495703Y-152140228D01*
X98463000Y-151975816D01*
X98463000Y-151808184D01*
X98495703Y-151643772D01*
X98559853Y-151488900D01*
X98652985Y-151349519D01*
X98771519Y-151230985D01*
X98910900Y-151137853D01*
X99065772Y-151073703D01*
X99230184Y-151041000D01*
X99397816Y-151041000D01*
X99562228Y-151073703D01*
G37*
G36*
X97022228Y-151073703D02*
G01*
X97177100Y-151137853D01*
X97316481Y-151230985D01*
X97435015Y-151349519D01*
X97528147Y-151488900D01*
X97592297Y-151643772D01*
X97625000Y-151808184D01*
X97625000Y-151975816D01*
X97592297Y-152140228D01*
X97528147Y-152295100D01*
X97435015Y-152434481D01*
X97316481Y-152553015D01*
X97177100Y-152646147D01*
X97022228Y-152710297D01*
X96857816Y-152743000D01*
X96690184Y-152743000D01*
X96525772Y-152710297D01*
X96370900Y-152646147D01*
X96231519Y-152553015D01*
X96112985Y-152434481D01*
X96019853Y-152295100D01*
X95955703Y-152140228D01*
X95923000Y-151975816D01*
X95923000Y-151808184D01*
X95955703Y-151643772D01*
X96019853Y-151488900D01*
X96112985Y-151349519D01*
X96231519Y-151230985D01*
X96370900Y-151137853D01*
X96525772Y-151073703D01*
X96690184Y-151041000D01*
X96857816Y-151041000D01*
X97022228Y-151073703D01*
G37*
G36*
X75178228Y-150311703D02*
G01*
X75333100Y-150375853D01*
X75472481Y-150468985D01*
X75591015Y-150587519D01*
X75684147Y-150726900D01*
X75748297Y-150881772D01*
X75781000Y-151046184D01*
X75781000Y-151213816D01*
X75748297Y-151378228D01*
X75684147Y-151533100D01*
X75591015Y-151672481D01*
X75472481Y-151791015D01*
X75333100Y-151884147D01*
X75178228Y-151948297D01*
X75013816Y-151981000D01*
X74846184Y-151981000D01*
X74681772Y-151948297D01*
X74526900Y-151884147D01*
X74387519Y-151791015D01*
X74268985Y-151672481D01*
X74175853Y-151533100D01*
X74111703Y-151378228D01*
X74079000Y-151213816D01*
X74079000Y-151046184D01*
X74111703Y-150881772D01*
X74175853Y-150726900D01*
X74268985Y-150587519D01*
X74387519Y-150468985D01*
X74526900Y-150375853D01*
X74681772Y-150311703D01*
X74846184Y-150279000D01*
X75013816Y-150279000D01*
X75178228Y-150311703D01*
G37*
G36*
X70098228Y-150311703D02*
G01*
X70253100Y-150375853D01*
X70392481Y-150468985D01*
X70511015Y-150587519D01*
X70604147Y-150726900D01*
X70668297Y-150881772D01*
X70701000Y-151046184D01*
X70701000Y-151213816D01*
X70668297Y-151378228D01*
X70604147Y-151533100D01*
X70511015Y-151672481D01*
X70392481Y-151791015D01*
X70253100Y-151884147D01*
X70098228Y-151948297D01*
X69933816Y-151981000D01*
X69766184Y-151981000D01*
X69601772Y-151948297D01*
X69446900Y-151884147D01*
X69307519Y-151791015D01*
X69188985Y-151672481D01*
X69095853Y-151533100D01*
X69031703Y-151378228D01*
X68999000Y-151213816D01*
X68999000Y-151046184D01*
X69031703Y-150881772D01*
X69095853Y-150726900D01*
X69188985Y-150587519D01*
X69307519Y-150468985D01*
X69446900Y-150375853D01*
X69601772Y-150311703D01*
X69766184Y-150279000D01*
X69933816Y-150279000D01*
X70098228Y-150311703D01*
G37*
G36*
X54858228Y-150311703D02*
G01*
X55013100Y-150375853D01*
X55152481Y-150468985D01*
X55271015Y-150587519D01*
X55364147Y-150726900D01*
X55428297Y-150881772D01*
X55461000Y-151046184D01*
X55461000Y-151213816D01*
X55428297Y-151378228D01*
X55364147Y-151533100D01*
X55271015Y-151672481D01*
X55152481Y-151791015D01*
X55013100Y-151884147D01*
X54858228Y-151948297D01*
X54693816Y-151981000D01*
X54526184Y-151981000D01*
X54361772Y-151948297D01*
X54206900Y-151884147D01*
X54067519Y-151791015D01*
X53948985Y-151672481D01*
X53855853Y-151533100D01*
X53791703Y-151378228D01*
X53759000Y-151213816D01*
X53759000Y-151046184D01*
X53791703Y-150881772D01*
X53855853Y-150726900D01*
X53948985Y-150587519D01*
X54067519Y-150468985D01*
X54206900Y-150375853D01*
X54361772Y-150311703D01*
X54526184Y-150279000D01*
X54693816Y-150279000D01*
X54858228Y-150311703D01*
G37*
G36*
X82798228Y-150311703D02*
G01*
X82953100Y-150375853D01*
X83092481Y-150468985D01*
X83211015Y-150587519D01*
X83304147Y-150726900D01*
X83368297Y-150881772D01*
X83401000Y-151046184D01*
X83401000Y-151213816D01*
X83368297Y-151378228D01*
X83304147Y-151533100D01*
X83211015Y-151672481D01*
X83092481Y-151791015D01*
X82953100Y-151884147D01*
X82798228Y-151948297D01*
X82633816Y-151981000D01*
X82466184Y-151981000D01*
X82301772Y-151948297D01*
X82146900Y-151884147D01*
X82007519Y-151791015D01*
X81888985Y-151672481D01*
X81795853Y-151533100D01*
X81731703Y-151378228D01*
X81699000Y-151213816D01*
X81699000Y-151046184D01*
X81731703Y-150881772D01*
X81795853Y-150726900D01*
X81888985Y-150587519D01*
X82007519Y-150468985D01*
X82146900Y-150375853D01*
X82301772Y-150311703D01*
X82466184Y-150279000D01*
X82633816Y-150279000D01*
X82798228Y-150311703D01*
G37*
G36*
X70098228Y-147771703D02*
G01*
X70253100Y-147835853D01*
X70392481Y-147928985D01*
X70511015Y-148047519D01*
X70604147Y-148186900D01*
X70668297Y-148341772D01*
X70701000Y-148506184D01*
X70701000Y-148673816D01*
X70668297Y-148838228D01*
X70604147Y-148993100D01*
X70511015Y-149132481D01*
X70392481Y-149251015D01*
X70253100Y-149344147D01*
X70098228Y-149408297D01*
X69933816Y-149441000D01*
X69766184Y-149441000D01*
X69601772Y-149408297D01*
X69446900Y-149344147D01*
X69307519Y-149251015D01*
X69188985Y-149132481D01*
X69095853Y-148993100D01*
X69031703Y-148838228D01*
X68999000Y-148673816D01*
X68999000Y-148506184D01*
X69031703Y-148341772D01*
X69095853Y-148186900D01*
X69188985Y-148047519D01*
X69307519Y-147928985D01*
X69446900Y-147835853D01*
X69601772Y-147771703D01*
X69766184Y-147739000D01*
X69933816Y-147739000D01*
X70098228Y-147771703D01*
G37*
G36*
X54858228Y-147771703D02*
G01*
X55013100Y-147835853D01*
X55152481Y-147928985D01*
X55271015Y-148047519D01*
X55364147Y-148186900D01*
X55428297Y-148341772D01*
X55461000Y-148506184D01*
X55461000Y-148673816D01*
X55428297Y-148838228D01*
X55364147Y-148993100D01*
X55271015Y-149132481D01*
X55152481Y-149251015D01*
X55013100Y-149344147D01*
X54858228Y-149408297D01*
X54693816Y-149441000D01*
X54526184Y-149441000D01*
X54361772Y-149408297D01*
X54206900Y-149344147D01*
X54067519Y-149251015D01*
X53948985Y-149132481D01*
X53855853Y-148993100D01*
X53791703Y-148838228D01*
X53759000Y-148673816D01*
X53759000Y-148506184D01*
X53791703Y-148341772D01*
X53855853Y-148186900D01*
X53948985Y-148047519D01*
X54067519Y-147928985D01*
X54206900Y-147835853D01*
X54361772Y-147771703D01*
X54526184Y-147739000D01*
X54693816Y-147739000D01*
X54858228Y-147771703D01*
G37*
G36*
X82798228Y-147771703D02*
G01*
X82953100Y-147835853D01*
X83092481Y-147928985D01*
X83211015Y-148047519D01*
X83304147Y-148186900D01*
X83368297Y-148341772D01*
X83401000Y-148506184D01*
X83401000Y-148673816D01*
X83368297Y-148838228D01*
X83304147Y-148993100D01*
X83211015Y-149132481D01*
X83092481Y-149251015D01*
X82953100Y-149344147D01*
X82798228Y-149408297D01*
X82633816Y-149441000D01*
X82466184Y-149441000D01*
X82301772Y-149408297D01*
X82146900Y-149344147D01*
X82007519Y-149251015D01*
X81888985Y-149132481D01*
X81795853Y-148993100D01*
X81731703Y-148838228D01*
X81699000Y-148673816D01*
X81699000Y-148506184D01*
X81731703Y-148341772D01*
X81795853Y-148186900D01*
X81888985Y-148047519D01*
X82007519Y-147928985D01*
X82146900Y-147835853D01*
X82301772Y-147771703D01*
X82466184Y-147739000D01*
X82633816Y-147739000D01*
X82798228Y-147771703D01*
G37*
G36*
X75178228Y-147771703D02*
G01*
X75333100Y-147835853D01*
X75472481Y-147928985D01*
X75591015Y-148047519D01*
X75684147Y-148186900D01*
X75748297Y-148341772D01*
X75781000Y-148506184D01*
X75781000Y-148673816D01*
X75748297Y-148838228D01*
X75684147Y-148993100D01*
X75591015Y-149132481D01*
X75472481Y-149251015D01*
X75333100Y-149344147D01*
X75178228Y-149408297D01*
X75013816Y-149441000D01*
X74846184Y-149441000D01*
X74681772Y-149408297D01*
X74526900Y-149344147D01*
X74387519Y-149251015D01*
X74268985Y-149132481D01*
X74175853Y-148993100D01*
X74111703Y-148838228D01*
X74079000Y-148673816D01*
X74079000Y-148506184D01*
X74111703Y-148341772D01*
X74175853Y-148186900D01*
X74268985Y-148047519D01*
X74387519Y-147928985D01*
X74526900Y-147835853D01*
X74681772Y-147771703D01*
X74846184Y-147739000D01*
X75013816Y-147739000D01*
X75178228Y-147771703D01*
G37*
G36*
X82798228Y-145231703D02*
G01*
X82953100Y-145295853D01*
X83092481Y-145388985D01*
X83211015Y-145507519D01*
X83304147Y-145646900D01*
X83368297Y-145801772D01*
X83401000Y-145966184D01*
X83401000Y-146133816D01*
X83368297Y-146298228D01*
X83304147Y-146453100D01*
X83211015Y-146592481D01*
X83092481Y-146711015D01*
X82953100Y-146804147D01*
X82798228Y-146868297D01*
X82633816Y-146901000D01*
X82466184Y-146901000D01*
X82301772Y-146868297D01*
X82146900Y-146804147D01*
X82007519Y-146711015D01*
X81888985Y-146592481D01*
X81795853Y-146453100D01*
X81731703Y-146298228D01*
X81699000Y-146133816D01*
X81699000Y-145966184D01*
X81731703Y-145801772D01*
X81795853Y-145646900D01*
X81888985Y-145507519D01*
X82007519Y-145388985D01*
X82146900Y-145295853D01*
X82301772Y-145231703D01*
X82466184Y-145199000D01*
X82633816Y-145199000D01*
X82798228Y-145231703D01*
G37*
G36*
X75178228Y-145231703D02*
G01*
X75333100Y-145295853D01*
X75472481Y-145388985D01*
X75591015Y-145507519D01*
X75684147Y-145646900D01*
X75748297Y-145801772D01*
X75781000Y-145966184D01*
X75781000Y-146133816D01*
X75748297Y-146298228D01*
X75684147Y-146453100D01*
X75591015Y-146592481D01*
X75472481Y-146711015D01*
X75333100Y-146804147D01*
X75178228Y-146868297D01*
X75013816Y-146901000D01*
X74846184Y-146901000D01*
X74681772Y-146868297D01*
X74526900Y-146804147D01*
X74387519Y-146711015D01*
X74268985Y-146592481D01*
X74175853Y-146453100D01*
X74111703Y-146298228D01*
X74079000Y-146133816D01*
X74079000Y-145966184D01*
X74111703Y-145801772D01*
X74175853Y-145646900D01*
X74268985Y-145507519D01*
X74387519Y-145388985D01*
X74526900Y-145295853D01*
X74681772Y-145231703D01*
X74846184Y-145199000D01*
X75013816Y-145199000D01*
X75178228Y-145231703D01*
G37*
G36*
X70098228Y-145231703D02*
G01*
X70253100Y-145295853D01*
X70392481Y-145388985D01*
X70511015Y-145507519D01*
X70604147Y-145646900D01*
X70668297Y-145801772D01*
X70701000Y-145966184D01*
X70701000Y-146133816D01*
X70668297Y-146298228D01*
X70604147Y-146453100D01*
X70511015Y-146592481D01*
X70392481Y-146711015D01*
X70253100Y-146804147D01*
X70098228Y-146868297D01*
X69933816Y-146901000D01*
X69766184Y-146901000D01*
X69601772Y-146868297D01*
X69446900Y-146804147D01*
X69307519Y-146711015D01*
X69188985Y-146592481D01*
X69095853Y-146453100D01*
X69031703Y-146298228D01*
X68999000Y-146133816D01*
X68999000Y-145966184D01*
X69031703Y-145801772D01*
X69095853Y-145646900D01*
X69188985Y-145507519D01*
X69307519Y-145388985D01*
X69446900Y-145295853D01*
X69601772Y-145231703D01*
X69766184Y-145199000D01*
X69933816Y-145199000D01*
X70098228Y-145231703D01*
G37*
G36*
X54858228Y-145231703D02*
G01*
X55013100Y-145295853D01*
X55152481Y-145388985D01*
X55271015Y-145507519D01*
X55364147Y-145646900D01*
X55428297Y-145801772D01*
X55461000Y-145966184D01*
X55461000Y-146133816D01*
X55428297Y-146298228D01*
X55364147Y-146453100D01*
X55271015Y-146592481D01*
X55152481Y-146711015D01*
X55013100Y-146804147D01*
X54858228Y-146868297D01*
X54693816Y-146901000D01*
X54526184Y-146901000D01*
X54361772Y-146868297D01*
X54206900Y-146804147D01*
X54067519Y-146711015D01*
X53948985Y-146592481D01*
X53855853Y-146453100D01*
X53791703Y-146298228D01*
X53759000Y-146133816D01*
X53759000Y-145966184D01*
X53791703Y-145801772D01*
X53855853Y-145646900D01*
X53948985Y-145507519D01*
X54067519Y-145388985D01*
X54206900Y-145295853D01*
X54361772Y-145231703D01*
X54526184Y-145199000D01*
X54693816Y-145199000D01*
X54858228Y-145231703D01*
G37*
G36*
X107182228Y-143453703D02*
G01*
X107337100Y-143517853D01*
X107476481Y-143610985D01*
X107595015Y-143729519D01*
X107688147Y-143868900D01*
X107752297Y-144023772D01*
X107785000Y-144188184D01*
X107785000Y-144355816D01*
X107752297Y-144520228D01*
X107688147Y-144675100D01*
X107595015Y-144814481D01*
X107476481Y-144933015D01*
X107337100Y-145026147D01*
X107182228Y-145090297D01*
X107017816Y-145123000D01*
X106850184Y-145123000D01*
X106685772Y-145090297D01*
X106530900Y-145026147D01*
X106391519Y-144933015D01*
X106272985Y-144814481D01*
X106179853Y-144675100D01*
X106115703Y-144520228D01*
X106083000Y-144355816D01*
X106083000Y-144188184D01*
X106115703Y-144023772D01*
X106179853Y-143868900D01*
X106272985Y-143729519D01*
X106391519Y-143610985D01*
X106530900Y-143517853D01*
X106685772Y-143453703D01*
X106850184Y-143421000D01*
X107017816Y-143421000D01*
X107182228Y-143453703D01*
G37*
G36*
X114802228Y-143453703D02*
G01*
X114957100Y-143517853D01*
X115096481Y-143610985D01*
X115215015Y-143729519D01*
X115308147Y-143868900D01*
X115372297Y-144023772D01*
X115405000Y-144188184D01*
X115405000Y-144355816D01*
X115372297Y-144520228D01*
X115308147Y-144675100D01*
X115215015Y-144814481D01*
X115096481Y-144933015D01*
X114957100Y-145026147D01*
X114802228Y-145090297D01*
X114637816Y-145123000D01*
X114470184Y-145123000D01*
X114305772Y-145090297D01*
X114150900Y-145026147D01*
X114011519Y-144933015D01*
X113892985Y-144814481D01*
X113799853Y-144675100D01*
X113735703Y-144520228D01*
X113703000Y-144355816D01*
X113703000Y-144188184D01*
X113735703Y-144023772D01*
X113799853Y-143868900D01*
X113892985Y-143729519D01*
X114011519Y-143610985D01*
X114150900Y-143517853D01*
X114305772Y-143453703D01*
X114470184Y-143421000D01*
X114637816Y-143421000D01*
X114802228Y-143453703D01*
G37*
G36*
X109722228Y-143453703D02*
G01*
X109877100Y-143517853D01*
X110016481Y-143610985D01*
X110135015Y-143729519D01*
X110228147Y-143868900D01*
X110292297Y-144023772D01*
X110325000Y-144188184D01*
X110325000Y-144355816D01*
X110292297Y-144520228D01*
X110228147Y-144675100D01*
X110135015Y-144814481D01*
X110016481Y-144933015D01*
X109877100Y-145026147D01*
X109722228Y-145090297D01*
X109557816Y-145123000D01*
X109390184Y-145123000D01*
X109225772Y-145090297D01*
X109070900Y-145026147D01*
X108931519Y-144933015D01*
X108812985Y-144814481D01*
X108719853Y-144675100D01*
X108655703Y-144520228D01*
X108623000Y-144355816D01*
X108623000Y-144188184D01*
X108655703Y-144023772D01*
X108719853Y-143868900D01*
X108812985Y-143729519D01*
X108931519Y-143610985D01*
X109070900Y-143517853D01*
X109225772Y-143453703D01*
X109390184Y-143421000D01*
X109557816Y-143421000D01*
X109722228Y-143453703D01*
G37*
G36*
X104642228Y-143453703D02*
G01*
X104797100Y-143517853D01*
X104936481Y-143610985D01*
X105055015Y-143729519D01*
X105148147Y-143868900D01*
X105212297Y-144023772D01*
X105245000Y-144188184D01*
X105245000Y-144355816D01*
X105212297Y-144520228D01*
X105148147Y-144675100D01*
X105055015Y-144814481D01*
X104936481Y-144933015D01*
X104797100Y-145026147D01*
X104642228Y-145090297D01*
X104477816Y-145123000D01*
X104310184Y-145123000D01*
X104145772Y-145090297D01*
X103990900Y-145026147D01*
X103851519Y-144933015D01*
X103732985Y-144814481D01*
X103639853Y-144675100D01*
X103575703Y-144520228D01*
X103543000Y-144355816D01*
X103543000Y-144188184D01*
X103575703Y-144023772D01*
X103639853Y-143868900D01*
X103732985Y-143729519D01*
X103851519Y-143610985D01*
X103990900Y-143517853D01*
X104145772Y-143453703D01*
X104310184Y-143421000D01*
X104477816Y-143421000D01*
X104642228Y-143453703D01*
G37*
G36*
X99562228Y-143453703D02*
G01*
X99717100Y-143517853D01*
X99856481Y-143610985D01*
X99975015Y-143729519D01*
X100068147Y-143868900D01*
X100132297Y-144023772D01*
X100165000Y-144188184D01*
X100165000Y-144355816D01*
X100132297Y-144520228D01*
X100068147Y-144675100D01*
X99975015Y-144814481D01*
X99856481Y-144933015D01*
X99717100Y-145026147D01*
X99562228Y-145090297D01*
X99397816Y-145123000D01*
X99230184Y-145123000D01*
X99065772Y-145090297D01*
X98910900Y-145026147D01*
X98771519Y-144933015D01*
X98652985Y-144814481D01*
X98559853Y-144675100D01*
X98495703Y-144520228D01*
X98463000Y-144355816D01*
X98463000Y-144188184D01*
X98495703Y-144023772D01*
X98559853Y-143868900D01*
X98652985Y-143729519D01*
X98771519Y-143610985D01*
X98910900Y-143517853D01*
X99065772Y-143453703D01*
X99230184Y-143421000D01*
X99397816Y-143421000D01*
X99562228Y-143453703D01*
G37*
G36*
X97022228Y-143453703D02*
G01*
X97177100Y-143517853D01*
X97316481Y-143610985D01*
X97435015Y-143729519D01*
X97528147Y-143868900D01*
X97592297Y-144023772D01*
X97625000Y-144188184D01*
X97625000Y-144355816D01*
X97592297Y-144520228D01*
X97528147Y-144675100D01*
X97435015Y-144814481D01*
X97316481Y-144933015D01*
X97177100Y-145026147D01*
X97022228Y-145090297D01*
X96857816Y-145123000D01*
X96690184Y-145123000D01*
X96525772Y-145090297D01*
X96370900Y-145026147D01*
X96231519Y-144933015D01*
X96112985Y-144814481D01*
X96019853Y-144675100D01*
X95955703Y-144520228D01*
X95923000Y-144355816D01*
X95923000Y-144188184D01*
X95955703Y-144023772D01*
X96019853Y-143868900D01*
X96112985Y-143729519D01*
X96231519Y-143610985D01*
X96370900Y-143517853D01*
X96525772Y-143453703D01*
X96690184Y-143421000D01*
X96857816Y-143421000D01*
X97022228Y-143453703D01*
G37*
G36*
X94482228Y-143453703D02*
G01*
X94637100Y-143517853D01*
X94776481Y-143610985D01*
X94895015Y-143729519D01*
X94988147Y-143868900D01*
X95052297Y-144023772D01*
X95085000Y-144188184D01*
X95085000Y-144355816D01*
X95052297Y-144520228D01*
X94988147Y-144675100D01*
X94895015Y-144814481D01*
X94776481Y-144933015D01*
X94637100Y-145026147D01*
X94482228Y-145090297D01*
X94317816Y-145123000D01*
X94150184Y-145123000D01*
X93985772Y-145090297D01*
X93830900Y-145026147D01*
X93691519Y-144933015D01*
X93572985Y-144814481D01*
X93479853Y-144675100D01*
X93415703Y-144520228D01*
X93383000Y-144355816D01*
X93383000Y-144188184D01*
X93415703Y-144023772D01*
X93479853Y-143868900D01*
X93572985Y-143729519D01*
X93691519Y-143610985D01*
X93830900Y-143517853D01*
X93985772Y-143453703D01*
X94150184Y-143421000D01*
X94317816Y-143421000D01*
X94482228Y-143453703D01*
G37*
G36*
X91942228Y-143453703D02*
G01*
X92097100Y-143517853D01*
X92236481Y-143610985D01*
X92355015Y-143729519D01*
X92448147Y-143868900D01*
X92512297Y-144023772D01*
X92545000Y-144188184D01*
X92545000Y-144355816D01*
X92512297Y-144520228D01*
X92448147Y-144675100D01*
X92355015Y-144814481D01*
X92236481Y-144933015D01*
X92097100Y-145026147D01*
X91942228Y-145090297D01*
X91777816Y-145123000D01*
X91610184Y-145123000D01*
X91445772Y-145090297D01*
X91290900Y-145026147D01*
X91151519Y-144933015D01*
X91032985Y-144814481D01*
X90939853Y-144675100D01*
X90875703Y-144520228D01*
X90843000Y-144355816D01*
X90843000Y-144188184D01*
X90875703Y-144023772D01*
X90939853Y-143868900D01*
X91032985Y-143729519D01*
X91151519Y-143610985D01*
X91290900Y-143517853D01*
X91445772Y-143453703D01*
X91610184Y-143421000D01*
X91777816Y-143421000D01*
X91942228Y-143453703D01*
G37*
G36*
X112262228Y-143453703D02*
G01*
X112417100Y-143517853D01*
X112556481Y-143610985D01*
X112675015Y-143729519D01*
X112768147Y-143868900D01*
X112832297Y-144023772D01*
X112865000Y-144188184D01*
X112865000Y-144355816D01*
X112832297Y-144520228D01*
X112768147Y-144675100D01*
X112675015Y-144814481D01*
X112556481Y-144933015D01*
X112417100Y-145026147D01*
X112262228Y-145090297D01*
X112097816Y-145123000D01*
X111930184Y-145123000D01*
X111765772Y-145090297D01*
X111610900Y-145026147D01*
X111471519Y-144933015D01*
X111352985Y-144814481D01*
X111259853Y-144675100D01*
X111195703Y-144520228D01*
X111163000Y-144355816D01*
X111163000Y-144188184D01*
X111195703Y-144023772D01*
X111259853Y-143868900D01*
X111352985Y-143729519D01*
X111471519Y-143610985D01*
X111610900Y-143517853D01*
X111765772Y-143453703D01*
X111930184Y-143421000D01*
X112097816Y-143421000D01*
X112262228Y-143453703D01*
G37*
G36*
X102102228Y-143453703D02*
G01*
X102257100Y-143517853D01*
X102396481Y-143610985D01*
X102515015Y-143729519D01*
X102608147Y-143868900D01*
X102672297Y-144023772D01*
X102705000Y-144188184D01*
X102705000Y-144355816D01*
X102672297Y-144520228D01*
X102608147Y-144675100D01*
X102515015Y-144814481D01*
X102396481Y-144933015D01*
X102257100Y-145026147D01*
X102102228Y-145090297D01*
X101937816Y-145123000D01*
X101770184Y-145123000D01*
X101605772Y-145090297D01*
X101450900Y-145026147D01*
X101311519Y-144933015D01*
X101192985Y-144814481D01*
X101099853Y-144675100D01*
X101035703Y-144520228D01*
X101003000Y-144355816D01*
X101003000Y-144188184D01*
X101035703Y-144023772D01*
X101099853Y-143868900D01*
X101192985Y-143729519D01*
X101311519Y-143610985D01*
X101450900Y-143517853D01*
X101605772Y-143453703D01*
X101770184Y-143421000D01*
X101937816Y-143421000D01*
X102102228Y-143453703D01*
G37*
G36*
X75781000Y-144361000D02*
G01*
X74079000Y-144361000D01*
X74079000Y-142659000D01*
X75781000Y-142659000D01*
X75781000Y-144361000D01*
G37*
G36*
X54858228Y-142691703D02*
G01*
X55013100Y-142755853D01*
X55152481Y-142848985D01*
X55271015Y-142967519D01*
X55364147Y-143106900D01*
X55428297Y-143261772D01*
X55461000Y-143426184D01*
X55461000Y-143593816D01*
X55428297Y-143758228D01*
X55364147Y-143913100D01*
X55271015Y-144052481D01*
X55152481Y-144171015D01*
X55013100Y-144264147D01*
X54858228Y-144328297D01*
X54693816Y-144361000D01*
X54526184Y-144361000D01*
X54361772Y-144328297D01*
X54206900Y-144264147D01*
X54067519Y-144171015D01*
X53948985Y-144052481D01*
X53855853Y-143913100D01*
X53791703Y-143758228D01*
X53759000Y-143593816D01*
X53759000Y-143426184D01*
X53791703Y-143261772D01*
X53855853Y-143106900D01*
X53948985Y-142967519D01*
X54067519Y-142848985D01*
X54206900Y-142755853D01*
X54361772Y-142691703D01*
X54526184Y-142659000D01*
X54693816Y-142659000D01*
X54858228Y-142691703D01*
G37*
G36*
X70098228Y-142691703D02*
G01*
X70253100Y-142755853D01*
X70392481Y-142848985D01*
X70511015Y-142967519D01*
X70604147Y-143106900D01*
X70668297Y-143261772D01*
X70701000Y-143426184D01*
X70701000Y-143593816D01*
X70668297Y-143758228D01*
X70604147Y-143913100D01*
X70511015Y-144052481D01*
X70392481Y-144171015D01*
X70253100Y-144264147D01*
X70098228Y-144328297D01*
X69933816Y-144361000D01*
X69766184Y-144361000D01*
X69601772Y-144328297D01*
X69446900Y-144264147D01*
X69307519Y-144171015D01*
X69188985Y-144052481D01*
X69095853Y-143913100D01*
X69031703Y-143758228D01*
X68999000Y-143593816D01*
X68999000Y-143426184D01*
X69031703Y-143261772D01*
X69095853Y-143106900D01*
X69188985Y-142967519D01*
X69307519Y-142848985D01*
X69446900Y-142755853D01*
X69601772Y-142691703D01*
X69766184Y-142659000D01*
X69933816Y-142659000D01*
X70098228Y-142691703D01*
G37*
G36*
X82798228Y-142691703D02*
G01*
X82953100Y-142755853D01*
X83092481Y-142848985D01*
X83211015Y-142967519D01*
X83304147Y-143106900D01*
X83368297Y-143261772D01*
X83401000Y-143426184D01*
X83401000Y-143593816D01*
X83368297Y-143758228D01*
X83304147Y-143913100D01*
X83211015Y-144052481D01*
X83092481Y-144171015D01*
X82953100Y-144264147D01*
X82798228Y-144328297D01*
X82633816Y-144361000D01*
X82466184Y-144361000D01*
X82301772Y-144328297D01*
X82146900Y-144264147D01*
X82007519Y-144171015D01*
X81888985Y-144052481D01*
X81795853Y-143913100D01*
X81731703Y-143758228D01*
X81699000Y-143593816D01*
X81699000Y-143426184D01*
X81731703Y-143261772D01*
X81795853Y-143106900D01*
X81888985Y-142967519D01*
X82007519Y-142848985D01*
X82146900Y-142755853D01*
X82301772Y-142691703D01*
X82466184Y-142659000D01*
X82633816Y-142659000D01*
X82798228Y-142691703D01*
G37*
G36*
X54858228Y-140151703D02*
G01*
X55013100Y-140215853D01*
X55152481Y-140308985D01*
X55271015Y-140427519D01*
X55364147Y-140566900D01*
X55428297Y-140721772D01*
X55461000Y-140886184D01*
X55461000Y-141053816D01*
X55428297Y-141218228D01*
X55364147Y-141373100D01*
X55271015Y-141512481D01*
X55152481Y-141631015D01*
X55013100Y-141724147D01*
X54858228Y-141788297D01*
X54693816Y-141821000D01*
X54526184Y-141821000D01*
X54361772Y-141788297D01*
X54206900Y-141724147D01*
X54067519Y-141631015D01*
X53948985Y-141512481D01*
X53855853Y-141373100D01*
X53791703Y-141218228D01*
X53759000Y-141053816D01*
X53759000Y-140886184D01*
X53791703Y-140721772D01*
X53855853Y-140566900D01*
X53948985Y-140427519D01*
X54067519Y-140308985D01*
X54206900Y-140215853D01*
X54361772Y-140151703D01*
X54526184Y-140119000D01*
X54693816Y-140119000D01*
X54858228Y-140151703D01*
G37*
G36*
X70098228Y-140151703D02*
G01*
X70253100Y-140215853D01*
X70392481Y-140308985D01*
X70511015Y-140427519D01*
X70604147Y-140566900D01*
X70668297Y-140721772D01*
X70701000Y-140886184D01*
X70701000Y-141053816D01*
X70668297Y-141218228D01*
X70604147Y-141373100D01*
X70511015Y-141512481D01*
X70392481Y-141631015D01*
X70253100Y-141724147D01*
X70098228Y-141788297D01*
X69933816Y-141821000D01*
X69766184Y-141821000D01*
X69601772Y-141788297D01*
X69446900Y-141724147D01*
X69307519Y-141631015D01*
X69188985Y-141512481D01*
X69095853Y-141373100D01*
X69031703Y-141218228D01*
X68999000Y-141053816D01*
X68999000Y-140886184D01*
X69031703Y-140721772D01*
X69095853Y-140566900D01*
X69188985Y-140427519D01*
X69307519Y-140308985D01*
X69446900Y-140215853D01*
X69601772Y-140151703D01*
X69766184Y-140119000D01*
X69933816Y-140119000D01*
X70098228Y-140151703D01*
G37*
G36*
X92545000Y-141313000D02*
G01*
X90843000Y-141313000D01*
X90843000Y-139611000D01*
X92545000Y-139611000D01*
X92545000Y-141313000D01*
G37*
G36*
X94482228Y-139643703D02*
G01*
X94637100Y-139707853D01*
X94776481Y-139800985D01*
X94895015Y-139919519D01*
X94988147Y-140058900D01*
X95052297Y-140213772D01*
X95085000Y-140378184D01*
X95085000Y-140545816D01*
X95052297Y-140710228D01*
X94988147Y-140865100D01*
X94895015Y-141004481D01*
X94776481Y-141123015D01*
X94637100Y-141216147D01*
X94482228Y-141280297D01*
X94317816Y-141313000D01*
X94150184Y-141313000D01*
X93985772Y-141280297D01*
X93830900Y-141216147D01*
X93691519Y-141123015D01*
X93572985Y-141004481D01*
X93479853Y-140865100D01*
X93415703Y-140710228D01*
X93383000Y-140545816D01*
X93383000Y-140378184D01*
X93415703Y-140213772D01*
X93479853Y-140058900D01*
X93572985Y-139919519D01*
X93691519Y-139800985D01*
X93830900Y-139707853D01*
X93985772Y-139643703D01*
X94150184Y-139611000D01*
X94317816Y-139611000D01*
X94482228Y-139643703D01*
G37*
G36*
X97022228Y-139643703D02*
G01*
X97177100Y-139707853D01*
X97316481Y-139800985D01*
X97435015Y-139919519D01*
X97528147Y-140058900D01*
X97592297Y-140213772D01*
X97625000Y-140378184D01*
X97625000Y-140545816D01*
X97592297Y-140710228D01*
X97528147Y-140865100D01*
X97435015Y-141004481D01*
X97316481Y-141123015D01*
X97177100Y-141216147D01*
X97022228Y-141280297D01*
X96857816Y-141313000D01*
X96690184Y-141313000D01*
X96525772Y-141280297D01*
X96370900Y-141216147D01*
X96231519Y-141123015D01*
X96112985Y-141004481D01*
X96019853Y-140865100D01*
X95955703Y-140710228D01*
X95923000Y-140545816D01*
X95923000Y-140378184D01*
X95955703Y-140213772D01*
X96019853Y-140058900D01*
X96112985Y-139919519D01*
X96231519Y-139800985D01*
X96370900Y-139707853D01*
X96525772Y-139643703D01*
X96690184Y-139611000D01*
X96857816Y-139611000D01*
X97022228Y-139643703D01*
G37*
G36*
X99562228Y-139643703D02*
G01*
X99717100Y-139707853D01*
X99856481Y-139800985D01*
X99975015Y-139919519D01*
X100068147Y-140058900D01*
X100132297Y-140213772D01*
X100165000Y-140378184D01*
X100165000Y-140545816D01*
X100132297Y-140710228D01*
X100068147Y-140865100D01*
X99975015Y-141004481D01*
X99856481Y-141123015D01*
X99717100Y-141216147D01*
X99562228Y-141280297D01*
X99397816Y-141313000D01*
X99230184Y-141313000D01*
X99065772Y-141280297D01*
X98910900Y-141216147D01*
X98771519Y-141123015D01*
X98652985Y-141004481D01*
X98559853Y-140865100D01*
X98495703Y-140710228D01*
X98463000Y-140545816D01*
X98463000Y-140378184D01*
X98495703Y-140213772D01*
X98559853Y-140058900D01*
X98652985Y-139919519D01*
X98771519Y-139800985D01*
X98910900Y-139707853D01*
X99065772Y-139643703D01*
X99230184Y-139611000D01*
X99397816Y-139611000D01*
X99562228Y-139643703D01*
G37*
G36*
X102102228Y-139643703D02*
G01*
X102257100Y-139707853D01*
X102396481Y-139800985D01*
X102515015Y-139919519D01*
X102608147Y-140058900D01*
X102672297Y-140213772D01*
X102705000Y-140378184D01*
X102705000Y-140545816D01*
X102672297Y-140710228D01*
X102608147Y-140865100D01*
X102515015Y-141004481D01*
X102396481Y-141123015D01*
X102257100Y-141216147D01*
X102102228Y-141280297D01*
X101937816Y-141313000D01*
X101770184Y-141313000D01*
X101605772Y-141280297D01*
X101450900Y-141216147D01*
X101311519Y-141123015D01*
X101192985Y-141004481D01*
X101099853Y-140865100D01*
X101035703Y-140710228D01*
X101003000Y-140545816D01*
X101003000Y-140378184D01*
X101035703Y-140213772D01*
X101099853Y-140058900D01*
X101192985Y-139919519D01*
X101311519Y-139800985D01*
X101450900Y-139707853D01*
X101605772Y-139643703D01*
X101770184Y-139611000D01*
X101937816Y-139611000D01*
X102102228Y-139643703D01*
G37*
G36*
X107182228Y-139643703D02*
G01*
X107337100Y-139707853D01*
X107476481Y-139800985D01*
X107595015Y-139919519D01*
X107688147Y-140058900D01*
X107752297Y-140213772D01*
X107785000Y-140378184D01*
X107785000Y-140545816D01*
X107752297Y-140710228D01*
X107688147Y-140865100D01*
X107595015Y-141004481D01*
X107476481Y-141123015D01*
X107337100Y-141216147D01*
X107182228Y-141280297D01*
X107017816Y-141313000D01*
X106850184Y-141313000D01*
X106685772Y-141280297D01*
X106530900Y-141216147D01*
X106391519Y-141123015D01*
X106272985Y-141004481D01*
X106179853Y-140865100D01*
X106115703Y-140710228D01*
X106083000Y-140545816D01*
X106083000Y-140378184D01*
X106115703Y-140213772D01*
X106179853Y-140058900D01*
X106272985Y-139919519D01*
X106391519Y-139800985D01*
X106530900Y-139707853D01*
X106685772Y-139643703D01*
X106850184Y-139611000D01*
X107017816Y-139611000D01*
X107182228Y-139643703D01*
G37*
G36*
X104642228Y-139643703D02*
G01*
X104797100Y-139707853D01*
X104936481Y-139800985D01*
X105055015Y-139919519D01*
X105148147Y-140058900D01*
X105212297Y-140213772D01*
X105245000Y-140378184D01*
X105245000Y-140545816D01*
X105212297Y-140710228D01*
X105148147Y-140865100D01*
X105055015Y-141004481D01*
X104936481Y-141123015D01*
X104797100Y-141216147D01*
X104642228Y-141280297D01*
X104477816Y-141313000D01*
X104310184Y-141313000D01*
X104145772Y-141280297D01*
X103990900Y-141216147D01*
X103851519Y-141123015D01*
X103732985Y-141004481D01*
X103639853Y-140865100D01*
X103575703Y-140710228D01*
X103543000Y-140545816D01*
X103543000Y-140378184D01*
X103575703Y-140213772D01*
X103639853Y-140058900D01*
X103732985Y-139919519D01*
X103851519Y-139800985D01*
X103990900Y-139707853D01*
X104145772Y-139643703D01*
X104310184Y-139611000D01*
X104477816Y-139611000D01*
X104642228Y-139643703D01*
G37*
G36*
X114802228Y-139643703D02*
G01*
X114957100Y-139707853D01*
X115096481Y-139800985D01*
X115215015Y-139919519D01*
X115308147Y-140058900D01*
X115372297Y-140213772D01*
X115405000Y-140378184D01*
X115405000Y-140545816D01*
X115372297Y-140710228D01*
X115308147Y-140865100D01*
X115215015Y-141004481D01*
X115096481Y-141123015D01*
X114957100Y-141216147D01*
X114802228Y-141280297D01*
X114637816Y-141313000D01*
X114470184Y-141313000D01*
X114305772Y-141280297D01*
X114150900Y-141216147D01*
X114011519Y-141123015D01*
X113892985Y-141004481D01*
X113799853Y-140865100D01*
X113735703Y-140710228D01*
X113703000Y-140545816D01*
X113703000Y-140378184D01*
X113735703Y-140213772D01*
X113799853Y-140058900D01*
X113892985Y-139919519D01*
X114011519Y-139800985D01*
X114150900Y-139707853D01*
X114305772Y-139643703D01*
X114470184Y-139611000D01*
X114637816Y-139611000D01*
X114802228Y-139643703D01*
G37*
G36*
X112262228Y-139643703D02*
G01*
X112417100Y-139707853D01*
X112556481Y-139800985D01*
X112675015Y-139919519D01*
X112768147Y-140058900D01*
X112832297Y-140213772D01*
X112865000Y-140378184D01*
X112865000Y-140545816D01*
X112832297Y-140710228D01*
X112768147Y-140865100D01*
X112675015Y-141004481D01*
X112556481Y-141123015D01*
X112417100Y-141216147D01*
X112262228Y-141280297D01*
X112097816Y-141313000D01*
X111930184Y-141313000D01*
X111765772Y-141280297D01*
X111610900Y-141216147D01*
X111471519Y-141123015D01*
X111352985Y-141004481D01*
X111259853Y-140865100D01*
X111195703Y-140710228D01*
X111163000Y-140545816D01*
X111163000Y-140378184D01*
X111195703Y-140213772D01*
X111259853Y-140058900D01*
X111352985Y-139919519D01*
X111471519Y-139800985D01*
X111610900Y-139707853D01*
X111765772Y-139643703D01*
X111930184Y-139611000D01*
X112097816Y-139611000D01*
X112262228Y-139643703D01*
G37*
G36*
X109722228Y-139643703D02*
G01*
X109877100Y-139707853D01*
X110016481Y-139800985D01*
X110135015Y-139919519D01*
X110228147Y-140058900D01*
X110292297Y-140213772D01*
X110325000Y-140378184D01*
X110325000Y-140545816D01*
X110292297Y-140710228D01*
X110228147Y-140865100D01*
X110135015Y-141004481D01*
X110016481Y-141123015D01*
X109877100Y-141216147D01*
X109722228Y-141280297D01*
X109557816Y-141313000D01*
X109390184Y-141313000D01*
X109225772Y-141280297D01*
X109070900Y-141216147D01*
X108931519Y-141123015D01*
X108812985Y-141004481D01*
X108719853Y-140865100D01*
X108655703Y-140710228D01*
X108623000Y-140545816D01*
X108623000Y-140378184D01*
X108655703Y-140213772D01*
X108719853Y-140058900D01*
X108812985Y-139919519D01*
X108931519Y-139800985D01*
X109070900Y-139707853D01*
X109225772Y-139643703D01*
X109390184Y-139611000D01*
X109557816Y-139611000D01*
X109722228Y-139643703D01*
G37*
G36*
X70098228Y-137611703D02*
G01*
X70253100Y-137675853D01*
X70392481Y-137768985D01*
X70511015Y-137887519D01*
X70604147Y-138026900D01*
X70668297Y-138181772D01*
X70701000Y-138346184D01*
X70701000Y-138513816D01*
X70668297Y-138678228D01*
X70604147Y-138833100D01*
X70511015Y-138972481D01*
X70392481Y-139091015D01*
X70253100Y-139184147D01*
X70098228Y-139248297D01*
X69933816Y-139281000D01*
X69766184Y-139281000D01*
X69601772Y-139248297D01*
X69446900Y-139184147D01*
X69307519Y-139091015D01*
X69188985Y-138972481D01*
X69095853Y-138833100D01*
X69031703Y-138678228D01*
X68999000Y-138513816D01*
X68999000Y-138346184D01*
X69031703Y-138181772D01*
X69095853Y-138026900D01*
X69188985Y-137887519D01*
X69307519Y-137768985D01*
X69446900Y-137675853D01*
X69601772Y-137611703D01*
X69766184Y-137579000D01*
X69933816Y-137579000D01*
X70098228Y-137611703D01*
G37*
G36*
X54858228Y-137611703D02*
G01*
X55013100Y-137675853D01*
X55152481Y-137768985D01*
X55271015Y-137887519D01*
X55364147Y-138026900D01*
X55428297Y-138181772D01*
X55461000Y-138346184D01*
X55461000Y-138513816D01*
X55428297Y-138678228D01*
X55364147Y-138833100D01*
X55271015Y-138972481D01*
X55152481Y-139091015D01*
X55013100Y-139184147D01*
X54858228Y-139248297D01*
X54693816Y-139281000D01*
X54526184Y-139281000D01*
X54361772Y-139248297D01*
X54206900Y-139184147D01*
X54067519Y-139091015D01*
X53948985Y-138972481D01*
X53855853Y-138833100D01*
X53791703Y-138678228D01*
X53759000Y-138513816D01*
X53759000Y-138346184D01*
X53791703Y-138181772D01*
X53855853Y-138026900D01*
X53948985Y-137887519D01*
X54067519Y-137768985D01*
X54206900Y-137675853D01*
X54361772Y-137611703D01*
X54526184Y-137579000D01*
X54693816Y-137579000D01*
X54858228Y-137611703D01*
G37*
G36*
X54858228Y-135071703D02*
G01*
X55013100Y-135135853D01*
X55152481Y-135228985D01*
X55271015Y-135347519D01*
X55364147Y-135486900D01*
X55428297Y-135641772D01*
X55461000Y-135806184D01*
X55461000Y-135973816D01*
X55428297Y-136138228D01*
X55364147Y-136293100D01*
X55271015Y-136432481D01*
X55152481Y-136551015D01*
X55013100Y-136644147D01*
X54858228Y-136708297D01*
X54693816Y-136741000D01*
X54526184Y-136741000D01*
X54361772Y-136708297D01*
X54206900Y-136644147D01*
X54067519Y-136551015D01*
X53948985Y-136432481D01*
X53855853Y-136293100D01*
X53791703Y-136138228D01*
X53759000Y-135973816D01*
X53759000Y-135806184D01*
X53791703Y-135641772D01*
X53855853Y-135486900D01*
X53948985Y-135347519D01*
X54067519Y-135228985D01*
X54206900Y-135135853D01*
X54361772Y-135071703D01*
X54526184Y-135039000D01*
X54693816Y-135039000D01*
X54858228Y-135071703D01*
G37*
G36*
X70098228Y-135071703D02*
G01*
X70253100Y-135135853D01*
X70392481Y-135228985D01*
X70511015Y-135347519D01*
X70604147Y-135486900D01*
X70668297Y-135641772D01*
X70701000Y-135806184D01*
X70701000Y-135973816D01*
X70668297Y-136138228D01*
X70604147Y-136293100D01*
X70511015Y-136432481D01*
X70392481Y-136551015D01*
X70253100Y-136644147D01*
X70098228Y-136708297D01*
X69933816Y-136741000D01*
X69766184Y-136741000D01*
X69601772Y-136708297D01*
X69446900Y-136644147D01*
X69307519Y-136551015D01*
X69188985Y-136432481D01*
X69095853Y-136293100D01*
X69031703Y-136138228D01*
X68999000Y-135973816D01*
X68999000Y-135806184D01*
X69031703Y-135641772D01*
X69095853Y-135486900D01*
X69188985Y-135347519D01*
X69307519Y-135228985D01*
X69446900Y-135135853D01*
X69601772Y-135071703D01*
X69766184Y-135039000D01*
X69933816Y-135039000D01*
X70098228Y-135071703D01*
G37*
G36*
X113267142Y-133838242D02*
G01*
X113415101Y-133899529D01*
X113548255Y-133988499D01*
X113661501Y-134101745D01*
X113750471Y-134234899D01*
X113811758Y-134382858D01*
X113843000Y-134539925D01*
X113843000Y-134700075D01*
X113811758Y-134857142D01*
X113750471Y-135005101D01*
X113661501Y-135138255D01*
X113548255Y-135251501D01*
X113415101Y-135340471D01*
X113267142Y-135401758D01*
X113110075Y-135433000D01*
X112949925Y-135433000D01*
X112792858Y-135401758D01*
X112644899Y-135340471D01*
X112511745Y-135251501D01*
X112398499Y-135138255D01*
X112309529Y-135005101D01*
X112248242Y-134857142D01*
X112217000Y-134700075D01*
X112217000Y-134539925D01*
X112248242Y-134382858D01*
X112309529Y-134234899D01*
X112398499Y-134101745D01*
X112511745Y-133988499D01*
X112644899Y-133899529D01*
X112792858Y-133838242D01*
X112949925Y-133807000D01*
X113110075Y-133807000D01*
X113267142Y-133838242D01*
G37*
G36*
X108187142Y-133838242D02*
G01*
X108335101Y-133899529D01*
X108468255Y-133988499D01*
X108581501Y-134101745D01*
X108670471Y-134234899D01*
X108731758Y-134382858D01*
X108763000Y-134539925D01*
X108763000Y-134700075D01*
X108731758Y-134857142D01*
X108670471Y-135005101D01*
X108581501Y-135138255D01*
X108468255Y-135251501D01*
X108335101Y-135340471D01*
X108187142Y-135401758D01*
X108030075Y-135433000D01*
X107869925Y-135433000D01*
X107712858Y-135401758D01*
X107564899Y-135340471D01*
X107431745Y-135251501D01*
X107318499Y-135138255D01*
X107229529Y-135005101D01*
X107168242Y-134857142D01*
X107137000Y-134700075D01*
X107137000Y-134539925D01*
X107168242Y-134382858D01*
X107229529Y-134234899D01*
X107318499Y-134101745D01*
X107431745Y-133988499D01*
X107564899Y-133899529D01*
X107712858Y-133838242D01*
X107869925Y-133807000D01*
X108030075Y-133807000D01*
X108187142Y-133838242D01*
G37*
G36*
X110727142Y-133838242D02*
G01*
X110875101Y-133899529D01*
X111008255Y-133988499D01*
X111121501Y-134101745D01*
X111210471Y-134234899D01*
X111271758Y-134382858D01*
X111303000Y-134539925D01*
X111303000Y-134700075D01*
X111271758Y-134857142D01*
X111210471Y-135005101D01*
X111121501Y-135138255D01*
X111008255Y-135251501D01*
X110875101Y-135340471D01*
X110727142Y-135401758D01*
X110570075Y-135433000D01*
X110409925Y-135433000D01*
X110252858Y-135401758D01*
X110104899Y-135340471D01*
X109971745Y-135251501D01*
X109858499Y-135138255D01*
X109769529Y-135005101D01*
X109708242Y-134857142D01*
X109677000Y-134700075D01*
X109677000Y-134539925D01*
X109708242Y-134382858D01*
X109769529Y-134234899D01*
X109858499Y-134101745D01*
X109971745Y-133988499D01*
X110104899Y-133899529D01*
X110252858Y-133838242D01*
X110409925Y-133807000D01*
X110570075Y-133807000D01*
X110727142Y-133838242D01*
G37*
G36*
X115807142Y-133838242D02*
G01*
X115955101Y-133899529D01*
X116088255Y-133988499D01*
X116201501Y-134101745D01*
X116290471Y-134234899D01*
X116351758Y-134382858D01*
X116383000Y-134539925D01*
X116383000Y-134700075D01*
X116351758Y-134857142D01*
X116290471Y-135005101D01*
X116201501Y-135138255D01*
X116088255Y-135251501D01*
X115955101Y-135340471D01*
X115807142Y-135401758D01*
X115650075Y-135433000D01*
X115489925Y-135433000D01*
X115332858Y-135401758D01*
X115184899Y-135340471D01*
X115051745Y-135251501D01*
X114938499Y-135138255D01*
X114849529Y-135005101D01*
X114788242Y-134857142D01*
X114757000Y-134700075D01*
X114757000Y-134539925D01*
X114788242Y-134382858D01*
X114849529Y-134234899D01*
X114938499Y-134101745D01*
X115051745Y-133988499D01*
X115184899Y-133899529D01*
X115332858Y-133838242D01*
X115489925Y-133807000D01*
X115650075Y-133807000D01*
X115807142Y-133838242D01*
G37*
G36*
X118347142Y-133838242D02*
G01*
X118495101Y-133899529D01*
X118628255Y-133988499D01*
X118741501Y-134101745D01*
X118830471Y-134234899D01*
X118891758Y-134382858D01*
X118923000Y-134539925D01*
X118923000Y-134700075D01*
X118891758Y-134857142D01*
X118830471Y-135005101D01*
X118741501Y-135138255D01*
X118628255Y-135251501D01*
X118495101Y-135340471D01*
X118347142Y-135401758D01*
X118190075Y-135433000D01*
X118029925Y-135433000D01*
X117872858Y-135401758D01*
X117724899Y-135340471D01*
X117591745Y-135251501D01*
X117478499Y-135138255D01*
X117389529Y-135005101D01*
X117328242Y-134857142D01*
X117297000Y-134700075D01*
X117297000Y-134539925D01*
X117328242Y-134382858D01*
X117389529Y-134234899D01*
X117478499Y-134101745D01*
X117591745Y-133988499D01*
X117724899Y-133899529D01*
X117872858Y-133838242D01*
X118029925Y-133807000D01*
X118190075Y-133807000D01*
X118347142Y-133838242D01*
G37*
G36*
X120887142Y-133838242D02*
G01*
X121035101Y-133899529D01*
X121168255Y-133988499D01*
X121281501Y-134101745D01*
X121370471Y-134234899D01*
X121431758Y-134382858D01*
X121463000Y-134539925D01*
X121463000Y-134700075D01*
X121431758Y-134857142D01*
X121370471Y-135005101D01*
X121281501Y-135138255D01*
X121168255Y-135251501D01*
X121035101Y-135340471D01*
X120887142Y-135401758D01*
X120730075Y-135433000D01*
X120569925Y-135433000D01*
X120412858Y-135401758D01*
X120264899Y-135340471D01*
X120131745Y-135251501D01*
X120018499Y-135138255D01*
X119929529Y-135005101D01*
X119868242Y-134857142D01*
X119837000Y-134700075D01*
X119837000Y-134539925D01*
X119868242Y-134382858D01*
X119929529Y-134234899D01*
X120018499Y-134101745D01*
X120131745Y-133988499D01*
X120264899Y-133899529D01*
X120412858Y-133838242D01*
X120569925Y-133807000D01*
X120730075Y-133807000D01*
X120887142Y-133838242D01*
G37*
G36*
X123427142Y-133838242D02*
G01*
X123575101Y-133899529D01*
X123708255Y-133988499D01*
X123821501Y-134101745D01*
X123910471Y-134234899D01*
X123971758Y-134382858D01*
X124003000Y-134539925D01*
X124003000Y-134700075D01*
X123971758Y-134857142D01*
X123910471Y-135005101D01*
X123821501Y-135138255D01*
X123708255Y-135251501D01*
X123575101Y-135340471D01*
X123427142Y-135401758D01*
X123270075Y-135433000D01*
X123109925Y-135433000D01*
X122952858Y-135401758D01*
X122804899Y-135340471D01*
X122671745Y-135251501D01*
X122558499Y-135138255D01*
X122469529Y-135005101D01*
X122408242Y-134857142D01*
X122377000Y-134700075D01*
X122377000Y-134539925D01*
X122408242Y-134382858D01*
X122469529Y-134234899D01*
X122558499Y-134101745D01*
X122671745Y-133988499D01*
X122804899Y-133899529D01*
X122952858Y-133838242D01*
X123109925Y-133807000D01*
X123270075Y-133807000D01*
X123427142Y-133838242D01*
G37*
G36*
X92947142Y-133838242D02*
G01*
X93095101Y-133899529D01*
X93228255Y-133988499D01*
X93341501Y-134101745D01*
X93430471Y-134234899D01*
X93491758Y-134382858D01*
X93523000Y-134539925D01*
X93523000Y-134700075D01*
X93491758Y-134857142D01*
X93430471Y-135005101D01*
X93341501Y-135138255D01*
X93228255Y-135251501D01*
X93095101Y-135340471D01*
X92947142Y-135401758D01*
X92790075Y-135433000D01*
X92629925Y-135433000D01*
X92472858Y-135401758D01*
X92324899Y-135340471D01*
X92191745Y-135251501D01*
X92078499Y-135138255D01*
X91989529Y-135005101D01*
X91928242Y-134857142D01*
X91897000Y-134700075D01*
X91897000Y-134539925D01*
X91928242Y-134382858D01*
X91989529Y-134234899D01*
X92078499Y-134101745D01*
X92191745Y-133988499D01*
X92324899Y-133899529D01*
X92472858Y-133838242D01*
X92629925Y-133807000D01*
X92790075Y-133807000D01*
X92947142Y-133838242D01*
G37*
G36*
X95487142Y-133838242D02*
G01*
X95635101Y-133899529D01*
X95768255Y-133988499D01*
X95881501Y-134101745D01*
X95970471Y-134234899D01*
X96031758Y-134382858D01*
X96063000Y-134539925D01*
X96063000Y-134700075D01*
X96031758Y-134857142D01*
X95970471Y-135005101D01*
X95881501Y-135138255D01*
X95768255Y-135251501D01*
X95635101Y-135340471D01*
X95487142Y-135401758D01*
X95330075Y-135433000D01*
X95169925Y-135433000D01*
X95012858Y-135401758D01*
X94864899Y-135340471D01*
X94731745Y-135251501D01*
X94618499Y-135138255D01*
X94529529Y-135005101D01*
X94468242Y-134857142D01*
X94437000Y-134700075D01*
X94437000Y-134539925D01*
X94468242Y-134382858D01*
X94529529Y-134234899D01*
X94618499Y-134101745D01*
X94731745Y-133988499D01*
X94864899Y-133899529D01*
X95012858Y-133838242D01*
X95169925Y-133807000D01*
X95330075Y-133807000D01*
X95487142Y-133838242D01*
G37*
G36*
X98027142Y-133838242D02*
G01*
X98175101Y-133899529D01*
X98308255Y-133988499D01*
X98421501Y-134101745D01*
X98510471Y-134234899D01*
X98571758Y-134382858D01*
X98603000Y-134539925D01*
X98603000Y-134700075D01*
X98571758Y-134857142D01*
X98510471Y-135005101D01*
X98421501Y-135138255D01*
X98308255Y-135251501D01*
X98175101Y-135340471D01*
X98027142Y-135401758D01*
X97870075Y-135433000D01*
X97709925Y-135433000D01*
X97552858Y-135401758D01*
X97404899Y-135340471D01*
X97271745Y-135251501D01*
X97158499Y-135138255D01*
X97069529Y-135005101D01*
X97008242Y-134857142D01*
X96977000Y-134700075D01*
X96977000Y-134539925D01*
X97008242Y-134382858D01*
X97069529Y-134234899D01*
X97158499Y-134101745D01*
X97271745Y-133988499D01*
X97404899Y-133899529D01*
X97552858Y-133838242D01*
X97709925Y-133807000D01*
X97870075Y-133807000D01*
X98027142Y-133838242D01*
G37*
G36*
X100567142Y-133838242D02*
G01*
X100715101Y-133899529D01*
X100848255Y-133988499D01*
X100961501Y-134101745D01*
X101050471Y-134234899D01*
X101111758Y-134382858D01*
X101143000Y-134539925D01*
X101143000Y-134700075D01*
X101111758Y-134857142D01*
X101050471Y-135005101D01*
X100961501Y-135138255D01*
X100848255Y-135251501D01*
X100715101Y-135340471D01*
X100567142Y-135401758D01*
X100410075Y-135433000D01*
X100249925Y-135433000D01*
X100092858Y-135401758D01*
X99944899Y-135340471D01*
X99811745Y-135251501D01*
X99698499Y-135138255D01*
X99609529Y-135005101D01*
X99548242Y-134857142D01*
X99517000Y-134700075D01*
X99517000Y-134539925D01*
X99548242Y-134382858D01*
X99609529Y-134234899D01*
X99698499Y-134101745D01*
X99811745Y-133988499D01*
X99944899Y-133899529D01*
X100092858Y-133838242D01*
X100249925Y-133807000D01*
X100410075Y-133807000D01*
X100567142Y-133838242D01*
G37*
G36*
X87867142Y-133838242D02*
G01*
X88015101Y-133899529D01*
X88148255Y-133988499D01*
X88261501Y-134101745D01*
X88350471Y-134234899D01*
X88411758Y-134382858D01*
X88443000Y-134539925D01*
X88443000Y-134700075D01*
X88411758Y-134857142D01*
X88350471Y-135005101D01*
X88261501Y-135138255D01*
X88148255Y-135251501D01*
X88015101Y-135340471D01*
X87867142Y-135401758D01*
X87710075Y-135433000D01*
X87549925Y-135433000D01*
X87392858Y-135401758D01*
X87244899Y-135340471D01*
X87111745Y-135251501D01*
X86998499Y-135138255D01*
X86909529Y-135005101D01*
X86848242Y-134857142D01*
X86817000Y-134700075D01*
X86817000Y-134539925D01*
X86848242Y-134382858D01*
X86909529Y-134234899D01*
X86998499Y-134101745D01*
X87111745Y-133988499D01*
X87244899Y-133899529D01*
X87392858Y-133838242D01*
X87549925Y-133807000D01*
X87710075Y-133807000D01*
X87867142Y-133838242D01*
G37*
G36*
X103107142Y-133838242D02*
G01*
X103255101Y-133899529D01*
X103388255Y-133988499D01*
X103501501Y-134101745D01*
X103590471Y-134234899D01*
X103651758Y-134382858D01*
X103683000Y-134539925D01*
X103683000Y-134700075D01*
X103651758Y-134857142D01*
X103590471Y-135005101D01*
X103501501Y-135138255D01*
X103388255Y-135251501D01*
X103255101Y-135340471D01*
X103107142Y-135401758D01*
X102950075Y-135433000D01*
X102789925Y-135433000D01*
X102632858Y-135401758D01*
X102484899Y-135340471D01*
X102351745Y-135251501D01*
X102238499Y-135138255D01*
X102149529Y-135005101D01*
X102088242Y-134857142D01*
X102057000Y-134700075D01*
X102057000Y-134539925D01*
X102088242Y-134382858D01*
X102149529Y-134234899D01*
X102238499Y-134101745D01*
X102351745Y-133988499D01*
X102484899Y-133899529D01*
X102632858Y-133838242D01*
X102789925Y-133807000D01*
X102950075Y-133807000D01*
X103107142Y-133838242D01*
G37*
G36*
X85327142Y-133838242D02*
G01*
X85475101Y-133899529D01*
X85608255Y-133988499D01*
X85721501Y-134101745D01*
X85810471Y-134234899D01*
X85871758Y-134382858D01*
X85903000Y-134539925D01*
X85903000Y-134700075D01*
X85871758Y-134857142D01*
X85810471Y-135005101D01*
X85721501Y-135138255D01*
X85608255Y-135251501D01*
X85475101Y-135340471D01*
X85327142Y-135401758D01*
X85170075Y-135433000D01*
X85009925Y-135433000D01*
X84852858Y-135401758D01*
X84704899Y-135340471D01*
X84571745Y-135251501D01*
X84458499Y-135138255D01*
X84369529Y-135005101D01*
X84308242Y-134857142D01*
X84277000Y-134700075D01*
X84277000Y-134539925D01*
X84308242Y-134382858D01*
X84369529Y-134234899D01*
X84458499Y-134101745D01*
X84571745Y-133988499D01*
X84704899Y-133899529D01*
X84852858Y-133838242D01*
X85009925Y-133807000D01*
X85170075Y-133807000D01*
X85327142Y-133838242D01*
G37*
G36*
X105647142Y-133838242D02*
G01*
X105795101Y-133899529D01*
X105928255Y-133988499D01*
X106041501Y-134101745D01*
X106130471Y-134234899D01*
X106191758Y-134382858D01*
X106223000Y-134539925D01*
X106223000Y-134700075D01*
X106191758Y-134857142D01*
X106130471Y-135005101D01*
X106041501Y-135138255D01*
X105928255Y-135251501D01*
X105795101Y-135340471D01*
X105647142Y-135401758D01*
X105490075Y-135433000D01*
X105329925Y-135433000D01*
X105172858Y-135401758D01*
X105024899Y-135340471D01*
X104891745Y-135251501D01*
X104778499Y-135138255D01*
X104689529Y-135005101D01*
X104628242Y-134857142D01*
X104597000Y-134700075D01*
X104597000Y-134539925D01*
X104628242Y-134382858D01*
X104689529Y-134234899D01*
X104778499Y-134101745D01*
X104891745Y-133988499D01*
X105024899Y-133899529D01*
X105172858Y-133838242D01*
X105329925Y-133807000D01*
X105490075Y-133807000D01*
X105647142Y-133838242D01*
G37*
G36*
X75167142Y-133838242D02*
G01*
X75315101Y-133899529D01*
X75448255Y-133988499D01*
X75561501Y-134101745D01*
X75650471Y-134234899D01*
X75711758Y-134382858D01*
X75743000Y-134539925D01*
X75743000Y-134700075D01*
X75711758Y-134857142D01*
X75650471Y-135005101D01*
X75561501Y-135138255D01*
X75448255Y-135251501D01*
X75315101Y-135340471D01*
X75167142Y-135401758D01*
X75010075Y-135433000D01*
X74849925Y-135433000D01*
X74692858Y-135401758D01*
X74544899Y-135340471D01*
X74411745Y-135251501D01*
X74298499Y-135138255D01*
X74209529Y-135005101D01*
X74148242Y-134857142D01*
X74117000Y-134700075D01*
X74117000Y-134539925D01*
X74148242Y-134382858D01*
X74209529Y-134234899D01*
X74298499Y-134101745D01*
X74411745Y-133988499D01*
X74544899Y-133899529D01*
X74692858Y-133838242D01*
X74849925Y-133807000D01*
X75010075Y-133807000D01*
X75167142Y-133838242D01*
G37*
G36*
X77707142Y-133838242D02*
G01*
X77855101Y-133899529D01*
X77988255Y-133988499D01*
X78101501Y-134101745D01*
X78190471Y-134234899D01*
X78251758Y-134382858D01*
X78283000Y-134539925D01*
X78283000Y-134700075D01*
X78251758Y-134857142D01*
X78190471Y-135005101D01*
X78101501Y-135138255D01*
X77988255Y-135251501D01*
X77855101Y-135340471D01*
X77707142Y-135401758D01*
X77550075Y-135433000D01*
X77389925Y-135433000D01*
X77232858Y-135401758D01*
X77084899Y-135340471D01*
X76951745Y-135251501D01*
X76838499Y-135138255D01*
X76749529Y-135005101D01*
X76688242Y-134857142D01*
X76657000Y-134700075D01*
X76657000Y-134539925D01*
X76688242Y-134382858D01*
X76749529Y-134234899D01*
X76838499Y-134101745D01*
X76951745Y-133988499D01*
X77084899Y-133899529D01*
X77232858Y-133838242D01*
X77389925Y-133807000D01*
X77550075Y-133807000D01*
X77707142Y-133838242D01*
G37*
G36*
X80247142Y-133838242D02*
G01*
X80395101Y-133899529D01*
X80528255Y-133988499D01*
X80641501Y-134101745D01*
X80730471Y-134234899D01*
X80791758Y-134382858D01*
X80823000Y-134539925D01*
X80823000Y-134700075D01*
X80791758Y-134857142D01*
X80730471Y-135005101D01*
X80641501Y-135138255D01*
X80528255Y-135251501D01*
X80395101Y-135340471D01*
X80247142Y-135401758D01*
X80090075Y-135433000D01*
X79929925Y-135433000D01*
X79772858Y-135401758D01*
X79624899Y-135340471D01*
X79491745Y-135251501D01*
X79378499Y-135138255D01*
X79289529Y-135005101D01*
X79228242Y-134857142D01*
X79197000Y-134700075D01*
X79197000Y-134539925D01*
X79228242Y-134382858D01*
X79289529Y-134234899D01*
X79378499Y-134101745D01*
X79491745Y-133988499D01*
X79624899Y-133899529D01*
X79772858Y-133838242D01*
X79929925Y-133807000D01*
X80090075Y-133807000D01*
X80247142Y-133838242D01*
G37*
G36*
X82787142Y-133838242D02*
G01*
X82935101Y-133899529D01*
X83068255Y-133988499D01*
X83181501Y-134101745D01*
X83270471Y-134234899D01*
X83331758Y-134382858D01*
X83363000Y-134539925D01*
X83363000Y-134700075D01*
X83331758Y-134857142D01*
X83270471Y-135005101D01*
X83181501Y-135138255D01*
X83068255Y-135251501D01*
X82935101Y-135340471D01*
X82787142Y-135401758D01*
X82630075Y-135433000D01*
X82469925Y-135433000D01*
X82312858Y-135401758D01*
X82164899Y-135340471D01*
X82031745Y-135251501D01*
X81918499Y-135138255D01*
X81829529Y-135005101D01*
X81768242Y-134857142D01*
X81737000Y-134700075D01*
X81737000Y-134539925D01*
X81768242Y-134382858D01*
X81829529Y-134234899D01*
X81918499Y-134101745D01*
X82031745Y-133988499D01*
X82164899Y-133899529D01*
X82312858Y-133838242D01*
X82469925Y-133807000D01*
X82630075Y-133807000D01*
X82787142Y-133838242D01*
G37*
G36*
X90407142Y-133838242D02*
G01*
X90555101Y-133899529D01*
X90688255Y-133988499D01*
X90801501Y-134101745D01*
X90890471Y-134234899D01*
X90951758Y-134382858D01*
X90983000Y-134539925D01*
X90983000Y-134700075D01*
X90951758Y-134857142D01*
X90890471Y-135005101D01*
X90801501Y-135138255D01*
X90688255Y-135251501D01*
X90555101Y-135340471D01*
X90407142Y-135401758D01*
X90250075Y-135433000D01*
X90089925Y-135433000D01*
X89932858Y-135401758D01*
X89784899Y-135340471D01*
X89651745Y-135251501D01*
X89538499Y-135138255D01*
X89449529Y-135005101D01*
X89388242Y-134857142D01*
X89357000Y-134700075D01*
X89357000Y-134539925D01*
X89388242Y-134382858D01*
X89449529Y-134234899D01*
X89538499Y-134101745D01*
X89651745Y-133988499D01*
X89784899Y-133899529D01*
X89932858Y-133838242D01*
X90089925Y-133807000D01*
X90250075Y-133807000D01*
X90407142Y-133838242D01*
G37*
G36*
X70098228Y-132531703D02*
G01*
X70253100Y-132595853D01*
X70392481Y-132688985D01*
X70511015Y-132807519D01*
X70604147Y-132946900D01*
X70668297Y-133101772D01*
X70701000Y-133266184D01*
X70701000Y-133433816D01*
X70668297Y-133598228D01*
X70604147Y-133753100D01*
X70511015Y-133892481D01*
X70392481Y-134011015D01*
X70253100Y-134104147D01*
X70098228Y-134168297D01*
X69933816Y-134201000D01*
X69766184Y-134201000D01*
X69601772Y-134168297D01*
X69446900Y-134104147D01*
X69307519Y-134011015D01*
X69188985Y-133892481D01*
X69095853Y-133753100D01*
X69031703Y-133598228D01*
X68999000Y-133433816D01*
X68999000Y-133266184D01*
X69031703Y-133101772D01*
X69095853Y-132946900D01*
X69188985Y-132807519D01*
X69307519Y-132688985D01*
X69446900Y-132595853D01*
X69601772Y-132531703D01*
X69766184Y-132499000D01*
X69933816Y-132499000D01*
X70098228Y-132531703D01*
G37*
G36*
X54858228Y-132531703D02*
G01*
X55013100Y-132595853D01*
X55152481Y-132688985D01*
X55271015Y-132807519D01*
X55364147Y-132946900D01*
X55428297Y-133101772D01*
X55461000Y-133266184D01*
X55461000Y-133433816D01*
X55428297Y-133598228D01*
X55364147Y-133753100D01*
X55271015Y-133892481D01*
X55152481Y-134011015D01*
X55013100Y-134104147D01*
X54858228Y-134168297D01*
X54693816Y-134201000D01*
X54526184Y-134201000D01*
X54361772Y-134168297D01*
X54206900Y-134104147D01*
X54067519Y-134011015D01*
X53948985Y-133892481D01*
X53855853Y-133753100D01*
X53791703Y-133598228D01*
X53759000Y-133433816D01*
X53759000Y-133266184D01*
X53791703Y-133101772D01*
X53855853Y-132946900D01*
X53948985Y-132807519D01*
X54067519Y-132688985D01*
X54206900Y-132595853D01*
X54361772Y-132531703D01*
X54526184Y-132499000D01*
X54693816Y-132499000D01*
X54858228Y-132531703D01*
G37*
G36*
X54858228Y-129991703D02*
G01*
X55013100Y-130055853D01*
X55152481Y-130148985D01*
X55271015Y-130267519D01*
X55364147Y-130406900D01*
X55428297Y-130561772D01*
X55461000Y-130726184D01*
X55461000Y-130893816D01*
X55428297Y-131058228D01*
X55364147Y-131213100D01*
X55271015Y-131352481D01*
X55152481Y-131471015D01*
X55013100Y-131564147D01*
X54858228Y-131628297D01*
X54693816Y-131661000D01*
X54526184Y-131661000D01*
X54361772Y-131628297D01*
X54206900Y-131564147D01*
X54067519Y-131471015D01*
X53948985Y-131352481D01*
X53855853Y-131213100D01*
X53791703Y-131058228D01*
X53759000Y-130893816D01*
X53759000Y-130726184D01*
X53791703Y-130561772D01*
X53855853Y-130406900D01*
X53948985Y-130267519D01*
X54067519Y-130148985D01*
X54206900Y-130055853D01*
X54361772Y-129991703D01*
X54526184Y-129959000D01*
X54693816Y-129959000D01*
X54858228Y-129991703D01*
G37*
G36*
X70098228Y-129991703D02*
G01*
X70253100Y-130055853D01*
X70392481Y-130148985D01*
X70511015Y-130267519D01*
X70604147Y-130406900D01*
X70668297Y-130561772D01*
X70701000Y-130726184D01*
X70701000Y-130893816D01*
X70668297Y-131058228D01*
X70604147Y-131213100D01*
X70511015Y-131352481D01*
X70392481Y-131471015D01*
X70253100Y-131564147D01*
X70098228Y-131628297D01*
X69933816Y-131661000D01*
X69766184Y-131661000D01*
X69601772Y-131628297D01*
X69446900Y-131564147D01*
X69307519Y-131471015D01*
X69188985Y-131352481D01*
X69095853Y-131213100D01*
X69031703Y-131058228D01*
X68999000Y-130893816D01*
X68999000Y-130726184D01*
X69031703Y-130561772D01*
X69095853Y-130406900D01*
X69188985Y-130267519D01*
X69307519Y-130148985D01*
X69446900Y-130055853D01*
X69601772Y-129991703D01*
X69766184Y-129959000D01*
X69933816Y-129959000D01*
X70098228Y-129991703D01*
G37*
G36*
X78977142Y-130028242D02*
G01*
X79125101Y-130089529D01*
X79258255Y-130178499D01*
X79371501Y-130291745D01*
X79460471Y-130424899D01*
X79521758Y-130572858D01*
X79553000Y-130729925D01*
X79553000Y-130890075D01*
X79521758Y-131047142D01*
X79460471Y-131195101D01*
X79371501Y-131328255D01*
X79258255Y-131441501D01*
X79125101Y-131530471D01*
X78977142Y-131591758D01*
X78820075Y-131623000D01*
X78659925Y-131623000D01*
X78502858Y-131591758D01*
X78354899Y-131530471D01*
X78221745Y-131441501D01*
X78108499Y-131328255D01*
X78019529Y-131195101D01*
X77958242Y-131047142D01*
X77927000Y-130890075D01*
X77927000Y-130729925D01*
X77958242Y-130572858D01*
X78019529Y-130424899D01*
X78108499Y-130291745D01*
X78221745Y-130178499D01*
X78354899Y-130089529D01*
X78502858Y-130028242D01*
X78659925Y-129997000D01*
X78820075Y-129997000D01*
X78977142Y-130028242D01*
G37*
G36*
X54858228Y-127451703D02*
G01*
X55013100Y-127515853D01*
X55152481Y-127608985D01*
X55271015Y-127727519D01*
X55364147Y-127866900D01*
X55428297Y-128021772D01*
X55461000Y-128186184D01*
X55461000Y-128353816D01*
X55428297Y-128518228D01*
X55364147Y-128673100D01*
X55271015Y-128812481D01*
X55152481Y-128931015D01*
X55013100Y-129024147D01*
X54858228Y-129088297D01*
X54693816Y-129121000D01*
X54526184Y-129121000D01*
X54361772Y-129088297D01*
X54206900Y-129024147D01*
X54067519Y-128931015D01*
X53948985Y-128812481D01*
X53855853Y-128673100D01*
X53791703Y-128518228D01*
X53759000Y-128353816D01*
X53759000Y-128186184D01*
X53791703Y-128021772D01*
X53855853Y-127866900D01*
X53948985Y-127727519D01*
X54067519Y-127608985D01*
X54206900Y-127515853D01*
X54361772Y-127451703D01*
X54526184Y-127419000D01*
X54693816Y-127419000D01*
X54858228Y-127451703D01*
G37*
G36*
X70098228Y-127451703D02*
G01*
X70253100Y-127515853D01*
X70392481Y-127608985D01*
X70511015Y-127727519D01*
X70604147Y-127866900D01*
X70668297Y-128021772D01*
X70701000Y-128186184D01*
X70701000Y-128353816D01*
X70668297Y-128518228D01*
X70604147Y-128673100D01*
X70511015Y-128812481D01*
X70392481Y-128931015D01*
X70253100Y-129024147D01*
X70098228Y-129088297D01*
X69933816Y-129121000D01*
X69766184Y-129121000D01*
X69601772Y-129088297D01*
X69446900Y-129024147D01*
X69307519Y-128931015D01*
X69188985Y-128812481D01*
X69095853Y-128673100D01*
X69031703Y-128518228D01*
X68999000Y-128353816D01*
X68999000Y-128186184D01*
X69031703Y-128021772D01*
X69095853Y-127866900D01*
X69188985Y-127727519D01*
X69307519Y-127608985D01*
X69446900Y-127515853D01*
X69601772Y-127451703D01*
X69766184Y-127419000D01*
X69933816Y-127419000D01*
X70098228Y-127451703D01*
G37*
G36*
X78977142Y-127488242D02*
G01*
X79125101Y-127549529D01*
X79258255Y-127638499D01*
X79371501Y-127751745D01*
X79460471Y-127884899D01*
X79521758Y-128032858D01*
X79553000Y-128189925D01*
X79553000Y-128350075D01*
X79521758Y-128507142D01*
X79460471Y-128655101D01*
X79371501Y-128788255D01*
X79258255Y-128901501D01*
X79125101Y-128990471D01*
X78977142Y-129051758D01*
X78820075Y-129083000D01*
X78659925Y-129083000D01*
X78502858Y-129051758D01*
X78354899Y-128990471D01*
X78221745Y-128901501D01*
X78108499Y-128788255D01*
X78019529Y-128655101D01*
X77958242Y-128507142D01*
X77927000Y-128350075D01*
X77927000Y-128189925D01*
X77958242Y-128032858D01*
X78019529Y-127884899D01*
X78108499Y-127751745D01*
X78221745Y-127638499D01*
X78354899Y-127549529D01*
X78502858Y-127488242D01*
X78659925Y-127457000D01*
X78820075Y-127457000D01*
X78977142Y-127488242D01*
G37*
G36*
X70098228Y-124911703D02*
G01*
X70253100Y-124975853D01*
X70392481Y-125068985D01*
X70511015Y-125187519D01*
X70604147Y-125326900D01*
X70668297Y-125481772D01*
X70701000Y-125646184D01*
X70701000Y-125813816D01*
X70668297Y-125978228D01*
X70604147Y-126133100D01*
X70511015Y-126272481D01*
X70392481Y-126391015D01*
X70253100Y-126484147D01*
X70098228Y-126548297D01*
X69933816Y-126581000D01*
X69766184Y-126581000D01*
X69601772Y-126548297D01*
X69446900Y-126484147D01*
X69307519Y-126391015D01*
X69188985Y-126272481D01*
X69095853Y-126133100D01*
X69031703Y-125978228D01*
X68999000Y-125813816D01*
X68999000Y-125646184D01*
X69031703Y-125481772D01*
X69095853Y-125326900D01*
X69188985Y-125187519D01*
X69307519Y-125068985D01*
X69446900Y-124975853D01*
X69601772Y-124911703D01*
X69766184Y-124879000D01*
X69933816Y-124879000D01*
X70098228Y-124911703D01*
G37*
G36*
X54858228Y-124911703D02*
G01*
X55013100Y-124975853D01*
X55152481Y-125068985D01*
X55271015Y-125187519D01*
X55364147Y-125326900D01*
X55428297Y-125481772D01*
X55461000Y-125646184D01*
X55461000Y-125813816D01*
X55428297Y-125978228D01*
X55364147Y-126133100D01*
X55271015Y-126272481D01*
X55152481Y-126391015D01*
X55013100Y-126484147D01*
X54858228Y-126548297D01*
X54693816Y-126581000D01*
X54526184Y-126581000D01*
X54361772Y-126548297D01*
X54206900Y-126484147D01*
X54067519Y-126391015D01*
X53948985Y-126272481D01*
X53855853Y-126133100D01*
X53791703Y-125978228D01*
X53759000Y-125813816D01*
X53759000Y-125646184D01*
X53791703Y-125481772D01*
X53855853Y-125326900D01*
X53948985Y-125187519D01*
X54067519Y-125068985D01*
X54206900Y-124975853D01*
X54361772Y-124911703D01*
X54526184Y-124879000D01*
X54693816Y-124879000D01*
X54858228Y-124911703D01*
G37*
G36*
X78977142Y-124948242D02*
G01*
X79125101Y-125009529D01*
X79258255Y-125098499D01*
X79371501Y-125211745D01*
X79460471Y-125344899D01*
X79521758Y-125492858D01*
X79553000Y-125649925D01*
X79553000Y-125810075D01*
X79521758Y-125967142D01*
X79460471Y-126115101D01*
X79371501Y-126248255D01*
X79258255Y-126361501D01*
X79125101Y-126450471D01*
X78977142Y-126511758D01*
X78820075Y-126543000D01*
X78659925Y-126543000D01*
X78502858Y-126511758D01*
X78354899Y-126450471D01*
X78221745Y-126361501D01*
X78108499Y-126248255D01*
X78019529Y-126115101D01*
X77958242Y-125967142D01*
X77927000Y-125810075D01*
X77927000Y-125649925D01*
X77958242Y-125492858D01*
X78019529Y-125344899D01*
X78108499Y-125211745D01*
X78221745Y-125098499D01*
X78354899Y-125009529D01*
X78502858Y-124948242D01*
X78659925Y-124917000D01*
X78820075Y-124917000D01*
X78977142Y-124948242D01*
G37*
G36*
X70098228Y-122371703D02*
G01*
X70253100Y-122435853D01*
X70392481Y-122528985D01*
X70511015Y-122647519D01*
X70604147Y-122786900D01*
X70668297Y-122941772D01*
X70701000Y-123106184D01*
X70701000Y-123273816D01*
X70668297Y-123438228D01*
X70604147Y-123593100D01*
X70511015Y-123732481D01*
X70392481Y-123851015D01*
X70253100Y-123944147D01*
X70098228Y-124008297D01*
X69933816Y-124041000D01*
X69766184Y-124041000D01*
X69601772Y-124008297D01*
X69446900Y-123944147D01*
X69307519Y-123851015D01*
X69188985Y-123732481D01*
X69095853Y-123593100D01*
X69031703Y-123438228D01*
X68999000Y-123273816D01*
X68999000Y-123106184D01*
X69031703Y-122941772D01*
X69095853Y-122786900D01*
X69188985Y-122647519D01*
X69307519Y-122528985D01*
X69446900Y-122435853D01*
X69601772Y-122371703D01*
X69766184Y-122339000D01*
X69933816Y-122339000D01*
X70098228Y-122371703D01*
G37*
G36*
X55461000Y-124041000D02*
G01*
X53759000Y-124041000D01*
X53759000Y-122339000D01*
X55461000Y-122339000D01*
X55461000Y-124041000D01*
G37*
G36*
X78977142Y-122408242D02*
G01*
X79125101Y-122469529D01*
X79258255Y-122558499D01*
X79371501Y-122671745D01*
X79460471Y-122804899D01*
X79521758Y-122952858D01*
X79553000Y-123109925D01*
X79553000Y-123270075D01*
X79521758Y-123427142D01*
X79460471Y-123575101D01*
X79371501Y-123708255D01*
X79258255Y-123821501D01*
X79125101Y-123910471D01*
X78977142Y-123971758D01*
X78820075Y-124003000D01*
X78659925Y-124003000D01*
X78502858Y-123971758D01*
X78354899Y-123910471D01*
X78221745Y-123821501D01*
X78108499Y-123708255D01*
X78019529Y-123575101D01*
X77958242Y-123427142D01*
X77927000Y-123270075D01*
X77927000Y-123109925D01*
X77958242Y-122952858D01*
X78019529Y-122804899D01*
X78108499Y-122671745D01*
X78221745Y-122558499D01*
X78354899Y-122469529D01*
X78502858Y-122408242D01*
X78659925Y-122377000D01*
X78820075Y-122377000D01*
X78977142Y-122408242D01*
G37*
G36*
X123725993Y-118574203D02*
G01*
X123790411Y-118593744D01*
X123849781Y-118625478D01*
X123901817Y-118668183D01*
X123944522Y-118720219D01*
X123976256Y-118779589D01*
X123995797Y-118844007D01*
X124003000Y-118917140D01*
X124003000Y-119842860D01*
X123995797Y-119915993D01*
X123976256Y-119980411D01*
X123944522Y-120039781D01*
X123901817Y-120091817D01*
X123849781Y-120134522D01*
X123790411Y-120166256D01*
X123725993Y-120185797D01*
X123652860Y-120193000D01*
X122727140Y-120193000D01*
X122654007Y-120185797D01*
X122589589Y-120166256D01*
X122530219Y-120134522D01*
X122478183Y-120091817D01*
X122435478Y-120039781D01*
X122403744Y-119980411D01*
X122384203Y-119915993D01*
X122377000Y-119842860D01*
X122377000Y-118917140D01*
X122384203Y-118844007D01*
X122403744Y-118779589D01*
X122435478Y-118720219D01*
X122478183Y-118668183D01*
X122530219Y-118625478D01*
X122589589Y-118593744D01*
X122654007Y-118574203D01*
X122727140Y-118567000D01*
X123652860Y-118567000D01*
X123725993Y-118574203D01*
G37*
G36*
X75167142Y-118598242D02*
G01*
X75315101Y-118659529D01*
X75448255Y-118748499D01*
X75561501Y-118861745D01*
X75650471Y-118994899D01*
X75711758Y-119142858D01*
X75743000Y-119299925D01*
X75743000Y-119460075D01*
X75711758Y-119617142D01*
X75650471Y-119765101D01*
X75561501Y-119898255D01*
X75448255Y-120011501D01*
X75315101Y-120100471D01*
X75167142Y-120161758D01*
X75010075Y-120193000D01*
X74849925Y-120193000D01*
X74692858Y-120161758D01*
X74544899Y-120100471D01*
X74411745Y-120011501D01*
X74298499Y-119898255D01*
X74209529Y-119765101D01*
X74148242Y-119617142D01*
X74117000Y-119460075D01*
X74117000Y-119299925D01*
X74148242Y-119142858D01*
X74209529Y-118994899D01*
X74298499Y-118861745D01*
X74411745Y-118748499D01*
X74544899Y-118659529D01*
X74692858Y-118598242D01*
X74849925Y-118567000D01*
X75010075Y-118567000D01*
X75167142Y-118598242D01*
G37*
G36*
X77707142Y-118598242D02*
G01*
X77855101Y-118659529D01*
X77988255Y-118748499D01*
X78101501Y-118861745D01*
X78190471Y-118994899D01*
X78251758Y-119142858D01*
X78283000Y-119299925D01*
X78283000Y-119460075D01*
X78251758Y-119617142D01*
X78190471Y-119765101D01*
X78101501Y-119898255D01*
X77988255Y-120011501D01*
X77855101Y-120100471D01*
X77707142Y-120161758D01*
X77550075Y-120193000D01*
X77389925Y-120193000D01*
X77232858Y-120161758D01*
X77084899Y-120100471D01*
X76951745Y-120011501D01*
X76838499Y-119898255D01*
X76749529Y-119765101D01*
X76688242Y-119617142D01*
X76657000Y-119460075D01*
X76657000Y-119299925D01*
X76688242Y-119142858D01*
X76749529Y-118994899D01*
X76838499Y-118861745D01*
X76951745Y-118748499D01*
X77084899Y-118659529D01*
X77232858Y-118598242D01*
X77389925Y-118567000D01*
X77550075Y-118567000D01*
X77707142Y-118598242D01*
G37*
G36*
X82787142Y-118598242D02*
G01*
X82935101Y-118659529D01*
X83068255Y-118748499D01*
X83181501Y-118861745D01*
X83270471Y-118994899D01*
X83331758Y-119142858D01*
X83363000Y-119299925D01*
X83363000Y-119460075D01*
X83331758Y-119617142D01*
X83270471Y-119765101D01*
X83181501Y-119898255D01*
X83068255Y-120011501D01*
X82935101Y-120100471D01*
X82787142Y-120161758D01*
X82630075Y-120193000D01*
X82469925Y-120193000D01*
X82312858Y-120161758D01*
X82164899Y-120100471D01*
X82031745Y-120011501D01*
X81918499Y-119898255D01*
X81829529Y-119765101D01*
X81768242Y-119617142D01*
X81737000Y-119460075D01*
X81737000Y-119299925D01*
X81768242Y-119142858D01*
X81829529Y-118994899D01*
X81918499Y-118861745D01*
X82031745Y-118748499D01*
X82164899Y-118659529D01*
X82312858Y-118598242D01*
X82469925Y-118567000D01*
X82630075Y-118567000D01*
X82787142Y-118598242D01*
G37*
G36*
X85327142Y-118598242D02*
G01*
X85475101Y-118659529D01*
X85608255Y-118748499D01*
X85721501Y-118861745D01*
X85810471Y-118994899D01*
X85871758Y-119142858D01*
X85903000Y-119299925D01*
X85903000Y-119460075D01*
X85871758Y-119617142D01*
X85810471Y-119765101D01*
X85721501Y-119898255D01*
X85608255Y-120011501D01*
X85475101Y-120100471D01*
X85327142Y-120161758D01*
X85170075Y-120193000D01*
X85009925Y-120193000D01*
X84852858Y-120161758D01*
X84704899Y-120100471D01*
X84571745Y-120011501D01*
X84458499Y-119898255D01*
X84369529Y-119765101D01*
X84308242Y-119617142D01*
X84277000Y-119460075D01*
X84277000Y-119299925D01*
X84308242Y-119142858D01*
X84369529Y-118994899D01*
X84458499Y-118861745D01*
X84571745Y-118748499D01*
X84704899Y-118659529D01*
X84852858Y-118598242D01*
X85009925Y-118567000D01*
X85170075Y-118567000D01*
X85327142Y-118598242D01*
G37*
G36*
X87867142Y-118598242D02*
G01*
X88015101Y-118659529D01*
X88148255Y-118748499D01*
X88261501Y-118861745D01*
X88350471Y-118994899D01*
X88411758Y-119142858D01*
X88443000Y-119299925D01*
X88443000Y-119460075D01*
X88411758Y-119617142D01*
X88350471Y-119765101D01*
X88261501Y-119898255D01*
X88148255Y-120011501D01*
X88015101Y-120100471D01*
X87867142Y-120161758D01*
X87710075Y-120193000D01*
X87549925Y-120193000D01*
X87392858Y-120161758D01*
X87244899Y-120100471D01*
X87111745Y-120011501D01*
X86998499Y-119898255D01*
X86909529Y-119765101D01*
X86848242Y-119617142D01*
X86817000Y-119460075D01*
X86817000Y-119299925D01*
X86848242Y-119142858D01*
X86909529Y-118994899D01*
X86998499Y-118861745D01*
X87111745Y-118748499D01*
X87244899Y-118659529D01*
X87392858Y-118598242D01*
X87549925Y-118567000D01*
X87710075Y-118567000D01*
X87867142Y-118598242D01*
G37*
G36*
X90407142Y-118598242D02*
G01*
X90555101Y-118659529D01*
X90688255Y-118748499D01*
X90801501Y-118861745D01*
X90890471Y-118994899D01*
X90951758Y-119142858D01*
X90983000Y-119299925D01*
X90983000Y-119460075D01*
X90951758Y-119617142D01*
X90890471Y-119765101D01*
X90801501Y-119898255D01*
X90688255Y-120011501D01*
X90555101Y-120100471D01*
X90407142Y-120161758D01*
X90250075Y-120193000D01*
X90089925Y-120193000D01*
X89932858Y-120161758D01*
X89784899Y-120100471D01*
X89651745Y-120011501D01*
X89538499Y-119898255D01*
X89449529Y-119765101D01*
X89388242Y-119617142D01*
X89357000Y-119460075D01*
X89357000Y-119299925D01*
X89388242Y-119142858D01*
X89449529Y-118994899D01*
X89538499Y-118861745D01*
X89651745Y-118748499D01*
X89784899Y-118659529D01*
X89932858Y-118598242D01*
X90089925Y-118567000D01*
X90250075Y-118567000D01*
X90407142Y-118598242D01*
G37*
G36*
X92947142Y-118598242D02*
G01*
X93095101Y-118659529D01*
X93228255Y-118748499D01*
X93341501Y-118861745D01*
X93430471Y-118994899D01*
X93491758Y-119142858D01*
X93523000Y-119299925D01*
X93523000Y-119460075D01*
X93491758Y-119617142D01*
X93430471Y-119765101D01*
X93341501Y-119898255D01*
X93228255Y-120011501D01*
X93095101Y-120100471D01*
X92947142Y-120161758D01*
X92790075Y-120193000D01*
X92629925Y-120193000D01*
X92472858Y-120161758D01*
X92324899Y-120100471D01*
X92191745Y-120011501D01*
X92078499Y-119898255D01*
X91989529Y-119765101D01*
X91928242Y-119617142D01*
X91897000Y-119460075D01*
X91897000Y-119299925D01*
X91928242Y-119142858D01*
X91989529Y-118994899D01*
X92078499Y-118861745D01*
X92191745Y-118748499D01*
X92324899Y-118659529D01*
X92472858Y-118598242D01*
X92629925Y-118567000D01*
X92790075Y-118567000D01*
X92947142Y-118598242D01*
G37*
G36*
X80247142Y-118598242D02*
G01*
X80395101Y-118659529D01*
X80528255Y-118748499D01*
X80641501Y-118861745D01*
X80730471Y-118994899D01*
X80791758Y-119142858D01*
X80823000Y-119299925D01*
X80823000Y-119460075D01*
X80791758Y-119617142D01*
X80730471Y-119765101D01*
X80641501Y-119898255D01*
X80528255Y-120011501D01*
X80395101Y-120100471D01*
X80247142Y-120161758D01*
X80090075Y-120193000D01*
X79929925Y-120193000D01*
X79772858Y-120161758D01*
X79624899Y-120100471D01*
X79491745Y-120011501D01*
X79378499Y-119898255D01*
X79289529Y-119765101D01*
X79228242Y-119617142D01*
X79197000Y-119460075D01*
X79197000Y-119299925D01*
X79228242Y-119142858D01*
X79289529Y-118994899D01*
X79378499Y-118861745D01*
X79491745Y-118748499D01*
X79624899Y-118659529D01*
X79772858Y-118598242D01*
X79929925Y-118567000D01*
X80090075Y-118567000D01*
X80247142Y-118598242D01*
G37*
G36*
X98027142Y-118598242D02*
G01*
X98175101Y-118659529D01*
X98308255Y-118748499D01*
X98421501Y-118861745D01*
X98510471Y-118994899D01*
X98571758Y-119142858D01*
X98603000Y-119299925D01*
X98603000Y-119460075D01*
X98571758Y-119617142D01*
X98510471Y-119765101D01*
X98421501Y-119898255D01*
X98308255Y-120011501D01*
X98175101Y-120100471D01*
X98027142Y-120161758D01*
X97870075Y-120193000D01*
X97709925Y-120193000D01*
X97552858Y-120161758D01*
X97404899Y-120100471D01*
X97271745Y-120011501D01*
X97158499Y-119898255D01*
X97069529Y-119765101D01*
X97008242Y-119617142D01*
X96977000Y-119460075D01*
X96977000Y-119299925D01*
X97008242Y-119142858D01*
X97069529Y-118994899D01*
X97158499Y-118861745D01*
X97271745Y-118748499D01*
X97404899Y-118659529D01*
X97552858Y-118598242D01*
X97709925Y-118567000D01*
X97870075Y-118567000D01*
X98027142Y-118598242D01*
G37*
G36*
X103107142Y-118598242D02*
G01*
X103255101Y-118659529D01*
X103388255Y-118748499D01*
X103501501Y-118861745D01*
X103590471Y-118994899D01*
X103651758Y-119142858D01*
X103683000Y-119299925D01*
X103683000Y-119460075D01*
X103651758Y-119617142D01*
X103590471Y-119765101D01*
X103501501Y-119898255D01*
X103388255Y-120011501D01*
X103255101Y-120100471D01*
X103107142Y-120161758D01*
X102950075Y-120193000D01*
X102789925Y-120193000D01*
X102632858Y-120161758D01*
X102484899Y-120100471D01*
X102351745Y-120011501D01*
X102238499Y-119898255D01*
X102149529Y-119765101D01*
X102088242Y-119617142D01*
X102057000Y-119460075D01*
X102057000Y-119299925D01*
X102088242Y-119142858D01*
X102149529Y-118994899D01*
X102238499Y-118861745D01*
X102351745Y-118748499D01*
X102484899Y-118659529D01*
X102632858Y-118598242D01*
X102789925Y-118567000D01*
X102950075Y-118567000D01*
X103107142Y-118598242D01*
G37*
G36*
X100567142Y-118598242D02*
G01*
X100715101Y-118659529D01*
X100848255Y-118748499D01*
X100961501Y-118861745D01*
X101050471Y-118994899D01*
X101111758Y-119142858D01*
X101143000Y-119299925D01*
X101143000Y-119460075D01*
X101111758Y-119617142D01*
X101050471Y-119765101D01*
X100961501Y-119898255D01*
X100848255Y-120011501D01*
X100715101Y-120100471D01*
X100567142Y-120161758D01*
X100410075Y-120193000D01*
X100249925Y-120193000D01*
X100092858Y-120161758D01*
X99944899Y-120100471D01*
X99811745Y-120011501D01*
X99698499Y-119898255D01*
X99609529Y-119765101D01*
X99548242Y-119617142D01*
X99517000Y-119460075D01*
X99517000Y-119299925D01*
X99548242Y-119142858D01*
X99609529Y-118994899D01*
X99698499Y-118861745D01*
X99811745Y-118748499D01*
X99944899Y-118659529D01*
X100092858Y-118598242D01*
X100249925Y-118567000D01*
X100410075Y-118567000D01*
X100567142Y-118598242D01*
G37*
G36*
X95487142Y-118598242D02*
G01*
X95635101Y-118659529D01*
X95768255Y-118748499D01*
X95881501Y-118861745D01*
X95970471Y-118994899D01*
X96031758Y-119142858D01*
X96063000Y-119299925D01*
X96063000Y-119460075D01*
X96031758Y-119617142D01*
X95970471Y-119765101D01*
X95881501Y-119898255D01*
X95768255Y-120011501D01*
X95635101Y-120100471D01*
X95487142Y-120161758D01*
X95330075Y-120193000D01*
X95169925Y-120193000D01*
X95012858Y-120161758D01*
X94864899Y-120100471D01*
X94731745Y-120011501D01*
X94618499Y-119898255D01*
X94529529Y-119765101D01*
X94468242Y-119617142D01*
X94437000Y-119460075D01*
X94437000Y-119299925D01*
X94468242Y-119142858D01*
X94529529Y-118994899D01*
X94618499Y-118861745D01*
X94731745Y-118748499D01*
X94864899Y-118659529D01*
X95012858Y-118598242D01*
X95169925Y-118567000D01*
X95330075Y-118567000D01*
X95487142Y-118598242D01*
G37*
G36*
X120887142Y-118598242D02*
G01*
X121035101Y-118659529D01*
X121168255Y-118748499D01*
X121281501Y-118861745D01*
X121370471Y-118994899D01*
X121431758Y-119142858D01*
X121463000Y-119299925D01*
X121463000Y-119460075D01*
X121431758Y-119617142D01*
X121370471Y-119765101D01*
X121281501Y-119898255D01*
X121168255Y-120011501D01*
X121035101Y-120100471D01*
X120887142Y-120161758D01*
X120730075Y-120193000D01*
X120569925Y-120193000D01*
X120412858Y-120161758D01*
X120264899Y-120100471D01*
X120131745Y-120011501D01*
X120018499Y-119898255D01*
X119929529Y-119765101D01*
X119868242Y-119617142D01*
X119837000Y-119460075D01*
X119837000Y-119299925D01*
X119868242Y-119142858D01*
X119929529Y-118994899D01*
X120018499Y-118861745D01*
X120131745Y-118748499D01*
X120264899Y-118659529D01*
X120412858Y-118598242D01*
X120569925Y-118567000D01*
X120730075Y-118567000D01*
X120887142Y-118598242D01*
G37*
G36*
X118347142Y-118598242D02*
G01*
X118495101Y-118659529D01*
X118628255Y-118748499D01*
X118741501Y-118861745D01*
X118830471Y-118994899D01*
X118891758Y-119142858D01*
X118923000Y-119299925D01*
X118923000Y-119460075D01*
X118891758Y-119617142D01*
X118830471Y-119765101D01*
X118741501Y-119898255D01*
X118628255Y-120011501D01*
X118495101Y-120100471D01*
X118347142Y-120161758D01*
X118190075Y-120193000D01*
X118029925Y-120193000D01*
X117872858Y-120161758D01*
X117724899Y-120100471D01*
X117591745Y-120011501D01*
X117478499Y-119898255D01*
X117389529Y-119765101D01*
X117328242Y-119617142D01*
X117297000Y-119460075D01*
X117297000Y-119299925D01*
X117328242Y-119142858D01*
X117389529Y-118994899D01*
X117478499Y-118861745D01*
X117591745Y-118748499D01*
X117724899Y-118659529D01*
X117872858Y-118598242D01*
X118029925Y-118567000D01*
X118190075Y-118567000D01*
X118347142Y-118598242D01*
G37*
G36*
X115807142Y-118598242D02*
G01*
X115955101Y-118659529D01*
X116088255Y-118748499D01*
X116201501Y-118861745D01*
X116290471Y-118994899D01*
X116351758Y-119142858D01*
X116383000Y-119299925D01*
X116383000Y-119460075D01*
X116351758Y-119617142D01*
X116290471Y-119765101D01*
X116201501Y-119898255D01*
X116088255Y-120011501D01*
X115955101Y-120100471D01*
X115807142Y-120161758D01*
X115650075Y-120193000D01*
X115489925Y-120193000D01*
X115332858Y-120161758D01*
X115184899Y-120100471D01*
X115051745Y-120011501D01*
X114938499Y-119898255D01*
X114849529Y-119765101D01*
X114788242Y-119617142D01*
X114757000Y-119460075D01*
X114757000Y-119299925D01*
X114788242Y-119142858D01*
X114849529Y-118994899D01*
X114938499Y-118861745D01*
X115051745Y-118748499D01*
X115184899Y-118659529D01*
X115332858Y-118598242D01*
X115489925Y-118567000D01*
X115650075Y-118567000D01*
X115807142Y-118598242D01*
G37*
G36*
X110727142Y-118598242D02*
G01*
X110875101Y-118659529D01*
X111008255Y-118748499D01*
X111121501Y-118861745D01*
X111210471Y-118994899D01*
X111271758Y-119142858D01*
X111303000Y-119299925D01*
X111303000Y-119460075D01*
X111271758Y-119617142D01*
X111210471Y-119765101D01*
X111121501Y-119898255D01*
X111008255Y-120011501D01*
X110875101Y-120100471D01*
X110727142Y-120161758D01*
X110570075Y-120193000D01*
X110409925Y-120193000D01*
X110252858Y-120161758D01*
X110104899Y-120100471D01*
X109971745Y-120011501D01*
X109858499Y-119898255D01*
X109769529Y-119765101D01*
X109708242Y-119617142D01*
X109677000Y-119460075D01*
X109677000Y-119299925D01*
X109708242Y-119142858D01*
X109769529Y-118994899D01*
X109858499Y-118861745D01*
X109971745Y-118748499D01*
X110104899Y-118659529D01*
X110252858Y-118598242D01*
X110409925Y-118567000D01*
X110570075Y-118567000D01*
X110727142Y-118598242D01*
G37*
G36*
X108187142Y-118598242D02*
G01*
X108335101Y-118659529D01*
X108468255Y-118748499D01*
X108581501Y-118861745D01*
X108670471Y-118994899D01*
X108731758Y-119142858D01*
X108763000Y-119299925D01*
X108763000Y-119460075D01*
X108731758Y-119617142D01*
X108670471Y-119765101D01*
X108581501Y-119898255D01*
X108468255Y-120011501D01*
X108335101Y-120100471D01*
X108187142Y-120161758D01*
X108030075Y-120193000D01*
X107869925Y-120193000D01*
X107712858Y-120161758D01*
X107564899Y-120100471D01*
X107431745Y-120011501D01*
X107318499Y-119898255D01*
X107229529Y-119765101D01*
X107168242Y-119617142D01*
X107137000Y-119460075D01*
X107137000Y-119299925D01*
X107168242Y-119142858D01*
X107229529Y-118994899D01*
X107318499Y-118861745D01*
X107431745Y-118748499D01*
X107564899Y-118659529D01*
X107712858Y-118598242D01*
X107869925Y-118567000D01*
X108030075Y-118567000D01*
X108187142Y-118598242D01*
G37*
G36*
X105647142Y-118598242D02*
G01*
X105795101Y-118659529D01*
X105928255Y-118748499D01*
X106041501Y-118861745D01*
X106130471Y-118994899D01*
X106191758Y-119142858D01*
X106223000Y-119299925D01*
X106223000Y-119460075D01*
X106191758Y-119617142D01*
X106130471Y-119765101D01*
X106041501Y-119898255D01*
X105928255Y-120011501D01*
X105795101Y-120100471D01*
X105647142Y-120161758D01*
X105490075Y-120193000D01*
X105329925Y-120193000D01*
X105172858Y-120161758D01*
X105024899Y-120100471D01*
X104891745Y-120011501D01*
X104778499Y-119898255D01*
X104689529Y-119765101D01*
X104628242Y-119617142D01*
X104597000Y-119460075D01*
X104597000Y-119299925D01*
X104628242Y-119142858D01*
X104689529Y-118994899D01*
X104778499Y-118861745D01*
X104891745Y-118748499D01*
X105024899Y-118659529D01*
X105172858Y-118598242D01*
X105329925Y-118567000D01*
X105490075Y-118567000D01*
X105647142Y-118598242D01*
G37*
G36*
X113267142Y-118598242D02*
G01*
X113415101Y-118659529D01*
X113548255Y-118748499D01*
X113661501Y-118861745D01*
X113750471Y-118994899D01*
X113811758Y-119142858D01*
X113843000Y-119299925D01*
X113843000Y-119460075D01*
X113811758Y-119617142D01*
X113750471Y-119765101D01*
X113661501Y-119898255D01*
X113548255Y-120011501D01*
X113415101Y-120100471D01*
X113267142Y-120161758D01*
X113110075Y-120193000D01*
X112949925Y-120193000D01*
X112792858Y-120161758D01*
X112644899Y-120100471D01*
X112511745Y-120011501D01*
X112398499Y-119898255D01*
X112309529Y-119765101D01*
X112248242Y-119617142D01*
X112217000Y-119460075D01*
X112217000Y-119299925D01*
X112248242Y-119142858D01*
X112309529Y-118994899D01*
X112398499Y-118861745D01*
X112511745Y-118748499D01*
X112644899Y-118659529D01*
X112792858Y-118598242D01*
X112949925Y-118567000D01*
X113110075Y-118567000D01*
X113267142Y-118598242D01*
G37*
G36*
X129679000Y-115455000D02*
G01*
X127877000Y-115455000D01*
X127877000Y-113653000D01*
X129679000Y-113653000D01*
X129679000Y-115455000D01*
G37*
G36*
X95834468Y-113433565D02*
G01*
X95873138Y-113445296D01*
X95908777Y-113464346D01*
X95940017Y-113489983D01*
X95965654Y-113521223D01*
X95984704Y-113556862D01*
X95996435Y-113595532D01*
X96001000Y-113641888D01*
X96001000Y-114293112D01*
X95996435Y-114339468D01*
X95984704Y-114378138D01*
X95965654Y-114413777D01*
X95940017Y-114445017D01*
X95908777Y-114470654D01*
X95873138Y-114489704D01*
X95834468Y-114501435D01*
X95788112Y-114506000D01*
X94711888Y-114506000D01*
X94665532Y-114501435D01*
X94626862Y-114489704D01*
X94591223Y-114470654D01*
X94559983Y-114445017D01*
X94534346Y-114413777D01*
X94515296Y-114378138D01*
X94503565Y-114339468D01*
X94499000Y-114293112D01*
X94499000Y-113641888D01*
X94503565Y-113595532D01*
X94515296Y-113556862D01*
X94534346Y-113521223D01*
X94559983Y-113489983D01*
X94591223Y-113464346D01*
X94626862Y-113445296D01*
X94665532Y-113433565D01*
X94711888Y-113429000D01*
X95788112Y-113429000D01*
X95834468Y-113433565D01*
G37*
G36*
X93294468Y-113433565D02*
G01*
X93333138Y-113445296D01*
X93368777Y-113464346D01*
X93400017Y-113489983D01*
X93425654Y-113521223D01*
X93444704Y-113556862D01*
X93456435Y-113595532D01*
X93461000Y-113641888D01*
X93461000Y-114293112D01*
X93456435Y-114339468D01*
X93444704Y-114378138D01*
X93425654Y-114413777D01*
X93400017Y-114445017D01*
X93368777Y-114470654D01*
X93333138Y-114489704D01*
X93294468Y-114501435D01*
X93248112Y-114506000D01*
X92171888Y-114506000D01*
X92125532Y-114501435D01*
X92086862Y-114489704D01*
X92051223Y-114470654D01*
X92019983Y-114445017D01*
X91994346Y-114413777D01*
X91975296Y-114378138D01*
X91963565Y-114339468D01*
X91959000Y-114293112D01*
X91959000Y-113641888D01*
X91963565Y-113595532D01*
X91975296Y-113556862D01*
X91994346Y-113521223D01*
X92019983Y-113489983D01*
X92051223Y-113464346D01*
X92086862Y-113445296D01*
X92125532Y-113433565D01*
X92171888Y-113429000D01*
X93248112Y-113429000D01*
X93294468Y-113433565D01*
G37*
G36*
X78766000Y-114376000D02*
G01*
X77964000Y-114376000D01*
X77964000Y-112774000D01*
X78766000Y-112774000D01*
X78766000Y-114376000D01*
G37*
G36*
X81761000Y-113226000D02*
G01*
X80090999Y-113226000D01*
X80066613Y-113228402D01*
X80043164Y-113235515D01*
X80021553Y-113247066D01*
X80002611Y-113262611D01*
X79987066Y-113281553D01*
X79975515Y-113303164D01*
X79968402Y-113326613D01*
X79966000Y-113350999D01*
X79966000Y-114376000D01*
X79164000Y-114376000D01*
X79164000Y-112774000D01*
X80034001Y-112774000D01*
X80058387Y-112771598D01*
X80081836Y-112764485D01*
X80103447Y-112752934D01*
X80122389Y-112737389D01*
X80137934Y-112718447D01*
X80149485Y-112696836D01*
X80156598Y-112673387D01*
X80159000Y-112649001D01*
X80159000Y-110324000D01*
X81761000Y-110324000D01*
X81761000Y-113226000D01*
G37*
G36*
X70986000Y-114376000D02*
G01*
X69884000Y-114376000D01*
X69884000Y-112774000D01*
X70986000Y-112774000D01*
X70986000Y-114376000D01*
G37*
G36*
X73486000Y-114376000D02*
G01*
X72384000Y-114376000D01*
X72384000Y-112774000D01*
X73486000Y-112774000D01*
X73486000Y-114376000D01*
G37*
G36*
X75916000Y-114376000D02*
G01*
X74814000Y-114376000D01*
X74814000Y-112774000D01*
X75916000Y-112774000D01*
X75916000Y-114376000D01*
G37*
G36*
X77616000Y-114376000D02*
G01*
X76514000Y-114376000D01*
X76514000Y-112774000D01*
X77616000Y-112774000D01*
X77616000Y-114376000D01*
G37*
G36*
X68486000Y-114376000D02*
G01*
X67384000Y-114376000D01*
X67384000Y-112774000D01*
X68486000Y-112774000D01*
X68486000Y-114376000D01*
G37*
G36*
X65986000Y-114376000D02*
G01*
X64884000Y-114376000D01*
X64884000Y-112774000D01*
X65986000Y-112774000D01*
X65986000Y-114376000D01*
G37*
G36*
X63486000Y-114376000D02*
G01*
X62384000Y-114376000D01*
X62384000Y-112774000D01*
X63486000Y-112774000D01*
X63486000Y-114376000D01*
G37*
G36*
X60986000Y-114376000D02*
G01*
X59884000Y-114376000D01*
X59884000Y-112774000D01*
X60986000Y-112774000D01*
X60986000Y-114376000D01*
G37*
G36*
X58486000Y-114376000D02*
G01*
X57384000Y-114376000D01*
X57384000Y-112774000D01*
X58486000Y-112774000D01*
X58486000Y-114376000D01*
G37*
G36*
X56661000Y-113226000D02*
G01*
X55059000Y-113226000D01*
X55059000Y-110324000D01*
X56661000Y-110324000D01*
X56661000Y-113226000D01*
G37*
G36*
X128891512Y-111117927D02*
G01*
X129040812Y-111147624D01*
X129204784Y-111215544D01*
X129352354Y-111314147D01*
X129477853Y-111439646D01*
X129576456Y-111587216D01*
X129644376Y-111751188D01*
X129679000Y-111925259D01*
X129679000Y-112102741D01*
X129644376Y-112276812D01*
X129576456Y-112440784D01*
X129477853Y-112588354D01*
X129352354Y-112713853D01*
X129204784Y-112812456D01*
X129040812Y-112880376D01*
X128891512Y-112910073D01*
X128866742Y-112915000D01*
X128689258Y-112915000D01*
X128664488Y-112910073D01*
X128515188Y-112880376D01*
X128351216Y-112812456D01*
X128203646Y-112713853D01*
X128078147Y-112588354D01*
X127979544Y-112440784D01*
X127911624Y-112276812D01*
X127877000Y-112102741D01*
X127877000Y-111925259D01*
X127911624Y-111751188D01*
X127979544Y-111587216D01*
X128078147Y-111439646D01*
X128203646Y-111314147D01*
X128351216Y-111215544D01*
X128515188Y-111147624D01*
X128664488Y-111117927D01*
X128689258Y-111113000D01*
X128866742Y-111113000D01*
X128891512Y-111117927D01*
G37*
G36*
X95834468Y-111558565D02*
G01*
X95873138Y-111570296D01*
X95908777Y-111589346D01*
X95940017Y-111614983D01*
X95965654Y-111646223D01*
X95984704Y-111681862D01*
X95996435Y-111720532D01*
X96001000Y-111766888D01*
X96001000Y-112418112D01*
X95996435Y-112464468D01*
X95984704Y-112503138D01*
X95965654Y-112538777D01*
X95940017Y-112570017D01*
X95908777Y-112595654D01*
X95873138Y-112614704D01*
X95834468Y-112626435D01*
X95788112Y-112631000D01*
X94711888Y-112631000D01*
X94665532Y-112626435D01*
X94626862Y-112614704D01*
X94591223Y-112595654D01*
X94559983Y-112570017D01*
X94534346Y-112538777D01*
X94515296Y-112503138D01*
X94503565Y-112464468D01*
X94499000Y-112418112D01*
X94499000Y-111766888D01*
X94503565Y-111720532D01*
X94515296Y-111681862D01*
X94534346Y-111646223D01*
X94559983Y-111614983D01*
X94591223Y-111589346D01*
X94626862Y-111570296D01*
X94665532Y-111558565D01*
X94711888Y-111554000D01*
X95788112Y-111554000D01*
X95834468Y-111558565D01*
G37*
G36*
X93294468Y-111558565D02*
G01*
X93333138Y-111570296D01*
X93368777Y-111589346D01*
X93400017Y-111614983D01*
X93425654Y-111646223D01*
X93444704Y-111681862D01*
X93456435Y-111720532D01*
X93461000Y-111766888D01*
X93461000Y-112418112D01*
X93456435Y-112464468D01*
X93444704Y-112503138D01*
X93425654Y-112538777D01*
X93400017Y-112570017D01*
X93368777Y-112595654D01*
X93333138Y-112614704D01*
X93294468Y-112626435D01*
X93248112Y-112631000D01*
X92171888Y-112631000D01*
X92125532Y-112626435D01*
X92086862Y-112614704D01*
X92051223Y-112595654D01*
X92019983Y-112570017D01*
X91994346Y-112538777D01*
X91975296Y-112503138D01*
X91963565Y-112464468D01*
X91959000Y-112418112D01*
X91959000Y-111766888D01*
X91963565Y-111720532D01*
X91975296Y-111681862D01*
X91994346Y-111646223D01*
X92019983Y-111614983D01*
X92051223Y-111589346D01*
X92086862Y-111570296D01*
X92125532Y-111558565D01*
X92171888Y-111554000D01*
X93248112Y-111554000D01*
X93294468Y-111558565D01*
G37*
G36*
X58058228Y-109956703D02*
G01*
X58213100Y-110020853D01*
X58352481Y-110113985D01*
X58471015Y-110232519D01*
X58564147Y-110371900D01*
X58628297Y-110526772D01*
X58661000Y-110691184D01*
X58661000Y-110858816D01*
X58628297Y-111023228D01*
X58564147Y-111178100D01*
X58471015Y-111317481D01*
X58352481Y-111436015D01*
X58213100Y-111529147D01*
X58058228Y-111593297D01*
X57893816Y-111626000D01*
X57726184Y-111626000D01*
X57561772Y-111593297D01*
X57406900Y-111529147D01*
X57267519Y-111436015D01*
X57148985Y-111317481D01*
X57055853Y-111178100D01*
X56991703Y-111023228D01*
X56959000Y-110858816D01*
X56959000Y-110691184D01*
X56991703Y-110526772D01*
X57055853Y-110371900D01*
X57148985Y-110232519D01*
X57267519Y-110113985D01*
X57406900Y-110020853D01*
X57561772Y-109956703D01*
X57726184Y-109924000D01*
X57893816Y-109924000D01*
X58058228Y-109956703D01*
G37*
G36*
X78946601Y-110189397D02*
G01*
X78985305Y-110197096D01*
X79017340Y-110210365D01*
X79094680Y-110242400D01*
X79193115Y-110308173D01*
X79276827Y-110391885D01*
X79342600Y-110490320D01*
X79387904Y-110599696D01*
X79411000Y-110715805D01*
X79411000Y-110834195D01*
X79387904Y-110950304D01*
X79342600Y-111059680D01*
X79276827Y-111158115D01*
X79193115Y-111241827D01*
X79094680Y-111307600D01*
X79017340Y-111339635D01*
X78985305Y-111352904D01*
X78946601Y-111360603D01*
X78869195Y-111376000D01*
X78750805Y-111376000D01*
X78673399Y-111360603D01*
X78634695Y-111352904D01*
X78602660Y-111339635D01*
X78525320Y-111307600D01*
X78426885Y-111241827D01*
X78343173Y-111158115D01*
X78277400Y-111059680D01*
X78232096Y-110950304D01*
X78209000Y-110834195D01*
X78209000Y-110715805D01*
X78232096Y-110599696D01*
X78277400Y-110490320D01*
X78343173Y-110391885D01*
X78426885Y-110308173D01*
X78525320Y-110242400D01*
X78602660Y-110210365D01*
X78634695Y-110197096D01*
X78673399Y-110189397D01*
X78750805Y-110174000D01*
X78869195Y-110174000D01*
X78946601Y-110189397D01*
G37*
G36*
X128891512Y-108577927D02*
G01*
X129040812Y-108607624D01*
X129204784Y-108675544D01*
X129352354Y-108774147D01*
X129477853Y-108899646D01*
X129576456Y-109047216D01*
X129644376Y-109211188D01*
X129679000Y-109385259D01*
X129679000Y-109562741D01*
X129644376Y-109736812D01*
X129576456Y-109900784D01*
X129477853Y-110048354D01*
X129352354Y-110173853D01*
X129204784Y-110272456D01*
X129040812Y-110340376D01*
X128891512Y-110370073D01*
X128866742Y-110375000D01*
X128689258Y-110375000D01*
X128664488Y-110370073D01*
X128515188Y-110340376D01*
X128351216Y-110272456D01*
X128203646Y-110173853D01*
X128078147Y-110048354D01*
X127979544Y-109900784D01*
X127911624Y-109736812D01*
X127877000Y-109562741D01*
X127877000Y-109385259D01*
X127911624Y-109211188D01*
X127979544Y-109047216D01*
X128078147Y-108899646D01*
X128203646Y-108774147D01*
X128351216Y-108675544D01*
X128515188Y-108607624D01*
X128664488Y-108577927D01*
X128689258Y-108573000D01*
X128866742Y-108573000D01*
X128891512Y-108577927D01*
G37*
G36*
X119419468Y-97043565D02*
G01*
X119458138Y-97055296D01*
X119493777Y-97074346D01*
X119525017Y-97099983D01*
X119550654Y-97131223D01*
X119569704Y-97166862D01*
X119581435Y-97205532D01*
X119586000Y-97251888D01*
X119586000Y-98328112D01*
X119581435Y-98374468D01*
X119569704Y-98413138D01*
X119550654Y-98448777D01*
X119525017Y-98480017D01*
X119493777Y-98505654D01*
X119458138Y-98524704D01*
X119419468Y-98536435D01*
X119373112Y-98541000D01*
X118721888Y-98541000D01*
X118675532Y-98536435D01*
X118636862Y-98524704D01*
X118601223Y-98505654D01*
X118569983Y-98480017D01*
X118544346Y-98448777D01*
X118525296Y-98413138D01*
X118513565Y-98374468D01*
X118509000Y-98328112D01*
X118509000Y-97251888D01*
X118513565Y-97205532D01*
X118525296Y-97166862D01*
X118544346Y-97131223D01*
X118569983Y-97099983D01*
X118601223Y-97074346D01*
X118636862Y-97055296D01*
X118675532Y-97043565D01*
X118721888Y-97039000D01*
X119373112Y-97039000D01*
X119419468Y-97043565D01*
G37*
G36*
X117544468Y-97043565D02*
G01*
X117583138Y-97055296D01*
X117618777Y-97074346D01*
X117650017Y-97099983D01*
X117675654Y-97131223D01*
X117694704Y-97166862D01*
X117706435Y-97205532D01*
X117711000Y-97251888D01*
X117711000Y-98328112D01*
X117706435Y-98374468D01*
X117694704Y-98413138D01*
X117675654Y-98448777D01*
X117650017Y-98480017D01*
X117618777Y-98505654D01*
X117583138Y-98524704D01*
X117544468Y-98536435D01*
X117498112Y-98541000D01*
X116846888Y-98541000D01*
X116800532Y-98536435D01*
X116761862Y-98524704D01*
X116726223Y-98505654D01*
X116694983Y-98480017D01*
X116669346Y-98448777D01*
X116650296Y-98413138D01*
X116638565Y-98374468D01*
X116634000Y-98328112D01*
X116634000Y-97251888D01*
X116638565Y-97205532D01*
X116650296Y-97166862D01*
X116669346Y-97131223D01*
X116694983Y-97099983D01*
X116726223Y-97074346D01*
X116761862Y-97055296D01*
X116800532Y-97043565D01*
X116846888Y-97039000D01*
X117498112Y-97039000D01*
X117544468Y-97043565D01*
G37*
G36*
X127372468Y-97043565D02*
G01*
X127411138Y-97055296D01*
X127446777Y-97074346D01*
X127478017Y-97099983D01*
X127503654Y-97131223D01*
X127522704Y-97166862D01*
X127534435Y-97205532D01*
X127539000Y-97251888D01*
X127539000Y-98328112D01*
X127534435Y-98374468D01*
X127522704Y-98413138D01*
X127503654Y-98448777D01*
X127478017Y-98480017D01*
X127446777Y-98505654D01*
X127411138Y-98524704D01*
X127372468Y-98536435D01*
X127326112Y-98541000D01*
X126674888Y-98541000D01*
X126628532Y-98536435D01*
X126589862Y-98524704D01*
X126554223Y-98505654D01*
X126522983Y-98480017D01*
X126497346Y-98448777D01*
X126478296Y-98413138D01*
X126466565Y-98374468D01*
X126462000Y-98328112D01*
X126462000Y-97251888D01*
X126466565Y-97205532D01*
X126478296Y-97166862D01*
X126497346Y-97131223D01*
X126522983Y-97099983D01*
X126554223Y-97074346D01*
X126589862Y-97055296D01*
X126628532Y-97043565D01*
X126674888Y-97039000D01*
X127326112Y-97039000D01*
X127372468Y-97043565D01*
G37*
G36*
X129247468Y-97043565D02*
G01*
X129286138Y-97055296D01*
X129321777Y-97074346D01*
X129353017Y-97099983D01*
X129378654Y-97131223D01*
X129397704Y-97166862D01*
X129409435Y-97205532D01*
X129414000Y-97251888D01*
X129414000Y-98328112D01*
X129409435Y-98374468D01*
X129397704Y-98413138D01*
X129378654Y-98448777D01*
X129353017Y-98480017D01*
X129321777Y-98505654D01*
X129286138Y-98524704D01*
X129247468Y-98536435D01*
X129201112Y-98541000D01*
X128549888Y-98541000D01*
X128503532Y-98536435D01*
X128464862Y-98524704D01*
X128429223Y-98505654D01*
X128397983Y-98480017D01*
X128372346Y-98448777D01*
X128353296Y-98413138D01*
X128341565Y-98374468D01*
X128337000Y-98328112D01*
X128337000Y-97251888D01*
X128341565Y-97205532D01*
X128353296Y-97166862D01*
X128372346Y-97131223D01*
X128397983Y-97099983D01*
X128429223Y-97074346D01*
X128464862Y-97055296D01*
X128503532Y-97043565D01*
X128549888Y-97039000D01*
X129201112Y-97039000D01*
X129247468Y-97043565D01*
G37*
G36*
X113402468Y-97043565D02*
G01*
X113441138Y-97055296D01*
X113476777Y-97074346D01*
X113508017Y-97099983D01*
X113533654Y-97131223D01*
X113552704Y-97166862D01*
X113564435Y-97205532D01*
X113569000Y-97251888D01*
X113569000Y-98328112D01*
X113564435Y-98374468D01*
X113552704Y-98413138D01*
X113533654Y-98448777D01*
X113508017Y-98480017D01*
X113476777Y-98505654D01*
X113441138Y-98524704D01*
X113402468Y-98536435D01*
X113356112Y-98541000D01*
X112704888Y-98541000D01*
X112658532Y-98536435D01*
X112619862Y-98524704D01*
X112584223Y-98505654D01*
X112552983Y-98480017D01*
X112527346Y-98448777D01*
X112508296Y-98413138D01*
X112496565Y-98374468D01*
X112492000Y-98328112D01*
X112492000Y-97251888D01*
X112496565Y-97205532D01*
X112508296Y-97166862D01*
X112527346Y-97131223D01*
X112552983Y-97099983D01*
X112584223Y-97074346D01*
X112619862Y-97055296D01*
X112658532Y-97043565D01*
X112704888Y-97039000D01*
X113356112Y-97039000D01*
X113402468Y-97043565D01*
G37*
G36*
X105449468Y-97043565D02*
G01*
X105488138Y-97055296D01*
X105523777Y-97074346D01*
X105555017Y-97099983D01*
X105580654Y-97131223D01*
X105599704Y-97166862D01*
X105611435Y-97205532D01*
X105616000Y-97251888D01*
X105616000Y-98328112D01*
X105611435Y-98374468D01*
X105599704Y-98413138D01*
X105580654Y-98448777D01*
X105555017Y-98480017D01*
X105523777Y-98505654D01*
X105488138Y-98524704D01*
X105449468Y-98536435D01*
X105403112Y-98541000D01*
X104751888Y-98541000D01*
X104705532Y-98536435D01*
X104666862Y-98524704D01*
X104631223Y-98505654D01*
X104599983Y-98480017D01*
X104574346Y-98448777D01*
X104555296Y-98413138D01*
X104543565Y-98374468D01*
X104539000Y-98328112D01*
X104539000Y-97251888D01*
X104543565Y-97205532D01*
X104555296Y-97166862D01*
X104574346Y-97131223D01*
X104599983Y-97099983D01*
X104631223Y-97074346D01*
X104666862Y-97055296D01*
X104705532Y-97043565D01*
X104751888Y-97039000D01*
X105403112Y-97039000D01*
X105449468Y-97043565D01*
G37*
G36*
X103574468Y-97043565D02*
G01*
X103613138Y-97055296D01*
X103648777Y-97074346D01*
X103680017Y-97099983D01*
X103705654Y-97131223D01*
X103724704Y-97166862D01*
X103736435Y-97205532D01*
X103741000Y-97251888D01*
X103741000Y-98328112D01*
X103736435Y-98374468D01*
X103724704Y-98413138D01*
X103705654Y-98448777D01*
X103680017Y-98480017D01*
X103648777Y-98505654D01*
X103613138Y-98524704D01*
X103574468Y-98536435D01*
X103528112Y-98541000D01*
X102876888Y-98541000D01*
X102830532Y-98536435D01*
X102791862Y-98524704D01*
X102756223Y-98505654D01*
X102724983Y-98480017D01*
X102699346Y-98448777D01*
X102680296Y-98413138D01*
X102668565Y-98374468D01*
X102664000Y-98328112D01*
X102664000Y-97251888D01*
X102668565Y-97205532D01*
X102680296Y-97166862D01*
X102699346Y-97131223D01*
X102724983Y-97099983D01*
X102756223Y-97074346D01*
X102791862Y-97055296D01*
X102830532Y-97043565D01*
X102876888Y-97039000D01*
X103528112Y-97039000D01*
X103574468Y-97043565D01*
G37*
G36*
X123562468Y-97043565D02*
G01*
X123601138Y-97055296D01*
X123636777Y-97074346D01*
X123668017Y-97099983D01*
X123693654Y-97131223D01*
X123712704Y-97166862D01*
X123724435Y-97205532D01*
X123729000Y-97251888D01*
X123729000Y-98328112D01*
X123724435Y-98374468D01*
X123712704Y-98413138D01*
X123693654Y-98448777D01*
X123668017Y-98480017D01*
X123636777Y-98505654D01*
X123601138Y-98524704D01*
X123562468Y-98536435D01*
X123516112Y-98541000D01*
X122864888Y-98541000D01*
X122818532Y-98536435D01*
X122779862Y-98524704D01*
X122744223Y-98505654D01*
X122712983Y-98480017D01*
X122687346Y-98448777D01*
X122668296Y-98413138D01*
X122656565Y-98374468D01*
X122652000Y-98328112D01*
X122652000Y-97251888D01*
X122656565Y-97205532D01*
X122668296Y-97166862D01*
X122687346Y-97131223D01*
X122712983Y-97099983D01*
X122744223Y-97074346D01*
X122779862Y-97055296D01*
X122818532Y-97043565D01*
X122864888Y-97039000D01*
X123516112Y-97039000D01*
X123562468Y-97043565D01*
G37*
G36*
X125437468Y-97043565D02*
G01*
X125476138Y-97055296D01*
X125511777Y-97074346D01*
X125543017Y-97099983D01*
X125568654Y-97131223D01*
X125587704Y-97166862D01*
X125599435Y-97205532D01*
X125604000Y-97251888D01*
X125604000Y-98328112D01*
X125599435Y-98374468D01*
X125587704Y-98413138D01*
X125568654Y-98448777D01*
X125543017Y-98480017D01*
X125511777Y-98505654D01*
X125476138Y-98524704D01*
X125437468Y-98536435D01*
X125391112Y-98541000D01*
X124739888Y-98541000D01*
X124693532Y-98536435D01*
X124654862Y-98524704D01*
X124619223Y-98505654D01*
X124587983Y-98480017D01*
X124562346Y-98448777D01*
X124543296Y-98413138D01*
X124531565Y-98374468D01*
X124527000Y-98328112D01*
X124527000Y-97251888D01*
X124531565Y-97205532D01*
X124543296Y-97166862D01*
X124562346Y-97131223D01*
X124587983Y-97099983D01*
X124619223Y-97074346D01*
X124654862Y-97055296D01*
X124693532Y-97043565D01*
X124739888Y-97039000D01*
X125391112Y-97039000D01*
X125437468Y-97043565D01*
G37*
G36*
X108927468Y-97043565D02*
G01*
X108966138Y-97055296D01*
X109001777Y-97074346D01*
X109033017Y-97099983D01*
X109058654Y-97131223D01*
X109077704Y-97166862D01*
X109089435Y-97205532D01*
X109094000Y-97251888D01*
X109094000Y-98328112D01*
X109089435Y-98374468D01*
X109077704Y-98413138D01*
X109058654Y-98448777D01*
X109033017Y-98480017D01*
X109001777Y-98505654D01*
X108966138Y-98524704D01*
X108927468Y-98536435D01*
X108881112Y-98541000D01*
X108229888Y-98541000D01*
X108183532Y-98536435D01*
X108144862Y-98524704D01*
X108109223Y-98505654D01*
X108077983Y-98480017D01*
X108052346Y-98448777D01*
X108033296Y-98413138D01*
X108021565Y-98374468D01*
X108017000Y-98328112D01*
X108017000Y-97251888D01*
X108021565Y-97205532D01*
X108033296Y-97166862D01*
X108052346Y-97131223D01*
X108077983Y-97099983D01*
X108109223Y-97074346D01*
X108144862Y-97055296D01*
X108183532Y-97043565D01*
X108229888Y-97039000D01*
X108881112Y-97039000D01*
X108927468Y-97043565D01*
G37*
G36*
X107052468Y-97043565D02*
G01*
X107091138Y-97055296D01*
X107126777Y-97074346D01*
X107158017Y-97099983D01*
X107183654Y-97131223D01*
X107202704Y-97166862D01*
X107214435Y-97205532D01*
X107219000Y-97251888D01*
X107219000Y-98328112D01*
X107214435Y-98374468D01*
X107202704Y-98413138D01*
X107183654Y-98448777D01*
X107158017Y-98480017D01*
X107126777Y-98505654D01*
X107091138Y-98524704D01*
X107052468Y-98536435D01*
X107006112Y-98541000D01*
X106354888Y-98541000D01*
X106308532Y-98536435D01*
X106269862Y-98524704D01*
X106234223Y-98505654D01*
X106202983Y-98480017D01*
X106177346Y-98448777D01*
X106158296Y-98413138D01*
X106146565Y-98374468D01*
X106142000Y-98328112D01*
X106142000Y-97251888D01*
X106146565Y-97205532D01*
X106158296Y-97166862D01*
X106177346Y-97131223D01*
X106202983Y-97099983D01*
X106234223Y-97074346D01*
X106269862Y-97055296D01*
X106308532Y-97043565D01*
X106354888Y-97039000D01*
X107006112Y-97039000D01*
X107052468Y-97043565D01*
G37*
G36*
X115277468Y-97043565D02*
G01*
X115316138Y-97055296D01*
X115351777Y-97074346D01*
X115383017Y-97099983D01*
X115408654Y-97131223D01*
X115427704Y-97166862D01*
X115439435Y-97205532D01*
X115444000Y-97251888D01*
X115444000Y-98328112D01*
X115439435Y-98374468D01*
X115427704Y-98413138D01*
X115408654Y-98448777D01*
X115383017Y-98480017D01*
X115351777Y-98505654D01*
X115316138Y-98524704D01*
X115277468Y-98536435D01*
X115231112Y-98541000D01*
X114579888Y-98541000D01*
X114533532Y-98536435D01*
X114494862Y-98524704D01*
X114459223Y-98505654D01*
X114427983Y-98480017D01*
X114402346Y-98448777D01*
X114383296Y-98413138D01*
X114371565Y-98374468D01*
X114367000Y-98328112D01*
X114367000Y-97251888D01*
X114371565Y-97205532D01*
X114383296Y-97166862D01*
X114402346Y-97131223D01*
X114427983Y-97099983D01*
X114459223Y-97074346D01*
X114494862Y-97055296D01*
X114533532Y-97043565D01*
X114579888Y-97039000D01*
X115231112Y-97039000D01*
X115277468Y-97043565D01*
G37*
G36*
X113186564Y-92969389D02*
G01*
X113377833Y-93048615D01*
X113377835Y-93048616D01*
X113549973Y-93163635D01*
X113696365Y-93310027D01*
X113811385Y-93482167D01*
X113890611Y-93673436D01*
X113931000Y-93876484D01*
X113931000Y-94083516D01*
X113890611Y-94286564D01*
X113811385Y-94477833D01*
X113811384Y-94477835D01*
X113696365Y-94649973D01*
X113549973Y-94796365D01*
X113377835Y-94911384D01*
X113377834Y-94911385D01*
X113377833Y-94911385D01*
X113186564Y-94990611D01*
X112983516Y-95031000D01*
X112776484Y-95031000D01*
X112573436Y-94990611D01*
X112382167Y-94911385D01*
X112382166Y-94911385D01*
X112382165Y-94911384D01*
X112210027Y-94796365D01*
X112063635Y-94649973D01*
X111948616Y-94477835D01*
X111948615Y-94477833D01*
X111869389Y-94286564D01*
X111829000Y-94083516D01*
X111829000Y-93876484D01*
X111869389Y-93673436D01*
X111948615Y-93482167D01*
X112063635Y-93310027D01*
X112210027Y-93163635D01*
X112382165Y-93048616D01*
X112382167Y-93048615D01*
X112573436Y-92969389D01*
X112776484Y-92929000D01*
X112983516Y-92929000D01*
X113186564Y-92969389D01*
G37*
G36*
X123346564Y-92969389D02*
G01*
X123537833Y-93048615D01*
X123537835Y-93048616D01*
X123709973Y-93163635D01*
X123856365Y-93310027D01*
X123971385Y-93482167D01*
X124050611Y-93673436D01*
X124091000Y-93876484D01*
X124091000Y-94083516D01*
X124050611Y-94286564D01*
X123971385Y-94477833D01*
X123971384Y-94477835D01*
X123856365Y-94649973D01*
X123709973Y-94796365D01*
X123537835Y-94911384D01*
X123537834Y-94911385D01*
X123537833Y-94911385D01*
X123346564Y-94990611D01*
X123143516Y-95031000D01*
X122936484Y-95031000D01*
X122733436Y-94990611D01*
X122542167Y-94911385D01*
X122542166Y-94911385D01*
X122542165Y-94911384D01*
X122370027Y-94796365D01*
X122223635Y-94649973D01*
X122108616Y-94477835D01*
X122108615Y-94477833D01*
X122029389Y-94286564D01*
X121989000Y-94083516D01*
X121989000Y-93876484D01*
X122029389Y-93673436D01*
X122108615Y-93482167D01*
X122223635Y-93310027D01*
X122370027Y-93163635D01*
X122542165Y-93048616D01*
X122542167Y-93048615D01*
X122733436Y-92969389D01*
X122936484Y-92929000D01*
X123143516Y-92929000D01*
X123346564Y-92969389D01*
G37*
G36*
X119686564Y-92969389D02*
G01*
X119877833Y-93048615D01*
X119877835Y-93048616D01*
X120049973Y-93163635D01*
X120196365Y-93310027D01*
X120311385Y-93482167D01*
X120390611Y-93673436D01*
X120431000Y-93876484D01*
X120431000Y-94083516D01*
X120390611Y-94286564D01*
X120311385Y-94477833D01*
X120311384Y-94477835D01*
X120196365Y-94649973D01*
X120049973Y-94796365D01*
X119877835Y-94911384D01*
X119877834Y-94911385D01*
X119877833Y-94911385D01*
X119686564Y-94990611D01*
X119483516Y-95031000D01*
X119276484Y-95031000D01*
X119073436Y-94990611D01*
X118882167Y-94911385D01*
X118882166Y-94911385D01*
X118882165Y-94911384D01*
X118710027Y-94796365D01*
X118563635Y-94649973D01*
X118448616Y-94477835D01*
X118448615Y-94477833D01*
X118369389Y-94286564D01*
X118329000Y-94083516D01*
X118329000Y-93876484D01*
X118369389Y-93673436D01*
X118448615Y-93482167D01*
X118563635Y-93310027D01*
X118710027Y-93163635D01*
X118882165Y-93048616D01*
X118882167Y-93048615D01*
X119073436Y-92969389D01*
X119276484Y-92929000D01*
X119483516Y-92929000D01*
X119686564Y-92969389D01*
G37*
G36*
X109526564Y-92969389D02*
G01*
X109717833Y-93048615D01*
X109717835Y-93048616D01*
X109889973Y-93163635D01*
X110036365Y-93310027D01*
X110151385Y-93482167D01*
X110230611Y-93673436D01*
X110271000Y-93876484D01*
X110271000Y-94083516D01*
X110230611Y-94286564D01*
X110151385Y-94477833D01*
X110151384Y-94477835D01*
X110036365Y-94649973D01*
X109889973Y-94796365D01*
X109717835Y-94911384D01*
X109717834Y-94911385D01*
X109717833Y-94911385D01*
X109526564Y-94990611D01*
X109323516Y-95031000D01*
X109116484Y-95031000D01*
X108913436Y-94990611D01*
X108722167Y-94911385D01*
X108722166Y-94911385D01*
X108722165Y-94911384D01*
X108550027Y-94796365D01*
X108403635Y-94649973D01*
X108288616Y-94477835D01*
X108288615Y-94477833D01*
X108209389Y-94286564D01*
X108169000Y-94083516D01*
X108169000Y-93876484D01*
X108209389Y-93673436D01*
X108288615Y-93482167D01*
X108403635Y-93310027D01*
X108550027Y-93163635D01*
X108722165Y-93048616D01*
X108722167Y-93048615D01*
X108913436Y-92969389D01*
X109116484Y-92929000D01*
X109323516Y-92929000D01*
X109526564Y-92969389D01*
G37*
G36*
X129846564Y-92969389D02*
G01*
X130037833Y-93048615D01*
X130037835Y-93048616D01*
X130209973Y-93163635D01*
X130356365Y-93310027D01*
X130471385Y-93482167D01*
X130550611Y-93673436D01*
X130591000Y-93876484D01*
X130591000Y-94083516D01*
X130550611Y-94286564D01*
X130471385Y-94477833D01*
X130471384Y-94477835D01*
X130356365Y-94649973D01*
X130209973Y-94796365D01*
X130037835Y-94911384D01*
X130037834Y-94911385D01*
X130037833Y-94911385D01*
X129846564Y-94990611D01*
X129643516Y-95031000D01*
X129436484Y-95031000D01*
X129233436Y-94990611D01*
X129042167Y-94911385D01*
X129042166Y-94911385D01*
X129042165Y-94911384D01*
X128870027Y-94796365D01*
X128723635Y-94649973D01*
X128608616Y-94477835D01*
X128608615Y-94477833D01*
X128529389Y-94286564D01*
X128489000Y-94083516D01*
X128489000Y-93876484D01*
X128529389Y-93673436D01*
X128608615Y-93482167D01*
X128723635Y-93310027D01*
X128870027Y-93163635D01*
X129042165Y-93048616D01*
X129042167Y-93048615D01*
X129233436Y-92969389D01*
X129436484Y-92929000D01*
X129643516Y-92929000D01*
X129846564Y-92969389D01*
G37*
G36*
X103026564Y-92969389D02*
G01*
X103217833Y-93048615D01*
X103217835Y-93048616D01*
X103389973Y-93163635D01*
X103536365Y-93310027D01*
X103651385Y-93482167D01*
X103730611Y-93673436D01*
X103771000Y-93876484D01*
X103771000Y-94083516D01*
X103730611Y-94286564D01*
X103651385Y-94477833D01*
X103651384Y-94477835D01*
X103536365Y-94649973D01*
X103389973Y-94796365D01*
X103217835Y-94911384D01*
X103217834Y-94911385D01*
X103217833Y-94911385D01*
X103026564Y-94990611D01*
X102823516Y-95031000D01*
X102616484Y-95031000D01*
X102413436Y-94990611D01*
X102222167Y-94911385D01*
X102222166Y-94911385D01*
X102222165Y-94911384D01*
X102050027Y-94796365D01*
X101903635Y-94649973D01*
X101788616Y-94477835D01*
X101788615Y-94477833D01*
X101709389Y-94286564D01*
X101669000Y-94083516D01*
X101669000Y-93876484D01*
X101709389Y-93673436D01*
X101788615Y-93482167D01*
X101903635Y-93310027D01*
X102050027Y-93163635D01*
X102222165Y-93048616D01*
X102222167Y-93048615D01*
X102413436Y-92969389D01*
X102616484Y-92929000D01*
X102823516Y-92929000D01*
X103026564Y-92969389D01*
G37*
G36*
X81761000Y-91726000D02*
G01*
X80159000Y-91726000D01*
X80159000Y-88824000D01*
X81761000Y-88824000D01*
X81761000Y-91726000D01*
G37*
G36*
X54461000Y-91726000D02*
G01*
X52859000Y-91726000D01*
X52859000Y-88824000D01*
X54461000Y-88824000D01*
X54461000Y-91726000D01*
G37*
G36*
X88531000Y-91071000D02*
G01*
X86729000Y-91071000D01*
X86729000Y-89269000D01*
X88531000Y-89269000D01*
X88531000Y-91071000D01*
G37*
G36*
X90283512Y-89273927D02*
G01*
X90432812Y-89303624D01*
X90596784Y-89371544D01*
X90744354Y-89470147D01*
X90869853Y-89595646D01*
X90968456Y-89743216D01*
X91036376Y-89907188D01*
X91071000Y-90081259D01*
X91071000Y-90258741D01*
X91036376Y-90432812D01*
X90968456Y-90596784D01*
X90869853Y-90744354D01*
X90744354Y-90869853D01*
X90596784Y-90968456D01*
X90432812Y-91036376D01*
X90283512Y-91066073D01*
X90258742Y-91071000D01*
X90081258Y-91071000D01*
X90056488Y-91066073D01*
X89907188Y-91036376D01*
X89743216Y-90968456D01*
X89595646Y-90869853D01*
X89470147Y-90744354D01*
X89371544Y-90596784D01*
X89303624Y-90432812D01*
X89269000Y-90258741D01*
X89269000Y-90081259D01*
X89303624Y-89907188D01*
X89371544Y-89743216D01*
X89470147Y-89595646D01*
X89595646Y-89470147D01*
X89743216Y-89371544D01*
X89907188Y-89303624D01*
X90056488Y-89273927D01*
X90081258Y-89269000D01*
X90258742Y-89269000D01*
X90283512Y-89273927D01*
G37*
G36*
X92823512Y-89273927D02*
G01*
X92972812Y-89303624D01*
X93136784Y-89371544D01*
X93284354Y-89470147D01*
X93409853Y-89595646D01*
X93508456Y-89743216D01*
X93576376Y-89907188D01*
X93611000Y-90081259D01*
X93611000Y-90258741D01*
X93576376Y-90432812D01*
X93508456Y-90596784D01*
X93409853Y-90744354D01*
X93284354Y-90869853D01*
X93136784Y-90968456D01*
X92972812Y-91036376D01*
X92823512Y-91066073D01*
X92798742Y-91071000D01*
X92621258Y-91071000D01*
X92596488Y-91066073D01*
X92447188Y-91036376D01*
X92283216Y-90968456D01*
X92135646Y-90869853D01*
X92010147Y-90744354D01*
X91911544Y-90596784D01*
X91843624Y-90432812D01*
X91809000Y-90258741D01*
X91809000Y-90081259D01*
X91843624Y-89907188D01*
X91911544Y-89743216D01*
X92010147Y-89595646D01*
X92135646Y-89470147D01*
X92283216Y-89371544D01*
X92447188Y-89303624D01*
X92596488Y-89273927D01*
X92621258Y-89269000D01*
X92798742Y-89269000D01*
X92823512Y-89273927D01*
G37*
G36*
X95363512Y-89273927D02*
G01*
X95512812Y-89303624D01*
X95676784Y-89371544D01*
X95824354Y-89470147D01*
X95949853Y-89595646D01*
X96048456Y-89743216D01*
X96116376Y-89907188D01*
X96151000Y-90081259D01*
X96151000Y-90258741D01*
X96116376Y-90432812D01*
X96048456Y-90596784D01*
X95949853Y-90744354D01*
X95824354Y-90869853D01*
X95676784Y-90968456D01*
X95512812Y-91036376D01*
X95363512Y-91066073D01*
X95338742Y-91071000D01*
X95161258Y-91071000D01*
X95136488Y-91066073D01*
X94987188Y-91036376D01*
X94823216Y-90968456D01*
X94675646Y-90869853D01*
X94550147Y-90744354D01*
X94451544Y-90596784D01*
X94383624Y-90432812D01*
X94349000Y-90258741D01*
X94349000Y-90081259D01*
X94383624Y-89907188D01*
X94451544Y-89743216D01*
X94550147Y-89595646D01*
X94675646Y-89470147D01*
X94823216Y-89371544D01*
X94987188Y-89303624D01*
X95136488Y-89273927D01*
X95161258Y-89269000D01*
X95338742Y-89269000D01*
X95363512Y-89273927D01*
G37*
G36*
X113186564Y-88469389D02*
G01*
X113377833Y-88548615D01*
X113377835Y-88548616D01*
X113549973Y-88663635D01*
X113696365Y-88810027D01*
X113811385Y-88982167D01*
X113890611Y-89173436D01*
X113931000Y-89376484D01*
X113931000Y-89583516D01*
X113890611Y-89786564D01*
X113811385Y-89977833D01*
X113811384Y-89977835D01*
X113696365Y-90149973D01*
X113549973Y-90296365D01*
X113377835Y-90411384D01*
X113377834Y-90411385D01*
X113377833Y-90411385D01*
X113186564Y-90490611D01*
X112983516Y-90531000D01*
X112776484Y-90531000D01*
X112573436Y-90490611D01*
X112382167Y-90411385D01*
X112382166Y-90411385D01*
X112382165Y-90411384D01*
X112210027Y-90296365D01*
X112063635Y-90149973D01*
X111948616Y-89977835D01*
X111948615Y-89977833D01*
X111869389Y-89786564D01*
X111829000Y-89583516D01*
X111829000Y-89376484D01*
X111869389Y-89173436D01*
X111948615Y-88982167D01*
X112063635Y-88810027D01*
X112210027Y-88663635D01*
X112382165Y-88548616D01*
X112382167Y-88548615D01*
X112573436Y-88469389D01*
X112776484Y-88429000D01*
X112983516Y-88429000D01*
X113186564Y-88469389D01*
G37*
G36*
X109526564Y-88469389D02*
G01*
X109717833Y-88548615D01*
X109717835Y-88548616D01*
X109889973Y-88663635D01*
X110036365Y-88810027D01*
X110151385Y-88982167D01*
X110230611Y-89173436D01*
X110271000Y-89376484D01*
X110271000Y-89583516D01*
X110230611Y-89786564D01*
X110151385Y-89977833D01*
X110151384Y-89977835D01*
X110036365Y-90149973D01*
X109889973Y-90296365D01*
X109717835Y-90411384D01*
X109717834Y-90411385D01*
X109717833Y-90411385D01*
X109526564Y-90490611D01*
X109323516Y-90531000D01*
X109116484Y-90531000D01*
X108913436Y-90490611D01*
X108722167Y-90411385D01*
X108722166Y-90411385D01*
X108722165Y-90411384D01*
X108550027Y-90296365D01*
X108403635Y-90149973D01*
X108288616Y-89977835D01*
X108288615Y-89977833D01*
X108209389Y-89786564D01*
X108169000Y-89583516D01*
X108169000Y-89376484D01*
X108209389Y-89173436D01*
X108288615Y-88982167D01*
X108403635Y-88810027D01*
X108550027Y-88663635D01*
X108722165Y-88548616D01*
X108722167Y-88548615D01*
X108913436Y-88469389D01*
X109116484Y-88429000D01*
X109323516Y-88429000D01*
X109526564Y-88469389D01*
G37*
G36*
X103026564Y-88469389D02*
G01*
X103217833Y-88548615D01*
X103217835Y-88548616D01*
X103389973Y-88663635D01*
X103536365Y-88810027D01*
X103651385Y-88982167D01*
X103730611Y-89173436D01*
X103771000Y-89376484D01*
X103771000Y-89583516D01*
X103730611Y-89786564D01*
X103651385Y-89977833D01*
X103651384Y-89977835D01*
X103536365Y-90149973D01*
X103389973Y-90296365D01*
X103217835Y-90411384D01*
X103217834Y-90411385D01*
X103217833Y-90411385D01*
X103026564Y-90490611D01*
X102823516Y-90531000D01*
X102616484Y-90531000D01*
X102413436Y-90490611D01*
X102222167Y-90411385D01*
X102222166Y-90411385D01*
X102222165Y-90411384D01*
X102050027Y-90296365D01*
X101903635Y-90149973D01*
X101788616Y-89977835D01*
X101788615Y-89977833D01*
X101709389Y-89786564D01*
X101669000Y-89583516D01*
X101669000Y-89376484D01*
X101709389Y-89173436D01*
X101788615Y-88982167D01*
X101903635Y-88810027D01*
X102050027Y-88663635D01*
X102222165Y-88548616D01*
X102222167Y-88548615D01*
X102413436Y-88469389D01*
X102616484Y-88429000D01*
X102823516Y-88429000D01*
X103026564Y-88469389D01*
G37*
G36*
X123346564Y-88469389D02*
G01*
X123537833Y-88548615D01*
X123537835Y-88548616D01*
X123709973Y-88663635D01*
X123856365Y-88810027D01*
X123971385Y-88982167D01*
X124050611Y-89173436D01*
X124091000Y-89376484D01*
X124091000Y-89583516D01*
X124050611Y-89786564D01*
X123971385Y-89977833D01*
X123971384Y-89977835D01*
X123856365Y-90149973D01*
X123709973Y-90296365D01*
X123537835Y-90411384D01*
X123537834Y-90411385D01*
X123537833Y-90411385D01*
X123346564Y-90490611D01*
X123143516Y-90531000D01*
X122936484Y-90531000D01*
X122733436Y-90490611D01*
X122542167Y-90411385D01*
X122542166Y-90411385D01*
X122542165Y-90411384D01*
X122370027Y-90296365D01*
X122223635Y-90149973D01*
X122108616Y-89977835D01*
X122108615Y-89977833D01*
X122029389Y-89786564D01*
X121989000Y-89583516D01*
X121989000Y-89376484D01*
X122029389Y-89173436D01*
X122108615Y-88982167D01*
X122223635Y-88810027D01*
X122370027Y-88663635D01*
X122542165Y-88548616D01*
X122542167Y-88548615D01*
X122733436Y-88469389D01*
X122936484Y-88429000D01*
X123143516Y-88429000D01*
X123346564Y-88469389D01*
G37*
G36*
X129846564Y-88469389D02*
G01*
X130037833Y-88548615D01*
X130037835Y-88548616D01*
X130209973Y-88663635D01*
X130356365Y-88810027D01*
X130471385Y-88982167D01*
X130550611Y-89173436D01*
X130591000Y-89376484D01*
X130591000Y-89583516D01*
X130550611Y-89786564D01*
X130471385Y-89977833D01*
X130471384Y-89977835D01*
X130356365Y-90149973D01*
X130209973Y-90296365D01*
X130037835Y-90411384D01*
X130037834Y-90411385D01*
X130037833Y-90411385D01*
X129846564Y-90490611D01*
X129643516Y-90531000D01*
X129436484Y-90531000D01*
X129233436Y-90490611D01*
X129042167Y-90411385D01*
X129042166Y-90411385D01*
X129042165Y-90411384D01*
X128870027Y-90296365D01*
X128723635Y-90149973D01*
X128608616Y-89977835D01*
X128608615Y-89977833D01*
X128529389Y-89786564D01*
X128489000Y-89583516D01*
X128489000Y-89376484D01*
X128529389Y-89173436D01*
X128608615Y-88982167D01*
X128723635Y-88810027D01*
X128870027Y-88663635D01*
X129042165Y-88548616D01*
X129042167Y-88548615D01*
X129233436Y-88469389D01*
X129436484Y-88429000D01*
X129643516Y-88429000D01*
X129846564Y-88469389D01*
G37*
G36*
X119686564Y-88469389D02*
G01*
X119877833Y-88548615D01*
X119877835Y-88548616D01*
X120049973Y-88663635D01*
X120196365Y-88810027D01*
X120311385Y-88982167D01*
X120390611Y-89173436D01*
X120431000Y-89376484D01*
X120431000Y-89583516D01*
X120390611Y-89786564D01*
X120311385Y-89977833D01*
X120311384Y-89977835D01*
X120196365Y-90149973D01*
X120049973Y-90296365D01*
X119877835Y-90411384D01*
X119877834Y-90411385D01*
X119877833Y-90411385D01*
X119686564Y-90490611D01*
X119483516Y-90531000D01*
X119276484Y-90531000D01*
X119073436Y-90490611D01*
X118882167Y-90411385D01*
X118882166Y-90411385D01*
X118882165Y-90411384D01*
X118710027Y-90296365D01*
X118563635Y-90149973D01*
X118448616Y-89977835D01*
X118448615Y-89977833D01*
X118369389Y-89786564D01*
X118329000Y-89583516D01*
X118329000Y-89376484D01*
X118369389Y-89173436D01*
X118448615Y-88982167D01*
X118563635Y-88810027D01*
X118710027Y-88663635D01*
X118882165Y-88548616D01*
X118882167Y-88548615D01*
X119073436Y-88469389D01*
X119276484Y-88429000D01*
X119483516Y-88429000D01*
X119686564Y-88469389D01*
G37*
M02*
