%FSLAX34Y34*%
%MOMM*%
%LNCOPPER_BOTTOM*%
G71*
G01*
%ADD10C, 1.524*%
%ADD11C, 2.000*%
%ADD12C, 2.000*%
%ADD13C, 1.200*%
%ADD14C, 0.000*%
%ADD15C, 1.600*%
%ADD16C, 0.300*%
%ADD17C, 0.800*%
%ADD18C, 0.500*%
%ADD19C, 0.254*%
%LPD*%
X686050Y644775D02*
G54D10*
D03*
X660650Y644775D02*
G54D10*
D03*
X635250Y644775D02*
G54D10*
D03*
X609850Y644775D02*
G54D10*
D03*
X584450Y644775D02*
G54D10*
D03*
X559050Y644775D02*
G54D10*
D03*
X533650Y644775D02*
G54D10*
D03*
X508250Y644775D02*
G54D10*
D03*
X482850Y644775D02*
G54D10*
D03*
X457450Y644775D02*
G54D10*
D03*
X432050Y644775D02*
G54D10*
D03*
X406650Y644775D02*
G54D10*
D03*
X381250Y644775D02*
G54D10*
D03*
X355850Y644775D02*
G54D10*
D03*
X330450Y644775D02*
G54D10*
D03*
X305050Y644775D02*
G54D10*
D03*
X279650Y644775D02*
G54D10*
D03*
X254250Y644775D02*
G54D10*
D03*
X228850Y644775D02*
G54D10*
D03*
X711450Y492375D02*
G54D10*
D03*
X686050Y492375D02*
G54D10*
D03*
X660650Y492375D02*
G54D10*
D03*
X635250Y492375D02*
G54D10*
D03*
X609850Y492375D02*
G54D10*
D03*
X584450Y492375D02*
G54D10*
D03*
X559050Y492375D02*
G54D10*
D03*
X533650Y492375D02*
G54D10*
D03*
X508250Y492375D02*
G54D10*
D03*
X482850Y492375D02*
G54D10*
D03*
X457450Y492375D02*
G54D10*
D03*
X432050Y492375D02*
G54D10*
D03*
X406650Y492375D02*
G54D10*
D03*
X381250Y492375D02*
G54D10*
D03*
X355850Y492375D02*
G54D10*
D03*
X330450Y492375D02*
G54D10*
D03*
X305050Y492375D02*
G54D10*
D03*
X279650Y492375D02*
G54D10*
D03*
X254250Y492375D02*
G54D10*
D03*
X228850Y492375D02*
G54D10*
D03*
X266950Y555875D02*
G54D10*
D03*
X266950Y581275D02*
G54D10*
D03*
X266950Y530475D02*
G54D10*
D03*
X266950Y606675D02*
G54D10*
D03*
X139950Y238375D02*
G54D11*
D03*
X189950Y238375D02*
G54D11*
D03*
G36*
X388490Y327655D02*
X404490Y327655D01*
X404490Y311655D01*
X388490Y311655D01*
X388490Y327655D01*
G37*
G36*
X375790Y172715D02*
X391790Y172715D01*
X391790Y156715D01*
X375790Y156715D01*
X375790Y172715D01*
G37*
G36*
X736208Y645179D02*
X753208Y645179D01*
X753208Y628179D01*
X736208Y628179D01*
X736208Y645179D01*
G37*
G36*
X388490Y441955D02*
X404490Y441955D01*
X404490Y425955D01*
X388490Y425955D01*
X388490Y441955D01*
G37*
G36*
X375790Y287015D02*
X391790Y287015D01*
X391790Y271015D01*
X375790Y271015D01*
X375790Y287015D01*
G37*
X771775Y942981D02*
G54D12*
D03*
X771775Y897981D02*
G54D12*
D03*
X706775Y942981D02*
G54D12*
D03*
X706775Y897981D02*
G54D12*
D03*
X707569Y698750D02*
G54D12*
D03*
X707569Y743750D02*
G54D12*
D03*
X772569Y698750D02*
G54D12*
D03*
X772569Y743750D02*
G54D12*
D03*
X771775Y842969D02*
G54D12*
D03*
X771775Y797969D02*
G54D12*
D03*
X706775Y842969D02*
G54D12*
D03*
X706775Y797969D02*
G54D12*
D03*
G36*
X17650Y614675D02*
X33650Y614675D01*
X33650Y598675D01*
X17650Y598675D01*
X17650Y614675D01*
G37*
G36*
X220850Y411475D02*
X236850Y411475D01*
X236850Y395475D01*
X220850Y395475D01*
X220850Y411475D01*
G37*
X317191Y183938D02*
G54D13*
D03*
X390091Y707139D02*
G54D13*
D03*
X204058Y485927D02*
G54D13*
D03*
X533650Y515317D02*
G54D13*
D03*
X472690Y138673D02*
G54D13*
D03*
X235009Y515477D02*
G54D13*
D03*
X396490Y356644D02*
G54D13*
D03*
X496991Y545195D02*
G54D13*
D03*
X609274Y529751D02*
G54D13*
D03*
X485390Y414905D02*
G54D13*
D03*
X331031Y427005D02*
G54D13*
D03*
X524063Y453732D02*
G54D13*
D03*
X487064Y199401D02*
G54D13*
D03*
X377539Y205122D02*
G54D13*
D03*
X621974Y555875D02*
G54D13*
D03*
X350204Y211015D02*
G54D13*
D03*
X360707Y332159D02*
G54D13*
D03*
X105628Y653392D02*
G54D13*
D03*
X121047Y663896D02*
G54D13*
D03*
X303218Y608030D02*
G54D13*
D03*
X319162Y618534D02*
G54D13*
D03*
X432050Y670933D02*
G54D13*
D03*
G36*
X44640Y81501D02*
X45125Y81429D01*
X45601Y81310D01*
X46063Y81144D01*
X46507Y80935D01*
X46928Y80682D01*
X47322Y80390D01*
X47686Y80061D01*
X48015Y79697D01*
X48307Y79303D01*
X48560Y78882D01*
X48769Y78438D01*
X48935Y77976D01*
X49054Y77501D01*
X49126Y77015D01*
X49150Y76525D01*
X49150Y6525D01*
X49126Y6035D01*
X49054Y5549D01*
X48935Y5074D01*
X48769Y4611D01*
X48560Y4168D01*
X48307Y3747D01*
X48015Y3353D01*
X47686Y2989D01*
X47322Y2660D01*
X46928Y2368D01*
X46507Y2115D01*
X46063Y1905D01*
X45601Y1740D01*
X45125Y1621D01*
X44640Y1549D01*
X44150Y1525D01*
X34150Y1525D01*
X33660Y1549D01*
X33175Y1621D01*
X32699Y1740D01*
X32237Y1905D01*
X31793Y2115D01*
X31372Y2368D01*
X30978Y2660D01*
X30614Y2989D01*
X30285Y3353D01*
X29993Y3747D01*
X29740Y4168D01*
X29531Y4611D01*
X29365Y5074D01*
X29246Y5549D01*
X29174Y6035D01*
X29150Y6525D01*
X29150Y76525D01*
X29174Y77015D01*
X29246Y77501D01*
X29365Y77976D01*
X29531Y78438D01*
X29740Y78882D01*
X29993Y79303D01*
X30285Y79697D01*
X30614Y80061D01*
X30978Y80390D01*
X31372Y80682D01*
X31793Y80935D01*
X32237Y81144D01*
X32699Y81310D01*
X33175Y81429D01*
X33660Y81501D01*
X34150Y81525D01*
X44150Y81525D01*
X44640Y81501D01*
G37*
G54D14*
X44640Y81501D02*
X45125Y81429D01*
X45601Y81310D01*
X46063Y81144D01*
X46507Y80935D01*
X46928Y80682D01*
X47322Y80390D01*
X47686Y80061D01*
X48015Y79697D01*
X48307Y79303D01*
X48560Y78882D01*
X48769Y78438D01*
X48935Y77976D01*
X49054Y77501D01*
X49126Y77015D01*
X49150Y76525D01*
X49150Y6525D01*
X49126Y6035D01*
X49054Y5549D01*
X48935Y5074D01*
X48769Y4611D01*
X48560Y4168D01*
X48307Y3747D01*
X48015Y3353D01*
X47686Y2989D01*
X47322Y2660D01*
X46928Y2368D01*
X46507Y2115D01*
X46063Y1905D01*
X45601Y1740D01*
X45125Y1621D01*
X44640Y1549D01*
X44150Y1525D01*
X34150Y1525D01*
X33660Y1549D01*
X33175Y1621D01*
X32699Y1740D01*
X32237Y1905D01*
X31793Y2115D01*
X31372Y2368D01*
X30978Y2660D01*
X30614Y2989D01*
X30285Y3353D01*
X29993Y3747D01*
X29740Y4168D01*
X29531Y4611D01*
X29365Y5074D01*
X29246Y5549D01*
X29174Y6035D01*
X29150Y6525D01*
X29150Y76525D01*
X29174Y77015D01*
X29246Y77501D01*
X29365Y77976D01*
X29531Y78438D01*
X29740Y78882D01*
X29993Y79303D01*
X30285Y79697D01*
X30614Y80061D01*
X30978Y80390D01*
X31372Y80682D01*
X31793Y80935D01*
X32237Y81144D01*
X32699Y81310D01*
X33175Y81429D01*
X33660Y81501D01*
X34150Y81525D01*
X44150Y81525D01*
X44640Y81501D01*
G36*
X69640Y81501D02*
X70125Y81429D01*
X70601Y81310D01*
X71063Y81144D01*
X71507Y80935D01*
X71928Y80682D01*
X72322Y80390D01*
X72686Y80061D01*
X73015Y79697D01*
X73307Y79303D01*
X73560Y78882D01*
X73769Y78438D01*
X73935Y77976D01*
X74054Y77501D01*
X74126Y77015D01*
X74150Y76525D01*
X74150Y6525D01*
X74126Y6035D01*
X74054Y5549D01*
X73935Y5074D01*
X73769Y4611D01*
X73560Y4168D01*
X73307Y3747D01*
X73015Y3353D01*
X72686Y2989D01*
X72322Y2660D01*
X71928Y2368D01*
X71507Y2115D01*
X71063Y1905D01*
X70601Y1740D01*
X70125Y1621D01*
X69640Y1549D01*
X69150Y1525D01*
X59150Y1525D01*
X58660Y1549D01*
X58175Y1621D01*
X57699Y1740D01*
X57237Y1905D01*
X56793Y2115D01*
X56372Y2368D01*
X55978Y2660D01*
X55614Y2989D01*
X55285Y3353D01*
X54993Y3747D01*
X54740Y4168D01*
X54531Y4611D01*
X54365Y5074D01*
X54246Y5549D01*
X54174Y6035D01*
X54150Y6525D01*
X54150Y76525D01*
X54174Y77015D01*
X54246Y77501D01*
X54365Y77976D01*
X54531Y78438D01*
X54740Y78882D01*
X54993Y79303D01*
X55285Y79697D01*
X55614Y80061D01*
X55978Y80390D01*
X56372Y80682D01*
X56793Y80935D01*
X57237Y81144D01*
X57699Y81310D01*
X58175Y81429D01*
X58660Y81501D01*
X59150Y81525D01*
X69150Y81525D01*
X69640Y81501D01*
G37*
G54D14*
X69640Y81501D02*
X70125Y81429D01*
X70601Y81310D01*
X71063Y81144D01*
X71507Y80935D01*
X71928Y80682D01*
X72322Y80390D01*
X72686Y80061D01*
X73015Y79697D01*
X73307Y79303D01*
X73560Y78882D01*
X73769Y78438D01*
X73935Y77976D01*
X74054Y77501D01*
X74126Y77015D01*
X74150Y76525D01*
X74150Y6525D01*
X74126Y6035D01*
X74054Y5549D01*
X73935Y5074D01*
X73769Y4611D01*
X73560Y4168D01*
X73307Y3747D01*
X73015Y3353D01*
X72686Y2989D01*
X72322Y2660D01*
X71928Y2368D01*
X71507Y2115D01*
X71063Y1905D01*
X70601Y1740D01*
X70125Y1621D01*
X69640Y1549D01*
X69150Y1525D01*
X59150Y1525D01*
X58660Y1549D01*
X58175Y1621D01*
X57699Y1740D01*
X57237Y1905D01*
X56793Y2115D01*
X56372Y2368D01*
X55978Y2660D01*
X55614Y2989D01*
X55285Y3353D01*
X54993Y3747D01*
X54740Y4168D01*
X54531Y4611D01*
X54365Y5074D01*
X54246Y5549D01*
X54174Y6035D01*
X54150Y6525D01*
X54150Y76525D01*
X54174Y77015D01*
X54246Y77501D01*
X54365Y77976D01*
X54531Y78438D01*
X54740Y78882D01*
X54993Y79303D01*
X55285Y79697D01*
X55614Y80061D01*
X55978Y80390D01*
X56372Y80682D01*
X56793Y80935D01*
X57237Y81144D01*
X57699Y81310D01*
X58175Y81429D01*
X58660Y81501D01*
X59150Y81525D01*
X69150Y81525D01*
X69640Y81501D01*
G36*
X94640Y81501D02*
X95125Y81429D01*
X95601Y81310D01*
X96063Y81144D01*
X96507Y80935D01*
X96928Y80682D01*
X97322Y80390D01*
X97686Y80061D01*
X98015Y79697D01*
X98307Y79303D01*
X98560Y78882D01*
X98769Y78438D01*
X98935Y77976D01*
X99054Y77501D01*
X99126Y77015D01*
X99150Y76525D01*
X99150Y6525D01*
X99126Y6035D01*
X99054Y5549D01*
X98935Y5074D01*
X98769Y4611D01*
X98560Y4168D01*
X98307Y3747D01*
X98015Y3353D01*
X97686Y2989D01*
X97322Y2660D01*
X96928Y2368D01*
X96507Y2115D01*
X96063Y1905D01*
X95601Y1740D01*
X95125Y1621D01*
X94640Y1549D01*
X94150Y1525D01*
X84150Y1525D01*
X83660Y1549D01*
X83175Y1621D01*
X82699Y1740D01*
X82237Y1905D01*
X81793Y2115D01*
X81372Y2368D01*
X80978Y2660D01*
X80614Y2989D01*
X80285Y3353D01*
X79993Y3747D01*
X79740Y4168D01*
X79531Y4611D01*
X79365Y5074D01*
X79246Y5549D01*
X79174Y6035D01*
X79150Y6525D01*
X79150Y76525D01*
X79174Y77015D01*
X79246Y77501D01*
X79365Y77976D01*
X79531Y78438D01*
X79740Y78882D01*
X79993Y79303D01*
X80285Y79697D01*
X80614Y80061D01*
X80978Y80390D01*
X81372Y80682D01*
X81793Y80935D01*
X82237Y81144D01*
X82699Y81310D01*
X83175Y81429D01*
X83660Y81501D01*
X84150Y81525D01*
X94150Y81525D01*
X94640Y81501D01*
G37*
G54D14*
X94640Y81501D02*
X95125Y81429D01*
X95601Y81310D01*
X96063Y81144D01*
X96507Y80935D01*
X96928Y80682D01*
X97322Y80390D01*
X97686Y80061D01*
X98015Y79697D01*
X98307Y79303D01*
X98560Y78882D01*
X98769Y78438D01*
X98935Y77976D01*
X99054Y77501D01*
X99126Y77015D01*
X99150Y76525D01*
X99150Y6525D01*
X99126Y6035D01*
X99054Y5549D01*
X98935Y5074D01*
X98769Y4611D01*
X98560Y4168D01*
X98307Y3747D01*
X98015Y3353D01*
X97686Y2989D01*
X97322Y2660D01*
X96928Y2368D01*
X96507Y2115D01*
X96063Y1905D01*
X95601Y1740D01*
X95125Y1621D01*
X94640Y1549D01*
X94150Y1525D01*
X84150Y1525D01*
X83660Y1549D01*
X83175Y1621D01*
X82699Y1740D01*
X82237Y1905D01*
X81793Y2115D01*
X81372Y2368D01*
X80978Y2660D01*
X80614Y2989D01*
X80285Y3353D01*
X79993Y3747D01*
X79740Y4168D01*
X79531Y4611D01*
X79365Y5074D01*
X79246Y5549D01*
X79174Y6035D01*
X79150Y6525D01*
X79150Y76525D01*
X79174Y77015D01*
X79246Y77501D01*
X79365Y77976D01*
X79531Y78438D01*
X79740Y78882D01*
X79993Y79303D01*
X80285Y79697D01*
X80614Y80061D01*
X80978Y80390D01*
X81372Y80682D01*
X81793Y80935D01*
X82237Y81144D01*
X82699Y81310D01*
X83175Y81429D01*
X83660Y81501D01*
X84150Y81525D01*
X94150Y81525D01*
X94640Y81501D01*
G36*
X119640Y81501D02*
X120126Y81429D01*
X120601Y81310D01*
X121063Y81144D01*
X121507Y80935D01*
X121928Y80682D01*
X122322Y80390D01*
X122686Y80061D01*
X123015Y79697D01*
X123307Y79303D01*
X123560Y78882D01*
X123769Y78438D01*
X123935Y77976D01*
X124054Y77501D01*
X124126Y77015D01*
X124150Y76525D01*
X124150Y6525D01*
X124126Y6035D01*
X124054Y5549D01*
X123935Y5074D01*
X123769Y4611D01*
X123560Y4168D01*
X123307Y3747D01*
X123015Y3353D01*
X122686Y2989D01*
X122322Y2660D01*
X121928Y2368D01*
X121507Y2115D01*
X121063Y1905D01*
X120601Y1740D01*
X120126Y1621D01*
X119640Y1549D01*
X119150Y1525D01*
X109150Y1525D01*
X108660Y1549D01*
X108175Y1621D01*
X107699Y1740D01*
X107237Y1905D01*
X106793Y2115D01*
X106372Y2368D01*
X105978Y2660D01*
X105614Y2989D01*
X105285Y3353D01*
X104993Y3747D01*
X104740Y4168D01*
X104531Y4611D01*
X104365Y5074D01*
X104246Y5549D01*
X104174Y6035D01*
X104150Y6525D01*
X104150Y76525D01*
X104174Y77015D01*
X104246Y77501D01*
X104365Y77976D01*
X104531Y78438D01*
X104740Y78882D01*
X104993Y79303D01*
X105285Y79697D01*
X105614Y80061D01*
X105978Y80390D01*
X106372Y80682D01*
X106793Y80935D01*
X107237Y81144D01*
X107699Y81310D01*
X108175Y81429D01*
X108660Y81501D01*
X109150Y81525D01*
X119150Y81525D01*
X119640Y81501D01*
G37*
G54D14*
X119640Y81501D02*
X120126Y81429D01*
X120601Y81310D01*
X121063Y81144D01*
X121507Y80935D01*
X121928Y80682D01*
X122322Y80390D01*
X122686Y80061D01*
X123015Y79697D01*
X123307Y79303D01*
X123560Y78882D01*
X123769Y78438D01*
X123935Y77976D01*
X124054Y77501D01*
X124126Y77015D01*
X124150Y76525D01*
X124150Y6525D01*
X124126Y6035D01*
X124054Y5549D01*
X123935Y5074D01*
X123769Y4611D01*
X123560Y4168D01*
X123307Y3747D01*
X123015Y3353D01*
X122686Y2989D01*
X122322Y2660D01*
X121928Y2368D01*
X121507Y2115D01*
X121063Y1905D01*
X120601Y1740D01*
X120126Y1621D01*
X119640Y1549D01*
X119150Y1525D01*
X109150Y1525D01*
X108660Y1549D01*
X108175Y1621D01*
X107699Y1740D01*
X107237Y1905D01*
X106793Y2115D01*
X106372Y2368D01*
X105978Y2660D01*
X105614Y2989D01*
X105285Y3353D01*
X104993Y3747D01*
X104740Y4168D01*
X104531Y4611D01*
X104365Y5074D01*
X104246Y5549D01*
X104174Y6035D01*
X104150Y6525D01*
X104150Y76525D01*
X104174Y77015D01*
X104246Y77501D01*
X104365Y77976D01*
X104531Y78438D01*
X104740Y78882D01*
X104993Y79303D01*
X105285Y79697D01*
X105614Y80061D01*
X105978Y80390D01*
X106372Y80682D01*
X106793Y80935D01*
X107237Y81144D01*
X107699Y81310D01*
X108175Y81429D01*
X108660Y81501D01*
X109150Y81525D01*
X119150Y81525D01*
X119640Y81501D01*
G36*
X144640Y81501D02*
X145126Y81429D01*
X145601Y81310D01*
X146063Y81144D01*
X146507Y80935D01*
X146928Y80682D01*
X147322Y80390D01*
X147686Y80061D01*
X148015Y79697D01*
X148307Y79303D01*
X148560Y78882D01*
X148769Y78438D01*
X148935Y77976D01*
X149054Y77501D01*
X149126Y77015D01*
X149150Y76525D01*
X149150Y6525D01*
X149126Y6035D01*
X149054Y5549D01*
X148935Y5074D01*
X148769Y4611D01*
X148560Y4168D01*
X148307Y3747D01*
X148015Y3353D01*
X147686Y2989D01*
X147322Y2660D01*
X146928Y2368D01*
X146507Y2115D01*
X146063Y1905D01*
X145601Y1740D01*
X145126Y1621D01*
X144640Y1549D01*
X144150Y1525D01*
X134150Y1525D01*
X133660Y1549D01*
X133175Y1621D01*
X132699Y1740D01*
X132237Y1905D01*
X131793Y2115D01*
X131372Y2368D01*
X130978Y2660D01*
X130614Y2989D01*
X130285Y3353D01*
X129993Y3747D01*
X129740Y4168D01*
X129531Y4611D01*
X129365Y5074D01*
X129246Y5549D01*
X129174Y6035D01*
X129150Y6525D01*
X129150Y76525D01*
X129174Y77015D01*
X129246Y77501D01*
X129365Y77976D01*
X129531Y78438D01*
X129740Y78882D01*
X129993Y79303D01*
X130285Y79697D01*
X130614Y80061D01*
X130978Y80390D01*
X131372Y80682D01*
X131793Y80935D01*
X132237Y81144D01*
X132699Y81310D01*
X133175Y81429D01*
X133660Y81501D01*
X134150Y81525D01*
X144150Y81525D01*
X144640Y81501D01*
G37*
G54D14*
X144640Y81501D02*
X145126Y81429D01*
X145601Y81310D01*
X146063Y81144D01*
X146507Y80935D01*
X146928Y80682D01*
X147322Y80390D01*
X147686Y80061D01*
X148015Y79697D01*
X148307Y79303D01*
X148560Y78882D01*
X148769Y78438D01*
X148935Y77976D01*
X149054Y77501D01*
X149126Y77015D01*
X149150Y76525D01*
X149150Y6525D01*
X149126Y6035D01*
X149054Y5549D01*
X148935Y5074D01*
X148769Y4611D01*
X148560Y4168D01*
X148307Y3747D01*
X148015Y3353D01*
X147686Y2989D01*
X147322Y2660D01*
X146928Y2368D01*
X146507Y2115D01*
X146063Y1905D01*
X145601Y1740D01*
X145126Y1621D01*
X144640Y1549D01*
X144150Y1525D01*
X134150Y1525D01*
X133660Y1549D01*
X133175Y1621D01*
X132699Y1740D01*
X132237Y1905D01*
X131793Y2115D01*
X131372Y2368D01*
X130978Y2660D01*
X130614Y2989D01*
X130285Y3353D01*
X129993Y3747D01*
X129740Y4168D01*
X129531Y4611D01*
X129365Y5074D01*
X129246Y5549D01*
X129174Y6035D01*
X129150Y6525D01*
X129150Y76525D01*
X129174Y77015D01*
X129246Y77501D01*
X129365Y77976D01*
X129531Y78438D01*
X129740Y78882D01*
X129993Y79303D01*
X130285Y79697D01*
X130614Y80061D01*
X130978Y80390D01*
X131372Y80682D01*
X131793Y80935D01*
X132237Y81144D01*
X132699Y81310D01*
X133175Y81429D01*
X133660Y81501D01*
X134150Y81525D01*
X144150Y81525D01*
X144640Y81501D01*
G36*
X169640Y81501D02*
X170126Y81429D01*
X170601Y81310D01*
X171063Y81144D01*
X171507Y80935D01*
X171928Y80682D01*
X172322Y80390D01*
X172686Y80061D01*
X173015Y79697D01*
X173307Y79303D01*
X173560Y78882D01*
X173769Y78438D01*
X173935Y77976D01*
X174054Y77501D01*
X174126Y77015D01*
X174150Y76525D01*
X174150Y6525D01*
X174126Y6035D01*
X174054Y5549D01*
X173935Y5074D01*
X173769Y4611D01*
X173560Y4168D01*
X173307Y3747D01*
X173015Y3353D01*
X172686Y2989D01*
X172322Y2660D01*
X171928Y2368D01*
X171507Y2115D01*
X171063Y1905D01*
X170601Y1740D01*
X170126Y1621D01*
X169640Y1549D01*
X169150Y1525D01*
X159150Y1525D01*
X158660Y1549D01*
X158175Y1621D01*
X157699Y1740D01*
X157237Y1905D01*
X156793Y2115D01*
X156372Y2368D01*
X155978Y2660D01*
X155614Y2989D01*
X155285Y3353D01*
X154993Y3747D01*
X154740Y4168D01*
X154531Y4611D01*
X154365Y5074D01*
X154246Y5549D01*
X154174Y6035D01*
X154150Y6525D01*
X154150Y76525D01*
X154174Y77015D01*
X154246Y77501D01*
X154365Y77976D01*
X154531Y78438D01*
X154740Y78882D01*
X154993Y79303D01*
X155285Y79697D01*
X155614Y80061D01*
X155978Y80390D01*
X156372Y80682D01*
X156793Y80935D01*
X157237Y81144D01*
X157699Y81310D01*
X158175Y81429D01*
X158660Y81501D01*
X159150Y81525D01*
X169150Y81525D01*
X169640Y81501D01*
G37*
G54D14*
X169640Y81501D02*
X170126Y81429D01*
X170601Y81310D01*
X171063Y81144D01*
X171507Y80935D01*
X171928Y80682D01*
X172322Y80390D01*
X172686Y80061D01*
X173015Y79697D01*
X173307Y79303D01*
X173560Y78882D01*
X173769Y78438D01*
X173935Y77976D01*
X174054Y77501D01*
X174126Y77015D01*
X174150Y76525D01*
X174150Y6525D01*
X174126Y6035D01*
X174054Y5549D01*
X173935Y5074D01*
X173769Y4611D01*
X173560Y4168D01*
X173307Y3747D01*
X173015Y3353D01*
X172686Y2989D01*
X172322Y2660D01*
X171928Y2368D01*
X171507Y2115D01*
X171063Y1905D01*
X170601Y1740D01*
X170126Y1621D01*
X169640Y1549D01*
X169150Y1525D01*
X159150Y1525D01*
X158660Y1549D01*
X158175Y1621D01*
X157699Y1740D01*
X157237Y1905D01*
X156793Y2115D01*
X156372Y2368D01*
X155978Y2660D01*
X155614Y2989D01*
X155285Y3353D01*
X154993Y3747D01*
X154740Y4168D01*
X154531Y4611D01*
X154365Y5074D01*
X154246Y5549D01*
X154174Y6035D01*
X154150Y6525D01*
X154150Y76525D01*
X154174Y77015D01*
X154246Y77501D01*
X154365Y77976D01*
X154531Y78438D01*
X154740Y78882D01*
X154993Y79303D01*
X155285Y79697D01*
X155614Y80061D01*
X155978Y80390D01*
X156372Y80682D01*
X156793Y80935D01*
X157237Y81144D01*
X157699Y81310D01*
X158175Y81429D01*
X158660Y81501D01*
X159150Y81525D01*
X169150Y81525D01*
X169640Y81501D01*
G36*
X194640Y81501D02*
X195126Y81429D01*
X195601Y81310D01*
X196063Y81144D01*
X196507Y80935D01*
X196928Y80682D01*
X197322Y80390D01*
X197686Y80061D01*
X198015Y79697D01*
X198307Y79303D01*
X198560Y78882D01*
X198769Y78438D01*
X198935Y77976D01*
X199054Y77501D01*
X199126Y77015D01*
X199150Y76525D01*
X199150Y6525D01*
X199126Y6035D01*
X199054Y5549D01*
X198935Y5074D01*
X198769Y4611D01*
X198560Y4168D01*
X198307Y3747D01*
X198015Y3353D01*
X197686Y2989D01*
X197322Y2660D01*
X196928Y2368D01*
X196507Y2115D01*
X196063Y1905D01*
X195601Y1740D01*
X195126Y1621D01*
X194640Y1549D01*
X194150Y1525D01*
X184150Y1525D01*
X183660Y1549D01*
X183175Y1621D01*
X182699Y1740D01*
X182237Y1905D01*
X181793Y2115D01*
X181372Y2368D01*
X180978Y2660D01*
X180614Y2989D01*
X180285Y3353D01*
X179993Y3747D01*
X179740Y4168D01*
X179531Y4611D01*
X179365Y5074D01*
X179246Y5549D01*
X179174Y6035D01*
X179150Y6525D01*
X179150Y76525D01*
X179174Y77015D01*
X179246Y77501D01*
X179365Y77976D01*
X179531Y78438D01*
X179740Y78882D01*
X179993Y79303D01*
X180285Y79697D01*
X180614Y80061D01*
X180978Y80390D01*
X181372Y80682D01*
X181793Y80935D01*
X182237Y81144D01*
X182699Y81310D01*
X183175Y81429D01*
X183660Y81501D01*
X184150Y81525D01*
X194150Y81525D01*
X194640Y81501D01*
G37*
G54D14*
X194640Y81501D02*
X195126Y81429D01*
X195601Y81310D01*
X196063Y81144D01*
X196507Y80935D01*
X196928Y80682D01*
X197322Y80390D01*
X197686Y80061D01*
X198015Y79697D01*
X198307Y79303D01*
X198560Y78882D01*
X198769Y78438D01*
X198935Y77976D01*
X199054Y77501D01*
X199126Y77015D01*
X199150Y76525D01*
X199150Y6525D01*
X199126Y6035D01*
X199054Y5549D01*
X198935Y5074D01*
X198769Y4611D01*
X198560Y4168D01*
X198307Y3747D01*
X198015Y3353D01*
X197686Y2989D01*
X197322Y2660D01*
X196928Y2368D01*
X196507Y2115D01*
X196063Y1905D01*
X195601Y1740D01*
X195126Y1621D01*
X194640Y1549D01*
X194150Y1525D01*
X184150Y1525D01*
X183660Y1549D01*
X183175Y1621D01*
X182699Y1740D01*
X182237Y1905D01*
X181793Y2115D01*
X181372Y2368D01*
X180978Y2660D01*
X180614Y2989D01*
X180285Y3353D01*
X179993Y3747D01*
X179740Y4168D01*
X179531Y4611D01*
X179365Y5074D01*
X179246Y5549D01*
X179174Y6035D01*
X179150Y6525D01*
X179150Y76525D01*
X179174Y77015D01*
X179246Y77501D01*
X179365Y77976D01*
X179531Y78438D01*
X179740Y78882D01*
X179993Y79303D01*
X180285Y79697D01*
X180614Y80061D01*
X180978Y80390D01*
X181372Y80682D01*
X181793Y80935D01*
X182237Y81144D01*
X182699Y81310D01*
X183175Y81429D01*
X183660Y81501D01*
X184150Y81525D01*
X194150Y81525D01*
X194640Y81501D01*
G36*
X219640Y81501D02*
X220126Y81429D01*
X220601Y81310D01*
X221063Y81144D01*
X221507Y80935D01*
X221928Y80682D01*
X222322Y80390D01*
X222686Y80061D01*
X223015Y79697D01*
X223307Y79303D01*
X223560Y78882D01*
X223769Y78438D01*
X223935Y77976D01*
X224054Y77501D01*
X224126Y77015D01*
X224150Y76525D01*
X224150Y6525D01*
X224126Y6035D01*
X224054Y5549D01*
X223935Y5074D01*
X223769Y4611D01*
X223560Y4168D01*
X223307Y3747D01*
X223015Y3353D01*
X222686Y2989D01*
X222322Y2660D01*
X221928Y2368D01*
X221507Y2115D01*
X221063Y1905D01*
X220601Y1740D01*
X220126Y1621D01*
X219640Y1549D01*
X219150Y1525D01*
X209150Y1525D01*
X208660Y1549D01*
X208175Y1621D01*
X207699Y1740D01*
X207237Y1905D01*
X206793Y2115D01*
X206372Y2368D01*
X205978Y2660D01*
X205614Y2989D01*
X205285Y3353D01*
X204993Y3747D01*
X204740Y4168D01*
X204531Y4611D01*
X204365Y5074D01*
X204246Y5549D01*
X204174Y6035D01*
X204150Y6525D01*
X204150Y76525D01*
X204174Y77015D01*
X204246Y77501D01*
X204365Y77976D01*
X204531Y78438D01*
X204740Y78882D01*
X204993Y79303D01*
X205285Y79697D01*
X205614Y80061D01*
X205978Y80390D01*
X206372Y80682D01*
X206793Y80935D01*
X207237Y81144D01*
X207699Y81310D01*
X208175Y81429D01*
X208660Y81501D01*
X209150Y81525D01*
X219150Y81525D01*
X219640Y81501D01*
G37*
G54D14*
X219640Y81501D02*
X220126Y81429D01*
X220601Y81310D01*
X221063Y81144D01*
X221507Y80935D01*
X221928Y80682D01*
X222322Y80390D01*
X222686Y80061D01*
X223015Y79697D01*
X223307Y79303D01*
X223560Y78882D01*
X223769Y78438D01*
X223935Y77976D01*
X224054Y77501D01*
X224126Y77015D01*
X224150Y76525D01*
X224150Y6525D01*
X224126Y6035D01*
X224054Y5549D01*
X223935Y5074D01*
X223769Y4611D01*
X223560Y4168D01*
X223307Y3747D01*
X223015Y3353D01*
X222686Y2989D01*
X222322Y2660D01*
X221928Y2368D01*
X221507Y2115D01*
X221063Y1905D01*
X220601Y1740D01*
X220126Y1621D01*
X219640Y1549D01*
X219150Y1525D01*
X209150Y1525D01*
X208660Y1549D01*
X208175Y1621D01*
X207699Y1740D01*
X207237Y1905D01*
X206793Y2115D01*
X206372Y2368D01*
X205978Y2660D01*
X205614Y2989D01*
X205285Y3353D01*
X204993Y3747D01*
X204740Y4168D01*
X204531Y4611D01*
X204365Y5074D01*
X204246Y5549D01*
X204174Y6035D01*
X204150Y6525D01*
X204150Y76525D01*
X204174Y77015D01*
X204246Y77501D01*
X204365Y77976D01*
X204531Y78438D01*
X204740Y78882D01*
X204993Y79303D01*
X205285Y79697D01*
X205614Y80061D01*
X205978Y80390D01*
X206372Y80682D01*
X206793Y80935D01*
X207237Y81144D01*
X207699Y81310D01*
X208175Y81429D01*
X208660Y81501D01*
X209150Y81525D01*
X219150Y81525D01*
X219640Y81501D01*
G36*
X244640Y81501D02*
X245126Y81429D01*
X245601Y81310D01*
X246063Y81144D01*
X246507Y80935D01*
X246928Y80682D01*
X247322Y80390D01*
X247686Y80061D01*
X248015Y79697D01*
X248307Y79303D01*
X248560Y78882D01*
X248769Y78438D01*
X248935Y77976D01*
X249054Y77501D01*
X249126Y77015D01*
X249150Y76525D01*
X249150Y6525D01*
X249126Y6035D01*
X249054Y5549D01*
X248935Y5074D01*
X248769Y4611D01*
X248560Y4168D01*
X248307Y3747D01*
X248015Y3353D01*
X247686Y2989D01*
X247322Y2660D01*
X246928Y2368D01*
X246507Y2115D01*
X246063Y1905D01*
X245601Y1740D01*
X245126Y1621D01*
X244640Y1549D01*
X244150Y1525D01*
X234150Y1525D01*
X233660Y1549D01*
X233175Y1621D01*
X232699Y1740D01*
X232237Y1905D01*
X231793Y2115D01*
X231372Y2368D01*
X230978Y2660D01*
X230614Y2989D01*
X230285Y3353D01*
X229993Y3747D01*
X229740Y4168D01*
X229531Y4611D01*
X229365Y5074D01*
X229246Y5549D01*
X229174Y6035D01*
X229150Y6525D01*
X229150Y76525D01*
X229174Y77015D01*
X229246Y77501D01*
X229365Y77976D01*
X229531Y78438D01*
X229740Y78882D01*
X229993Y79303D01*
X230285Y79697D01*
X230614Y80061D01*
X230978Y80390D01*
X231372Y80682D01*
X231793Y80935D01*
X232237Y81144D01*
X232699Y81310D01*
X233175Y81429D01*
X233660Y81501D01*
X234150Y81525D01*
X244150Y81525D01*
X244640Y81501D01*
G37*
G54D14*
X244640Y81501D02*
X245126Y81429D01*
X245601Y81310D01*
X246063Y81144D01*
X246507Y80935D01*
X246928Y80682D01*
X247322Y80390D01*
X247686Y80061D01*
X248015Y79697D01*
X248307Y79303D01*
X248560Y78882D01*
X248769Y78438D01*
X248935Y77976D01*
X249054Y77501D01*
X249126Y77015D01*
X249150Y76525D01*
X249150Y6525D01*
X249126Y6035D01*
X249054Y5549D01*
X248935Y5074D01*
X248769Y4611D01*
X248560Y4168D01*
X248307Y3747D01*
X248015Y3353D01*
X247686Y2989D01*
X247322Y2660D01*
X246928Y2368D01*
X246507Y2115D01*
X246063Y1905D01*
X245601Y1740D01*
X245126Y1621D01*
X244640Y1549D01*
X244150Y1525D01*
X234150Y1525D01*
X233660Y1549D01*
X233175Y1621D01*
X232699Y1740D01*
X232237Y1905D01*
X231793Y2115D01*
X231372Y2368D01*
X230978Y2660D01*
X230614Y2989D01*
X230285Y3353D01*
X229993Y3747D01*
X229740Y4168D01*
X229531Y4611D01*
X229365Y5074D01*
X229246Y5549D01*
X229174Y6035D01*
X229150Y6525D01*
X229150Y76525D01*
X229174Y77015D01*
X229246Y77501D01*
X229365Y77976D01*
X229531Y78438D01*
X229740Y78882D01*
X229993Y79303D01*
X230285Y79697D01*
X230614Y80061D01*
X230978Y80390D01*
X231372Y80682D01*
X231793Y80935D01*
X232237Y81144D01*
X232699Y81310D01*
X233175Y81429D01*
X233660Y81501D01*
X234150Y81525D01*
X244150Y81525D01*
X244640Y81501D01*
G36*
X269640Y81501D02*
X270126Y81429D01*
X270601Y81310D01*
X271063Y81144D01*
X271507Y80935D01*
X271928Y80682D01*
X272322Y80390D01*
X272686Y80061D01*
X273015Y79697D01*
X273307Y79303D01*
X273560Y78882D01*
X273769Y78438D01*
X273935Y77976D01*
X274054Y77501D01*
X274126Y77015D01*
X274150Y76525D01*
X274150Y6525D01*
X274126Y6035D01*
X274054Y5549D01*
X273935Y5074D01*
X273769Y4611D01*
X273560Y4168D01*
X273307Y3747D01*
X273015Y3353D01*
X272686Y2989D01*
X272322Y2660D01*
X271928Y2368D01*
X271507Y2115D01*
X271063Y1905D01*
X270601Y1740D01*
X270126Y1621D01*
X269640Y1549D01*
X269150Y1525D01*
X259150Y1525D01*
X258660Y1549D01*
X258175Y1621D01*
X257699Y1740D01*
X257237Y1905D01*
X256793Y2115D01*
X256372Y2368D01*
X255978Y2660D01*
X255614Y2989D01*
X255285Y3353D01*
X254993Y3747D01*
X254740Y4168D01*
X254531Y4611D01*
X254365Y5074D01*
X254246Y5549D01*
X254174Y6035D01*
X254150Y6525D01*
X254150Y76525D01*
X254174Y77015D01*
X254246Y77501D01*
X254365Y77976D01*
X254531Y78438D01*
X254740Y78882D01*
X254993Y79303D01*
X255285Y79697D01*
X255614Y80061D01*
X255978Y80390D01*
X256372Y80682D01*
X256793Y80935D01*
X257237Y81144D01*
X257699Y81310D01*
X258175Y81429D01*
X258660Y81501D01*
X259150Y81525D01*
X269150Y81525D01*
X269640Y81501D01*
G37*
G54D14*
X269640Y81501D02*
X270126Y81429D01*
X270601Y81310D01*
X271063Y81144D01*
X271507Y80935D01*
X271928Y80682D01*
X272322Y80390D01*
X272686Y80061D01*
X273015Y79697D01*
X273307Y79303D01*
X273560Y78882D01*
X273769Y78438D01*
X273935Y77976D01*
X274054Y77501D01*
X274126Y77015D01*
X274150Y76525D01*
X274150Y6525D01*
X274126Y6035D01*
X274054Y5549D01*
X273935Y5074D01*
X273769Y4611D01*
X273560Y4168D01*
X273307Y3747D01*
X273015Y3353D01*
X272686Y2989D01*
X272322Y2660D01*
X271928Y2368D01*
X271507Y2115D01*
X271063Y1905D01*
X270601Y1740D01*
X270126Y1621D01*
X269640Y1549D01*
X269150Y1525D01*
X259150Y1525D01*
X258660Y1549D01*
X258175Y1621D01*
X257699Y1740D01*
X257237Y1905D01*
X256793Y2115D01*
X256372Y2368D01*
X255978Y2660D01*
X255614Y2989D01*
X255285Y3353D01*
X254993Y3747D01*
X254740Y4168D01*
X254531Y4611D01*
X254365Y5074D01*
X254246Y5549D01*
X254174Y6035D01*
X254150Y6525D01*
X254150Y76525D01*
X254174Y77015D01*
X254246Y77501D01*
X254365Y77976D01*
X254531Y78438D01*
X254740Y78882D01*
X254993Y79303D01*
X255285Y79697D01*
X255614Y80061D01*
X255978Y80390D01*
X256372Y80682D01*
X256793Y80935D01*
X257237Y81144D01*
X257699Y81310D01*
X258175Y81429D01*
X258660Y81501D01*
X259150Y81525D01*
X269150Y81525D01*
X269640Y81501D01*
G36*
X294640Y81501D02*
X295126Y81429D01*
X295601Y81310D01*
X296063Y81144D01*
X296507Y80935D01*
X296928Y80682D01*
X297322Y80390D01*
X297686Y80061D01*
X298015Y79697D01*
X298307Y79303D01*
X298560Y78882D01*
X298769Y78438D01*
X298935Y77976D01*
X299054Y77501D01*
X299126Y77015D01*
X299150Y76525D01*
X299150Y6525D01*
X299126Y6035D01*
X299054Y5549D01*
X298935Y5074D01*
X298769Y4611D01*
X298560Y4168D01*
X298307Y3747D01*
X298015Y3353D01*
X297686Y2989D01*
X297322Y2660D01*
X296928Y2368D01*
X296507Y2115D01*
X296063Y1905D01*
X295601Y1740D01*
X295126Y1621D01*
X294640Y1549D01*
X294150Y1525D01*
X284150Y1525D01*
X283660Y1549D01*
X283175Y1621D01*
X282699Y1740D01*
X282237Y1905D01*
X281793Y2115D01*
X281372Y2368D01*
X280978Y2660D01*
X280614Y2989D01*
X280285Y3353D01*
X279993Y3747D01*
X279740Y4168D01*
X279531Y4611D01*
X279365Y5074D01*
X279246Y5549D01*
X279174Y6035D01*
X279150Y6525D01*
X279150Y76525D01*
X279174Y77015D01*
X279246Y77501D01*
X279365Y77976D01*
X279531Y78438D01*
X279740Y78882D01*
X279993Y79303D01*
X280285Y79697D01*
X280614Y80061D01*
X280978Y80390D01*
X281372Y80682D01*
X281793Y80935D01*
X282237Y81144D01*
X282699Y81310D01*
X283175Y81429D01*
X283660Y81501D01*
X284150Y81525D01*
X294150Y81525D01*
X294640Y81501D01*
G37*
G54D14*
X294640Y81501D02*
X295126Y81429D01*
X295601Y81310D01*
X296063Y81144D01*
X296507Y80935D01*
X296928Y80682D01*
X297322Y80390D01*
X297686Y80061D01*
X298015Y79697D01*
X298307Y79303D01*
X298560Y78882D01*
X298769Y78438D01*
X298935Y77976D01*
X299054Y77501D01*
X299126Y77015D01*
X299150Y76525D01*
X299150Y6525D01*
X299126Y6035D01*
X299054Y5549D01*
X298935Y5074D01*
X298769Y4611D01*
X298560Y4168D01*
X298307Y3747D01*
X298015Y3353D01*
X297686Y2989D01*
X297322Y2660D01*
X296928Y2368D01*
X296507Y2115D01*
X296063Y1905D01*
X295601Y1740D01*
X295126Y1621D01*
X294640Y1549D01*
X294150Y1525D01*
X284150Y1525D01*
X283660Y1549D01*
X283175Y1621D01*
X282699Y1740D01*
X282237Y1905D01*
X281793Y2115D01*
X281372Y2368D01*
X280978Y2660D01*
X280614Y2989D01*
X280285Y3353D01*
X279993Y3747D01*
X279740Y4168D01*
X279531Y4611D01*
X279365Y5074D01*
X279246Y5549D01*
X279174Y6035D01*
X279150Y6525D01*
X279150Y76525D01*
X279174Y77015D01*
X279246Y77501D01*
X279365Y77976D01*
X279531Y78438D01*
X279740Y78882D01*
X279993Y79303D01*
X280285Y79697D01*
X280614Y80061D01*
X280978Y80390D01*
X281372Y80682D01*
X281793Y80935D01*
X282237Y81144D01*
X282699Y81310D01*
X283175Y81429D01*
X283660Y81501D01*
X284150Y81525D01*
X294150Y81525D01*
X294640Y81501D01*
G36*
X319640Y81501D02*
X320126Y81429D01*
X320601Y81310D01*
X321063Y81144D01*
X321507Y80935D01*
X321928Y80682D01*
X322322Y80390D01*
X322686Y80061D01*
X323015Y79697D01*
X323307Y79303D01*
X323560Y78882D01*
X323769Y78438D01*
X323935Y77976D01*
X324054Y77501D01*
X324126Y77015D01*
X324150Y76525D01*
X324150Y6525D01*
X324126Y6035D01*
X324054Y5549D01*
X323935Y5074D01*
X323769Y4611D01*
X323560Y4168D01*
X323307Y3747D01*
X323015Y3353D01*
X322686Y2989D01*
X322322Y2660D01*
X321928Y2368D01*
X321507Y2115D01*
X321063Y1905D01*
X320601Y1740D01*
X320126Y1621D01*
X319640Y1549D01*
X319150Y1525D01*
X309150Y1525D01*
X308660Y1549D01*
X308175Y1621D01*
X307699Y1740D01*
X307237Y1905D01*
X306793Y2115D01*
X306372Y2368D01*
X305978Y2660D01*
X305614Y2989D01*
X305285Y3353D01*
X304993Y3747D01*
X304740Y4168D01*
X304531Y4611D01*
X304365Y5074D01*
X304246Y5549D01*
X304174Y6035D01*
X304150Y6525D01*
X304150Y76525D01*
X304174Y77015D01*
X304246Y77501D01*
X304365Y77976D01*
X304531Y78438D01*
X304740Y78882D01*
X304993Y79303D01*
X305285Y79697D01*
X305614Y80061D01*
X305978Y80390D01*
X306372Y80682D01*
X306793Y80935D01*
X307237Y81144D01*
X307699Y81310D01*
X308175Y81429D01*
X308660Y81501D01*
X309150Y81525D01*
X319150Y81525D01*
X319640Y81501D01*
G37*
G54D14*
X319640Y81501D02*
X320126Y81429D01*
X320601Y81310D01*
X321063Y81144D01*
X321507Y80935D01*
X321928Y80682D01*
X322322Y80390D01*
X322686Y80061D01*
X323015Y79697D01*
X323307Y79303D01*
X323560Y78882D01*
X323769Y78438D01*
X323935Y77976D01*
X324054Y77501D01*
X324126Y77015D01*
X324150Y76525D01*
X324150Y6525D01*
X324126Y6035D01*
X324054Y5549D01*
X323935Y5074D01*
X323769Y4611D01*
X323560Y4168D01*
X323307Y3747D01*
X323015Y3353D01*
X322686Y2989D01*
X322322Y2660D01*
X321928Y2368D01*
X321507Y2115D01*
X321063Y1905D01*
X320601Y1740D01*
X320126Y1621D01*
X319640Y1549D01*
X319150Y1525D01*
X309150Y1525D01*
X308660Y1549D01*
X308175Y1621D01*
X307699Y1740D01*
X307237Y1905D01*
X306793Y2115D01*
X306372Y2368D01*
X305978Y2660D01*
X305614Y2989D01*
X305285Y3353D01*
X304993Y3747D01*
X304740Y4168D01*
X304531Y4611D01*
X304365Y5074D01*
X304246Y5549D01*
X304174Y6035D01*
X304150Y6525D01*
X304150Y76525D01*
X304174Y77015D01*
X304246Y77501D01*
X304365Y77976D01*
X304531Y78438D01*
X304740Y78882D01*
X304993Y79303D01*
X305285Y79697D01*
X305614Y80061D01*
X305978Y80390D01*
X306372Y80682D01*
X306793Y80935D01*
X307237Y81144D01*
X307699Y81310D01*
X308175Y81429D01*
X308660Y81501D01*
X309150Y81525D01*
X319150Y81525D01*
X319640Y81501D01*
G36*
X344640Y81501D02*
X345126Y81429D01*
X345601Y81310D01*
X346063Y81144D01*
X346507Y80935D01*
X346928Y80682D01*
X347322Y80390D01*
X347686Y80061D01*
X348015Y79697D01*
X348307Y79303D01*
X348560Y78882D01*
X348769Y78438D01*
X348935Y77976D01*
X349054Y77501D01*
X349126Y77015D01*
X349150Y76525D01*
X349150Y6525D01*
X349126Y6035D01*
X349054Y5549D01*
X348935Y5074D01*
X348769Y4611D01*
X348560Y4168D01*
X348307Y3747D01*
X348015Y3353D01*
X347686Y2989D01*
X347322Y2660D01*
X346928Y2368D01*
X346507Y2115D01*
X346063Y1905D01*
X345601Y1740D01*
X345126Y1621D01*
X344640Y1549D01*
X344150Y1525D01*
X334150Y1525D01*
X333660Y1549D01*
X333175Y1621D01*
X332699Y1740D01*
X332237Y1905D01*
X331793Y2115D01*
X331372Y2368D01*
X330978Y2660D01*
X330614Y2989D01*
X330285Y3353D01*
X329993Y3747D01*
X329740Y4168D01*
X329531Y4611D01*
X329365Y5074D01*
X329246Y5549D01*
X329174Y6035D01*
X329150Y6525D01*
X329150Y76525D01*
X329174Y77015D01*
X329246Y77501D01*
X329365Y77976D01*
X329531Y78438D01*
X329740Y78882D01*
X329993Y79303D01*
X330285Y79697D01*
X330614Y80061D01*
X330978Y80390D01*
X331372Y80682D01*
X331793Y80935D01*
X332237Y81144D01*
X332699Y81310D01*
X333175Y81429D01*
X333660Y81501D01*
X334150Y81525D01*
X344150Y81525D01*
X344640Y81501D01*
G37*
G54D14*
X344640Y81501D02*
X345126Y81429D01*
X345601Y81310D01*
X346063Y81144D01*
X346507Y80935D01*
X346928Y80682D01*
X347322Y80390D01*
X347686Y80061D01*
X348015Y79697D01*
X348307Y79303D01*
X348560Y78882D01*
X348769Y78438D01*
X348935Y77976D01*
X349054Y77501D01*
X349126Y77015D01*
X349150Y76525D01*
X349150Y6525D01*
X349126Y6035D01*
X349054Y5549D01*
X348935Y5074D01*
X348769Y4611D01*
X348560Y4168D01*
X348307Y3747D01*
X348015Y3353D01*
X347686Y2989D01*
X347322Y2660D01*
X346928Y2368D01*
X346507Y2115D01*
X346063Y1905D01*
X345601Y1740D01*
X345126Y1621D01*
X344640Y1549D01*
X344150Y1525D01*
X334150Y1525D01*
X333660Y1549D01*
X333175Y1621D01*
X332699Y1740D01*
X332237Y1905D01*
X331793Y2115D01*
X331372Y2368D01*
X330978Y2660D01*
X330614Y2989D01*
X330285Y3353D01*
X329993Y3747D01*
X329740Y4168D01*
X329531Y4611D01*
X329365Y5074D01*
X329246Y5549D01*
X329174Y6035D01*
X329150Y6525D01*
X329150Y76525D01*
X329174Y77015D01*
X329246Y77501D01*
X329365Y77976D01*
X329531Y78438D01*
X329740Y78882D01*
X329993Y79303D01*
X330285Y79697D01*
X330614Y80061D01*
X330978Y80390D01*
X331372Y80682D01*
X331793Y80935D01*
X332237Y81144D01*
X332699Y81310D01*
X333175Y81429D01*
X333660Y81501D01*
X334150Y81525D01*
X344150Y81525D01*
X344640Y81501D01*
G36*
X369640Y81501D02*
X370126Y81429D01*
X370601Y81310D01*
X371063Y81144D01*
X371507Y80935D01*
X371928Y80682D01*
X372322Y80390D01*
X372686Y80061D01*
X373015Y79697D01*
X373307Y79303D01*
X373560Y78882D01*
X373769Y78438D01*
X373935Y77976D01*
X374054Y77501D01*
X374126Y77015D01*
X374150Y76525D01*
X374150Y6525D01*
X374126Y6035D01*
X374054Y5549D01*
X373935Y5074D01*
X373769Y4611D01*
X373560Y4168D01*
X373307Y3747D01*
X373015Y3353D01*
X372686Y2989D01*
X372322Y2660D01*
X371928Y2368D01*
X371507Y2115D01*
X371063Y1905D01*
X370601Y1740D01*
X370126Y1621D01*
X369640Y1549D01*
X369150Y1525D01*
X359150Y1525D01*
X358660Y1549D01*
X358175Y1621D01*
X357699Y1740D01*
X357237Y1905D01*
X356793Y2115D01*
X356372Y2368D01*
X355978Y2660D01*
X355614Y2989D01*
X355285Y3353D01*
X354993Y3747D01*
X354740Y4168D01*
X354531Y4611D01*
X354365Y5074D01*
X354246Y5549D01*
X354174Y6035D01*
X354150Y6525D01*
X354150Y76525D01*
X354174Y77015D01*
X354246Y77501D01*
X354365Y77976D01*
X354531Y78438D01*
X354740Y78882D01*
X354993Y79303D01*
X355285Y79697D01*
X355614Y80061D01*
X355978Y80390D01*
X356372Y80682D01*
X356793Y80935D01*
X357237Y81144D01*
X357699Y81310D01*
X358175Y81429D01*
X358660Y81501D01*
X359150Y81525D01*
X369150Y81525D01*
X369640Y81501D01*
G37*
G54D14*
X369640Y81501D02*
X370126Y81429D01*
X370601Y81310D01*
X371063Y81144D01*
X371507Y80935D01*
X371928Y80682D01*
X372322Y80390D01*
X372686Y80061D01*
X373015Y79697D01*
X373307Y79303D01*
X373560Y78882D01*
X373769Y78438D01*
X373935Y77976D01*
X374054Y77501D01*
X374126Y77015D01*
X374150Y76525D01*
X374150Y6525D01*
X374126Y6035D01*
X374054Y5549D01*
X373935Y5074D01*
X373769Y4611D01*
X373560Y4168D01*
X373307Y3747D01*
X373015Y3353D01*
X372686Y2989D01*
X372322Y2660D01*
X371928Y2368D01*
X371507Y2115D01*
X371063Y1905D01*
X370601Y1740D01*
X370126Y1621D01*
X369640Y1549D01*
X369150Y1525D01*
X359150Y1525D01*
X358660Y1549D01*
X358175Y1621D01*
X357699Y1740D01*
X357237Y1905D01*
X356793Y2115D01*
X356372Y2368D01*
X355978Y2660D01*
X355614Y2989D01*
X355285Y3353D01*
X354993Y3747D01*
X354740Y4168D01*
X354531Y4611D01*
X354365Y5074D01*
X354246Y5549D01*
X354174Y6035D01*
X354150Y6525D01*
X354150Y76525D01*
X354174Y77015D01*
X354246Y77501D01*
X354365Y77976D01*
X354531Y78438D01*
X354740Y78882D01*
X354993Y79303D01*
X355285Y79697D01*
X355614Y80061D01*
X355978Y80390D01*
X356372Y80682D01*
X356793Y80935D01*
X357237Y81144D01*
X357699Y81310D01*
X358175Y81429D01*
X358660Y81501D01*
X359150Y81525D01*
X369150Y81525D01*
X369640Y81501D01*
G36*
X394640Y81501D02*
X395126Y81429D01*
X395601Y81310D01*
X396063Y81144D01*
X396507Y80935D01*
X396928Y80682D01*
X397322Y80390D01*
X397686Y80061D01*
X398015Y79697D01*
X398307Y79303D01*
X398560Y78882D01*
X398769Y78438D01*
X398935Y77976D01*
X399054Y77501D01*
X399126Y77015D01*
X399150Y76525D01*
X399150Y6525D01*
X399126Y6035D01*
X399054Y5549D01*
X398935Y5074D01*
X398769Y4611D01*
X398560Y4168D01*
X398307Y3747D01*
X398015Y3353D01*
X397686Y2989D01*
X397322Y2660D01*
X396928Y2368D01*
X396507Y2115D01*
X396063Y1905D01*
X395601Y1740D01*
X395126Y1621D01*
X394640Y1549D01*
X394150Y1525D01*
X384150Y1525D01*
X383660Y1549D01*
X383175Y1621D01*
X382699Y1740D01*
X382237Y1905D01*
X381793Y2115D01*
X381372Y2368D01*
X380978Y2660D01*
X380614Y2989D01*
X380285Y3353D01*
X379993Y3747D01*
X379740Y4168D01*
X379531Y4611D01*
X379365Y5074D01*
X379246Y5549D01*
X379174Y6035D01*
X379150Y6525D01*
X379150Y76525D01*
X379174Y77015D01*
X379246Y77501D01*
X379365Y77976D01*
X379531Y78438D01*
X379740Y78882D01*
X379993Y79303D01*
X380285Y79697D01*
X380614Y80061D01*
X380978Y80390D01*
X381372Y80682D01*
X381793Y80935D01*
X382237Y81144D01*
X382699Y81310D01*
X383175Y81429D01*
X383660Y81501D01*
X384150Y81525D01*
X394150Y81525D01*
X394640Y81501D01*
G37*
G54D14*
X394640Y81501D02*
X395126Y81429D01*
X395601Y81310D01*
X396063Y81144D01*
X396507Y80935D01*
X396928Y80682D01*
X397322Y80390D01*
X397686Y80061D01*
X398015Y79697D01*
X398307Y79303D01*
X398560Y78882D01*
X398769Y78438D01*
X398935Y77976D01*
X399054Y77501D01*
X399126Y77015D01*
X399150Y76525D01*
X399150Y6525D01*
X399126Y6035D01*
X399054Y5549D01*
X398935Y5074D01*
X398769Y4611D01*
X398560Y4168D01*
X398307Y3747D01*
X398015Y3353D01*
X397686Y2989D01*
X397322Y2660D01*
X396928Y2368D01*
X396507Y2115D01*
X396063Y1905D01*
X395601Y1740D01*
X395126Y1621D01*
X394640Y1549D01*
X394150Y1525D01*
X384150Y1525D01*
X383660Y1549D01*
X383175Y1621D01*
X382699Y1740D01*
X382237Y1905D01*
X381793Y2115D01*
X381372Y2368D01*
X380978Y2660D01*
X380614Y2989D01*
X380285Y3353D01*
X379993Y3747D01*
X379740Y4168D01*
X379531Y4611D01*
X379365Y5074D01*
X379246Y5549D01*
X379174Y6035D01*
X379150Y6525D01*
X379150Y76525D01*
X379174Y77015D01*
X379246Y77501D01*
X379365Y77976D01*
X379531Y78438D01*
X379740Y78882D01*
X379993Y79303D01*
X380285Y79697D01*
X380614Y80061D01*
X380978Y80390D01*
X381372Y80682D01*
X381793Y80935D01*
X382237Y81144D01*
X382699Y81310D01*
X383175Y81429D01*
X383660Y81501D01*
X384150Y81525D01*
X394150Y81525D01*
X394640Y81501D01*
G36*
X419640Y81501D02*
X420126Y81429D01*
X420601Y81310D01*
X421063Y81144D01*
X421507Y80935D01*
X421928Y80682D01*
X422322Y80390D01*
X422686Y80061D01*
X423015Y79697D01*
X423307Y79303D01*
X423560Y78882D01*
X423769Y78438D01*
X423935Y77976D01*
X424054Y77501D01*
X424126Y77015D01*
X424150Y76525D01*
X424150Y6525D01*
X424126Y6035D01*
X424054Y5549D01*
X423935Y5074D01*
X423769Y4611D01*
X423560Y4168D01*
X423307Y3747D01*
X423015Y3353D01*
X422686Y2989D01*
X422322Y2660D01*
X421928Y2368D01*
X421507Y2115D01*
X421063Y1905D01*
X420601Y1740D01*
X420126Y1621D01*
X419640Y1549D01*
X419150Y1525D01*
X409150Y1525D01*
X408660Y1549D01*
X408175Y1621D01*
X407699Y1740D01*
X407237Y1905D01*
X406793Y2115D01*
X406372Y2368D01*
X405978Y2660D01*
X405614Y2989D01*
X405285Y3353D01*
X404993Y3747D01*
X404740Y4168D01*
X404531Y4611D01*
X404365Y5074D01*
X404246Y5549D01*
X404174Y6035D01*
X404150Y6525D01*
X404150Y76525D01*
X404174Y77015D01*
X404246Y77501D01*
X404365Y77976D01*
X404531Y78438D01*
X404740Y78882D01*
X404993Y79303D01*
X405285Y79697D01*
X405614Y80061D01*
X405978Y80390D01*
X406372Y80682D01*
X406793Y80935D01*
X407237Y81144D01*
X407699Y81310D01*
X408175Y81429D01*
X408660Y81501D01*
X409150Y81525D01*
X419150Y81525D01*
X419640Y81501D01*
G37*
G54D14*
X419640Y81501D02*
X420126Y81429D01*
X420601Y81310D01*
X421063Y81144D01*
X421507Y80935D01*
X421928Y80682D01*
X422322Y80390D01*
X422686Y80061D01*
X423015Y79697D01*
X423307Y79303D01*
X423560Y78882D01*
X423769Y78438D01*
X423935Y77976D01*
X424054Y77501D01*
X424126Y77015D01*
X424150Y76525D01*
X424150Y6525D01*
X424126Y6035D01*
X424054Y5549D01*
X423935Y5074D01*
X423769Y4611D01*
X423560Y4168D01*
X423307Y3747D01*
X423015Y3353D01*
X422686Y2989D01*
X422322Y2660D01*
X421928Y2368D01*
X421507Y2115D01*
X421063Y1905D01*
X420601Y1740D01*
X420126Y1621D01*
X419640Y1549D01*
X419150Y1525D01*
X409150Y1525D01*
X408660Y1549D01*
X408175Y1621D01*
X407699Y1740D01*
X407237Y1905D01*
X406793Y2115D01*
X406372Y2368D01*
X405978Y2660D01*
X405614Y2989D01*
X405285Y3353D01*
X404993Y3747D01*
X404740Y4168D01*
X404531Y4611D01*
X404365Y5074D01*
X404246Y5549D01*
X404174Y6035D01*
X404150Y6525D01*
X404150Y76525D01*
X404174Y77015D01*
X404246Y77501D01*
X404365Y77976D01*
X404531Y78438D01*
X404740Y78882D01*
X404993Y79303D01*
X405285Y79697D01*
X405614Y80061D01*
X405978Y80390D01*
X406372Y80682D01*
X406793Y80935D01*
X407237Y81144D01*
X407699Y81310D01*
X408175Y81429D01*
X408660Y81501D01*
X409150Y81525D01*
X419150Y81525D01*
X419640Y81501D01*
G36*
X444640Y81501D02*
X445126Y81429D01*
X445601Y81310D01*
X446063Y81144D01*
X446507Y80935D01*
X446928Y80682D01*
X447322Y80390D01*
X447686Y80061D01*
X448015Y79697D01*
X448307Y79303D01*
X448560Y78882D01*
X448769Y78438D01*
X448935Y77976D01*
X449054Y77501D01*
X449126Y77015D01*
X449150Y76525D01*
X449150Y6525D01*
X449126Y6035D01*
X449054Y5549D01*
X448935Y5074D01*
X448769Y4611D01*
X448560Y4168D01*
X448307Y3747D01*
X448015Y3353D01*
X447686Y2989D01*
X447322Y2660D01*
X446928Y2368D01*
X446507Y2115D01*
X446063Y1905D01*
X445601Y1740D01*
X445126Y1621D01*
X444640Y1549D01*
X444150Y1525D01*
X434150Y1525D01*
X433660Y1549D01*
X433175Y1621D01*
X432699Y1740D01*
X432237Y1905D01*
X431793Y2115D01*
X431372Y2368D01*
X430978Y2660D01*
X430614Y2989D01*
X430285Y3353D01*
X429993Y3747D01*
X429740Y4168D01*
X429531Y4611D01*
X429365Y5074D01*
X429246Y5549D01*
X429174Y6035D01*
X429150Y6525D01*
X429150Y76525D01*
X429174Y77015D01*
X429246Y77501D01*
X429365Y77976D01*
X429531Y78438D01*
X429740Y78882D01*
X429993Y79303D01*
X430285Y79697D01*
X430614Y80061D01*
X430978Y80390D01*
X431372Y80682D01*
X431793Y80935D01*
X432237Y81144D01*
X432699Y81310D01*
X433175Y81429D01*
X433660Y81501D01*
X434150Y81525D01*
X444150Y81525D01*
X444640Y81501D01*
G37*
G54D14*
X444640Y81501D02*
X445126Y81429D01*
X445601Y81310D01*
X446063Y81144D01*
X446507Y80935D01*
X446928Y80682D01*
X447322Y80390D01*
X447686Y80061D01*
X448015Y79697D01*
X448307Y79303D01*
X448560Y78882D01*
X448769Y78438D01*
X448935Y77976D01*
X449054Y77501D01*
X449126Y77015D01*
X449150Y76525D01*
X449150Y6525D01*
X449126Y6035D01*
X449054Y5549D01*
X448935Y5074D01*
X448769Y4611D01*
X448560Y4168D01*
X448307Y3747D01*
X448015Y3353D01*
X447686Y2989D01*
X447322Y2660D01*
X446928Y2368D01*
X446507Y2115D01*
X446063Y1905D01*
X445601Y1740D01*
X445126Y1621D01*
X444640Y1549D01*
X444150Y1525D01*
X434150Y1525D01*
X433660Y1549D01*
X433175Y1621D01*
X432699Y1740D01*
X432237Y1905D01*
X431793Y2115D01*
X431372Y2368D01*
X430978Y2660D01*
X430614Y2989D01*
X430285Y3353D01*
X429993Y3747D01*
X429740Y4168D01*
X429531Y4611D01*
X429365Y5074D01*
X429246Y5549D01*
X429174Y6035D01*
X429150Y6525D01*
X429150Y76525D01*
X429174Y77015D01*
X429246Y77501D01*
X429365Y77976D01*
X429531Y78438D01*
X429740Y78882D01*
X429993Y79303D01*
X430285Y79697D01*
X430614Y80061D01*
X430978Y80390D01*
X431372Y80682D01*
X431793Y80935D01*
X432237Y81144D01*
X432699Y81310D01*
X433175Y81429D01*
X433660Y81501D01*
X434150Y81525D01*
X444150Y81525D01*
X444640Y81501D01*
G36*
X469640Y81501D02*
X470126Y81429D01*
X470601Y81310D01*
X471063Y81144D01*
X471507Y80935D01*
X471928Y80682D01*
X472322Y80390D01*
X472686Y80061D01*
X473015Y79697D01*
X473307Y79303D01*
X473560Y78882D01*
X473769Y78438D01*
X473935Y77976D01*
X474054Y77501D01*
X474126Y77015D01*
X474150Y76525D01*
X474150Y6525D01*
X474126Y6035D01*
X474054Y5549D01*
X473935Y5074D01*
X473769Y4611D01*
X473560Y4168D01*
X473307Y3747D01*
X473015Y3353D01*
X472686Y2989D01*
X472322Y2660D01*
X471928Y2368D01*
X471507Y2115D01*
X471063Y1905D01*
X470601Y1740D01*
X470126Y1621D01*
X469640Y1549D01*
X469150Y1525D01*
X459150Y1525D01*
X458660Y1549D01*
X458175Y1621D01*
X457699Y1740D01*
X457237Y1905D01*
X456793Y2115D01*
X456372Y2368D01*
X455978Y2660D01*
X455614Y2989D01*
X455285Y3353D01*
X454993Y3747D01*
X454740Y4168D01*
X454531Y4611D01*
X454365Y5074D01*
X454246Y5549D01*
X454174Y6035D01*
X454150Y6525D01*
X454150Y76525D01*
X454174Y77015D01*
X454246Y77501D01*
X454365Y77976D01*
X454531Y78438D01*
X454740Y78882D01*
X454993Y79303D01*
X455285Y79697D01*
X455614Y80061D01*
X455978Y80390D01*
X456372Y80682D01*
X456793Y80935D01*
X457237Y81144D01*
X457699Y81310D01*
X458175Y81429D01*
X458660Y81501D01*
X459150Y81525D01*
X469150Y81525D01*
X469640Y81501D01*
G37*
G54D14*
X469640Y81501D02*
X470126Y81429D01*
X470601Y81310D01*
X471063Y81144D01*
X471507Y80935D01*
X471928Y80682D01*
X472322Y80390D01*
X472686Y80061D01*
X473015Y79697D01*
X473307Y79303D01*
X473560Y78882D01*
X473769Y78438D01*
X473935Y77976D01*
X474054Y77501D01*
X474126Y77015D01*
X474150Y76525D01*
X474150Y6525D01*
X474126Y6035D01*
X474054Y5549D01*
X473935Y5074D01*
X473769Y4611D01*
X473560Y4168D01*
X473307Y3747D01*
X473015Y3353D01*
X472686Y2989D01*
X472322Y2660D01*
X471928Y2368D01*
X471507Y2115D01*
X471063Y1905D01*
X470601Y1740D01*
X470126Y1621D01*
X469640Y1549D01*
X469150Y1525D01*
X459150Y1525D01*
X458660Y1549D01*
X458175Y1621D01*
X457699Y1740D01*
X457237Y1905D01*
X456793Y2115D01*
X456372Y2368D01*
X455978Y2660D01*
X455614Y2989D01*
X455285Y3353D01*
X454993Y3747D01*
X454740Y4168D01*
X454531Y4611D01*
X454365Y5074D01*
X454246Y5549D01*
X454174Y6035D01*
X454150Y6525D01*
X454150Y76525D01*
X454174Y77015D01*
X454246Y77501D01*
X454365Y77976D01*
X454531Y78438D01*
X454740Y78882D01*
X454993Y79303D01*
X455285Y79697D01*
X455614Y80061D01*
X455978Y80390D01*
X456372Y80682D01*
X456793Y80935D01*
X457237Y81144D01*
X457699Y81310D01*
X458175Y81429D01*
X458660Y81501D01*
X459150Y81525D01*
X469150Y81525D01*
X469640Y81501D01*
G36*
X494640Y81501D02*
X495126Y81429D01*
X495601Y81310D01*
X496063Y81144D01*
X496507Y80935D01*
X496928Y80682D01*
X497322Y80390D01*
X497686Y80061D01*
X498015Y79697D01*
X498307Y79303D01*
X498560Y78882D01*
X498769Y78438D01*
X498935Y77976D01*
X499054Y77501D01*
X499126Y77015D01*
X499150Y76525D01*
X499150Y6525D01*
X499126Y6035D01*
X499054Y5549D01*
X498935Y5074D01*
X498769Y4611D01*
X498560Y4168D01*
X498307Y3747D01*
X498015Y3353D01*
X497686Y2989D01*
X497322Y2660D01*
X496928Y2368D01*
X496507Y2115D01*
X496063Y1905D01*
X495601Y1740D01*
X495126Y1621D01*
X494640Y1549D01*
X494150Y1525D01*
X484150Y1525D01*
X483660Y1549D01*
X483175Y1621D01*
X482699Y1740D01*
X482237Y1905D01*
X481793Y2115D01*
X481372Y2368D01*
X480978Y2660D01*
X480614Y2989D01*
X480285Y3353D01*
X479993Y3747D01*
X479740Y4168D01*
X479531Y4611D01*
X479365Y5074D01*
X479246Y5549D01*
X479174Y6035D01*
X479150Y6525D01*
X479150Y76525D01*
X479174Y77015D01*
X479246Y77501D01*
X479365Y77976D01*
X479531Y78438D01*
X479740Y78882D01*
X479993Y79303D01*
X480285Y79697D01*
X480614Y80061D01*
X480978Y80390D01*
X481372Y80682D01*
X481793Y80935D01*
X482237Y81144D01*
X482699Y81310D01*
X483175Y81429D01*
X483660Y81501D01*
X484150Y81525D01*
X494150Y81525D01*
X494640Y81501D01*
G37*
G54D14*
X494640Y81501D02*
X495126Y81429D01*
X495601Y81310D01*
X496063Y81144D01*
X496507Y80935D01*
X496928Y80682D01*
X497322Y80390D01*
X497686Y80061D01*
X498015Y79697D01*
X498307Y79303D01*
X498560Y78882D01*
X498769Y78438D01*
X498935Y77976D01*
X499054Y77501D01*
X499126Y77015D01*
X499150Y76525D01*
X499150Y6525D01*
X499126Y6035D01*
X499054Y5549D01*
X498935Y5074D01*
X498769Y4611D01*
X498560Y4168D01*
X498307Y3747D01*
X498015Y3353D01*
X497686Y2989D01*
X497322Y2660D01*
X496928Y2368D01*
X496507Y2115D01*
X496063Y1905D01*
X495601Y1740D01*
X495126Y1621D01*
X494640Y1549D01*
X494150Y1525D01*
X484150Y1525D01*
X483660Y1549D01*
X483175Y1621D01*
X482699Y1740D01*
X482237Y1905D01*
X481793Y2115D01*
X481372Y2368D01*
X480978Y2660D01*
X480614Y2989D01*
X480285Y3353D01*
X479993Y3747D01*
X479740Y4168D01*
X479531Y4611D01*
X479365Y5074D01*
X479246Y5549D01*
X479174Y6035D01*
X479150Y6525D01*
X479150Y76525D01*
X479174Y77015D01*
X479246Y77501D01*
X479365Y77976D01*
X479531Y78438D01*
X479740Y78882D01*
X479993Y79303D01*
X480285Y79697D01*
X480614Y80061D01*
X480978Y80390D01*
X481372Y80682D01*
X481793Y80935D01*
X482237Y81144D01*
X482699Y81310D01*
X483175Y81429D01*
X483660Y81501D01*
X484150Y81525D01*
X494150Y81525D01*
X494640Y81501D01*
G36*
X519640Y81501D02*
X520126Y81429D01*
X520601Y81310D01*
X521063Y81144D01*
X521507Y80935D01*
X521928Y80682D01*
X522322Y80390D01*
X522686Y80061D01*
X523015Y79697D01*
X523307Y79303D01*
X523560Y78882D01*
X523769Y78438D01*
X523935Y77976D01*
X524054Y77501D01*
X524126Y77015D01*
X524150Y76525D01*
X524150Y6525D01*
X524126Y6035D01*
X524054Y5549D01*
X523935Y5074D01*
X523769Y4611D01*
X523560Y4168D01*
X523307Y3747D01*
X523015Y3353D01*
X522686Y2989D01*
X522322Y2660D01*
X521928Y2368D01*
X521507Y2115D01*
X521063Y1905D01*
X520601Y1740D01*
X520126Y1621D01*
X519640Y1549D01*
X519150Y1525D01*
X509150Y1525D01*
X508660Y1549D01*
X508175Y1621D01*
X507699Y1740D01*
X507237Y1905D01*
X506793Y2115D01*
X506372Y2368D01*
X505978Y2660D01*
X505614Y2989D01*
X505285Y3353D01*
X504993Y3747D01*
X504740Y4168D01*
X504531Y4611D01*
X504365Y5074D01*
X504246Y5549D01*
X504174Y6035D01*
X504150Y6525D01*
X504150Y76525D01*
X504174Y77015D01*
X504246Y77501D01*
X504365Y77976D01*
X504531Y78438D01*
X504740Y78882D01*
X504993Y79303D01*
X505285Y79697D01*
X505614Y80061D01*
X505978Y80390D01*
X506372Y80682D01*
X506793Y80935D01*
X507237Y81144D01*
X507699Y81310D01*
X508175Y81429D01*
X508660Y81501D01*
X509150Y81525D01*
X519150Y81525D01*
X519640Y81501D01*
G37*
G54D14*
X519640Y81501D02*
X520126Y81429D01*
X520601Y81310D01*
X521063Y81144D01*
X521507Y80935D01*
X521928Y80682D01*
X522322Y80390D01*
X522686Y80061D01*
X523015Y79697D01*
X523307Y79303D01*
X523560Y78882D01*
X523769Y78438D01*
X523935Y77976D01*
X524054Y77501D01*
X524126Y77015D01*
X524150Y76525D01*
X524150Y6525D01*
X524126Y6035D01*
X524054Y5549D01*
X523935Y5074D01*
X523769Y4611D01*
X523560Y4168D01*
X523307Y3747D01*
X523015Y3353D01*
X522686Y2989D01*
X522322Y2660D01*
X521928Y2368D01*
X521507Y2115D01*
X521063Y1905D01*
X520601Y1740D01*
X520126Y1621D01*
X519640Y1549D01*
X519150Y1525D01*
X509150Y1525D01*
X508660Y1549D01*
X508175Y1621D01*
X507699Y1740D01*
X507237Y1905D01*
X506793Y2115D01*
X506372Y2368D01*
X505978Y2660D01*
X505614Y2989D01*
X505285Y3353D01*
X504993Y3747D01*
X504740Y4168D01*
X504531Y4611D01*
X504365Y5074D01*
X504246Y5549D01*
X504174Y6035D01*
X504150Y6525D01*
X504150Y76525D01*
X504174Y77015D01*
X504246Y77501D01*
X504365Y77976D01*
X504531Y78438D01*
X504740Y78882D01*
X504993Y79303D01*
X505285Y79697D01*
X505614Y80061D01*
X505978Y80390D01*
X506372Y80682D01*
X506793Y80935D01*
X507237Y81144D01*
X507699Y81310D01*
X508175Y81429D01*
X508660Y81501D01*
X509150Y81525D01*
X519150Y81525D01*
X519640Y81501D01*
G36*
X544640Y81501D02*
X545126Y81429D01*
X545601Y81310D01*
X546064Y81144D01*
X546507Y80935D01*
X546928Y80682D01*
X547322Y80390D01*
X547686Y80061D01*
X548015Y79697D01*
X548307Y79303D01*
X548560Y78882D01*
X548769Y78438D01*
X548935Y77976D01*
X549054Y77501D01*
X549126Y77015D01*
X549150Y76525D01*
X549150Y6525D01*
X549126Y6035D01*
X549054Y5549D01*
X548935Y5074D01*
X548769Y4611D01*
X548560Y4168D01*
X548307Y3747D01*
X548015Y3353D01*
X547686Y2989D01*
X547322Y2660D01*
X546928Y2368D01*
X546507Y2115D01*
X546064Y1905D01*
X545601Y1740D01*
X545126Y1621D01*
X544640Y1549D01*
X544150Y1525D01*
X534150Y1525D01*
X533660Y1549D01*
X533175Y1621D01*
X532699Y1740D01*
X532237Y1905D01*
X531793Y2115D01*
X531372Y2368D01*
X530978Y2660D01*
X530614Y2989D01*
X530285Y3353D01*
X529993Y3747D01*
X529740Y4168D01*
X529531Y4611D01*
X529365Y5074D01*
X529246Y5549D01*
X529174Y6035D01*
X529150Y6525D01*
X529150Y76525D01*
X529174Y77015D01*
X529246Y77501D01*
X529365Y77976D01*
X529531Y78438D01*
X529740Y78882D01*
X529993Y79303D01*
X530285Y79697D01*
X530614Y80061D01*
X530978Y80390D01*
X531372Y80682D01*
X531793Y80935D01*
X532237Y81144D01*
X532699Y81310D01*
X533175Y81429D01*
X533660Y81501D01*
X534150Y81525D01*
X544150Y81525D01*
X544640Y81501D01*
G37*
G54D14*
X544640Y81501D02*
X545126Y81429D01*
X545601Y81310D01*
X546064Y81144D01*
X546507Y80935D01*
X546928Y80682D01*
X547322Y80390D01*
X547686Y80061D01*
X548015Y79697D01*
X548307Y79303D01*
X548560Y78882D01*
X548769Y78438D01*
X548935Y77976D01*
X549054Y77501D01*
X549126Y77015D01*
X549150Y76525D01*
X549150Y6525D01*
X549126Y6035D01*
X549054Y5549D01*
X548935Y5074D01*
X548769Y4611D01*
X548560Y4168D01*
X548307Y3747D01*
X548015Y3353D01*
X547686Y2989D01*
X547322Y2660D01*
X546928Y2368D01*
X546507Y2115D01*
X546064Y1905D01*
X545601Y1740D01*
X545126Y1621D01*
X544640Y1549D01*
X544150Y1525D01*
X534150Y1525D01*
X533660Y1549D01*
X533175Y1621D01*
X532699Y1740D01*
X532237Y1905D01*
X531793Y2115D01*
X531372Y2368D01*
X530978Y2660D01*
X530614Y2989D01*
X530285Y3353D01*
X529993Y3747D01*
X529740Y4168D01*
X529531Y4611D01*
X529365Y5074D01*
X529246Y5549D01*
X529174Y6035D01*
X529150Y6525D01*
X529150Y76525D01*
X529174Y77015D01*
X529246Y77501D01*
X529365Y77976D01*
X529531Y78438D01*
X529740Y78882D01*
X529993Y79303D01*
X530285Y79697D01*
X530614Y80061D01*
X530978Y80390D01*
X531372Y80682D01*
X531793Y80935D01*
X532237Y81144D01*
X532699Y81310D01*
X533175Y81429D01*
X533660Y81501D01*
X534150Y81525D01*
X544150Y81525D01*
X544640Y81501D01*
G36*
X569640Y81501D02*
X570126Y81429D01*
X570601Y81310D01*
X571064Y81144D01*
X571507Y80935D01*
X571928Y80682D01*
X572322Y80390D01*
X572686Y80061D01*
X573015Y79697D01*
X573307Y79303D01*
X573560Y78882D01*
X573769Y78438D01*
X573935Y77976D01*
X574054Y77501D01*
X574126Y77015D01*
X574150Y76525D01*
X574150Y6525D01*
X574126Y6035D01*
X574054Y5549D01*
X573935Y5074D01*
X573769Y4611D01*
X573560Y4168D01*
X573307Y3747D01*
X573015Y3353D01*
X572686Y2989D01*
X572322Y2660D01*
X571928Y2368D01*
X571507Y2115D01*
X571064Y1905D01*
X570601Y1740D01*
X570126Y1621D01*
X569640Y1549D01*
X569150Y1525D01*
X559150Y1525D01*
X558660Y1549D01*
X558175Y1621D01*
X557699Y1740D01*
X557237Y1905D01*
X556793Y2115D01*
X556372Y2368D01*
X555978Y2660D01*
X555614Y2989D01*
X555285Y3353D01*
X554993Y3747D01*
X554740Y4168D01*
X554531Y4611D01*
X554365Y5074D01*
X554246Y5549D01*
X554174Y6035D01*
X554150Y6525D01*
X554150Y76525D01*
X554174Y77015D01*
X554246Y77501D01*
X554365Y77976D01*
X554531Y78438D01*
X554740Y78882D01*
X554993Y79303D01*
X555285Y79697D01*
X555614Y80061D01*
X555978Y80390D01*
X556372Y80682D01*
X556793Y80935D01*
X557237Y81144D01*
X557699Y81310D01*
X558175Y81429D01*
X558660Y81501D01*
X559150Y81525D01*
X569150Y81525D01*
X569640Y81501D01*
G37*
G54D14*
X569640Y81501D02*
X570126Y81429D01*
X570601Y81310D01*
X571064Y81144D01*
X571507Y80935D01*
X571928Y80682D01*
X572322Y80390D01*
X572686Y80061D01*
X573015Y79697D01*
X573307Y79303D01*
X573560Y78882D01*
X573769Y78438D01*
X573935Y77976D01*
X574054Y77501D01*
X574126Y77015D01*
X574150Y76525D01*
X574150Y6525D01*
X574126Y6035D01*
X574054Y5549D01*
X573935Y5074D01*
X573769Y4611D01*
X573560Y4168D01*
X573307Y3747D01*
X573015Y3353D01*
X572686Y2989D01*
X572322Y2660D01*
X571928Y2368D01*
X571507Y2115D01*
X571064Y1905D01*
X570601Y1740D01*
X570126Y1621D01*
X569640Y1549D01*
X569150Y1525D01*
X559150Y1525D01*
X558660Y1549D01*
X558175Y1621D01*
X557699Y1740D01*
X557237Y1905D01*
X556793Y2115D01*
X556372Y2368D01*
X555978Y2660D01*
X555614Y2989D01*
X555285Y3353D01*
X554993Y3747D01*
X554740Y4168D01*
X554531Y4611D01*
X554365Y5074D01*
X554246Y5549D01*
X554174Y6035D01*
X554150Y6525D01*
X554150Y76525D01*
X554174Y77015D01*
X554246Y77501D01*
X554365Y77976D01*
X554531Y78438D01*
X554740Y78882D01*
X554993Y79303D01*
X555285Y79697D01*
X555614Y80061D01*
X555978Y80390D01*
X556372Y80682D01*
X556793Y80935D01*
X557237Y81144D01*
X557699Y81310D01*
X558175Y81429D01*
X558660Y81501D01*
X559150Y81525D01*
X569150Y81525D01*
X569640Y81501D01*
G36*
X594640Y81501D02*
X595126Y81429D01*
X595601Y81310D01*
X596064Y81144D01*
X596507Y80935D01*
X596928Y80682D01*
X597322Y80390D01*
X597686Y80061D01*
X598015Y79697D01*
X598307Y79303D01*
X598560Y78882D01*
X598769Y78438D01*
X598935Y77976D01*
X599054Y77501D01*
X599126Y77015D01*
X599150Y76525D01*
X599150Y6525D01*
X599126Y6035D01*
X599054Y5549D01*
X598935Y5074D01*
X598769Y4611D01*
X598560Y4168D01*
X598307Y3747D01*
X598015Y3353D01*
X597686Y2989D01*
X597322Y2660D01*
X596928Y2368D01*
X596507Y2115D01*
X596064Y1905D01*
X595601Y1740D01*
X595126Y1621D01*
X594640Y1549D01*
X594150Y1525D01*
X584150Y1525D01*
X583660Y1549D01*
X583175Y1621D01*
X582699Y1740D01*
X582237Y1905D01*
X581793Y2115D01*
X581372Y2368D01*
X580978Y2660D01*
X580614Y2989D01*
X580285Y3353D01*
X579993Y3747D01*
X579740Y4168D01*
X579531Y4611D01*
X579365Y5074D01*
X579246Y5549D01*
X579174Y6035D01*
X579150Y6525D01*
X579150Y76525D01*
X579174Y77015D01*
X579246Y77501D01*
X579365Y77976D01*
X579531Y78438D01*
X579740Y78882D01*
X579993Y79303D01*
X580285Y79697D01*
X580614Y80061D01*
X580978Y80390D01*
X581372Y80682D01*
X581793Y80935D01*
X582237Y81144D01*
X582699Y81310D01*
X583175Y81429D01*
X583660Y81501D01*
X584150Y81525D01*
X594150Y81525D01*
X594640Y81501D01*
G37*
G54D14*
X594640Y81501D02*
X595126Y81429D01*
X595601Y81310D01*
X596064Y81144D01*
X596507Y80935D01*
X596928Y80682D01*
X597322Y80390D01*
X597686Y80061D01*
X598015Y79697D01*
X598307Y79303D01*
X598560Y78882D01*
X598769Y78438D01*
X598935Y77976D01*
X599054Y77501D01*
X599126Y77015D01*
X599150Y76525D01*
X599150Y6525D01*
X599126Y6035D01*
X599054Y5549D01*
X598935Y5074D01*
X598769Y4611D01*
X598560Y4168D01*
X598307Y3747D01*
X598015Y3353D01*
X597686Y2989D01*
X597322Y2660D01*
X596928Y2368D01*
X596507Y2115D01*
X596064Y1905D01*
X595601Y1740D01*
X595126Y1621D01*
X594640Y1549D01*
X594150Y1525D01*
X584150Y1525D01*
X583660Y1549D01*
X583175Y1621D01*
X582699Y1740D01*
X582237Y1905D01*
X581793Y2115D01*
X581372Y2368D01*
X580978Y2660D01*
X580614Y2989D01*
X580285Y3353D01*
X579993Y3747D01*
X579740Y4168D01*
X579531Y4611D01*
X579365Y5074D01*
X579246Y5549D01*
X579174Y6035D01*
X579150Y6525D01*
X579150Y76525D01*
X579174Y77015D01*
X579246Y77501D01*
X579365Y77976D01*
X579531Y78438D01*
X579740Y78882D01*
X579993Y79303D01*
X580285Y79697D01*
X580614Y80061D01*
X580978Y80390D01*
X581372Y80682D01*
X581793Y80935D01*
X582237Y81144D01*
X582699Y81310D01*
X583175Y81429D01*
X583660Y81501D01*
X584150Y81525D01*
X594150Y81525D01*
X594640Y81501D01*
G36*
X619640Y81501D02*
X620126Y81429D01*
X620601Y81310D01*
X621064Y81144D01*
X621507Y80935D01*
X621928Y80682D01*
X622322Y80390D01*
X622686Y80061D01*
X623015Y79697D01*
X623307Y79303D01*
X623560Y78882D01*
X623769Y78438D01*
X623935Y77976D01*
X624054Y77501D01*
X624126Y77015D01*
X624150Y76525D01*
X624150Y6525D01*
X624126Y6035D01*
X624054Y5549D01*
X623935Y5074D01*
X623769Y4611D01*
X623560Y4168D01*
X623307Y3747D01*
X623015Y3353D01*
X622686Y2989D01*
X622322Y2660D01*
X621928Y2368D01*
X621507Y2115D01*
X621064Y1905D01*
X620601Y1740D01*
X620126Y1621D01*
X619640Y1549D01*
X619150Y1525D01*
X609150Y1525D01*
X608660Y1549D01*
X608175Y1621D01*
X607699Y1740D01*
X607237Y1905D01*
X606793Y2115D01*
X606372Y2368D01*
X605978Y2660D01*
X605614Y2989D01*
X605285Y3353D01*
X604993Y3747D01*
X604740Y4168D01*
X604531Y4611D01*
X604365Y5074D01*
X604246Y5549D01*
X604174Y6035D01*
X604150Y6525D01*
X604150Y76525D01*
X604174Y77015D01*
X604246Y77501D01*
X604365Y77976D01*
X604531Y78438D01*
X604740Y78882D01*
X604993Y79303D01*
X605285Y79697D01*
X605614Y80061D01*
X605978Y80390D01*
X606372Y80682D01*
X606793Y80935D01*
X607237Y81144D01*
X607699Y81310D01*
X608175Y81429D01*
X608660Y81501D01*
X609150Y81525D01*
X619150Y81525D01*
X619640Y81501D01*
G37*
G54D14*
X619640Y81501D02*
X620126Y81429D01*
X620601Y81310D01*
X621064Y81144D01*
X621507Y80935D01*
X621928Y80682D01*
X622322Y80390D01*
X622686Y80061D01*
X623015Y79697D01*
X623307Y79303D01*
X623560Y78882D01*
X623769Y78438D01*
X623935Y77976D01*
X624054Y77501D01*
X624126Y77015D01*
X624150Y76525D01*
X624150Y6525D01*
X624126Y6035D01*
X624054Y5549D01*
X623935Y5074D01*
X623769Y4611D01*
X623560Y4168D01*
X623307Y3747D01*
X623015Y3353D01*
X622686Y2989D01*
X622322Y2660D01*
X621928Y2368D01*
X621507Y2115D01*
X621064Y1905D01*
X620601Y1740D01*
X620126Y1621D01*
X619640Y1549D01*
X619150Y1525D01*
X609150Y1525D01*
X608660Y1549D01*
X608175Y1621D01*
X607699Y1740D01*
X607237Y1905D01*
X606793Y2115D01*
X606372Y2368D01*
X605978Y2660D01*
X605614Y2989D01*
X605285Y3353D01*
X604993Y3747D01*
X604740Y4168D01*
X604531Y4611D01*
X604365Y5074D01*
X604246Y5549D01*
X604174Y6035D01*
X604150Y6525D01*
X604150Y76525D01*
X604174Y77015D01*
X604246Y77501D01*
X604365Y77976D01*
X604531Y78438D01*
X604740Y78882D01*
X604993Y79303D01*
X605285Y79697D01*
X605614Y80061D01*
X605978Y80390D01*
X606372Y80682D01*
X606793Y80935D01*
X607237Y81144D01*
X607699Y81310D01*
X608175Y81429D01*
X608660Y81501D01*
X609150Y81525D01*
X619150Y81525D01*
X619640Y81501D01*
G54D15*
X625090Y395855D02*
X625090Y395855D01*
G54D15*
X421890Y319655D02*
X421890Y319655D01*
G54D15*
X599690Y395855D02*
X599690Y395855D01*
G54D15*
X447290Y319655D02*
X447290Y319655D01*
G54D15*
X574290Y395855D02*
X574290Y395855D01*
G54D15*
X472690Y319655D02*
X472690Y319655D01*
G54D15*
X548890Y395855D02*
X548890Y395855D01*
G54D15*
X498090Y319655D02*
X498090Y319655D01*
G54D15*
X523490Y395855D02*
X523490Y395855D01*
G54D15*
X523490Y319655D02*
X523490Y319655D01*
G54D15*
X498090Y395855D02*
X498090Y395855D01*
G54D15*
X548890Y319655D02*
X548890Y319655D01*
G54D15*
X472690Y395855D02*
X472690Y395855D01*
G54D15*
X574290Y319655D02*
X574290Y319655D01*
G54D15*
X447290Y395855D02*
X447290Y395855D01*
G54D15*
X599690Y319655D02*
X599690Y319655D01*
G54D15*
X421890Y395855D02*
X421890Y395855D01*
G54D15*
X625090Y319655D02*
X625090Y319655D01*
G54D15*
X396490Y395855D02*
X396490Y395855D01*
G54D15*
X383790Y240915D02*
X383790Y240915D01*
G54D15*
X612390Y164715D02*
X612390Y164715D01*
G54D15*
X409190Y240915D02*
X409190Y240915D01*
G54D15*
X586990Y164715D02*
X586990Y164715D01*
G54D15*
X434590Y240915D02*
X434590Y240915D01*
G54D15*
X561590Y164715D02*
X561590Y164715D01*
G54D15*
X459990Y240915D02*
X459990Y240915D01*
G54D15*
X536190Y164715D02*
X536190Y164715D01*
G54D15*
X485390Y240915D02*
X485390Y240915D01*
G54D15*
X510790Y164715D02*
X510790Y164715D01*
G54D15*
X510790Y240915D02*
X510790Y240915D01*
G54D15*
X485390Y164715D02*
X485390Y164715D01*
G54D15*
X536190Y240915D02*
X536190Y240915D01*
G54D15*
X459990Y164715D02*
X459990Y164715D01*
G54D15*
X561590Y240915D02*
X561590Y240915D01*
G54D15*
X434590Y164715D02*
X434590Y164715D01*
G54D15*
X586990Y240915D02*
X586990Y240915D01*
G54D15*
X409190Y164715D02*
X409190Y164715D01*
G54D15*
X612390Y240915D02*
X612390Y240915D01*
G54D15*
X421890Y433955D02*
X421890Y433955D01*
G54D15*
X447290Y433955D02*
X447290Y433955D01*
G54D15*
X472690Y433955D02*
X472690Y433955D01*
G54D15*
X498090Y433955D02*
X498090Y433955D01*
G54D15*
X523490Y433955D02*
X523490Y433955D01*
G54D15*
X548890Y433955D02*
X548890Y433955D01*
G54D15*
X574290Y433955D02*
X574290Y433955D01*
G54D15*
X599690Y433955D02*
X599690Y433955D01*
G54D15*
X625090Y433955D02*
X625090Y433955D01*
G54D15*
X409190Y279015D02*
X409190Y279015D01*
G54D15*
X434590Y279015D02*
X434590Y279015D01*
G54D15*
X459990Y279015D02*
X459990Y279015D01*
G54D15*
X485390Y279015D02*
X485390Y279015D01*
G54D15*
X510790Y279015D02*
X510790Y279015D01*
G54D15*
X536190Y279015D02*
X536190Y279015D01*
G54D15*
X561590Y279015D02*
X561590Y279015D01*
G54D15*
X586990Y279015D02*
X586990Y279015D01*
G54D15*
X178050Y276475D02*
X178050Y276475D01*
G54D15*
X178050Y301875D02*
X178050Y301875D01*
G54D15*
X178050Y327275D02*
X178050Y327275D01*
G54D15*
X178050Y352675D02*
X178050Y352675D01*
G54D15*
X178050Y378075D02*
X178050Y378075D01*
G54D15*
X25650Y479675D02*
X25650Y479675D01*
G54D15*
X178050Y403475D02*
X178050Y403475D01*
G54D15*
X25650Y454275D02*
X25650Y454275D01*
G54D15*
X178050Y428875D02*
X178050Y428875D01*
G54D15*
X25650Y428875D02*
X25650Y428875D01*
G54D15*
X178050Y454275D02*
X178050Y454275D01*
G54D15*
X25650Y403475D02*
X25650Y403475D01*
G54D15*
X178050Y479675D02*
X178050Y479675D01*
G54D15*
X25650Y378075D02*
X25650Y378075D01*
G54D15*
X25650Y352675D02*
X25650Y352675D01*
G54D15*
X25650Y327275D02*
X25650Y327275D01*
G54D15*
X25650Y301875D02*
X25650Y301875D01*
G54D15*
X25650Y276475D02*
X25650Y276475D01*
G54D15*
X305050Y251075D02*
X305050Y251075D01*
G54D15*
X228850Y378075D02*
X228850Y378075D01*
G54D15*
X305050Y276475D02*
X305050Y276475D01*
G54D15*
X228850Y352675D02*
X228850Y352675D01*
G54D15*
X305050Y301875D02*
X305050Y301875D01*
G54D15*
X228850Y327275D02*
X228850Y327275D01*
G54D15*
X305050Y327275D02*
X305050Y327275D01*
G54D15*
X228850Y301875D02*
X228850Y301875D01*
G54D15*
X305050Y352675D02*
X305050Y352675D01*
G54D15*
X228850Y276475D02*
X228850Y276475D01*
G54D15*
X305050Y378075D02*
X305050Y378075D01*
G54D15*
X228850Y251075D02*
X228850Y251075D01*
G54D15*
X305050Y403475D02*
X305050Y403475D01*
G54D16*
X139950Y238375D02*
X139950Y257968D01*
X196557Y257968D01*
X196557Y276475D01*
X228850Y276475D01*
X305050Y276475D01*
G54D17*
X706775Y942981D02*
X699294Y950119D01*
X693738Y955675D01*
X491669Y955435D01*
X482453Y955334D01*
X466975Y940050D01*
G54D16*
X686050Y492375D02*
X686050Y574824D01*
X279650Y574824D01*
X279650Y586513D01*
X271608Y594555D01*
X261132Y594555D01*
X254250Y601437D01*
X254250Y633999D01*
X254250Y644775D01*
G54D16*
X599690Y319655D02*
X625090Y319655D01*
G54D16*
X586990Y164715D02*
X612390Y164715D01*
G54D18*
X39150Y41525D02*
X39150Y183938D01*
X317191Y183938D01*
G54D18*
X614150Y41525D02*
X614150Y118215D01*
X633310Y137375D01*
X633310Y297395D01*
X635250Y299335D01*
X645410Y299335D01*
X653030Y306955D01*
X654230Y306955D01*
X668270Y306955D01*
X711450Y307151D01*
X711450Y492375D01*
X711450Y559324D01*
X711450Y571115D01*
X698750Y583815D01*
X294890Y583815D01*
X284774Y593931D01*
X284774Y628875D01*
X279650Y633999D01*
X279650Y644775D01*
G54D16*
X383790Y279015D02*
X383790Y266511D01*
X383790Y240915D01*
G54D16*
X706775Y897981D02*
X771775Y897981D01*
G54D16*
X772569Y698750D02*
X707569Y698750D01*
X697206Y708309D01*
X530585Y708309D01*
X390091Y707139D01*
G54D16*
X771775Y797969D02*
X706775Y797969D01*
G54D16*
X25650Y606675D02*
X25650Y681437D01*
X482850Y681437D01*
X482850Y644775D01*
G54D16*
X25650Y505075D02*
X25650Y492571D01*
X190554Y492571D01*
X190554Y474915D01*
X196558Y474915D01*
X196558Y456237D01*
X402321Y456237D01*
X402321Y450235D01*
X447290Y450235D01*
X447290Y433955D01*
G54D16*
X204058Y485927D02*
X204058Y462241D01*
X408324Y462241D01*
X408324Y456238D01*
X472690Y456238D01*
X472690Y433955D01*
G54D16*
X548890Y319655D02*
X548890Y131695D01*
X539150Y121955D01*
X539150Y41525D01*
X548890Y41525D01*
G54D16*
X178050Y505075D02*
X216727Y505075D01*
X216727Y471247D01*
X414327Y471247D01*
X414327Y462241D01*
X498090Y462241D01*
X498090Y433955D01*
G54D16*
X523490Y433955D02*
X535476Y433955D01*
X535476Y446459D01*
X545774Y446459D01*
X545774Y515317D01*
X533650Y515317D01*
G54D16*
X178050Y479675D02*
X178050Y468402D01*
X190554Y468402D01*
X190554Y450234D01*
X216347Y450234D01*
X216347Y365571D01*
X317554Y365571D01*
X317554Y376629D01*
X523490Y376629D01*
X523490Y395855D01*
G54D16*
X548890Y395855D02*
X548890Y370625D01*
X332808Y370625D01*
X332808Y314771D01*
X144754Y314771D01*
X144754Y454275D01*
X25650Y454275D01*
G54D16*
X548890Y433955D02*
X548890Y421451D01*
X510986Y421451D01*
X510986Y474248D01*
X470150Y474248D01*
X470150Y504498D01*
X432050Y504498D01*
X432050Y492375D01*
G54D16*
X472690Y138673D02*
X464150Y138673D01*
X464150Y41525D01*
G54D16*
X574290Y433955D02*
X571174Y433955D01*
X571174Y525820D01*
X523137Y525820D01*
X523137Y522507D01*
X381250Y522507D01*
X381250Y492375D01*
G54D16*
X447290Y319655D02*
X447290Y297337D01*
X367036Y297337D01*
X367036Y152212D01*
X439150Y152212D01*
X439150Y41525D01*
G54D16*
X599690Y433955D02*
X596574Y433955D01*
X596574Y531823D01*
X517134Y531823D01*
X517134Y528510D01*
X371100Y528510D01*
X371100Y512103D01*
X235009Y512103D01*
X235009Y515477D01*
G54D16*
X414150Y41525D02*
X414150Y124388D01*
X361033Y124388D01*
X361033Y307151D01*
X421890Y307151D01*
X421890Y319655D01*
G54D16*
X64150Y41525D02*
X64150Y109020D01*
X333252Y109020D01*
X333252Y271147D01*
X341814Y271147D01*
X341814Y356644D01*
X396490Y356644D01*
G54D16*
X457450Y492375D02*
X457450Y480252D01*
X318327Y480252D01*
X318327Y504499D01*
X224506Y504499D01*
X224506Y517579D01*
X13146Y517579D01*
X13146Y479675D01*
X25650Y479675D01*
G54D16*
X25650Y530475D02*
X25650Y542979D01*
X496991Y542979D01*
X496991Y545195D01*
G54D16*
X178050Y530475D02*
X245513Y530475D01*
X245513Y518351D01*
X343591Y518351D01*
X343591Y534514D01*
X511131Y534514D01*
X511131Y537826D01*
X602578Y537826D01*
X609581Y537826D01*
X609581Y530058D01*
X609274Y529751D01*
G54D16*
X609581Y537826D02*
X621974Y537826D01*
X621974Y463355D01*
X637594Y463355D01*
X637594Y349615D01*
X459990Y349615D01*
X459990Y279015D01*
G54D16*
X331031Y427005D02*
X331031Y414905D01*
X485390Y414905D01*
G54D16*
X524063Y453732D02*
X521506Y453732D01*
X521506Y510501D01*
X406650Y510501D01*
X406650Y492375D01*
G54D16*
X377539Y205122D02*
X377539Y199401D01*
X487064Y199401D01*
G54D16*
X25650Y581275D02*
X13146Y581275D01*
X13146Y687441D01*
X508250Y687441D01*
X508250Y644775D01*
G54D16*
X178050Y581275D02*
X197502Y581275D01*
X197502Y555875D01*
X266950Y555875D01*
X621974Y555875D01*
G54D16*
X364150Y41525D02*
X364150Y108941D01*
X339700Y108941D01*
X339700Y243331D01*
X347818Y243331D01*
X347818Y342663D01*
X406994Y342663D01*
X406994Y361623D01*
X586794Y361623D01*
X586794Y492375D01*
X584450Y492375D01*
G54D16*
X389150Y41525D02*
X389150Y118385D01*
X350204Y118385D01*
X350204Y211015D01*
G54D16*
X228850Y403475D02*
X228850Y390579D01*
X361842Y390579D01*
X361842Y383351D01*
X510594Y383351D01*
X510594Y408359D01*
X561394Y408359D01*
X561394Y492375D01*
X559050Y492375D01*
G54D16*
X228850Y378075D02*
X228850Y390579D01*
G54D16*
X609850Y492375D02*
X612194Y492375D01*
X612194Y355619D01*
X434659Y355619D01*
X434659Y332159D01*
X360707Y332159D01*
G54D16*
X105628Y653392D02*
X177782Y653392D01*
X177782Y656899D01*
X291774Y656899D01*
X291774Y603934D01*
X298178Y597530D01*
X308605Y597530D01*
X313105Y602030D01*
X704265Y602030D01*
X711450Y609215D01*
X711450Y644775D01*
G54D16*
X635250Y644775D02*
X635250Y620643D01*
X342573Y620643D01*
X342573Y663896D01*
X121047Y663896D01*
G54D18*
X228850Y644775D02*
X228850Y568820D01*
X259987Y568820D01*
G54D16*
X686050Y644775D02*
X686050Y608030D01*
X303218Y608030D01*
G54D16*
X660650Y644775D02*
X660650Y614639D01*
X319162Y614639D01*
X319162Y618534D01*
G54D16*
X632392Y690257D02*
X575957Y690257D01*
X546930Y661230D01*
X546926Y645351D01*
X546926Y632651D01*
X381250Y632651D01*
X381250Y644775D01*
G54D16*
X178050Y276475D02*
X57299Y276475D01*
X57299Y390579D01*
X7142Y390579D01*
X7142Y568379D01*
X95125Y568379D01*
X95125Y674667D01*
X432050Y674667D01*
X432050Y670933D01*
X432050Y644775D01*
G54D16*
X178050Y454275D02*
X178050Y444231D01*
X210343Y444231D01*
X210343Y339779D01*
X305050Y339779D01*
X305050Y327275D01*
G54D16*
X305050Y352675D02*
X228850Y352675D01*
G54D18*
X383790Y240915D02*
X383790Y258695D01*
X467610Y258695D01*
X472690Y263775D01*
X472690Y273935D01*
G54D18*
X383790Y279015D02*
X383790Y258695D01*
G54D18*
X485586Y314379D02*
X485586Y307151D01*
X475230Y296795D01*
X472690Y294255D01*
X472690Y284095D01*
G54D16*
X472690Y273935D02*
X472690Y276475D01*
X472690Y284095D01*
G54D16*
X485586Y314379D02*
X485586Y327079D01*
G54D18*
X485586Y327079D02*
X485586Y332551D01*
X493010Y339975D01*
X576830Y339975D01*
X581910Y339975D01*
X586990Y334895D01*
X586990Y324735D01*
G54D18*
X635250Y299335D02*
X620010Y299335D01*
X594610Y299335D01*
X586794Y307151D01*
X586794Y314379D01*
G54D16*
X586990Y324735D02*
X586990Y314575D01*
X586794Y314379D01*
G54D16*
X574290Y319655D02*
X574290Y129155D01*
X564150Y119015D01*
X564150Y41525D01*
G54D16*
X523490Y319655D02*
X523490Y131695D01*
X514150Y122355D01*
X514150Y41525D01*
G54D16*
X498090Y319655D02*
X498090Y134235D01*
X489150Y125295D01*
X489150Y41525D01*
G54D18*
X660650Y492375D02*
X660650Y534219D01*
X660650Y555875D01*
X649150Y567375D01*
X274868Y567375D01*
X273668Y568575D01*
G54D16*
X259987Y568820D02*
X273423Y568820D01*
X274868Y567375D01*
G54D16*
X355850Y644775D02*
X355850Y626647D01*
X596573Y626647D01*
X596574Y656899D01*
X606992Y666841D01*
X633186Y666841D01*
G36*
X11852Y382261D02*
X11300Y379488D01*
X11300Y376662D01*
X11852Y373889D01*
X12933Y371278D01*
X14504Y368927D01*
X16502Y366929D01*
X18828Y365375D01*
X16502Y363821D01*
X14504Y361823D01*
X12933Y359472D01*
X11852Y356861D01*
X11300Y354088D01*
X11300Y351262D01*
X11852Y348489D01*
X12933Y345878D01*
X14504Y343527D01*
X16502Y341529D01*
X18828Y339975D01*
X16502Y338421D01*
X14504Y336423D01*
X12933Y334072D01*
X11852Y331461D01*
X11300Y328688D01*
X11300Y325862D01*
X11852Y323089D01*
X12933Y320478D01*
X14504Y318127D01*
X16502Y316129D01*
X18828Y314575D01*
X16502Y313021D01*
X14504Y311023D01*
X12933Y308672D01*
X11852Y306061D01*
X11300Y303288D01*
X11300Y300462D01*
X11852Y297689D01*
X12933Y295078D01*
X14504Y292727D01*
X16502Y290729D01*
X18853Y289158D01*
X18959Y289114D01*
X17099Y287999D01*
X15015Y286109D01*
X13340Y283849D01*
X12138Y281306D01*
X11731Y279965D01*
X12951Y277745D01*
X24380Y277745D01*
X24380Y277945D01*
X26920Y277945D01*
X26920Y277745D01*
X38349Y277745D01*
X39569Y279965D01*
X39162Y281306D01*
X37960Y283849D01*
X36285Y286109D01*
X34201Y287999D01*
X32341Y289114D01*
X32447Y289158D01*
X34798Y290729D01*
X36796Y292727D01*
X38367Y295078D01*
X39448Y297689D01*
X40000Y300462D01*
X40000Y303288D01*
X39448Y306061D01*
X38367Y308672D01*
X36796Y311023D01*
X34798Y313021D01*
X32472Y314575D01*
X34798Y316129D01*
X36796Y318127D01*
X38367Y320478D01*
X39448Y323089D01*
X40000Y325862D01*
X40000Y328688D01*
X39448Y331461D01*
X38367Y334072D01*
X36796Y336423D01*
X34798Y338421D01*
X32472Y339975D01*
X34798Y341529D01*
X36796Y343527D01*
X38367Y345878D01*
X39448Y348489D01*
X40000Y351262D01*
X40000Y354088D01*
X39448Y356861D01*
X38367Y359472D01*
X36796Y361823D01*
X34798Y363821D01*
X32472Y365375D01*
X34798Y366929D01*
X36796Y368927D01*
X38367Y371278D01*
X39448Y373889D01*
X40000Y376662D01*
X40000Y379488D01*
X39448Y382261D01*
X39255Y382729D01*
X49449Y382729D01*
X49449Y276861D01*
X49411Y276475D01*
X49563Y274936D01*
X50011Y273457D01*
X50740Y272093D01*
X51721Y270897D01*
X52917Y269916D01*
X54280Y269187D01*
X55760Y268739D01*
X57299Y268587D01*
X57685Y268625D01*
X166037Y268625D01*
X166904Y267327D01*
X168413Y265818D01*
X140336Y265818D01*
X139950Y265856D01*
X138411Y265704D01*
X136931Y265256D01*
X135568Y264527D01*
X134372Y263546D01*
X133391Y262350D01*
X132662Y260987D01*
X132214Y259507D01*
X132062Y257968D01*
X132100Y257582D01*
X132100Y252794D01*
X129528Y251075D01*
X127250Y248797D01*
X125461Y246119D01*
X124228Y243144D01*
X123600Y239985D01*
X123600Y236765D01*
X124228Y233606D01*
X125461Y230630D01*
X127250Y227953D01*
X129528Y225675D01*
X132205Y223886D01*
X135181Y222653D01*
X138340Y222025D01*
X141560Y222025D01*
X144719Y222653D01*
X147695Y223886D01*
X150372Y225675D01*
X151718Y227021D01*
X180392Y227021D01*
X181350Y224377D01*
X184246Y222968D01*
X187361Y222151D01*
X190576Y221958D01*
X193767Y222395D01*
X196811Y223447D01*
X198550Y224377D01*
X199508Y227021D01*
X189950Y236579D01*
X180392Y227021D01*
X151718Y227021D01*
X152650Y227953D01*
X154439Y230630D01*
X155672Y233606D01*
X156300Y236765D01*
X156300Y237749D01*
X173533Y237749D01*
X173970Y234558D01*
X175022Y231514D01*
X175952Y229775D01*
X178596Y228817D01*
X188154Y238375D01*
X191746Y238375D01*
X201304Y228817D01*
X203948Y229775D01*
X205357Y232671D01*
X206174Y235786D01*
X206367Y239001D01*
X205930Y242192D01*
X204878Y245236D01*
X203948Y246975D01*
X202266Y247585D01*
X214931Y247585D01*
X215338Y246244D01*
X216540Y243701D01*
X218215Y241441D01*
X220299Y239551D01*
X222711Y238104D01*
X225360Y237156D01*
X227580Y238369D01*
X227580Y249805D01*
X230120Y249805D01*
X230120Y238369D01*
X232340Y237156D01*
X234989Y238104D01*
X237401Y239551D01*
X239485Y241441D01*
X241160Y243701D01*
X242362Y246244D01*
X242769Y247585D01*
X241549Y249805D01*
X230120Y249805D01*
X227580Y249805D01*
X216151Y249805D01*
X214931Y247585D01*
X202266Y247585D01*
X201304Y247933D01*
X191746Y238375D01*
X188154Y238375D01*
X178596Y247933D01*
X175952Y246975D01*
X174543Y244079D01*
X173726Y240964D01*
X173533Y237749D01*
X156300Y237749D01*
X156300Y239985D01*
X155672Y243144D01*
X154439Y246119D01*
X152650Y248797D01*
X151329Y250118D01*
X180533Y250118D01*
X180392Y249729D01*
X189950Y240171D01*
X199508Y249729D01*
X199204Y250568D01*
X199576Y250680D01*
X200939Y251409D01*
X202135Y252390D01*
X203116Y253586D01*
X203844Y254949D01*
X204293Y256429D01*
X204445Y257968D01*
X204407Y258354D01*
X204407Y268625D01*
X216837Y268625D01*
X217704Y267327D01*
X219702Y265329D01*
X222053Y263758D01*
X222159Y263714D01*
X220299Y262599D01*
X218215Y260709D01*
X216540Y258449D01*
X215338Y255906D01*
X214931Y254565D01*
X216151Y252345D01*
X227580Y252345D01*
X227580Y252545D01*
X230120Y252545D01*
X230120Y252345D01*
X241549Y252345D01*
X242769Y254565D01*
X242362Y255906D01*
X241160Y258449D01*
X239485Y260709D01*
X237401Y262599D01*
X235541Y263714D01*
X235647Y263758D01*
X237998Y265329D01*
X239996Y267327D01*
X240863Y268625D01*
X293037Y268625D01*
X293904Y267327D01*
X295902Y265329D01*
X298228Y263775D01*
X295902Y262221D01*
X293904Y260223D01*
X292333Y257872D01*
X291252Y255261D01*
X290700Y252488D01*
X290700Y249662D01*
X291252Y246889D01*
X292333Y244278D01*
X293904Y241927D01*
X295902Y239929D01*
X298253Y238358D01*
X300864Y237277D01*
X303637Y236725D01*
X306463Y236725D01*
X309236Y237277D01*
X311847Y238358D01*
X314198Y239929D01*
X316196Y241927D01*
X317767Y244278D01*
X318849Y246889D01*
X319400Y249662D01*
X319400Y252488D01*
X318849Y255261D01*
X317767Y257872D01*
X316196Y260223D01*
X314198Y262221D01*
X311872Y263775D01*
X314198Y265329D01*
X316196Y267327D01*
X317767Y269678D01*
X318849Y272289D01*
X319400Y275062D01*
X319400Y277888D01*
X318849Y280661D01*
X317767Y283272D01*
X316196Y285623D01*
X314198Y287621D01*
X311872Y289175D01*
X314198Y290729D01*
X316196Y292727D01*
X317767Y295078D01*
X318849Y297689D01*
X319400Y300462D01*
X319400Y303288D01*
X318849Y306061D01*
X318492Y306921D01*
X332422Y306921D01*
X332808Y306883D01*
X333964Y306997D01*
X333964Y278997D01*
X333638Y278997D01*
X333252Y279035D01*
X331713Y278883D01*
X330233Y278435D01*
X328870Y277705D01*
X327674Y276725D01*
X326693Y275529D01*
X325964Y274166D01*
X325516Y272686D01*
X325364Y271147D01*
X325402Y270761D01*
X325402Y193193D01*
X325064Y193531D01*
X323041Y194882D01*
X320793Y195813D01*
X318407Y196288D01*
X315975Y196288D01*
X313589Y195813D01*
X311341Y194882D01*
X309318Y193531D01*
X308576Y192788D01*
X39585Y192788D01*
X39150Y192831D01*
X38715Y192788D01*
X37415Y192660D01*
X35747Y192154D01*
X34209Y191332D01*
X32862Y190226D01*
X31756Y188879D01*
X30934Y187341D01*
X30428Y185673D01*
X30257Y183938D01*
X30300Y183503D01*
X30300Y87193D01*
X29795Y87039D01*
X27827Y85988D01*
X26103Y84572D01*
X24687Y82848D01*
X22769Y81525D01*
X20820Y81445D01*
X20820Y104143D01*
X20850Y104544D01*
X20781Y105113D01*
X20724Y105684D01*
X20702Y105758D01*
X20693Y105835D01*
X20514Y106379D01*
X20347Y106928D01*
X20311Y106996D01*
X20286Y107070D01*
X20005Y107569D01*
X19734Y108075D01*
X19685Y108134D01*
X19647Y108202D01*
X19273Y108636D01*
X18910Y109079D01*
X18598Y109335D01*
X6850Y120549D01*
X6850Y272985D01*
X11731Y272985D01*
X12138Y271644D01*
X13340Y269101D01*
X15015Y266841D01*
X17099Y264951D01*
X19511Y263504D01*
X22160Y262556D01*
X24380Y263769D01*
X24380Y275205D01*
X26920Y275205D01*
X26920Y263769D01*
X29140Y262556D01*
X31789Y263504D01*
X34201Y264951D01*
X36285Y266841D01*
X37960Y269101D01*
X39162Y271644D01*
X39569Y272985D01*
X38349Y275205D01*
X26920Y275205D01*
X24380Y275205D01*
X12951Y275205D01*
X11731Y272985D01*
X6850Y272985D01*
X6850Y382720D01*
X7142Y382691D01*
X7528Y382729D01*
X12045Y382729D01*
X11852Y382261D01*
G37*
G54D14*
X11852Y382261D02*
X11300Y379488D01*
X11300Y376662D01*
X11852Y373889D01*
X12933Y371278D01*
X14504Y368927D01*
X16502Y366929D01*
X18828Y365375D01*
X16502Y363821D01*
X14504Y361823D01*
X12933Y359472D01*
X11852Y356861D01*
X11300Y354088D01*
X11300Y351262D01*
X11852Y348489D01*
X12933Y345878D01*
X14504Y343527D01*
X16502Y341529D01*
X18828Y339975D01*
X16502Y338421D01*
X14504Y336423D01*
X12933Y334072D01*
X11852Y331461D01*
X11300Y328688D01*
X11300Y325862D01*
X11852Y323089D01*
X12933Y320478D01*
X14504Y318127D01*
X16502Y316129D01*
X18828Y314575D01*
X16502Y313021D01*
X14504Y311023D01*
X12933Y308672D01*
X11852Y306061D01*
X11300Y303288D01*
X11300Y300462D01*
X11852Y297689D01*
X12933Y295078D01*
X14504Y292727D01*
X16502Y290729D01*
X18853Y289158D01*
X18959Y289114D01*
X17099Y287999D01*
X15015Y286109D01*
X13340Y283849D01*
X12138Y281306D01*
X11731Y279965D01*
X12951Y277745D01*
X24380Y277745D01*
X24380Y277945D01*
X26920Y277945D01*
X26920Y277745D01*
X38349Y277745D01*
X39569Y279965D01*
X39162Y281306D01*
X37960Y283849D01*
X36285Y286109D01*
X34201Y287999D01*
X32341Y289114D01*
X32447Y289158D01*
X34798Y290729D01*
X36796Y292727D01*
X38367Y295078D01*
X39448Y297689D01*
X40000Y300462D01*
X40000Y303288D01*
X39448Y306061D01*
X38367Y308672D01*
X36796Y311023D01*
X34798Y313021D01*
X32472Y314575D01*
X34798Y316129D01*
X36796Y318127D01*
X38367Y320478D01*
X39448Y323089D01*
X40000Y325862D01*
X40000Y328688D01*
X39448Y331461D01*
X38367Y334072D01*
X36796Y336423D01*
X34798Y338421D01*
X32472Y339975D01*
X34798Y341529D01*
X36796Y343527D01*
X38367Y345878D01*
X39448Y348489D01*
X40000Y351262D01*
X40000Y354088D01*
X39448Y356861D01*
X38367Y359472D01*
X36796Y361823D01*
X34798Y363821D01*
X32472Y365375D01*
X34798Y366929D01*
X36796Y368927D01*
X38367Y371278D01*
X39448Y373889D01*
X40000Y376662D01*
X40000Y379488D01*
X39448Y382261D01*
X39255Y382729D01*
X49449Y382729D01*
X49449Y276861D01*
X49411Y276475D01*
X49563Y274936D01*
X50011Y273457D01*
X50740Y272093D01*
X51721Y270897D01*
X52917Y269916D01*
X54280Y269187D01*
X55760Y268739D01*
X57299Y268587D01*
X57685Y268625D01*
X166037Y268625D01*
X166904Y267327D01*
X168413Y265818D01*
X140336Y265818D01*
X139950Y265856D01*
X138411Y265704D01*
X136931Y265256D01*
X135568Y264527D01*
X134372Y263546D01*
X133391Y262350D01*
X132662Y260987D01*
X132214Y259507D01*
X132062Y257968D01*
X132100Y257582D01*
X132100Y252794D01*
X129528Y251075D01*
X127250Y248797D01*
X125461Y246119D01*
X124228Y243144D01*
X123600Y239985D01*
X123600Y236765D01*
X124228Y233606D01*
X125461Y230630D01*
X127250Y227953D01*
X129528Y225675D01*
X132205Y223886D01*
X135181Y222653D01*
X138340Y222025D01*
X141560Y222025D01*
X144719Y222653D01*
X147695Y223886D01*
X150372Y225675D01*
X151718Y227021D01*
X180392Y227021D01*
X181350Y224377D01*
X184246Y222968D01*
X187361Y222151D01*
X190576Y221958D01*
X193767Y222395D01*
X196811Y223447D01*
X198550Y224377D01*
X199508Y227021D01*
X189950Y236579D01*
X180392Y227021D01*
X151718Y227021D01*
X152650Y227953D01*
X154439Y230630D01*
X155672Y233606D01*
X156300Y236765D01*
X156300Y237749D01*
X173533Y237749D01*
X173970Y234558D01*
X175022Y231514D01*
X175952Y229775D01*
X178596Y228817D01*
X188154Y238375D01*
X191746Y238375D01*
X201304Y228817D01*
X203948Y229775D01*
X205357Y232671D01*
X206174Y235786D01*
X206367Y239001D01*
X205930Y242192D01*
X204878Y245236D01*
X203948Y246975D01*
X202266Y247585D01*
X214931Y247585D01*
X215338Y246244D01*
X216540Y243701D01*
X218215Y241441D01*
X220299Y239551D01*
X222711Y238104D01*
X225360Y237156D01*
X227580Y238369D01*
X227580Y249805D01*
X230120Y249805D01*
X230120Y238369D01*
X232340Y237156D01*
X234989Y238104D01*
X237401Y239551D01*
X239485Y241441D01*
X241160Y243701D01*
X242362Y246244D01*
X242769Y247585D01*
X241549Y249805D01*
X230120Y249805D01*
X227580Y249805D01*
X216151Y249805D01*
X214931Y247585D01*
X202266Y247585D01*
X201304Y247933D01*
X191746Y238375D01*
X188154Y238375D01*
X178596Y247933D01*
X175952Y246975D01*
X174543Y244079D01*
X173726Y240964D01*
X173533Y237749D01*
X156300Y237749D01*
X156300Y239985D01*
X155672Y243144D01*
X154439Y246119D01*
X152650Y248797D01*
X151329Y250118D01*
X180533Y250118D01*
X180392Y249729D01*
X189950Y240171D01*
X199508Y249729D01*
X199204Y250568D01*
X199576Y250680D01*
X200939Y251409D01*
X202135Y252390D01*
X203116Y253586D01*
X203844Y254949D01*
X204293Y256429D01*
X204445Y257968D01*
X204407Y258354D01*
X204407Y268625D01*
X216837Y268625D01*
X217704Y267327D01*
X219702Y265329D01*
X222053Y263758D01*
X222159Y263714D01*
X220299Y262599D01*
X218215Y260709D01*
X216540Y258449D01*
X215338Y255906D01*
X214931Y254565D01*
X216151Y252345D01*
X227580Y252345D01*
X227580Y252545D01*
X230120Y252545D01*
X230120Y252345D01*
X241549Y252345D01*
X242769Y254565D01*
X242362Y255906D01*
X241160Y258449D01*
X239485Y260709D01*
X237401Y262599D01*
X235541Y263714D01*
X235647Y263758D01*
X237998Y265329D01*
X239996Y267327D01*
X240863Y268625D01*
X293037Y268625D01*
X293904Y267327D01*
X295902Y265329D01*
X298228Y263775D01*
X295902Y262221D01*
X293904Y260223D01*
X292333Y257872D01*
X291252Y255261D01*
X290700Y252488D01*
X290700Y249662D01*
X291252Y246889D01*
X292333Y244278D01*
X293904Y241927D01*
X295902Y239929D01*
X298253Y238358D01*
X300864Y237277D01*
X303637Y236725D01*
X306463Y236725D01*
X309236Y237277D01*
X311847Y238358D01*
X314198Y239929D01*
X316196Y241927D01*
X317767Y244278D01*
X318849Y246889D01*
X319400Y249662D01*
X319400Y252488D01*
X318849Y255261D01*
X317767Y257872D01*
X316196Y260223D01*
X314198Y262221D01*
X311872Y263775D01*
X314198Y265329D01*
X316196Y267327D01*
X317767Y269678D01*
X318849Y272289D01*
X319400Y275062D01*
X319400Y277888D01*
X318849Y280661D01*
X317767Y283272D01*
X316196Y285623D01*
X314198Y287621D01*
X311872Y289175D01*
X314198Y290729D01*
X316196Y292727D01*
X317767Y295078D01*
X318849Y297689D01*
X319400Y300462D01*
X319400Y303288D01*
X318849Y306061D01*
X318492Y306921D01*
X332422Y306921D01*
X332808Y306883D01*
X333964Y306997D01*
X333964Y278997D01*
X333638Y278997D01*
X333252Y279035D01*
X331713Y278883D01*
X330233Y278435D01*
X328870Y277705D01*
X327674Y276725D01*
X326693Y275529D01*
X325964Y274166D01*
X325516Y272686D01*
X325364Y271147D01*
X325402Y270761D01*
X325402Y193193D01*
X325064Y193531D01*
X323041Y194882D01*
X320793Y195813D01*
X318407Y196288D01*
X315975Y196288D01*
X313589Y195813D01*
X311341Y194882D01*
X309318Y193531D01*
X308576Y192788D01*
X39585Y192788D01*
X39150Y192831D01*
X38715Y192788D01*
X37415Y192660D01*
X35747Y192154D01*
X34209Y191332D01*
X32862Y190226D01*
X31756Y188879D01*
X30934Y187341D01*
X30428Y185673D01*
X30257Y183938D01*
X30300Y183503D01*
X30300Y87193D01*
X29795Y87039D01*
X27827Y85988D01*
X26103Y84572D01*
X24687Y82848D01*
X22769Y81525D01*
X20820Y81445D01*
X20820Y104143D01*
X20850Y104544D01*
X20781Y105113D01*
X20724Y105684D01*
X20702Y105758D01*
X20693Y105835D01*
X20514Y106379D01*
X20347Y106928D01*
X20311Y106996D01*
X20286Y107070D01*
X20005Y107569D01*
X19734Y108075D01*
X19685Y108134D01*
X19647Y108202D01*
X19273Y108636D01*
X18910Y109079D01*
X18598Y109335D01*
X6850Y120549D01*
X6850Y272985D01*
X11731Y272985D01*
X12138Y271644D01*
X13340Y269101D01*
X15015Y266841D01*
X17099Y264951D01*
X19511Y263504D01*
X22160Y262556D01*
X24380Y263769D01*
X24380Y275205D01*
X26920Y275205D01*
X26920Y263769D01*
X29140Y262556D01*
X31789Y263504D01*
X34201Y264951D01*
X36285Y266841D01*
X37960Y269101D01*
X39162Y271644D01*
X39569Y272985D01*
X38349Y275205D01*
X26920Y275205D01*
X24380Y275205D01*
X12951Y275205D01*
X11731Y272985D01*
X6850Y272985D01*
X6850Y382720D01*
X7142Y382691D01*
X7528Y382729D01*
X12045Y382729D01*
X11852Y382261D01*
G54D19*
X12045Y382729D02*
X11852Y382261D01*
X11300Y379488D01*
X11300Y376662D01*
X11852Y373889D01*
X12933Y371278D01*
X14504Y368927D01*
X16502Y366929D01*
X18828Y365375D01*
X16502Y363821D01*
X14504Y361823D01*
X12933Y359472D01*
X11852Y356861D01*
X11300Y354088D01*
X11300Y351262D01*
X11852Y348489D01*
X12933Y345878D01*
X14504Y343527D01*
X16502Y341529D01*
X18828Y339975D01*
X16502Y338421D01*
X14504Y336423D01*
X12933Y334072D01*
X11852Y331461D01*
X11300Y328688D01*
X11300Y325862D01*
X11852Y323089D01*
X12933Y320478D01*
X14504Y318127D01*
X16502Y316129D01*
X18828Y314575D01*
X16502Y313021D01*
X14504Y311023D01*
X12933Y308672D01*
X11852Y306061D01*
X11300Y303288D01*
X11300Y300462D01*
X11852Y297689D01*
X12933Y295078D01*
X14504Y292727D01*
X16502Y290729D01*
X18853Y289158D01*
X18959Y289114D01*
X17099Y287999D01*
X15015Y286109D01*
X13340Y283849D01*
X12138Y281306D01*
X11731Y279965D01*
X12951Y277745D01*
X24380Y277745D01*
X24380Y277945D01*
X26920Y277945D01*
X26920Y277745D01*
X38349Y277745D01*
X39569Y279965D01*
X39162Y281306D01*
X37960Y283849D01*
X36285Y286109D01*
X34201Y287999D01*
X32341Y289114D01*
X32447Y289158D01*
X34798Y290729D01*
X36796Y292727D01*
X38367Y295078D01*
X39448Y297689D01*
X40000Y300462D01*
X40000Y303288D01*
X39448Y306061D01*
X38367Y308672D01*
X36796Y311023D01*
X34798Y313021D01*
X32472Y314575D01*
X34798Y316129D01*
X36796Y318127D01*
X38367Y320478D01*
X39448Y323089D01*
X40000Y325862D01*
X40000Y328688D01*
X39448Y331461D01*
X38367Y334072D01*
X36796Y336423D01*
X34798Y338421D01*
X32472Y339975D01*
X34798Y341529D01*
X36796Y343527D01*
X38367Y345878D01*
X39448Y348489D01*
X40000Y351262D01*
X40000Y354088D01*
X39448Y356861D01*
X38367Y359472D01*
X36796Y361823D01*
X34798Y363821D01*
X32472Y365375D01*
X34798Y366929D01*
X36796Y368927D01*
X38367Y371278D01*
X39448Y373889D01*
X40000Y376662D01*
X40000Y379488D01*
X39448Y382261D01*
X39255Y382729D01*
X49449Y382729D01*
X49449Y276861D01*
X49411Y276475D01*
X49563Y274936D01*
X50011Y273457D01*
X50740Y272093D01*
X51721Y270897D01*
X52917Y269916D01*
X54280Y269187D01*
X55760Y268739D01*
X57299Y268587D01*
X57685Y268625D01*
X166037Y268625D01*
X166904Y267327D01*
X168413Y265818D01*
X140336Y265818D01*
X139950Y265856D01*
X138411Y265704D01*
X136931Y265256D01*
X135568Y264527D01*
X134372Y263546D01*
X133391Y262350D01*
X132662Y260987D01*
X132214Y259507D01*
X132062Y257968D01*
X132100Y257582D01*
X132100Y252794D01*
X129528Y251075D01*
X127250Y248797D01*
X125461Y246119D01*
X124228Y243144D01*
X123600Y239985D01*
X123600Y236765D01*
X124228Y233606D01*
X125461Y230630D01*
X127250Y227953D01*
X129528Y225675D01*
X132205Y223886D01*
X135181Y222653D01*
X138340Y222025D01*
X141560Y222025D01*
X144719Y222653D01*
X147695Y223886D01*
X150372Y225675D01*
X151718Y227021D01*
X180392Y227021D01*
X181350Y224377D01*
X184246Y222968D01*
X187361Y222151D01*
X190576Y221958D01*
X193767Y222395D01*
X196811Y223447D01*
X198550Y224377D01*
X199508Y227021D01*
X189950Y236579D01*
X180392Y227021D01*
X151718Y227021D01*
X152650Y227953D01*
X154439Y230630D01*
X155672Y233606D01*
X156300Y236765D01*
X156300Y237749D01*
X173533Y237749D01*
X173970Y234558D01*
X175022Y231514D01*
X175952Y229775D01*
X178596Y228817D01*
X188154Y238375D01*
X191746Y238375D01*
X201304Y228817D01*
X203948Y229775D01*
X205357Y232671D01*
X206174Y235786D01*
X206367Y239001D01*
X205930Y242192D01*
X204878Y245236D01*
X203948Y246975D01*
X202266Y247585D01*
X214931Y247585D01*
X215338Y246244D01*
X216540Y243701D01*
X218215Y241441D01*
X220299Y239551D01*
X222711Y238104D01*
X225360Y237156D01*
X227580Y238369D01*
X227580Y249805D01*
X230120Y249805D01*
X230120Y238369D01*
X232340Y237156D01*
X234989Y238104D01*
X237401Y239551D01*
X239485Y241441D01*
X241160Y243701D01*
X242362Y246244D01*
X242769Y247585D01*
X241549Y249805D01*
X230120Y249805D01*
X227580Y249805D01*
X216151Y249805D01*
X214931Y247585D01*
X202266Y247585D01*
X201304Y247933D01*
X191746Y238375D01*
X188154Y238375D01*
X178596Y247933D01*
X175952Y246975D01*
X174543Y244079D01*
X173726Y240964D01*
X173533Y237749D01*
X156300Y237749D01*
X156300Y239985D01*
X155672Y243144D01*
X154439Y246119D01*
X152650Y248797D01*
X151329Y250118D01*
X180533Y250118D01*
X180392Y249729D01*
X189950Y240171D01*
X199508Y249729D01*
X199204Y250568D01*
X199576Y250680D01*
X200939Y251409D01*
X202135Y252390D01*
X203116Y253586D01*
X203844Y254949D01*
X204293Y256429D01*
X204445Y257968D01*
X204407Y258354D01*
X204407Y268625D01*
X216837Y268625D01*
X217704Y267327D01*
X219702Y265329D01*
X222053Y263758D01*
X222159Y263714D01*
X220299Y262599D01*
X218215Y260709D01*
X216540Y258449D01*
X215338Y255906D01*
X214931Y254565D01*
X216151Y252345D01*
X227580Y252345D01*
X227580Y252545D01*
X230120Y252545D01*
X230120Y252345D01*
X241549Y252345D01*
X242769Y254565D01*
X242362Y255906D01*
X241160Y258449D01*
X239485Y260709D01*
X237401Y262599D01*
X235541Y263714D01*
X235647Y263758D01*
X237998Y265329D01*
X239996Y267327D01*
X240863Y268625D01*
X293037Y268625D01*
X293904Y267327D01*
X295902Y265329D01*
X298228Y263775D01*
X295902Y262221D01*
X293904Y260223D01*
X292333Y257872D01*
X291252Y255261D01*
X290700Y252488D01*
X290700Y249662D01*
X291252Y246889D01*
X292333Y244278D01*
X293904Y241927D01*
X295902Y239929D01*
X298253Y238358D01*
X300864Y237277D01*
X303637Y236725D01*
X306463Y236725D01*
X309236Y237277D01*
X311847Y238358D01*
X314198Y239929D01*
X316196Y241927D01*
X317767Y244278D01*
X318849Y246889D01*
X319400Y249662D01*
X319400Y252488D01*
X318849Y255261D01*
X317767Y257872D01*
X316196Y260223D01*
X314198Y262221D01*
X311872Y263775D01*
X314198Y265329D01*
X316196Y267327D01*
X317767Y269678D01*
X318849Y272289D01*
X319400Y275062D01*
X319400Y277888D01*
X318849Y280661D01*
X317767Y283272D01*
X316196Y285623D01*
X314198Y287621D01*
X311872Y289175D01*
X314198Y290729D01*
X316196Y292727D01*
X317767Y295078D01*
X318849Y297689D01*
X319400Y300462D01*
X319400Y303288D01*
X318849Y306061D01*
X318492Y306921D01*
X332422Y306921D01*
X332808Y306883D01*
X333964Y306997D01*
X333964Y278997D01*
X333638Y278997D01*
X333252Y279035D01*
X331713Y278883D01*
X330233Y278435D01*
X328870Y277705D01*
X327674Y276725D01*
X326693Y275529D01*
X325964Y274166D01*
X325516Y272686D01*
X325364Y271147D01*
X325402Y270761D01*
X325402Y193193D01*
X325064Y193531D01*
X323041Y194882D01*
X320793Y195813D01*
X318407Y196288D01*
X315975Y196288D01*
X313589Y195813D01*
X311341Y194882D01*
X309318Y193531D01*
X308576Y192788D01*
X39585Y192788D01*
X39150Y192831D01*
X38715Y192788D01*
X37415Y192660D01*
X35747Y192154D01*
X34209Y191332D01*
X32862Y190226D01*
X31756Y188879D01*
X30934Y187341D01*
X30428Y185673D01*
X30257Y183938D01*
X30300Y183503D01*
X30300Y87193D01*
X29795Y87039D01*
X27827Y85988D01*
X26103Y84572D01*
X24687Y82848D01*
X22769Y81525D01*
X20820Y81445D01*
X20820Y104143D01*
X20850Y104544D01*
X20781Y105113D01*
X20724Y105684D01*
X20702Y105758D01*
X20693Y105835D01*
X20514Y106379D01*
X20347Y106928D01*
X20311Y106996D01*
X20286Y107070D01*
X20005Y107569D01*
X19734Y108075D01*
X19685Y108134D01*
X19647Y108202D01*
X19273Y108636D01*
X18910Y109079D01*
X18598Y109335D01*
X6850Y120549D01*
X6850Y272985D01*
X11731Y272985D01*
X12138Y271644D01*
X13340Y269101D01*
X15015Y266841D01*
X17099Y264951D01*
X19511Y263504D01*
X22160Y262556D01*
X24380Y263769D01*
X24380Y275205D01*
X26920Y275205D01*
X26920Y263769D01*
X29140Y262556D01*
X31789Y263504D01*
X34201Y264951D01*
X36285Y266841D01*
X37960Y269101D01*
X39162Y271644D01*
X39569Y272985D01*
X38349Y275205D01*
X26920Y275205D01*
X24380Y275205D01*
X12951Y275205D01*
X11731Y272985D01*
X6850Y272985D01*
X6850Y382720D01*
X7142Y382691D01*
X7528Y382729D01*
X12045Y382729D01*
G36*
X601244Y231767D02*
X603242Y229769D01*
X605593Y228198D01*
X608204Y227116D01*
X610977Y226565D01*
X613803Y226565D01*
X616576Y227116D01*
X619187Y228198D01*
X621538Y229769D01*
X623536Y231767D01*
X624460Y233150D01*
X624460Y172356D01*
X623914Y173266D01*
X622024Y175350D01*
X619764Y177025D01*
X617221Y178227D01*
X615880Y178634D01*
X613660Y177414D01*
X613660Y165985D01*
X613860Y165985D01*
X613860Y163445D01*
X613660Y163445D01*
X613660Y152016D01*
X615880Y150796D01*
X617221Y151203D01*
X619764Y152405D01*
X622024Y154080D01*
X623914Y156164D01*
X624460Y157074D01*
X624460Y141041D01*
X608200Y124780D01*
X607862Y124503D01*
X607585Y124165D01*
X606756Y123155D01*
X605934Y121618D01*
X605428Y119950D01*
X605257Y118215D01*
X605300Y117780D01*
X605300Y87193D01*
X604795Y87039D01*
X602827Y85988D01*
X601650Y85021D01*
X600473Y85988D01*
X598505Y87039D01*
X596370Y87687D01*
X594150Y87906D01*
X584150Y87906D01*
X581930Y87687D01*
X579795Y87039D01*
X577827Y85988D01*
X576650Y85021D01*
X575473Y85988D01*
X573505Y87039D01*
X572000Y87496D01*
X572000Y115763D01*
X579568Y123331D01*
X579868Y123577D01*
X580849Y124773D01*
X581578Y126136D01*
X581628Y126303D01*
X582026Y127616D01*
X582128Y128653D01*
X582140Y128769D01*
X582178Y129155D01*
X582140Y129541D01*
X582140Y151212D01*
X583500Y150796D01*
X585720Y152016D01*
X585720Y163445D01*
X588260Y163445D01*
X588260Y152016D01*
X590480Y150796D01*
X591821Y151203D01*
X594364Y152405D01*
X596624Y154080D01*
X598514Y156164D01*
X599690Y158125D01*
X600866Y156164D01*
X602756Y154080D01*
X605016Y152405D01*
X607559Y151203D01*
X608900Y150796D01*
X611120Y152016D01*
X611120Y163445D01*
X588260Y163445D01*
X585720Y163445D01*
X585520Y163445D01*
X585520Y165985D01*
X585720Y165985D01*
X585720Y177414D01*
X588260Y177414D01*
X588260Y165985D01*
X611120Y165985D01*
X611120Y177414D01*
X608900Y178634D01*
X607559Y178227D01*
X605016Y177025D01*
X602756Y175350D01*
X600866Y173266D01*
X599690Y171305D01*
X598514Y173266D01*
X596624Y175350D01*
X594364Y177025D01*
X591821Y178227D01*
X590480Y178634D01*
X588260Y177414D01*
X585720Y177414D01*
X583500Y178634D01*
X582159Y178227D01*
X582140Y227392D01*
X582804Y227116D01*
X585577Y226565D01*
X588403Y226565D01*
X591176Y227116D01*
X593787Y228198D01*
X596138Y229769D01*
X598136Y231767D01*
X599690Y234093D01*
X601244Y231767D01*
G37*
G54D14*
X601244Y231767D02*
X603242Y229769D01*
X605593Y228198D01*
X608204Y227116D01*
X610977Y226565D01*
X613803Y226565D01*
X616576Y227116D01*
X619187Y228198D01*
X621538Y229769D01*
X623536Y231767D01*
X624460Y233150D01*
X624460Y172356D01*
X623914Y173266D01*
X622024Y175350D01*
X619764Y177025D01*
X617221Y178227D01*
X615880Y178634D01*
X613660Y177414D01*
X613660Y165985D01*
X613860Y165985D01*
X613860Y163445D01*
X613660Y163445D01*
X613660Y152016D01*
X615880Y150796D01*
X617221Y151203D01*
X619764Y152405D01*
X622024Y154080D01*
X623914Y156164D01*
X624460Y157074D01*
X624460Y141041D01*
X608200Y124780D01*
X607862Y124503D01*
X607585Y124165D01*
X606756Y123155D01*
X605934Y121618D01*
X605428Y119950D01*
X605257Y118215D01*
X605300Y117780D01*
X605300Y87193D01*
X604795Y87039D01*
X602827Y85988D01*
X601650Y85021D01*
X600473Y85988D01*
X598505Y87039D01*
X596370Y87687D01*
X594150Y87906D01*
X584150Y87906D01*
X581930Y87687D01*
X579795Y87039D01*
X577827Y85988D01*
X576650Y85021D01*
X575473Y85988D01*
X573505Y87039D01*
X572000Y87496D01*
X572000Y115763D01*
X579568Y123331D01*
X579868Y123577D01*
X580849Y124773D01*
X581578Y126136D01*
X581628Y126303D01*
X582026Y127616D01*
X582128Y128653D01*
X582140Y128769D01*
X582178Y129155D01*
X582140Y129541D01*
X582140Y151212D01*
X583500Y150796D01*
X585720Y152016D01*
X585720Y163445D01*
X588260Y163445D01*
X588260Y152016D01*
X590480Y150796D01*
X591821Y151203D01*
X594364Y152405D01*
X596624Y154080D01*
X598514Y156164D01*
X599690Y158125D01*
X600866Y156164D01*
X602756Y154080D01*
X605016Y152405D01*
X607559Y151203D01*
X608900Y150796D01*
X611120Y152016D01*
X611120Y163445D01*
X588260Y163445D01*
X585720Y163445D01*
X585520Y163445D01*
X585520Y165985D01*
X585720Y165985D01*
X585720Y177414D01*
X588260Y177414D01*
X588260Y165985D01*
X611120Y165985D01*
X611120Y177414D01*
X608900Y178634D01*
X607559Y178227D01*
X605016Y177025D01*
X602756Y175350D01*
X600866Y173266D01*
X599690Y171305D01*
X598514Y173266D01*
X596624Y175350D01*
X594364Y177025D01*
X591821Y178227D01*
X590480Y178634D01*
X588260Y177414D01*
X585720Y177414D01*
X583500Y178634D01*
X582159Y178227D01*
X582140Y227392D01*
X582804Y227116D01*
X585577Y226565D01*
X588403Y226565D01*
X591176Y227116D01*
X593787Y228198D01*
X596138Y229769D01*
X598136Y231767D01*
X599690Y234093D01*
X601244Y231767D01*
G54D19*
X599690Y234093D02*
X601244Y231767D01*
X603242Y229769D01*
X605593Y228198D01*
X608204Y227116D01*
X610977Y226565D01*
X613803Y226565D01*
X616576Y227116D01*
X619187Y228198D01*
X621538Y229769D01*
X623536Y231767D01*
X624460Y233150D01*
X624460Y172356D01*
X623914Y173266D01*
X622024Y175350D01*
X619764Y177025D01*
X617221Y178227D01*
X615880Y178634D01*
X613660Y177414D01*
X613660Y165985D01*
X613860Y165985D01*
X613860Y163445D01*
X613660Y163445D01*
X613660Y152016D01*
X615880Y150796D01*
X617221Y151203D01*
X619764Y152405D01*
X622024Y154080D01*
X623914Y156164D01*
X624460Y157074D01*
X624460Y141041D01*
X608200Y124780D01*
X607862Y124503D01*
X607585Y124165D01*
X607585Y124165D01*
X606756Y123155D01*
X605934Y121618D01*
X605428Y119950D01*
X605257Y118215D01*
X605300Y117780D01*
X605300Y87193D01*
X604795Y87039D01*
X602827Y85988D01*
X601650Y85021D01*
X600473Y85988D01*
X598505Y87039D01*
X596370Y87687D01*
X594150Y87906D01*
X584150Y87906D01*
X581930Y87687D01*
X579795Y87039D01*
X577827Y85988D01*
X576650Y85021D01*
X575473Y85988D01*
X573505Y87039D01*
X572000Y87496D01*
X572000Y115763D01*
X579568Y123331D01*
X579868Y123577D01*
X580849Y124773D01*
X581578Y126136D01*
X581628Y126303D01*
X582026Y127616D01*
X582128Y128653D01*
X582140Y128769D01*
X582140Y128769D01*
X582178Y129155D01*
X582140Y129541D01*
X582140Y151212D01*
X582159Y151203D01*
X583500Y150796D01*
X585720Y152016D01*
X585720Y163445D01*
X588260Y163445D01*
X588260Y152016D01*
X590480Y150796D01*
X591821Y151203D01*
X594364Y152405D01*
X596624Y154080D01*
X598514Y156164D01*
X599690Y158125D01*
X600866Y156164D01*
X602756Y154080D01*
X605016Y152405D01*
X607559Y151203D01*
X608900Y150796D01*
X611120Y152016D01*
X611120Y163445D01*
X588260Y163445D01*
X585720Y163445D01*
X585520Y163445D01*
X585520Y165985D01*
X585720Y165985D01*
X585720Y177414D01*
X588260Y177414D01*
X588260Y165985D01*
X611120Y165985D01*
X611120Y177414D01*
X608900Y178634D01*
X607559Y178227D01*
X605016Y177025D01*
X602756Y175350D01*
X600866Y173266D01*
X599690Y171305D01*
X598514Y173266D01*
X596624Y175350D01*
X594364Y177025D01*
X591821Y178227D01*
X590480Y178634D01*
X588260Y177414D01*
X585720Y177414D01*
X583500Y178634D01*
X582159Y178227D01*
X582140Y178218D01*
X582140Y227392D01*
X582804Y227116D01*
X585577Y226565D01*
X588403Y226565D01*
X591176Y227116D01*
X593787Y228198D01*
X596138Y229769D01*
X598136Y231767D01*
X599690Y234093D01*
G36*
X702600Y567449D02*
X702600Y558889D01*
X702600Y503263D01*
X702545Y503226D01*
X700599Y501280D01*
X699070Y498992D01*
X698773Y498276D01*
X698726Y498405D01*
X698107Y499565D01*
X695706Y500235D01*
X687846Y492375D01*
X695706Y484515D01*
X698107Y485185D01*
X698745Y486543D01*
X699070Y485758D01*
X700599Y483470D01*
X702545Y481524D01*
X702600Y481487D01*
X702600Y315961D01*
X668251Y315805D01*
X653465Y315805D01*
X653030Y315848D01*
X652595Y315805D01*
X651295Y315677D01*
X649627Y315171D01*
X648456Y314545D01*
X648089Y314349D01*
X647080Y313520D01*
X646742Y313243D01*
X646465Y312905D01*
X641744Y308185D01*
X635685Y308185D01*
X635250Y308228D01*
X634815Y308185D01*
X633598Y308185D01*
X634724Y309020D01*
X636614Y311104D01*
X638061Y313516D01*
X639009Y316165D01*
X637796Y318385D01*
X626360Y318385D01*
X626360Y318185D01*
X623820Y318185D01*
X623820Y318385D01*
X600960Y318385D01*
X600960Y318185D01*
X598420Y318185D01*
X598420Y318385D01*
X598220Y318385D01*
X598220Y320925D01*
X598420Y320925D01*
X598420Y332354D01*
X600960Y332354D01*
X600960Y320925D01*
X623820Y320925D01*
X623820Y332354D01*
X626360Y332354D01*
X626360Y320925D01*
X637796Y320925D01*
X639009Y323145D01*
X638061Y325794D01*
X636614Y328206D01*
X634724Y330290D01*
X632464Y331965D01*
X629921Y333167D01*
X628580Y333574D01*
X626360Y332354D01*
X623820Y332354D01*
X621600Y333574D01*
X620259Y333167D01*
X617716Y331965D01*
X615456Y330290D01*
X613566Y328206D01*
X612390Y326245D01*
X611214Y328206D01*
X609324Y330290D01*
X607064Y331965D01*
X604521Y333167D01*
X603180Y333574D01*
X600960Y332354D01*
X598420Y332354D01*
X596200Y333574D01*
X595840Y333465D01*
X595840Y334460D01*
X595883Y334895D01*
X595840Y335330D01*
X595712Y336630D01*
X595206Y338298D01*
X594384Y339835D01*
X593278Y341183D01*
X592940Y341460D01*
X592636Y341765D01*
X637208Y341765D01*
X637594Y341727D01*
X639133Y341879D01*
X640613Y342327D01*
X641976Y343056D01*
X643172Y344037D01*
X644153Y345233D01*
X644882Y346596D01*
X645330Y348076D01*
X645444Y349229D01*
X645482Y349615D01*
X645444Y350001D01*
X645444Y462969D01*
X645482Y463355D01*
X645330Y464894D01*
X644882Y466374D01*
X644153Y467737D01*
X643172Y468933D01*
X641976Y469914D01*
X640613Y470643D01*
X639133Y471091D01*
X637980Y471205D01*
X637594Y471243D01*
X637208Y471205D01*
X629824Y471205D01*
X629824Y479501D01*
X631175Y478942D01*
X633874Y478405D01*
X636626Y478405D01*
X639325Y478942D01*
X641867Y479995D01*
X644155Y481524D01*
X646101Y483470D01*
X647630Y485758D01*
X647950Y486530D01*
X648270Y485758D01*
X649799Y483470D01*
X651745Y481524D01*
X654033Y479995D01*
X656575Y478942D01*
X659274Y478405D01*
X662026Y478405D01*
X664725Y478942D01*
X667267Y479995D01*
X669555Y481524D01*
X670751Y482719D01*
X678190Y482719D01*
X678860Y480319D01*
X681350Y479147D01*
X684021Y478485D01*
X686770Y478356D01*
X689491Y478766D01*
X692080Y479699D01*
X693240Y480319D01*
X693910Y482719D01*
X686050Y490579D01*
X678190Y482719D01*
X670751Y482719D01*
X671501Y483470D01*
X673030Y485758D01*
X673327Y486475D01*
X673374Y486345D01*
X673993Y485185D01*
X676394Y484515D01*
X684254Y492375D01*
X676394Y500235D01*
X673993Y499565D01*
X673355Y498207D01*
X673030Y498992D01*
X671501Y501280D01*
X670751Y502031D01*
X678190Y502031D01*
X686050Y494171D01*
X693910Y502031D01*
X693240Y504432D01*
X690750Y505603D01*
X688079Y506265D01*
X685330Y506394D01*
X682609Y505984D01*
X680020Y505051D01*
X678860Y504432D01*
X678190Y502031D01*
X670751Y502031D01*
X669555Y503226D01*
X669500Y503263D01*
X669500Y555440D01*
X669543Y555875D01*
X669500Y556310D01*
X669372Y557610D01*
X668866Y559278D01*
X668044Y560816D01*
X667521Y561453D01*
X667215Y561825D01*
X666938Y562163D01*
X666600Y562440D01*
X655715Y573325D01*
X655438Y573663D01*
X654090Y574769D01*
X653724Y574965D01*
X695084Y574965D01*
X702600Y567449D01*
G37*
G54D14*
X702600Y567449D02*
X702600Y558889D01*
X702600Y503263D01*
X702545Y503226D01*
X700599Y501280D01*
X699070Y498992D01*
X698773Y498276D01*
X698726Y498405D01*
X698107Y499565D01*
X695706Y500235D01*
X687846Y492375D01*
X695706Y484515D01*
X698107Y485185D01*
X698745Y486543D01*
X699070Y485758D01*
X700599Y483470D01*
X702545Y481524D01*
X702600Y481487D01*
X702600Y315961D01*
X668251Y315805D01*
X653465Y315805D01*
X653030Y315848D01*
X652595Y315805D01*
X651295Y315677D01*
X649627Y315171D01*
X648456Y314545D01*
X648089Y314349D01*
X647080Y313520D01*
X646742Y313243D01*
X646465Y312905D01*
X641744Y308185D01*
X635685Y308185D01*
X635250Y308228D01*
X634815Y308185D01*
X633598Y308185D01*
X634724Y309020D01*
X636614Y311104D01*
X638061Y313516D01*
X639009Y316165D01*
X637796Y318385D01*
X626360Y318385D01*
X626360Y318185D01*
X623820Y318185D01*
X623820Y318385D01*
X600960Y318385D01*
X600960Y318185D01*
X598420Y318185D01*
X598420Y318385D01*
X598220Y318385D01*
X598220Y320925D01*
X598420Y320925D01*
X598420Y332354D01*
X600960Y332354D01*
X600960Y320925D01*
X623820Y320925D01*
X623820Y332354D01*
X626360Y332354D01*
X626360Y320925D01*
X637796Y320925D01*
X639009Y323145D01*
X638061Y325794D01*
X636614Y328206D01*
X634724Y330290D01*
X632464Y331965D01*
X629921Y333167D01*
X628580Y333574D01*
X626360Y332354D01*
X623820Y332354D01*
X621600Y333574D01*
X620259Y333167D01*
X617716Y331965D01*
X615456Y330290D01*
X613566Y328206D01*
X612390Y326245D01*
X611214Y328206D01*
X609324Y330290D01*
X607064Y331965D01*
X604521Y333167D01*
X603180Y333574D01*
X600960Y332354D01*
X598420Y332354D01*
X596200Y333574D01*
X595840Y333465D01*
X595840Y334460D01*
X595883Y334895D01*
X595840Y335330D01*
X595712Y336630D01*
X595206Y338298D01*
X594384Y339835D01*
X593278Y341183D01*
X592940Y341460D01*
X592636Y341765D01*
X637208Y341765D01*
X637594Y341727D01*
X639133Y341879D01*
X640613Y342327D01*
X641976Y343056D01*
X643172Y344037D01*
X644153Y345233D01*
X644882Y346596D01*
X645330Y348076D01*
X645444Y349229D01*
X645482Y349615D01*
X645444Y350001D01*
X645444Y462969D01*
X645482Y463355D01*
X645330Y464894D01*
X644882Y466374D01*
X644153Y467737D01*
X643172Y468933D01*
X641976Y469914D01*
X640613Y470643D01*
X639133Y471091D01*
X637980Y471205D01*
X637594Y471243D01*
X637208Y471205D01*
X629824Y471205D01*
X629824Y479501D01*
X631175Y478942D01*
X633874Y478405D01*
X636626Y478405D01*
X639325Y478942D01*
X641867Y479995D01*
X644155Y481524D01*
X646101Y483470D01*
X647630Y485758D01*
X647950Y486530D01*
X648270Y485758D01*
X649799Y483470D01*
X651745Y481524D01*
X654033Y479995D01*
X656575Y478942D01*
X659274Y478405D01*
X662026Y478405D01*
X664725Y478942D01*
X667267Y479995D01*
X669555Y481524D01*
X670751Y482719D01*
X678190Y482719D01*
X678860Y480319D01*
X681350Y479147D01*
X684021Y478485D01*
X686770Y478356D01*
X689491Y478766D01*
X692080Y479699D01*
X693240Y480319D01*
X693910Y482719D01*
X686050Y490579D01*
X678190Y482719D01*
X670751Y482719D01*
X671501Y483470D01*
X673030Y485758D01*
X673327Y486475D01*
X673374Y486345D01*
X673993Y485185D01*
X676394Y484515D01*
X684254Y492375D01*
X676394Y500235D01*
X673993Y499565D01*
X673355Y498207D01*
X673030Y498992D01*
X671501Y501280D01*
X670751Y502031D01*
X678190Y502031D01*
X686050Y494171D01*
X693910Y502031D01*
X693240Y504432D01*
X690750Y505603D01*
X688079Y506265D01*
X685330Y506394D01*
X682609Y505984D01*
X680020Y505051D01*
X678860Y504432D01*
X678190Y502031D01*
X670751Y502031D01*
X669555Y503226D01*
X669500Y503263D01*
X669500Y555440D01*
X669543Y555875D01*
X669500Y556310D01*
X669372Y557610D01*
X668866Y559278D01*
X668044Y560816D01*
X667521Y561453D01*
X667215Y561825D01*
X666938Y562163D01*
X666600Y562440D01*
X655715Y573325D01*
X655438Y573663D01*
X654090Y574769D01*
X653724Y574965D01*
X695084Y574965D01*
X702600Y567449D01*
G54D19*
X695084Y574965D02*
X702600Y567449D01*
X702600Y558889D01*
X702600Y558889D01*
X702600Y503263D01*
X702545Y503226D01*
X700599Y501280D01*
X699070Y498992D01*
X698773Y498276D01*
X698726Y498405D01*
X698107Y499565D01*
X695706Y500235D01*
X687846Y492375D01*
X695706Y484515D01*
X698107Y485185D01*
X698745Y486543D01*
X699070Y485758D01*
X700599Y483470D01*
X702545Y481524D01*
X702600Y481487D01*
X702600Y315961D01*
X668251Y315805D01*
X653465Y315805D01*
X653030Y315848D01*
X652595Y315805D01*
X652595Y315805D01*
X651295Y315677D01*
X649627Y315171D01*
X648456Y314545D01*
X648089Y314349D01*
X647080Y313520D01*
X647080Y313520D01*
X646742Y313243D01*
X646465Y312905D01*
X641744Y308185D01*
X635685Y308185D01*
X635250Y308228D01*
X634815Y308185D01*
X633598Y308185D01*
X634724Y309020D01*
X636614Y311104D01*
X638061Y313516D01*
X639009Y316165D01*
X637796Y318385D01*
X626360Y318385D01*
X626360Y318185D01*
X623820Y318185D01*
X623820Y318385D01*
X600960Y318385D01*
X600960Y318185D01*
X598420Y318185D01*
X598420Y318385D01*
X598220Y318385D01*
X598220Y320925D01*
X598420Y320925D01*
X598420Y332354D01*
X600960Y332354D01*
X600960Y320925D01*
X623820Y320925D01*
X623820Y332354D01*
X626360Y332354D01*
X626360Y320925D01*
X637796Y320925D01*
X639009Y323145D01*
X638061Y325794D01*
X636614Y328206D01*
X634724Y330290D01*
X632464Y331965D01*
X629921Y333167D01*
X628580Y333574D01*
X626360Y332354D01*
X623820Y332354D01*
X621600Y333574D01*
X620259Y333167D01*
X617716Y331965D01*
X615456Y330290D01*
X613566Y328206D01*
X612390Y326245D01*
X611214Y328206D01*
X609324Y330290D01*
X607064Y331965D01*
X604521Y333167D01*
X603180Y333574D01*
X600960Y332354D01*
X598420Y332354D01*
X596200Y333574D01*
X595840Y333465D01*
X595840Y334460D01*
X595883Y334895D01*
X595840Y335330D01*
X595840Y335330D01*
X595712Y336630D01*
X595206Y338298D01*
X594384Y339835D01*
X593278Y341183D01*
X592940Y341460D01*
X592636Y341765D01*
X637208Y341765D01*
X637594Y341727D01*
X639133Y341879D01*
X640613Y342327D01*
X641976Y343056D01*
X643172Y344037D01*
X644153Y345233D01*
X644882Y346596D01*
X645330Y348076D01*
X645444Y349229D01*
X645482Y349615D01*
X645444Y350001D01*
X645444Y462969D01*
X645482Y463355D01*
X645330Y464894D01*
X644882Y466374D01*
X644153Y467737D01*
X643172Y468933D01*
X641976Y469914D01*
X640613Y470643D01*
X639133Y471091D01*
X637980Y471205D01*
X637980Y471205D01*
X637594Y471243D01*
X637208Y471205D01*
X629824Y471205D01*
X629824Y479501D01*
X631175Y478942D01*
X633874Y478405D01*
X636626Y478405D01*
X639325Y478942D01*
X641867Y479995D01*
X644155Y481524D01*
X646101Y483470D01*
X647630Y485758D01*
X647950Y486530D01*
X648270Y485758D01*
X649799Y483470D01*
X651745Y481524D01*
X654033Y479995D01*
X656575Y478942D01*
X659274Y478405D01*
X662026Y478405D01*
X664725Y478942D01*
X667267Y479995D01*
X669555Y481524D01*
X670751Y482719D01*
X678190Y482719D01*
X678860Y480319D01*
X681350Y479147D01*
X684021Y478485D01*
X686770Y478356D01*
X689491Y478766D01*
X692080Y479699D01*
X693240Y480319D01*
X693910Y482719D01*
X686050Y490579D01*
X678190Y482719D01*
X670751Y482719D01*
X671501Y483470D01*
X673030Y485758D01*
X673327Y486475D01*
X673374Y486345D01*
X673993Y485185D01*
X676394Y484515D01*
X684254Y492375D01*
X676394Y500235D01*
X673993Y499565D01*
X673355Y498207D01*
X673030Y498992D01*
X671501Y501280D01*
X670751Y502031D01*
X678190Y502031D01*
X686050Y494171D01*
X693910Y502031D01*
X693240Y504432D01*
X690750Y505603D01*
X688079Y506265D01*
X685330Y506394D01*
X682609Y505984D01*
X680020Y505051D01*
X678860Y504432D01*
X678190Y502031D01*
X670751Y502031D01*
X669555Y503226D01*
X669500Y503263D01*
X669500Y555440D01*
X669543Y555875D01*
X669500Y556310D01*
X669500Y556310D01*
X669372Y557610D01*
X668866Y559278D01*
X668044Y560816D01*
X667521Y561453D01*
X667215Y561825D01*
X667215Y561825D01*
X666938Y562163D01*
X666600Y562440D01*
X655715Y573325D01*
X655438Y573663D01*
X654090Y574769D01*
X653724Y574965D01*
X695084Y574965D01*
G36*
X164251Y483861D02*
X163700Y481088D01*
X163700Y478262D01*
X164251Y475489D01*
X165333Y472878D01*
X166904Y470527D01*
X168902Y468529D01*
X170237Y467637D01*
X170314Y466863D01*
X170439Y466448D01*
X168902Y465421D01*
X166904Y463423D01*
X165333Y461072D01*
X164251Y458461D01*
X163700Y455688D01*
X163700Y452862D01*
X164251Y450089D01*
X165333Y447478D01*
X166904Y445127D01*
X168902Y443129D01*
X170506Y442057D01*
X170749Y441255D01*
X168902Y440021D01*
X166904Y438023D01*
X165333Y435672D01*
X164251Y433061D01*
X163700Y430288D01*
X163700Y427462D01*
X164251Y424689D01*
X165333Y422078D01*
X166904Y419727D01*
X168902Y417729D01*
X171253Y416158D01*
X171359Y416114D01*
X169499Y414999D01*
X167415Y413109D01*
X165740Y410849D01*
X164538Y408306D01*
X164131Y406965D01*
X165351Y404745D01*
X176780Y404745D01*
X176780Y404945D01*
X179320Y404945D01*
X179320Y404745D01*
X190749Y404745D01*
X191969Y406965D01*
X191562Y408306D01*
X190360Y410849D01*
X188685Y413109D01*
X186601Y414999D01*
X184741Y416114D01*
X184847Y416158D01*
X187198Y417729D01*
X189196Y419727D01*
X190767Y422078D01*
X191848Y424689D01*
X192400Y427462D01*
X192400Y430288D01*
X191848Y433061D01*
X190767Y435672D01*
X190293Y436381D01*
X202493Y436381D01*
X202493Y340165D01*
X202455Y339779D01*
X202607Y338240D01*
X203056Y336760D01*
X203784Y335397D01*
X204765Y334201D01*
X205961Y333220D01*
X207324Y332491D01*
X208804Y332043D01*
X209957Y331929D01*
X210343Y331891D01*
X210729Y331929D01*
X215245Y331929D01*
X215052Y331461D01*
X214500Y328688D01*
X214500Y325862D01*
X215052Y323089D01*
X215245Y322621D01*
X191655Y322621D01*
X191848Y323089D01*
X192400Y325862D01*
X192400Y328688D01*
X191848Y331461D01*
X190767Y334072D01*
X189196Y336423D01*
X187198Y338421D01*
X184872Y339975D01*
X187198Y341529D01*
X189196Y343527D01*
X190767Y345878D01*
X191848Y348489D01*
X192400Y351262D01*
X192400Y354088D01*
X191848Y356861D01*
X190767Y359472D01*
X189196Y361823D01*
X187198Y363821D01*
X184872Y365375D01*
X187198Y366929D01*
X189196Y368927D01*
X190767Y371278D01*
X191848Y373889D01*
X192400Y376662D01*
X192400Y379488D01*
X191848Y382261D01*
X190767Y384872D01*
X189196Y387223D01*
X187198Y389221D01*
X184847Y390792D01*
X184741Y390836D01*
X186601Y391951D01*
X188685Y393841D01*
X190360Y396101D01*
X191562Y398644D01*
X191969Y399985D01*
X190749Y402205D01*
X179320Y402205D01*
X179320Y402005D01*
X176780Y402005D01*
X176780Y402205D01*
X165351Y402205D01*
X164131Y399985D01*
X164538Y398644D01*
X165740Y396101D01*
X167415Y393841D01*
X169499Y391951D01*
X171359Y390836D01*
X171253Y390792D01*
X168902Y389221D01*
X166904Y387223D01*
X165333Y384872D01*
X164251Y382261D01*
X163700Y379488D01*
X163700Y376662D01*
X164251Y373889D01*
X165333Y371278D01*
X166904Y368927D01*
X168902Y366929D01*
X171228Y365375D01*
X168902Y363821D01*
X166904Y361823D01*
X165333Y359472D01*
X164251Y356861D01*
X163700Y354088D01*
X163700Y351262D01*
X164251Y348489D01*
X165333Y345878D01*
X166904Y343527D01*
X168902Y341529D01*
X171228Y339975D01*
X168902Y338421D01*
X166904Y336423D01*
X165333Y334072D01*
X164251Y331461D01*
X163700Y328688D01*
X163700Y325862D01*
X164251Y323089D01*
X164445Y322621D01*
X152604Y322621D01*
X152604Y453889D01*
X152642Y454275D01*
X152490Y455814D01*
X152042Y457294D01*
X151313Y458657D01*
X150332Y459853D01*
X149136Y460834D01*
X147773Y461563D01*
X146293Y462011D01*
X145140Y462125D01*
X144754Y462163D01*
X144368Y462125D01*
X37663Y462125D01*
X36796Y463423D01*
X34798Y465421D01*
X32472Y466975D01*
X34798Y468529D01*
X36796Y470527D01*
X38367Y472878D01*
X39448Y475489D01*
X40000Y478262D01*
X40000Y481088D01*
X39448Y483861D01*
X39092Y484721D01*
X164608Y484721D01*
X164251Y483861D01*
G37*
G54D14*
X164251Y483861D02*
X163700Y481088D01*
X163700Y478262D01*
X164251Y475489D01*
X165333Y472878D01*
X166904Y470527D01*
X168902Y468529D01*
X170237Y467637D01*
X170314Y466863D01*
X170439Y466448D01*
X168902Y465421D01*
X166904Y463423D01*
X165333Y461072D01*
X164251Y458461D01*
X163700Y455688D01*
X163700Y452862D01*
X164251Y450089D01*
X165333Y447478D01*
X166904Y445127D01*
X168902Y443129D01*
X170506Y442057D01*
X170749Y441255D01*
X168902Y440021D01*
X166904Y438023D01*
X165333Y435672D01*
X164251Y433061D01*
X163700Y430288D01*
X163700Y427462D01*
X164251Y424689D01*
X165333Y422078D01*
X166904Y419727D01*
X168902Y417729D01*
X171253Y416158D01*
X171359Y416114D01*
X169499Y414999D01*
X167415Y413109D01*
X165740Y410849D01*
X164538Y408306D01*
X164131Y406965D01*
X165351Y404745D01*
X176780Y404745D01*
X176780Y404945D01*
X179320Y404945D01*
X179320Y404745D01*
X190749Y404745D01*
X191969Y406965D01*
X191562Y408306D01*
X190360Y410849D01*
X188685Y413109D01*
X186601Y414999D01*
X184741Y416114D01*
X184847Y416158D01*
X187198Y417729D01*
X189196Y419727D01*
X190767Y422078D01*
X191848Y424689D01*
X192400Y427462D01*
X192400Y430288D01*
X191848Y433061D01*
X190767Y435672D01*
X190293Y436381D01*
X202493Y436381D01*
X202493Y340165D01*
X202455Y339779D01*
X202607Y338240D01*
X203056Y336760D01*
X203784Y335397D01*
X204765Y334201D01*
X205961Y333220D01*
X207324Y332491D01*
X208804Y332043D01*
X209957Y331929D01*
X210343Y331891D01*
X210729Y331929D01*
X215245Y331929D01*
X215052Y331461D01*
X214500Y328688D01*
X214500Y325862D01*
X215052Y323089D01*
X215245Y322621D01*
X191655Y322621D01*
X191848Y323089D01*
X192400Y325862D01*
X192400Y328688D01*
X191848Y331461D01*
X190767Y334072D01*
X189196Y336423D01*
X187198Y338421D01*
X184872Y339975D01*
X187198Y341529D01*
X189196Y343527D01*
X190767Y345878D01*
X191848Y348489D01*
X192400Y351262D01*
X192400Y354088D01*
X191848Y356861D01*
X190767Y359472D01*
X189196Y361823D01*
X187198Y363821D01*
X184872Y365375D01*
X187198Y366929D01*
X189196Y368927D01*
X190767Y371278D01*
X191848Y373889D01*
X192400Y376662D01*
X192400Y379488D01*
X191848Y382261D01*
X190767Y384872D01*
X189196Y387223D01*
X187198Y389221D01*
X184847Y390792D01*
X184741Y390836D01*
X186601Y391951D01*
X188685Y393841D01*
X190360Y396101D01*
X191562Y398644D01*
X191969Y399985D01*
X190749Y402205D01*
X179320Y402205D01*
X179320Y402005D01*
X176780Y402005D01*
X176780Y402205D01*
X165351Y402205D01*
X164131Y399985D01*
X164538Y398644D01*
X165740Y396101D01*
X167415Y393841D01*
X169499Y391951D01*
X171359Y390836D01*
X171253Y390792D01*
X168902Y389221D01*
X166904Y387223D01*
X165333Y384872D01*
X164251Y382261D01*
X163700Y379488D01*
X163700Y376662D01*
X164251Y373889D01*
X165333Y371278D01*
X166904Y368927D01*
X168902Y366929D01*
X171228Y365375D01*
X168902Y363821D01*
X166904Y361823D01*
X165333Y359472D01*
X164251Y356861D01*
X163700Y354088D01*
X163700Y351262D01*
X164251Y348489D01*
X165333Y345878D01*
X166904Y343527D01*
X168902Y341529D01*
X171228Y339975D01*
X168902Y338421D01*
X166904Y336423D01*
X165333Y334072D01*
X164251Y331461D01*
X163700Y328688D01*
X163700Y325862D01*
X164251Y323089D01*
X164445Y322621D01*
X152604Y322621D01*
X152604Y453889D01*
X152642Y454275D01*
X152490Y455814D01*
X152042Y457294D01*
X151313Y458657D01*
X150332Y459853D01*
X149136Y460834D01*
X147773Y461563D01*
X146293Y462011D01*
X145140Y462125D01*
X144754Y462163D01*
X144368Y462125D01*
X37663Y462125D01*
X36796Y463423D01*
X34798Y465421D01*
X32472Y466975D01*
X34798Y468529D01*
X36796Y470527D01*
X38367Y472878D01*
X39448Y475489D01*
X40000Y478262D01*
X40000Y481088D01*
X39448Y483861D01*
X39092Y484721D01*
X164608Y484721D01*
X164251Y483861D01*
G54D19*
X164608Y484721D02*
X164251Y483861D01*
X163700Y481088D01*
X163700Y478262D01*
X164251Y475489D01*
X165333Y472878D01*
X166904Y470527D01*
X168902Y468529D01*
X170237Y467637D01*
X170314Y466863D01*
X170439Y466448D01*
X168902Y465421D01*
X166904Y463423D01*
X165333Y461072D01*
X164251Y458461D01*
X163700Y455688D01*
X163700Y452862D01*
X164251Y450089D01*
X165333Y447478D01*
X166904Y445127D01*
X168902Y443129D01*
X170506Y442057D01*
X170749Y441255D01*
X168902Y440021D01*
X166904Y438023D01*
X165333Y435672D01*
X164251Y433061D01*
X163700Y430288D01*
X163700Y427462D01*
X164251Y424689D01*
X165333Y422078D01*
X166904Y419727D01*
X168902Y417729D01*
X171253Y416158D01*
X171359Y416114D01*
X169499Y414999D01*
X167415Y413109D01*
X165740Y410849D01*
X164538Y408306D01*
X164131Y406965D01*
X165351Y404745D01*
X176780Y404745D01*
X176780Y404945D01*
X179320Y404945D01*
X179320Y404745D01*
X190749Y404745D01*
X191969Y406965D01*
X191562Y408306D01*
X190360Y410849D01*
X188685Y413109D01*
X186601Y414999D01*
X184741Y416114D01*
X184847Y416158D01*
X187198Y417729D01*
X189196Y419727D01*
X190767Y422078D01*
X191848Y424689D01*
X192400Y427462D01*
X192400Y430288D01*
X191848Y433061D01*
X190767Y435672D01*
X190293Y436381D01*
X202493Y436381D01*
X202493Y340165D01*
X202455Y339779D01*
X202607Y338240D01*
X203056Y336760D01*
X203784Y335397D01*
X204765Y334201D01*
X205961Y333220D01*
X207324Y332491D01*
X208804Y332043D01*
X209957Y331929D01*
X209957Y331929D01*
X210343Y331891D01*
X210729Y331929D01*
X215245Y331929D01*
X215052Y331461D01*
X214500Y328688D01*
X214500Y325862D01*
X215052Y323089D01*
X215245Y322621D01*
X191655Y322621D01*
X191848Y323089D01*
X192400Y325862D01*
X192400Y328688D01*
X191848Y331461D01*
X190767Y334072D01*
X189196Y336423D01*
X187198Y338421D01*
X184872Y339975D01*
X187198Y341529D01*
X189196Y343527D01*
X190767Y345878D01*
X191848Y348489D01*
X192400Y351262D01*
X192400Y354088D01*
X191848Y356861D01*
X190767Y359472D01*
X189196Y361823D01*
X187198Y363821D01*
X184872Y365375D01*
X187198Y366929D01*
X189196Y368927D01*
X190767Y371278D01*
X191848Y373889D01*
X192400Y376662D01*
X192400Y379488D01*
X191848Y382261D01*
X190767Y384872D01*
X189196Y387223D01*
X187198Y389221D01*
X184847Y390792D01*
X184741Y390836D01*
X186601Y391951D01*
X188685Y393841D01*
X190360Y396101D01*
X191562Y398644D01*
X191969Y399985D01*
X190749Y402205D01*
X179320Y402205D01*
X179320Y402005D01*
X176780Y402005D01*
X176780Y402205D01*
X165351Y402205D01*
X164131Y399985D01*
X164538Y398644D01*
X165740Y396101D01*
X167415Y393841D01*
X169499Y391951D01*
X171359Y390836D01*
X171253Y390792D01*
X168902Y389221D01*
X166904Y387223D01*
X165333Y384872D01*
X164251Y382261D01*
X163700Y379488D01*
X163700Y376662D01*
X164251Y373889D01*
X165333Y371278D01*
X166904Y368927D01*
X168902Y366929D01*
X171228Y365375D01*
X168902Y363821D01*
X166904Y361823D01*
X165333Y359472D01*
X164251Y356861D01*
X163700Y354088D01*
X163700Y351262D01*
X164251Y348489D01*
X165333Y345878D01*
X166904Y343527D01*
X168902Y341529D01*
X171228Y339975D01*
X168902Y338421D01*
X166904Y336423D01*
X165333Y334072D01*
X164251Y331461D01*
X163700Y328688D01*
X163700Y325862D01*
X164251Y323089D01*
X164445Y322621D01*
X152604Y322621D01*
X152604Y453889D01*
X152642Y454275D01*
X152490Y455814D01*
X152042Y457294D01*
X151313Y458657D01*
X150332Y459853D01*
X149136Y460834D01*
X147773Y461563D01*
X146293Y462011D01*
X145140Y462125D01*
X144754Y462163D01*
X144368Y462125D01*
X37663Y462125D01*
X36796Y463423D01*
X34798Y465421D01*
X32472Y466975D01*
X34798Y468529D01*
X36796Y470527D01*
X38367Y472878D01*
X39448Y475489D01*
X40000Y478262D01*
X40000Y481088D01*
X39448Y483861D01*
X39092Y484721D01*
X164608Y484721D01*
G36*
X288325Y577865D02*
X288602Y577527D01*
X288940Y577250D01*
X289949Y576421D01*
X290316Y576225D01*
X279979Y576225D01*
X280383Y577200D01*
X280920Y579899D01*
X280920Y582651D01*
X280383Y585350D01*
X280061Y586129D01*
X288325Y577865D01*
G37*
G54D14*
X288325Y577865D02*
X288602Y577527D01*
X288940Y577250D01*
X289949Y576421D01*
X290316Y576225D01*
X279979Y576225D01*
X280383Y577200D01*
X280920Y579899D01*
X280920Y582651D01*
X280383Y585350D01*
X280061Y586129D01*
X288325Y577865D01*
G54D19*
X280061Y586129D02*
X288325Y577865D01*
X288602Y577527D01*
X288940Y577250D01*
X288940Y577250D01*
X289949Y576421D01*
X290316Y576225D01*
X279979Y576225D01*
X280383Y577200D01*
X280920Y579899D01*
X280920Y582651D01*
X280383Y585350D01*
X280061Y586129D01*
G36*
X256188Y644916D02*
X256046Y644775D01*
X263906Y636915D01*
X266307Y637585D01*
X266945Y638943D01*
X267270Y638158D01*
X268799Y635870D01*
X270745Y633924D01*
X270928Y632264D01*
X271434Y630596D01*
X272256Y629058D01*
X273085Y628048D01*
X273362Y627711D01*
X273700Y627433D01*
X275924Y625209D01*
X275924Y617458D01*
X275855Y617526D01*
X273567Y619055D01*
X271025Y620108D01*
X268326Y620645D01*
X265574Y620645D01*
X262875Y620108D01*
X260333Y619055D01*
X258045Y617526D01*
X256099Y615580D01*
X254570Y613292D01*
X253517Y610750D01*
X252980Y608051D01*
X252980Y605299D01*
X253517Y602600D01*
X254570Y600058D01*
X256099Y597770D01*
X258045Y595824D01*
X260333Y594295D01*
X261105Y593975D01*
X260333Y593655D01*
X258045Y592126D01*
X256099Y590180D01*
X254570Y587892D01*
X253517Y585350D01*
X252980Y582651D01*
X252980Y579899D01*
X253423Y577670D01*
X237700Y577670D01*
X237700Y633887D01*
X237755Y633924D01*
X238951Y635119D01*
X246390Y635119D01*
X247060Y632719D01*
X249550Y631547D01*
X252221Y630885D01*
X254970Y630756D01*
X257691Y631166D01*
X260280Y632099D01*
X261440Y632719D01*
X262110Y635119D01*
X254250Y642979D01*
X246390Y635119D01*
X238951Y635119D01*
X239701Y635870D01*
X241230Y638158D01*
X241527Y638875D01*
X241574Y638745D01*
X242193Y637585D01*
X244594Y636915D01*
X252454Y644775D01*
X252312Y644916D01*
X254109Y646712D01*
X254250Y646571D01*
X254391Y646712D01*
X256188Y644916D01*
G37*
G54D14*
X256188Y644916D02*
X256046Y644775D01*
X263906Y636915D01*
X266307Y637585D01*
X266945Y638943D01*
X267270Y638158D01*
X268799Y635870D01*
X270745Y633924D01*
X270928Y632264D01*
X271434Y630596D01*
X272256Y629058D01*
X273085Y628048D01*
X273362Y627711D01*
X273700Y627433D01*
X275924Y625209D01*
X275924Y617458D01*
X275855Y617526D01*
X273567Y619055D01*
X271025Y620108D01*
X268326Y620645D01*
X265574Y620645D01*
X262875Y620108D01*
X260333Y619055D01*
X258045Y617526D01*
X256099Y615580D01*
X254570Y613292D01*
X253517Y610750D01*
X252980Y608051D01*
X252980Y605299D01*
X253517Y602600D01*
X254570Y600058D01*
X256099Y597770D01*
X258045Y595824D01*
X260333Y594295D01*
X261105Y593975D01*
X260333Y593655D01*
X258045Y592126D01*
X256099Y590180D01*
X254570Y587892D01*
X253517Y585350D01*
X252980Y582651D01*
X252980Y579899D01*
X253423Y577670D01*
X237700Y577670D01*
X237700Y633887D01*
X237755Y633924D01*
X238951Y635119D01*
X246390Y635119D01*
X247060Y632719D01*
X249550Y631547D01*
X252221Y630885D01*
X254970Y630756D01*
X257691Y631166D01*
X260280Y632099D01*
X261440Y632719D01*
X262110Y635119D01*
X254250Y642979D01*
X246390Y635119D01*
X238951Y635119D01*
X239701Y635870D01*
X241230Y638158D01*
X241527Y638875D01*
X241574Y638745D01*
X242193Y637585D01*
X244594Y636915D01*
X252454Y644775D01*
X252312Y644916D01*
X254109Y646712D01*
X254250Y646571D01*
X254391Y646712D01*
X256188Y644916D01*
G54D19*
X254391Y646712D02*
X256188Y644916D01*
X256046Y644775D01*
X263906Y636915D01*
X266307Y637585D01*
X266945Y638943D01*
X267270Y638158D01*
X268799Y635870D01*
X270745Y633924D01*
X270766Y633909D01*
X270928Y632264D01*
X271434Y630596D01*
X272256Y629058D01*
X273085Y628048D01*
X273085Y628048D01*
X273362Y627711D01*
X273700Y627433D01*
X275924Y625209D01*
X275924Y617458D01*
X275855Y617526D01*
X273567Y619055D01*
X271025Y620108D01*
X268326Y620645D01*
X265574Y620645D01*
X262875Y620108D01*
X260333Y619055D01*
X258045Y617526D01*
X256099Y615580D01*
X254570Y613292D01*
X253517Y610750D01*
X252980Y608051D01*
X252980Y605299D01*
X253517Y602600D01*
X254570Y600058D01*
X256099Y597770D01*
X258045Y595824D01*
X260333Y594295D01*
X261105Y593975D01*
X260333Y593655D01*
X258045Y592126D01*
X256099Y590180D01*
X254570Y587892D01*
X253517Y585350D01*
X252980Y582651D01*
X252980Y579899D01*
X253423Y577670D01*
X237700Y577670D01*
X237700Y633887D01*
X237755Y633924D01*
X238951Y635119D01*
X246390Y635119D01*
X247060Y632719D01*
X249550Y631547D01*
X252221Y630885D01*
X254970Y630756D01*
X257691Y631166D01*
X260280Y632099D01*
X261440Y632719D01*
X262110Y635119D01*
X254250Y642979D01*
X246390Y635119D01*
X238951Y635119D01*
X239701Y635870D01*
X241230Y638158D01*
X241527Y638875D01*
X241574Y638745D01*
X242193Y637585D01*
X244594Y636915D01*
X252454Y644775D01*
X252312Y644916D01*
X254109Y646712D01*
X254250Y646571D01*
X254391Y646712D01*
X517775Y940050D02*
G54D10*
D03*
X543175Y940050D02*
G54D10*
D03*
X745105Y661682D02*
G54D10*
D03*
X745105Y610882D02*
G54D10*
D03*
G36*
X703450Y652775D02*
X719450Y652775D01*
X719450Y636775D01*
X703450Y636775D01*
X703450Y652775D01*
G37*
X178050Y606675D02*
G54D10*
D03*
X178050Y581275D02*
G54D10*
D03*
X178050Y555875D02*
G54D10*
D03*
X178050Y530475D02*
G54D10*
D03*
X178050Y505075D02*
G54D10*
D03*
X25650Y581275D02*
G54D10*
D03*
X25650Y555875D02*
G54D10*
D03*
X25650Y530475D02*
G54D10*
D03*
X25650Y505075D02*
G54D10*
D03*
X25650Y479675D02*
G54D10*
D03*
X178050Y479675D02*
G54D10*
D03*
X178050Y454275D02*
G54D10*
D03*
X178050Y428875D02*
G54D10*
D03*
X178050Y403475D02*
G54D10*
D03*
X178050Y378075D02*
G54D10*
D03*
X178050Y352675D02*
G54D10*
D03*
X178050Y327275D02*
G54D10*
D03*
X178050Y301875D02*
G54D10*
D03*
X178050Y276475D02*
G54D10*
D03*
X25650Y276475D02*
G54D10*
D03*
X25650Y301875D02*
G54D10*
D03*
X25650Y327275D02*
G54D10*
D03*
X25650Y352675D02*
G54D10*
D03*
X25650Y378075D02*
G54D10*
D03*
X25650Y403475D02*
G54D10*
D03*
X25650Y428875D02*
G54D10*
D03*
X25650Y454275D02*
G54D10*
D03*
X228850Y378075D02*
G54D10*
D03*
X228850Y352675D02*
G54D10*
D03*
X228850Y327275D02*
G54D10*
D03*
X228850Y301875D02*
G54D10*
D03*
X228850Y276475D02*
G54D10*
D03*
X228850Y251075D02*
G54D10*
D03*
X305050Y251075D02*
G54D10*
D03*
X305050Y276475D02*
G54D10*
D03*
X305050Y301875D02*
G54D10*
D03*
X305050Y327275D02*
G54D10*
D03*
X305050Y352675D02*
G54D10*
D03*
X305050Y378075D02*
G54D10*
D03*
X305050Y403475D02*
G54D10*
D03*
X421890Y433955D02*
G54D10*
D03*
X447290Y433955D02*
G54D10*
D03*
X472690Y433955D02*
G54D10*
D03*
X498090Y433955D02*
G54D10*
D03*
X523490Y433955D02*
G54D10*
D03*
X548890Y433955D02*
G54D10*
D03*
X574290Y433955D02*
G54D10*
D03*
X599690Y433955D02*
G54D10*
D03*
X625090Y433955D02*
G54D10*
D03*
X396490Y395855D02*
G54D10*
D03*
X421890Y395855D02*
G54D10*
D03*
X447290Y395855D02*
G54D10*
D03*
X472690Y395855D02*
G54D10*
D03*
X498090Y395855D02*
G54D10*
D03*
X523490Y395855D02*
G54D10*
D03*
X548890Y395855D02*
G54D10*
D03*
X574290Y395855D02*
G54D10*
D03*
X599690Y395855D02*
G54D10*
D03*
X625090Y395855D02*
G54D10*
D03*
X421890Y319655D02*
G54D10*
D03*
X447290Y319655D02*
G54D10*
D03*
X472690Y319655D02*
G54D10*
D03*
X498090Y319655D02*
G54D10*
D03*
X523490Y319655D02*
G54D10*
D03*
X548890Y319655D02*
G54D10*
D03*
X574290Y319655D02*
G54D10*
D03*
X599690Y319655D02*
G54D10*
D03*
X625090Y319655D02*
G54D10*
D03*
X409190Y279015D02*
G54D10*
D03*
X434590Y279015D02*
G54D10*
D03*
X459990Y279015D02*
G54D10*
D03*
X485390Y279015D02*
G54D10*
D03*
X510790Y279015D02*
G54D10*
D03*
X536190Y279015D02*
G54D10*
D03*
X561590Y279015D02*
G54D10*
D03*
X586990Y279015D02*
G54D10*
D03*
X383790Y240915D02*
G54D10*
D03*
X409190Y240915D02*
G54D10*
D03*
X434590Y240915D02*
G54D10*
D03*
X459990Y240915D02*
G54D10*
D03*
X485390Y240915D02*
G54D10*
D03*
X510790Y240915D02*
G54D10*
D03*
X536190Y240915D02*
G54D10*
D03*
X561590Y240915D02*
G54D10*
D03*
X586990Y240915D02*
G54D10*
D03*
X612390Y240915D02*
G54D10*
D03*
X409190Y164715D02*
G54D10*
D03*
X434590Y164715D02*
G54D10*
D03*
X459990Y164715D02*
G54D10*
D03*
X485390Y164715D02*
G54D10*
D03*
X510790Y164715D02*
G54D10*
D03*
X536190Y164715D02*
G54D10*
D03*
X561590Y164715D02*
G54D10*
D03*
X586990Y164715D02*
G54D10*
D03*
X612390Y164715D02*
G54D10*
D03*
X491978Y939653D02*
G54D10*
D03*
G36*
X458475Y948550D02*
X475475Y948550D01*
X475475Y931550D01*
X458475Y931550D01*
X458475Y948550D01*
G37*
G36*
X637126Y685972D02*
X637091Y685736D01*
X637033Y685504D01*
X636953Y685278D01*
X636850Y685062D01*
X636728Y684857D01*
X636585Y684665D01*
X636424Y684488D01*
X636247Y684327D01*
X636055Y684185D01*
X635850Y684062D01*
X635634Y683959D01*
X635408Y683879D01*
X635176Y683821D01*
X634940Y683785D01*
X634701Y683774D01*
X629826Y683774D01*
X629587Y683785D01*
X629350Y683821D01*
X629118Y683879D01*
X628893Y683959D01*
X628677Y684062D01*
X628472Y684185D01*
X628279Y684327D01*
X628102Y684488D01*
X627942Y684665D01*
X627799Y684857D01*
X627676Y685062D01*
X627574Y685278D01*
X627493Y685504D01*
X627435Y685736D01*
X627400Y685972D01*
X627388Y686211D01*
X627388Y695336D01*
X627400Y695575D01*
X627435Y695812D01*
X627493Y696044D01*
X627574Y696269D01*
X627676Y696485D01*
X627799Y696690D01*
X627942Y696883D01*
X628102Y697060D01*
X628279Y697220D01*
X628472Y697363D01*
X628677Y697486D01*
X628893Y697588D01*
X629118Y697669D01*
X629350Y697727D01*
X629587Y697762D01*
X629826Y697774D01*
X634701Y697774D01*
X634940Y697762D01*
X635176Y697727D01*
X635408Y697669D01*
X635634Y697588D01*
X635850Y697486D01*
X636055Y697363D01*
X636247Y697220D01*
X636424Y697060D01*
X636585Y696883D01*
X636728Y696690D01*
X636850Y696485D01*
X636953Y696269D01*
X637033Y696044D01*
X637091Y695812D01*
X637126Y695575D01*
X637138Y695336D01*
X637138Y686211D01*
X637126Y685972D01*
G37*
G54D14*
X637126Y685972D02*
X637091Y685736D01*
X637033Y685504D01*
X636953Y685278D01*
X636850Y685062D01*
X636728Y684857D01*
X636585Y684665D01*
X636424Y684488D01*
X636247Y684327D01*
X636055Y684185D01*
X635850Y684062D01*
X635634Y683959D01*
X635408Y683879D01*
X635176Y683821D01*
X634940Y683785D01*
X634701Y683774D01*
X629826Y683774D01*
X629587Y683785D01*
X629350Y683821D01*
X629118Y683879D01*
X628893Y683959D01*
X628677Y684062D01*
X628472Y684185D01*
X628279Y684327D01*
X628102Y684488D01*
X627942Y684665D01*
X627799Y684857D01*
X627676Y685062D01*
X627574Y685278D01*
X627493Y685504D01*
X627435Y685736D01*
X627400Y685972D01*
X627388Y686211D01*
X627388Y695336D01*
X627400Y695575D01*
X627435Y695812D01*
X627493Y696044D01*
X627574Y696269D01*
X627676Y696485D01*
X627799Y696690D01*
X627942Y696883D01*
X628102Y697060D01*
X628279Y697220D01*
X628472Y697363D01*
X628677Y697486D01*
X628893Y697588D01*
X629118Y697669D01*
X629350Y697727D01*
X629587Y697762D01*
X629826Y697774D01*
X634701Y697774D01*
X634940Y697762D01*
X635176Y697727D01*
X635408Y697669D01*
X635634Y697588D01*
X635850Y697486D01*
X636055Y697363D01*
X636247Y697220D01*
X636424Y697060D01*
X636585Y696883D01*
X636728Y696690D01*
X636850Y696485D01*
X636953Y696269D01*
X637033Y696044D01*
X637091Y695812D01*
X637126Y695575D01*
X637138Y695336D01*
X637138Y686211D01*
X637126Y685972D01*
G36*
X655876Y685972D02*
X655841Y685736D01*
X655783Y685504D01*
X655703Y685278D01*
X655600Y685062D01*
X655478Y684857D01*
X655335Y684665D01*
X655174Y684488D01*
X654997Y684327D01*
X654805Y684185D01*
X654600Y684062D01*
X654384Y683959D01*
X654158Y683879D01*
X653926Y683821D01*
X653690Y683785D01*
X653451Y683774D01*
X648576Y683774D01*
X648337Y683785D01*
X648100Y683821D01*
X647868Y683879D01*
X647643Y683959D01*
X647427Y684062D01*
X647222Y684185D01*
X647029Y684327D01*
X646852Y684488D01*
X646692Y684665D01*
X646549Y684857D01*
X646426Y685062D01*
X646324Y685278D01*
X646243Y685504D01*
X646185Y685736D01*
X646150Y685972D01*
X646138Y686211D01*
X646138Y695336D01*
X646150Y695575D01*
X646185Y695812D01*
X646243Y696044D01*
X646324Y696269D01*
X646426Y696485D01*
X646549Y696690D01*
X646692Y696883D01*
X646852Y697060D01*
X647029Y697220D01*
X647222Y697363D01*
X647427Y697486D01*
X647643Y697588D01*
X647868Y697669D01*
X648100Y697727D01*
X648337Y697762D01*
X648576Y697774D01*
X653451Y697774D01*
X653690Y697762D01*
X653926Y697727D01*
X654158Y697669D01*
X654384Y697588D01*
X654600Y697486D01*
X654805Y697363D01*
X654997Y697220D01*
X655174Y697060D01*
X655335Y696883D01*
X655478Y696690D01*
X655600Y696485D01*
X655703Y696269D01*
X655783Y696044D01*
X655841Y695812D01*
X655876Y695575D01*
X655888Y695336D01*
X655888Y686211D01*
X655876Y685972D01*
G37*
G54D14*
X655876Y685972D02*
X655841Y685736D01*
X655783Y685504D01*
X655703Y685278D01*
X655600Y685062D01*
X655478Y684857D01*
X655335Y684665D01*
X655174Y684488D01*
X654997Y684327D01*
X654805Y684185D01*
X654600Y684062D01*
X654384Y683959D01*
X654158Y683879D01*
X653926Y683821D01*
X653690Y683785D01*
X653451Y683774D01*
X648576Y683774D01*
X648337Y683785D01*
X648100Y683821D01*
X647868Y683879D01*
X647643Y683959D01*
X647427Y684062D01*
X647222Y684185D01*
X647029Y684327D01*
X646852Y684488D01*
X646692Y684665D01*
X646549Y684857D01*
X646426Y685062D01*
X646324Y685278D01*
X646243Y685504D01*
X646185Y685736D01*
X646150Y685972D01*
X646138Y686211D01*
X646138Y695336D01*
X646150Y695575D01*
X646185Y695812D01*
X646243Y696044D01*
X646324Y696269D01*
X646426Y696485D01*
X646549Y696690D01*
X646692Y696883D01*
X646852Y697060D01*
X647029Y697220D01*
X647222Y697363D01*
X647427Y697486D01*
X647643Y697588D01*
X647868Y697669D01*
X648100Y697727D01*
X648337Y697762D01*
X648576Y697774D01*
X653451Y697774D01*
X653690Y697762D01*
X653926Y697727D01*
X654158Y697669D01*
X654384Y697588D01*
X654600Y697486D01*
X654805Y697363D01*
X654997Y697220D01*
X655174Y697060D01*
X655335Y696883D01*
X655478Y696690D01*
X655600Y696485D01*
X655703Y696269D01*
X655783Y696044D01*
X655841Y695812D01*
X655876Y695575D01*
X655888Y695336D01*
X655888Y686211D01*
X655876Y685972D01*
G36*
X637523Y662160D02*
X637488Y661923D01*
X637430Y661691D01*
X637350Y661466D01*
X637247Y661250D01*
X637124Y661045D01*
X636982Y660852D01*
X636821Y660675D01*
X636644Y660515D01*
X636452Y660372D01*
X636247Y660249D01*
X636030Y660147D01*
X635805Y660066D01*
X635573Y660008D01*
X635336Y659973D01*
X635098Y659961D01*
X630223Y659961D01*
X629984Y659973D01*
X629747Y660008D01*
X629515Y660066D01*
X629290Y660147D01*
X629074Y660249D01*
X628868Y660372D01*
X628676Y660515D01*
X628499Y660675D01*
X628338Y660852D01*
X628196Y661045D01*
X628073Y661250D01*
X627971Y661466D01*
X627890Y661691D01*
X627832Y661923D01*
X627797Y662160D01*
X627785Y662399D01*
X627785Y671524D01*
X627797Y671763D01*
X627832Y671999D01*
X627890Y672231D01*
X627971Y672457D01*
X628073Y672673D01*
X628196Y672878D01*
X628338Y673070D01*
X628499Y673247D01*
X628676Y673408D01*
X628868Y673550D01*
X629074Y673673D01*
X629290Y673776D01*
X629515Y673856D01*
X629747Y673914D01*
X629984Y673950D01*
X630223Y673961D01*
X635098Y673961D01*
X635336Y673950D01*
X635573Y673914D01*
X635805Y673856D01*
X636030Y673776D01*
X636247Y673673D01*
X636452Y673550D01*
X636644Y673408D01*
X636821Y673247D01*
X636982Y673070D01*
X637124Y672878D01*
X637247Y672673D01*
X637350Y672457D01*
X637430Y672231D01*
X637488Y671999D01*
X637523Y671763D01*
X637535Y671524D01*
X637535Y662399D01*
X637523Y662160D01*
G37*
G54D14*
X637523Y662160D02*
X637488Y661923D01*
X637430Y661691D01*
X637350Y661466D01*
X637247Y661250D01*
X637124Y661045D01*
X636982Y660852D01*
X636821Y660675D01*
X636644Y660515D01*
X636452Y660372D01*
X636247Y660249D01*
X636030Y660147D01*
X635805Y660066D01*
X635573Y660008D01*
X635336Y659973D01*
X635098Y659961D01*
X630223Y659961D01*
X629984Y659973D01*
X629747Y660008D01*
X629515Y660066D01*
X629290Y660147D01*
X629074Y660249D01*
X628868Y660372D01*
X628676Y660515D01*
X628499Y660675D01*
X628338Y660852D01*
X628196Y661045D01*
X628073Y661250D01*
X627971Y661466D01*
X627890Y661691D01*
X627832Y661923D01*
X627797Y662160D01*
X627785Y662399D01*
X627785Y671524D01*
X627797Y671763D01*
X627832Y671999D01*
X627890Y672231D01*
X627971Y672457D01*
X628073Y672673D01*
X628196Y672878D01*
X628338Y673070D01*
X628499Y673247D01*
X628676Y673408D01*
X628868Y673550D01*
X629074Y673673D01*
X629290Y673776D01*
X629515Y673856D01*
X629747Y673914D01*
X629984Y673950D01*
X630223Y673961D01*
X635098Y673961D01*
X635336Y673950D01*
X635573Y673914D01*
X635805Y673856D01*
X636030Y673776D01*
X636247Y673673D01*
X636452Y673550D01*
X636644Y673408D01*
X636821Y673247D01*
X636982Y673070D01*
X637124Y672878D01*
X637247Y672673D01*
X637350Y672457D01*
X637430Y672231D01*
X637488Y671999D01*
X637523Y671763D01*
X637535Y671524D01*
X637535Y662399D01*
X637523Y662160D01*
G36*
X656273Y662160D02*
X656238Y661923D01*
X656180Y661691D01*
X656100Y661466D01*
X655997Y661250D01*
X655874Y661045D01*
X655732Y660852D01*
X655571Y660675D01*
X655394Y660515D01*
X655202Y660372D01*
X654997Y660249D01*
X654780Y660147D01*
X654555Y660066D01*
X654323Y660008D01*
X654086Y659973D01*
X653848Y659961D01*
X648973Y659961D01*
X648734Y659973D01*
X648497Y660008D01*
X648265Y660066D01*
X648040Y660147D01*
X647824Y660249D01*
X647618Y660372D01*
X647426Y660515D01*
X647249Y660675D01*
X647088Y660852D01*
X646946Y661045D01*
X646823Y661250D01*
X646721Y661466D01*
X646640Y661691D01*
X646582Y661923D01*
X646547Y662160D01*
X646535Y662399D01*
X646535Y671524D01*
X646547Y671763D01*
X646582Y671999D01*
X646640Y672231D01*
X646721Y672457D01*
X646823Y672673D01*
X646946Y672878D01*
X647088Y673070D01*
X647249Y673247D01*
X647426Y673408D01*
X647618Y673550D01*
X647824Y673673D01*
X648040Y673776D01*
X648265Y673856D01*
X648497Y673914D01*
X648734Y673950D01*
X648973Y673961D01*
X653848Y673961D01*
X654086Y673950D01*
X654323Y673914D01*
X654555Y673856D01*
X654780Y673776D01*
X654997Y673673D01*
X655202Y673550D01*
X655394Y673408D01*
X655571Y673247D01*
X655732Y673070D01*
X655874Y672878D01*
X655997Y672673D01*
X656100Y672457D01*
X656180Y672231D01*
X656238Y671999D01*
X656273Y671763D01*
X656285Y671524D01*
X656285Y662399D01*
X656273Y662160D01*
G37*
G54D14*
X656273Y662160D02*
X656238Y661923D01*
X656180Y661691D01*
X656100Y661466D01*
X655997Y661250D01*
X655874Y661045D01*
X655732Y660852D01*
X655571Y660675D01*
X655394Y660515D01*
X655202Y660372D01*
X654997Y660249D01*
X654780Y660147D01*
X654555Y660066D01*
X654323Y660008D01*
X654086Y659973D01*
X653848Y659961D01*
X648973Y659961D01*
X648734Y659973D01*
X648497Y660008D01*
X648265Y660066D01*
X648040Y660147D01*
X647824Y660249D01*
X647618Y660372D01*
X647426Y660515D01*
X647249Y660675D01*
X647088Y660852D01*
X646946Y661045D01*
X646823Y661250D01*
X646721Y661466D01*
X646640Y661691D01*
X646582Y661923D01*
X646547Y662160D01*
X646535Y662399D01*
X646535Y671524D01*
X646547Y671763D01*
X646582Y671999D01*
X646640Y672231D01*
X646721Y672457D01*
X646823Y672673D01*
X646946Y672878D01*
X647088Y673070D01*
X647249Y673247D01*
X647426Y673408D01*
X647618Y673550D01*
X647824Y673673D01*
X648040Y673776D01*
X648265Y673856D01*
X648497Y673914D01*
X648734Y673950D01*
X648973Y673961D01*
X653848Y673961D01*
X654086Y673950D01*
X654323Y673914D01*
X654555Y673856D01*
X654780Y673776D01*
X654997Y673673D01*
X655202Y673550D01*
X655394Y673408D01*
X655571Y673247D01*
X655732Y673070D01*
X655874Y672878D01*
X655997Y672673D01*
X656100Y672457D01*
X656180Y672231D01*
X656238Y671999D01*
X656273Y671763D01*
X656285Y671524D01*
X656285Y662399D01*
X656273Y662160D01*
G54D16*
X650478Y690563D02*
X685403Y690563D01*
X697309Y678656D01*
X728131Y678656D01*
X745105Y661682D01*
G54D16*
X651272Y667147D02*
X721122Y667147D01*
X729059Y659209D01*
X729059Y616347D01*
X735012Y610394D01*
X744617Y610394D01*
X745105Y610882D01*
G36*
X477691Y951763D02*
X477691Y928041D01*
X494506Y911225D01*
X541734Y911225D01*
X542925Y910034D01*
X543719Y910034D01*
X588566Y954881D01*
X677466Y954881D01*
X679053Y953294D01*
X679053Y931863D01*
X687388Y923528D01*
X687388Y736600D01*
X675481Y724694D01*
X31750Y724694D01*
X15081Y741363D01*
X15081Y934756D01*
X16150Y935825D01*
X21028Y935825D01*
X34131Y948928D01*
X458097Y948928D01*
X466975Y940050D01*
X477691Y951763D01*
G37*
G54D14*
X477691Y951763D02*
X477691Y928041D01*
X494506Y911225D01*
X541734Y911225D01*
X542925Y910034D01*
X543719Y910034D01*
X588566Y954881D01*
X677466Y954881D01*
X679053Y953294D01*
X679053Y931863D01*
X687388Y923528D01*
X687388Y736600D01*
X675481Y724694D01*
X31750Y724694D01*
X15081Y741363D01*
X15081Y934756D01*
X16150Y935825D01*
X21028Y935825D01*
X34131Y948928D01*
X458097Y948928D01*
X466975Y940050D01*
X477691Y951763D01*
X45494Y936478D02*
G54D10*
D03*
X45494Y793603D02*
G54D10*
D03*
X264172Y737644D02*
G54D10*
D03*
X263775Y936478D02*
G54D10*
D03*
X65338Y737247D02*
G54D10*
D03*
X352278Y873772D02*
G54D10*
D03*
X352278Y754709D02*
G54D10*
D03*
X600325Y929334D02*
G54D10*
D03*
X651125Y802334D02*
G54D10*
D03*
X189956Y207816D02*
G54D10*
D03*
X20094Y124869D02*
G54D10*
D03*
X665016Y743994D02*
G54D10*
D03*
G36*
X722312Y303213D02*
X790575Y363934D01*
X790575Y682625D01*
X786606Y682625D01*
X765572Y661591D01*
X765572Y605234D01*
X732234Y571897D01*
X732234Y481013D01*
X722312Y471091D01*
X722312Y303213D01*
G37*
G54D14*
X722312Y303213D02*
X790575Y363934D01*
X790575Y682625D01*
X786606Y682625D01*
X765572Y661591D01*
X765572Y605234D01*
X732234Y571897D01*
X732234Y481013D01*
X722312Y471091D01*
X722312Y303213D01*
X734072Y330847D02*
G54D10*
D03*
X767634Y359409D02*
G54D10*
D03*
X743597Y565400D02*
G54D10*
D03*
X776934Y637631D02*
G54D10*
D03*
M02*
