; Drill file
; Format: 2.4 (00.0000)
M48
INCH
T01C0.0236
T02C0.03
T03C0.0315
T04C0.0394
T05C0.0433
%
G05
G90
T01
X12490Y7240
X13790Y8310
X14860Y8080
X19180Y7850
X18610Y5460
X14200Y13080
X15610Y14040
X13030Y16810
X9250Y20290
X8030Y19130
X11940Y23940
X12570Y24350
X15360Y27840
X17010Y26410
X19570Y21460
X21010Y20290
X20630Y17860
X19110Y16330
X23990Y20860
X24490Y21880
X4770Y26140
X4160Y25720
T02
X790Y4920
X1010Y10880
X1010Y11880
X1010Y12880
X1010Y13880
X1010Y14880
X1010Y15880
X1010Y16880
X1010Y17880
X1010Y18880
X1010Y19880
X1010Y20880
X1010Y21880
X1010Y22880
X7010Y22880
X7010Y23880
X7010Y21880
X7010Y20880
X7010Y19880
X7010Y18880
X7010Y17880
X7010Y16880
X7010Y15880
X7010Y14880
X7010Y13880
X7010Y12880
X7010Y11880
X7010Y10880
X9010Y10880
X9010Y9880
X9010Y11880
X9010Y12880
X9010Y13880
X9010Y14880
X12010Y14880
X12010Y13880
X12010Y12880
X12010Y11880
X12010Y10880
X12010Y9880
X15110Y9480
X16110Y9480
X17110Y9480
X18110Y9480
X19110Y9480
X20110Y9480
X21110Y9480
X22110Y9480
X23110Y9480
X24110Y9480
X23110Y10980
X22110Y10980
X21110Y10980
X20110Y10980
X19110Y10980
X18110Y10980
X17110Y10980
X16110Y10980
X16610Y12580
X17610Y12580
X18610Y12580
X19610Y12580
X20610Y12580
X21610Y12580
X22610Y12580
X23610Y12580
X24610Y12580
X24610Y15580
X23610Y15580
X22610Y15580
X21610Y15580
X20610Y15580
X19610Y15580
X18610Y15580
X17610Y15580
X16610Y15580
X15610Y15580
X16610Y17080
X17610Y17080
X18610Y17080
X19610Y17080
X20610Y17080
X21610Y17080
X22610Y17080
X23610Y17080
X24610Y17080
X25010Y19380
X26010Y19380
X27010Y19380
X28010Y19380
X29280Y22260
X29330Y24050
X30590Y25100
X29330Y26050
X27010Y25380
X26010Y25380
X25010Y25380
X24010Y25380
X23010Y25380
X22010Y25380
X21010Y25380
X20010Y25380
X19010Y25380
X18010Y25380
X17010Y25380
X16010Y25380
X15010Y25380
X14010Y25380
X13010Y25380
X12010Y25380
X11010Y25380
X10010Y25380
X9010Y25380
X10510Y23880
X10510Y22880
X10510Y21880
X10510Y20880
X11010Y19380
X12010Y19380
X13010Y19380
X14010Y19380
X15010Y19380
X16010Y19380
X17010Y19380
X18010Y19380
X19010Y19380
X20010Y19380
X21010Y19380
X22010Y19380
X23010Y19380
X24010Y19380
X28900Y13030
X30220Y14150
X24110Y6480
X23110Y6480
X22110Y6480
X21110Y6480
X20110Y6480
X19110Y6480
X18110Y6480
X17110Y6480
X16110Y6480
X7480Y8180
X12010Y15880
X10010Y19380
X9010Y19380
X10400Y29040
X13870Y29710
X13870Y34400
X10380Y36870
X1790Y36870
X1790Y31240
X2570Y29030
X19370Y36990
X20380Y37010
X21380Y37010
X23630Y36590
X25630Y31590
X26180Y29290
T03
X15110Y6480
X15110Y10980
X15610Y12580
X15610Y17080
X9010Y15880
X1010Y23880
X28010Y25380
T04
X5510Y9380
X7480Y9380
X29320Y25070
X18380Y37010
T05
X27860Y27510
X27860Y29280
X27830Y31420
X27830Y33190
X27830Y35350
X27830Y37130
X30380Y37130
X30380Y35350
X30380Y33190
X30380Y31420
X30420Y29280
X30420Y27510
M30
