%FSLAX34Y34*%
%MOMM*%
%LNCOPPER_TOP*%
G71*
G01*
%ADD10C, 1.524*%
%ADD11C, 0.000*%
%ADD12C, 2.000*%
%ADD13C, 1.600*%
%ADD14R, 1.000X1.500*%
%ADD15R, 0.700X1.500*%
%ADD16R, 1.500X2.800*%
%ADD17R, 1.500X15.000*%
%ADD18C, 2.000*%
%ADD19C, 1.200*%
%ADD20C, 0.300*%
%ADD21C, 0.800*%
%ADD22C, 0.500*%
%ADD23C, 0.400*%
%ADD24C, 0.254*%
%LPD*%
X686050Y644775D02*
G54D10*
D03*
X660650Y644775D02*
G54D10*
D03*
X635250Y644775D02*
G54D10*
D03*
X609850Y644775D02*
G54D10*
D03*
X584450Y644775D02*
G54D10*
D03*
X559050Y644775D02*
G54D10*
D03*
X533650Y644775D02*
G54D10*
D03*
X508250Y644775D02*
G54D10*
D03*
X482850Y644775D02*
G54D10*
D03*
X457450Y644775D02*
G54D10*
D03*
X432050Y644775D02*
G54D10*
D03*
X406650Y644775D02*
G54D10*
D03*
X381250Y644775D02*
G54D10*
D03*
X355850Y644775D02*
G54D10*
D03*
X330450Y644775D02*
G54D10*
D03*
X305050Y644775D02*
G54D10*
D03*
X279650Y644775D02*
G54D10*
D03*
X254250Y644775D02*
G54D10*
D03*
X228850Y644775D02*
G54D10*
D03*
X711450Y492375D02*
G54D10*
D03*
X686050Y492375D02*
G54D10*
D03*
X660650Y492375D02*
G54D10*
D03*
X635250Y492375D02*
G54D10*
D03*
X609850Y492375D02*
G54D10*
D03*
X584450Y492375D02*
G54D10*
D03*
X559050Y492375D02*
G54D10*
D03*
X533650Y492375D02*
G54D10*
D03*
X508250Y492375D02*
G54D10*
D03*
X482850Y492375D02*
G54D10*
D03*
X457450Y492375D02*
G54D10*
D03*
X432050Y492375D02*
G54D10*
D03*
X406650Y492375D02*
G54D10*
D03*
X381250Y492375D02*
G54D10*
D03*
X355850Y492375D02*
G54D10*
D03*
X330450Y492375D02*
G54D10*
D03*
X305050Y492375D02*
G54D10*
D03*
X279650Y492375D02*
G54D10*
D03*
X254250Y492375D02*
G54D10*
D03*
X228850Y492375D02*
G54D10*
D03*
X266950Y555875D02*
G54D10*
D03*
X266950Y581275D02*
G54D10*
D03*
X266950Y530475D02*
G54D10*
D03*
X266950Y606675D02*
G54D10*
D03*
G36*
X369640Y81501D02*
X370126Y81429D01*
X370601Y81310D01*
X371063Y81144D01*
X371507Y80935D01*
X371928Y80682D01*
X372322Y80390D01*
X372686Y80061D01*
X373015Y79697D01*
X373307Y79303D01*
X373560Y78882D01*
X373769Y78438D01*
X373935Y77976D01*
X374054Y77501D01*
X374126Y77015D01*
X374150Y76525D01*
X374150Y6525D01*
X374126Y6035D01*
X374054Y5549D01*
X373935Y5074D01*
X373769Y4611D01*
X373560Y4168D01*
X373307Y3747D01*
X373015Y3353D01*
X372686Y2989D01*
X372322Y2660D01*
X371928Y2368D01*
X371507Y2115D01*
X371063Y1905D01*
X370601Y1740D01*
X370126Y1621D01*
X369640Y1549D01*
X369150Y1525D01*
X359150Y1525D01*
X358660Y1549D01*
X358175Y1621D01*
X357699Y1740D01*
X357237Y1905D01*
X356793Y2115D01*
X356372Y2368D01*
X355978Y2660D01*
X355614Y2989D01*
X355285Y3353D01*
X354993Y3747D01*
X354740Y4168D01*
X354531Y4611D01*
X354365Y5074D01*
X354246Y5549D01*
X354174Y6035D01*
X354150Y6525D01*
X354150Y76525D01*
X354174Y77015D01*
X354246Y77501D01*
X354365Y77976D01*
X354531Y78438D01*
X354740Y78882D01*
X354993Y79303D01*
X355285Y79697D01*
X355614Y80061D01*
X355978Y80390D01*
X356372Y80682D01*
X356793Y80935D01*
X357237Y81144D01*
X357699Y81310D01*
X358175Y81429D01*
X358660Y81501D01*
X359150Y81525D01*
X369150Y81525D01*
X369640Y81501D01*
G37*
G54D11*
X369640Y81501D02*
X370126Y81429D01*
X370601Y81310D01*
X371063Y81144D01*
X371507Y80935D01*
X371928Y80682D01*
X372322Y80390D01*
X372686Y80061D01*
X373015Y79697D01*
X373307Y79303D01*
X373560Y78882D01*
X373769Y78438D01*
X373935Y77976D01*
X374054Y77501D01*
X374126Y77015D01*
X374150Y76525D01*
X374150Y6525D01*
X374126Y6035D01*
X374054Y5549D01*
X373935Y5074D01*
X373769Y4611D01*
X373560Y4168D01*
X373307Y3747D01*
X373015Y3353D01*
X372686Y2989D01*
X372322Y2660D01*
X371928Y2368D01*
X371507Y2115D01*
X371063Y1905D01*
X370601Y1740D01*
X370126Y1621D01*
X369640Y1549D01*
X369150Y1525D01*
X359150Y1525D01*
X358660Y1549D01*
X358175Y1621D01*
X357699Y1740D01*
X357237Y1905D01*
X356793Y2115D01*
X356372Y2368D01*
X355978Y2660D01*
X355614Y2989D01*
X355285Y3353D01*
X354993Y3747D01*
X354740Y4168D01*
X354531Y4611D01*
X354365Y5074D01*
X354246Y5549D01*
X354174Y6035D01*
X354150Y6525D01*
X354150Y76525D01*
X354174Y77015D01*
X354246Y77501D01*
X354365Y77976D01*
X354531Y78438D01*
X354740Y78882D01*
X354993Y79303D01*
X355285Y79697D01*
X355614Y80061D01*
X355978Y80390D01*
X356372Y80682D01*
X356793Y80935D01*
X357237Y81144D01*
X357699Y81310D01*
X358175Y81429D01*
X358660Y81501D01*
X359150Y81525D01*
X369150Y81525D01*
X369640Y81501D01*
G36*
X344640Y81501D02*
X345126Y81429D01*
X345601Y81310D01*
X346063Y81144D01*
X346507Y80935D01*
X346928Y80682D01*
X347322Y80390D01*
X347686Y80061D01*
X348015Y79697D01*
X348307Y79303D01*
X348560Y78882D01*
X348769Y78438D01*
X348935Y77976D01*
X349054Y77501D01*
X349126Y77015D01*
X349150Y76525D01*
X349150Y6525D01*
X349126Y6035D01*
X349054Y5549D01*
X348935Y5074D01*
X348769Y4611D01*
X348560Y4168D01*
X348307Y3747D01*
X348015Y3353D01*
X347686Y2989D01*
X347322Y2660D01*
X346928Y2368D01*
X346507Y2115D01*
X346063Y1905D01*
X345601Y1740D01*
X345126Y1621D01*
X344640Y1549D01*
X344150Y1525D01*
X334150Y1525D01*
X333660Y1549D01*
X333175Y1621D01*
X332699Y1740D01*
X332237Y1905D01*
X331793Y2115D01*
X331372Y2368D01*
X330978Y2660D01*
X330614Y2989D01*
X330285Y3353D01*
X329993Y3747D01*
X329740Y4168D01*
X329531Y4611D01*
X329365Y5074D01*
X329246Y5549D01*
X329174Y6035D01*
X329150Y6525D01*
X329150Y76525D01*
X329174Y77015D01*
X329246Y77501D01*
X329365Y77976D01*
X329531Y78438D01*
X329740Y78882D01*
X329993Y79303D01*
X330285Y79697D01*
X330614Y80061D01*
X330978Y80390D01*
X331372Y80682D01*
X331793Y80935D01*
X332237Y81144D01*
X332699Y81310D01*
X333175Y81429D01*
X333660Y81501D01*
X334150Y81525D01*
X344150Y81525D01*
X344640Y81501D01*
G37*
G54D11*
X344640Y81501D02*
X345126Y81429D01*
X345601Y81310D01*
X346063Y81144D01*
X346507Y80935D01*
X346928Y80682D01*
X347322Y80390D01*
X347686Y80061D01*
X348015Y79697D01*
X348307Y79303D01*
X348560Y78882D01*
X348769Y78438D01*
X348935Y77976D01*
X349054Y77501D01*
X349126Y77015D01*
X349150Y76525D01*
X349150Y6525D01*
X349126Y6035D01*
X349054Y5549D01*
X348935Y5074D01*
X348769Y4611D01*
X348560Y4168D01*
X348307Y3747D01*
X348015Y3353D01*
X347686Y2989D01*
X347322Y2660D01*
X346928Y2368D01*
X346507Y2115D01*
X346063Y1905D01*
X345601Y1740D01*
X345126Y1621D01*
X344640Y1549D01*
X344150Y1525D01*
X334150Y1525D01*
X333660Y1549D01*
X333175Y1621D01*
X332699Y1740D01*
X332237Y1905D01*
X331793Y2115D01*
X331372Y2368D01*
X330978Y2660D01*
X330614Y2989D01*
X330285Y3353D01*
X329993Y3747D01*
X329740Y4168D01*
X329531Y4611D01*
X329365Y5074D01*
X329246Y5549D01*
X329174Y6035D01*
X329150Y6525D01*
X329150Y76525D01*
X329174Y77015D01*
X329246Y77501D01*
X329365Y77976D01*
X329531Y78438D01*
X329740Y78882D01*
X329993Y79303D01*
X330285Y79697D01*
X330614Y80061D01*
X330978Y80390D01*
X331372Y80682D01*
X331793Y80935D01*
X332237Y81144D01*
X332699Y81310D01*
X333175Y81429D01*
X333660Y81501D01*
X334150Y81525D01*
X344150Y81525D01*
X344640Y81501D01*
G36*
X119640Y81501D02*
X120126Y81429D01*
X120601Y81310D01*
X121063Y81144D01*
X121507Y80935D01*
X121928Y80682D01*
X122322Y80390D01*
X122686Y80061D01*
X123015Y79697D01*
X123307Y79303D01*
X123560Y78882D01*
X123769Y78438D01*
X123935Y77976D01*
X124054Y77501D01*
X124126Y77015D01*
X124150Y76525D01*
X124150Y6525D01*
X124126Y6035D01*
X124054Y5549D01*
X123935Y5074D01*
X123769Y4611D01*
X123560Y4168D01*
X123307Y3747D01*
X123015Y3353D01*
X122686Y2989D01*
X122322Y2660D01*
X121928Y2368D01*
X121507Y2115D01*
X121063Y1905D01*
X120601Y1740D01*
X120126Y1621D01*
X119640Y1549D01*
X119150Y1525D01*
X109150Y1525D01*
X108660Y1549D01*
X108175Y1621D01*
X107699Y1740D01*
X107237Y1905D01*
X106793Y2115D01*
X106372Y2368D01*
X105978Y2660D01*
X105614Y2989D01*
X105285Y3353D01*
X104993Y3747D01*
X104740Y4168D01*
X104531Y4611D01*
X104365Y5074D01*
X104246Y5549D01*
X104174Y6035D01*
X104150Y6525D01*
X104150Y76525D01*
X104174Y77015D01*
X104246Y77501D01*
X104365Y77976D01*
X104531Y78438D01*
X104740Y78882D01*
X104993Y79303D01*
X105285Y79697D01*
X105614Y80061D01*
X105978Y80390D01*
X106372Y80682D01*
X106793Y80935D01*
X107237Y81144D01*
X107699Y81310D01*
X108175Y81429D01*
X108660Y81501D01*
X109150Y81525D01*
X119150Y81525D01*
X119640Y81501D01*
G37*
G54D11*
X119640Y81501D02*
X120126Y81429D01*
X120601Y81310D01*
X121063Y81144D01*
X121507Y80935D01*
X121928Y80682D01*
X122322Y80390D01*
X122686Y80061D01*
X123015Y79697D01*
X123307Y79303D01*
X123560Y78882D01*
X123769Y78438D01*
X123935Y77976D01*
X124054Y77501D01*
X124126Y77015D01*
X124150Y76525D01*
X124150Y6525D01*
X124126Y6035D01*
X124054Y5549D01*
X123935Y5074D01*
X123769Y4611D01*
X123560Y4168D01*
X123307Y3747D01*
X123015Y3353D01*
X122686Y2989D01*
X122322Y2660D01*
X121928Y2368D01*
X121507Y2115D01*
X121063Y1905D01*
X120601Y1740D01*
X120126Y1621D01*
X119640Y1549D01*
X119150Y1525D01*
X109150Y1525D01*
X108660Y1549D01*
X108175Y1621D01*
X107699Y1740D01*
X107237Y1905D01*
X106793Y2115D01*
X106372Y2368D01*
X105978Y2660D01*
X105614Y2989D01*
X105285Y3353D01*
X104993Y3747D01*
X104740Y4168D01*
X104531Y4611D01*
X104365Y5074D01*
X104246Y5549D01*
X104174Y6035D01*
X104150Y6525D01*
X104150Y76525D01*
X104174Y77015D01*
X104246Y77501D01*
X104365Y77976D01*
X104531Y78438D01*
X104740Y78882D01*
X104993Y79303D01*
X105285Y79697D01*
X105614Y80061D01*
X105978Y80390D01*
X106372Y80682D01*
X106793Y80935D01*
X107237Y81144D01*
X107699Y81310D01*
X108175Y81429D01*
X108660Y81501D01*
X109150Y81525D01*
X119150Y81525D01*
X119640Y81501D01*
G36*
X619640Y81501D02*
X620126Y81429D01*
X620601Y81310D01*
X621064Y81144D01*
X621507Y80935D01*
X621928Y80682D01*
X622322Y80390D01*
X622686Y80061D01*
X623015Y79697D01*
X623307Y79303D01*
X623560Y78882D01*
X623769Y78438D01*
X623935Y77976D01*
X624054Y77501D01*
X624126Y77015D01*
X624150Y76525D01*
X624150Y6525D01*
X624126Y6035D01*
X624054Y5549D01*
X623935Y5074D01*
X623769Y4611D01*
X623560Y4168D01*
X623307Y3747D01*
X623015Y3353D01*
X622686Y2989D01*
X622322Y2660D01*
X621928Y2368D01*
X621507Y2115D01*
X621064Y1905D01*
X620601Y1740D01*
X620126Y1621D01*
X619640Y1549D01*
X619150Y1525D01*
X609150Y1525D01*
X608660Y1549D01*
X608175Y1621D01*
X607699Y1740D01*
X607237Y1905D01*
X606793Y2115D01*
X606372Y2368D01*
X605978Y2660D01*
X605614Y2989D01*
X605285Y3353D01*
X604993Y3747D01*
X604740Y4168D01*
X604531Y4611D01*
X604365Y5074D01*
X604246Y5549D01*
X604174Y6035D01*
X604150Y6525D01*
X604150Y76525D01*
X604174Y77015D01*
X604246Y77501D01*
X604365Y77976D01*
X604531Y78438D01*
X604740Y78882D01*
X604993Y79303D01*
X605285Y79697D01*
X605614Y80061D01*
X605978Y80390D01*
X606372Y80682D01*
X606793Y80935D01*
X607237Y81144D01*
X607699Y81310D01*
X608175Y81429D01*
X608660Y81501D01*
X609150Y81525D01*
X619150Y81525D01*
X619640Y81501D01*
G37*
G54D11*
X619640Y81501D02*
X620126Y81429D01*
X620601Y81310D01*
X621064Y81144D01*
X621507Y80935D01*
X621928Y80682D01*
X622322Y80390D01*
X622686Y80061D01*
X623015Y79697D01*
X623307Y79303D01*
X623560Y78882D01*
X623769Y78438D01*
X623935Y77976D01*
X624054Y77501D01*
X624126Y77015D01*
X624150Y76525D01*
X624150Y6525D01*
X624126Y6035D01*
X624054Y5549D01*
X623935Y5074D01*
X623769Y4611D01*
X623560Y4168D01*
X623307Y3747D01*
X623015Y3353D01*
X622686Y2989D01*
X622322Y2660D01*
X621928Y2368D01*
X621507Y2115D01*
X621064Y1905D01*
X620601Y1740D01*
X620126Y1621D01*
X619640Y1549D01*
X619150Y1525D01*
X609150Y1525D01*
X608660Y1549D01*
X608175Y1621D01*
X607699Y1740D01*
X607237Y1905D01*
X606793Y2115D01*
X606372Y2368D01*
X605978Y2660D01*
X605614Y2989D01*
X605285Y3353D01*
X604993Y3747D01*
X604740Y4168D01*
X604531Y4611D01*
X604365Y5074D01*
X604246Y5549D01*
X604174Y6035D01*
X604150Y6525D01*
X604150Y76525D01*
X604174Y77015D01*
X604246Y77501D01*
X604365Y77976D01*
X604531Y78438D01*
X604740Y78882D01*
X604993Y79303D01*
X605285Y79697D01*
X605614Y80061D01*
X605978Y80390D01*
X606372Y80682D01*
X606793Y80935D01*
X607237Y81144D01*
X607699Y81310D01*
X608175Y81429D01*
X608660Y81501D01*
X609150Y81525D01*
X619150Y81525D01*
X619640Y81501D01*
G36*
X444640Y81501D02*
X445126Y81429D01*
X445601Y81310D01*
X446063Y81144D01*
X446507Y80935D01*
X446928Y80682D01*
X447322Y80390D01*
X447686Y80061D01*
X448015Y79697D01*
X448307Y79303D01*
X448560Y78882D01*
X448769Y78438D01*
X448935Y77976D01*
X449054Y77501D01*
X449126Y77015D01*
X449150Y76525D01*
X449150Y6525D01*
X449126Y6035D01*
X449054Y5549D01*
X448935Y5074D01*
X448769Y4611D01*
X448560Y4168D01*
X448307Y3747D01*
X448015Y3353D01*
X447686Y2989D01*
X447322Y2660D01*
X446928Y2368D01*
X446507Y2115D01*
X446063Y1905D01*
X445601Y1740D01*
X445126Y1621D01*
X444640Y1549D01*
X444150Y1525D01*
X434150Y1525D01*
X433660Y1549D01*
X433175Y1621D01*
X432699Y1740D01*
X432237Y1905D01*
X431793Y2115D01*
X431372Y2368D01*
X430978Y2660D01*
X430614Y2989D01*
X430285Y3353D01*
X429993Y3747D01*
X429740Y4168D01*
X429531Y4611D01*
X429365Y5074D01*
X429246Y5549D01*
X429174Y6035D01*
X429150Y6525D01*
X429150Y76525D01*
X429174Y77015D01*
X429246Y77501D01*
X429365Y77976D01*
X429531Y78438D01*
X429740Y78882D01*
X429993Y79303D01*
X430285Y79697D01*
X430614Y80061D01*
X430978Y80390D01*
X431372Y80682D01*
X431793Y80935D01*
X432237Y81144D01*
X432699Y81310D01*
X433175Y81429D01*
X433660Y81501D01*
X434150Y81525D01*
X444150Y81525D01*
X444640Y81501D01*
G37*
G54D11*
X444640Y81501D02*
X445126Y81429D01*
X445601Y81310D01*
X446063Y81144D01*
X446507Y80935D01*
X446928Y80682D01*
X447322Y80390D01*
X447686Y80061D01*
X448015Y79697D01*
X448307Y79303D01*
X448560Y78882D01*
X448769Y78438D01*
X448935Y77976D01*
X449054Y77501D01*
X449126Y77015D01*
X449150Y76525D01*
X449150Y6525D01*
X449126Y6035D01*
X449054Y5549D01*
X448935Y5074D01*
X448769Y4611D01*
X448560Y4168D01*
X448307Y3747D01*
X448015Y3353D01*
X447686Y2989D01*
X447322Y2660D01*
X446928Y2368D01*
X446507Y2115D01*
X446063Y1905D01*
X445601Y1740D01*
X445126Y1621D01*
X444640Y1549D01*
X444150Y1525D01*
X434150Y1525D01*
X433660Y1549D01*
X433175Y1621D01*
X432699Y1740D01*
X432237Y1905D01*
X431793Y2115D01*
X431372Y2368D01*
X430978Y2660D01*
X430614Y2989D01*
X430285Y3353D01*
X429993Y3747D01*
X429740Y4168D01*
X429531Y4611D01*
X429365Y5074D01*
X429246Y5549D01*
X429174Y6035D01*
X429150Y6525D01*
X429150Y76525D01*
X429174Y77015D01*
X429246Y77501D01*
X429365Y77976D01*
X429531Y78438D01*
X429740Y78882D01*
X429993Y79303D01*
X430285Y79697D01*
X430614Y80061D01*
X430978Y80390D01*
X431372Y80682D01*
X431793Y80935D01*
X432237Y81144D01*
X432699Y81310D01*
X433175Y81429D01*
X433660Y81501D01*
X434150Y81525D01*
X444150Y81525D01*
X444640Y81501D01*
G36*
X269640Y81501D02*
X270126Y81429D01*
X270601Y81310D01*
X271063Y81144D01*
X271507Y80935D01*
X271928Y80682D01*
X272322Y80390D01*
X272686Y80061D01*
X273015Y79697D01*
X273307Y79303D01*
X273560Y78882D01*
X273769Y78438D01*
X273935Y77976D01*
X274054Y77501D01*
X274126Y77015D01*
X274150Y76525D01*
X274150Y6525D01*
X274126Y6035D01*
X274054Y5549D01*
X273935Y5074D01*
X273769Y4611D01*
X273560Y4168D01*
X273307Y3747D01*
X273015Y3353D01*
X272686Y2989D01*
X272322Y2660D01*
X271928Y2368D01*
X271507Y2115D01*
X271063Y1905D01*
X270601Y1740D01*
X270126Y1621D01*
X269640Y1549D01*
X269150Y1525D01*
X259150Y1525D01*
X258660Y1549D01*
X258175Y1621D01*
X257699Y1740D01*
X257237Y1905D01*
X256793Y2115D01*
X256372Y2368D01*
X255978Y2660D01*
X255614Y2989D01*
X255285Y3353D01*
X254993Y3747D01*
X254740Y4168D01*
X254531Y4611D01*
X254365Y5074D01*
X254246Y5549D01*
X254174Y6035D01*
X254150Y6525D01*
X254150Y76525D01*
X254174Y77015D01*
X254246Y77501D01*
X254365Y77976D01*
X254531Y78438D01*
X254740Y78882D01*
X254993Y79303D01*
X255285Y79697D01*
X255614Y80061D01*
X255978Y80390D01*
X256372Y80682D01*
X256793Y80935D01*
X257237Y81144D01*
X257699Y81310D01*
X258175Y81429D01*
X258660Y81501D01*
X259150Y81525D01*
X269150Y81525D01*
X269640Y81501D01*
G37*
G54D11*
X269640Y81501D02*
X270126Y81429D01*
X270601Y81310D01*
X271063Y81144D01*
X271507Y80935D01*
X271928Y80682D01*
X272322Y80390D01*
X272686Y80061D01*
X273015Y79697D01*
X273307Y79303D01*
X273560Y78882D01*
X273769Y78438D01*
X273935Y77976D01*
X274054Y77501D01*
X274126Y77015D01*
X274150Y76525D01*
X274150Y6525D01*
X274126Y6035D01*
X274054Y5549D01*
X273935Y5074D01*
X273769Y4611D01*
X273560Y4168D01*
X273307Y3747D01*
X273015Y3353D01*
X272686Y2989D01*
X272322Y2660D01*
X271928Y2368D01*
X271507Y2115D01*
X271063Y1905D01*
X270601Y1740D01*
X270126Y1621D01*
X269640Y1549D01*
X269150Y1525D01*
X259150Y1525D01*
X258660Y1549D01*
X258175Y1621D01*
X257699Y1740D01*
X257237Y1905D01*
X256793Y2115D01*
X256372Y2368D01*
X255978Y2660D01*
X255614Y2989D01*
X255285Y3353D01*
X254993Y3747D01*
X254740Y4168D01*
X254531Y4611D01*
X254365Y5074D01*
X254246Y5549D01*
X254174Y6035D01*
X254150Y6525D01*
X254150Y76525D01*
X254174Y77015D01*
X254246Y77501D01*
X254365Y77976D01*
X254531Y78438D01*
X254740Y78882D01*
X254993Y79303D01*
X255285Y79697D01*
X255614Y80061D01*
X255978Y80390D01*
X256372Y80682D01*
X256793Y80935D01*
X257237Y81144D01*
X257699Y81310D01*
X258175Y81429D01*
X258660Y81501D01*
X259150Y81525D01*
X269150Y81525D01*
X269640Y81501D01*
G36*
X69640Y81501D02*
X70125Y81429D01*
X70601Y81310D01*
X71063Y81144D01*
X71507Y80935D01*
X71928Y80682D01*
X72322Y80390D01*
X72686Y80061D01*
X73015Y79697D01*
X73307Y79303D01*
X73560Y78882D01*
X73769Y78438D01*
X73935Y77976D01*
X74054Y77501D01*
X74126Y77015D01*
X74150Y76525D01*
X74150Y6525D01*
X74126Y6035D01*
X74054Y5549D01*
X73935Y5074D01*
X73769Y4611D01*
X73560Y4168D01*
X73307Y3747D01*
X73015Y3353D01*
X72686Y2989D01*
X72322Y2660D01*
X71928Y2368D01*
X71507Y2115D01*
X71063Y1905D01*
X70601Y1740D01*
X70125Y1621D01*
X69640Y1549D01*
X69150Y1525D01*
X59150Y1525D01*
X58660Y1549D01*
X58175Y1621D01*
X57699Y1740D01*
X57237Y1905D01*
X56793Y2115D01*
X56372Y2368D01*
X55978Y2660D01*
X55614Y2989D01*
X55285Y3353D01*
X54993Y3747D01*
X54740Y4168D01*
X54531Y4611D01*
X54365Y5074D01*
X54246Y5549D01*
X54174Y6035D01*
X54150Y6525D01*
X54150Y76525D01*
X54174Y77015D01*
X54246Y77501D01*
X54365Y77976D01*
X54531Y78438D01*
X54740Y78882D01*
X54993Y79303D01*
X55285Y79697D01*
X55614Y80061D01*
X55978Y80390D01*
X56372Y80682D01*
X56793Y80935D01*
X57237Y81144D01*
X57699Y81310D01*
X58175Y81429D01*
X58660Y81501D01*
X59150Y81525D01*
X69150Y81525D01*
X69640Y81501D01*
G37*
G54D11*
X69640Y81501D02*
X70125Y81429D01*
X70601Y81310D01*
X71063Y81144D01*
X71507Y80935D01*
X71928Y80682D01*
X72322Y80390D01*
X72686Y80061D01*
X73015Y79697D01*
X73307Y79303D01*
X73560Y78882D01*
X73769Y78438D01*
X73935Y77976D01*
X74054Y77501D01*
X74126Y77015D01*
X74150Y76525D01*
X74150Y6525D01*
X74126Y6035D01*
X74054Y5549D01*
X73935Y5074D01*
X73769Y4611D01*
X73560Y4168D01*
X73307Y3747D01*
X73015Y3353D01*
X72686Y2989D01*
X72322Y2660D01*
X71928Y2368D01*
X71507Y2115D01*
X71063Y1905D01*
X70601Y1740D01*
X70125Y1621D01*
X69640Y1549D01*
X69150Y1525D01*
X59150Y1525D01*
X58660Y1549D01*
X58175Y1621D01*
X57699Y1740D01*
X57237Y1905D01*
X56793Y2115D01*
X56372Y2368D01*
X55978Y2660D01*
X55614Y2989D01*
X55285Y3353D01*
X54993Y3747D01*
X54740Y4168D01*
X54531Y4611D01*
X54365Y5074D01*
X54246Y5549D01*
X54174Y6035D01*
X54150Y6525D01*
X54150Y76525D01*
X54174Y77015D01*
X54246Y77501D01*
X54365Y77976D01*
X54531Y78438D01*
X54740Y78882D01*
X54993Y79303D01*
X55285Y79697D01*
X55614Y80061D01*
X55978Y80390D01*
X56372Y80682D01*
X56793Y80935D01*
X57237Y81144D01*
X57699Y81310D01*
X58175Y81429D01*
X58660Y81501D01*
X59150Y81525D01*
X69150Y81525D01*
X69640Y81501D01*
G36*
X319640Y81501D02*
X320126Y81429D01*
X320601Y81310D01*
X321063Y81144D01*
X321507Y80935D01*
X321928Y80682D01*
X322322Y80390D01*
X322686Y80061D01*
X323015Y79697D01*
X323307Y79303D01*
X323560Y78882D01*
X323769Y78438D01*
X323935Y77976D01*
X324054Y77501D01*
X324126Y77015D01*
X324150Y76525D01*
X324150Y6525D01*
X324126Y6035D01*
X324054Y5549D01*
X323935Y5074D01*
X323769Y4611D01*
X323560Y4168D01*
X323307Y3747D01*
X323015Y3353D01*
X322686Y2989D01*
X322322Y2660D01*
X321928Y2368D01*
X321507Y2115D01*
X321063Y1905D01*
X320601Y1740D01*
X320126Y1621D01*
X319640Y1549D01*
X319150Y1525D01*
X309150Y1525D01*
X308660Y1549D01*
X308175Y1621D01*
X307699Y1740D01*
X307237Y1905D01*
X306793Y2115D01*
X306372Y2368D01*
X305978Y2660D01*
X305614Y2989D01*
X305285Y3353D01*
X304993Y3747D01*
X304740Y4168D01*
X304531Y4611D01*
X304365Y5074D01*
X304246Y5549D01*
X304174Y6035D01*
X304150Y6525D01*
X304150Y76525D01*
X304174Y77015D01*
X304246Y77501D01*
X304365Y77976D01*
X304531Y78438D01*
X304740Y78882D01*
X304993Y79303D01*
X305285Y79697D01*
X305614Y80061D01*
X305978Y80390D01*
X306372Y80682D01*
X306793Y80935D01*
X307237Y81144D01*
X307699Y81310D01*
X308175Y81429D01*
X308660Y81501D01*
X309150Y81525D01*
X319150Y81525D01*
X319640Y81501D01*
G37*
G54D11*
X319640Y81501D02*
X320126Y81429D01*
X320601Y81310D01*
X321063Y81144D01*
X321507Y80935D01*
X321928Y80682D01*
X322322Y80390D01*
X322686Y80061D01*
X323015Y79697D01*
X323307Y79303D01*
X323560Y78882D01*
X323769Y78438D01*
X323935Y77976D01*
X324054Y77501D01*
X324126Y77015D01*
X324150Y76525D01*
X324150Y6525D01*
X324126Y6035D01*
X324054Y5549D01*
X323935Y5074D01*
X323769Y4611D01*
X323560Y4168D01*
X323307Y3747D01*
X323015Y3353D01*
X322686Y2989D01*
X322322Y2660D01*
X321928Y2368D01*
X321507Y2115D01*
X321063Y1905D01*
X320601Y1740D01*
X320126Y1621D01*
X319640Y1549D01*
X319150Y1525D01*
X309150Y1525D01*
X308660Y1549D01*
X308175Y1621D01*
X307699Y1740D01*
X307237Y1905D01*
X306793Y2115D01*
X306372Y2368D01*
X305978Y2660D01*
X305614Y2989D01*
X305285Y3353D01*
X304993Y3747D01*
X304740Y4168D01*
X304531Y4611D01*
X304365Y5074D01*
X304246Y5549D01*
X304174Y6035D01*
X304150Y6525D01*
X304150Y76525D01*
X304174Y77015D01*
X304246Y77501D01*
X304365Y77976D01*
X304531Y78438D01*
X304740Y78882D01*
X304993Y79303D01*
X305285Y79697D01*
X305614Y80061D01*
X305978Y80390D01*
X306372Y80682D01*
X306793Y80935D01*
X307237Y81144D01*
X307699Y81310D01*
X308175Y81429D01*
X308660Y81501D01*
X309150Y81525D01*
X319150Y81525D01*
X319640Y81501D01*
G36*
X469640Y81501D02*
X470126Y81429D01*
X470601Y81310D01*
X471063Y81144D01*
X471507Y80935D01*
X471928Y80682D01*
X472322Y80390D01*
X472686Y80061D01*
X473015Y79697D01*
X473307Y79303D01*
X473560Y78882D01*
X473769Y78438D01*
X473935Y77976D01*
X474054Y77501D01*
X474126Y77015D01*
X474150Y76525D01*
X474150Y6525D01*
X474126Y6035D01*
X474054Y5549D01*
X473935Y5074D01*
X473769Y4611D01*
X473560Y4168D01*
X473307Y3747D01*
X473015Y3353D01*
X472686Y2989D01*
X472322Y2660D01*
X471928Y2368D01*
X471507Y2115D01*
X471063Y1905D01*
X470601Y1740D01*
X470126Y1621D01*
X469640Y1549D01*
X469150Y1525D01*
X459150Y1525D01*
X458660Y1549D01*
X458175Y1621D01*
X457699Y1740D01*
X457237Y1905D01*
X456793Y2115D01*
X456372Y2368D01*
X455978Y2660D01*
X455614Y2989D01*
X455285Y3353D01*
X454993Y3747D01*
X454740Y4168D01*
X454531Y4611D01*
X454365Y5074D01*
X454246Y5549D01*
X454174Y6035D01*
X454150Y6525D01*
X454150Y76525D01*
X454174Y77015D01*
X454246Y77501D01*
X454365Y77976D01*
X454531Y78438D01*
X454740Y78882D01*
X454993Y79303D01*
X455285Y79697D01*
X455614Y80061D01*
X455978Y80390D01*
X456372Y80682D01*
X456793Y80935D01*
X457237Y81144D01*
X457699Y81310D01*
X458175Y81429D01*
X458660Y81501D01*
X459150Y81525D01*
X469150Y81525D01*
X469640Y81501D01*
G37*
G54D11*
X469640Y81501D02*
X470126Y81429D01*
X470601Y81310D01*
X471063Y81144D01*
X471507Y80935D01*
X471928Y80682D01*
X472322Y80390D01*
X472686Y80061D01*
X473015Y79697D01*
X473307Y79303D01*
X473560Y78882D01*
X473769Y78438D01*
X473935Y77976D01*
X474054Y77501D01*
X474126Y77015D01*
X474150Y76525D01*
X474150Y6525D01*
X474126Y6035D01*
X474054Y5549D01*
X473935Y5074D01*
X473769Y4611D01*
X473560Y4168D01*
X473307Y3747D01*
X473015Y3353D01*
X472686Y2989D01*
X472322Y2660D01*
X471928Y2368D01*
X471507Y2115D01*
X471063Y1905D01*
X470601Y1740D01*
X470126Y1621D01*
X469640Y1549D01*
X469150Y1525D01*
X459150Y1525D01*
X458660Y1549D01*
X458175Y1621D01*
X457699Y1740D01*
X457237Y1905D01*
X456793Y2115D01*
X456372Y2368D01*
X455978Y2660D01*
X455614Y2989D01*
X455285Y3353D01*
X454993Y3747D01*
X454740Y4168D01*
X454531Y4611D01*
X454365Y5074D01*
X454246Y5549D01*
X454174Y6035D01*
X454150Y6525D01*
X454150Y76525D01*
X454174Y77015D01*
X454246Y77501D01*
X454365Y77976D01*
X454531Y78438D01*
X454740Y78882D01*
X454993Y79303D01*
X455285Y79697D01*
X455614Y80061D01*
X455978Y80390D01*
X456372Y80682D01*
X456793Y80935D01*
X457237Y81144D01*
X457699Y81310D01*
X458175Y81429D01*
X458660Y81501D01*
X459150Y81525D01*
X469150Y81525D01*
X469640Y81501D01*
G36*
X219640Y81501D02*
X220126Y81429D01*
X220601Y81310D01*
X221063Y81144D01*
X221507Y80935D01*
X221928Y80682D01*
X222322Y80390D01*
X222686Y80061D01*
X223015Y79697D01*
X223307Y79303D01*
X223560Y78882D01*
X223769Y78438D01*
X223935Y77976D01*
X224054Y77501D01*
X224126Y77015D01*
X224150Y76525D01*
X224150Y6525D01*
X224126Y6035D01*
X224054Y5549D01*
X223935Y5074D01*
X223769Y4611D01*
X223560Y4168D01*
X223307Y3747D01*
X223015Y3353D01*
X222686Y2989D01*
X222322Y2660D01*
X221928Y2368D01*
X221507Y2115D01*
X221063Y1905D01*
X220601Y1740D01*
X220126Y1621D01*
X219640Y1549D01*
X219150Y1525D01*
X209150Y1525D01*
X208660Y1549D01*
X208175Y1621D01*
X207699Y1740D01*
X207237Y1905D01*
X206793Y2115D01*
X206372Y2368D01*
X205978Y2660D01*
X205614Y2989D01*
X205285Y3353D01*
X204993Y3747D01*
X204740Y4168D01*
X204531Y4611D01*
X204365Y5074D01*
X204246Y5549D01*
X204174Y6035D01*
X204150Y6525D01*
X204150Y76525D01*
X204174Y77015D01*
X204246Y77501D01*
X204365Y77976D01*
X204531Y78438D01*
X204740Y78882D01*
X204993Y79303D01*
X205285Y79697D01*
X205614Y80061D01*
X205978Y80390D01*
X206372Y80682D01*
X206793Y80935D01*
X207237Y81144D01*
X207699Y81310D01*
X208175Y81429D01*
X208660Y81501D01*
X209150Y81525D01*
X219150Y81525D01*
X219640Y81501D01*
G37*
G54D11*
X219640Y81501D02*
X220126Y81429D01*
X220601Y81310D01*
X221063Y81144D01*
X221507Y80935D01*
X221928Y80682D01*
X222322Y80390D01*
X222686Y80061D01*
X223015Y79697D01*
X223307Y79303D01*
X223560Y78882D01*
X223769Y78438D01*
X223935Y77976D01*
X224054Y77501D01*
X224126Y77015D01*
X224150Y76525D01*
X224150Y6525D01*
X224126Y6035D01*
X224054Y5549D01*
X223935Y5074D01*
X223769Y4611D01*
X223560Y4168D01*
X223307Y3747D01*
X223015Y3353D01*
X222686Y2989D01*
X222322Y2660D01*
X221928Y2368D01*
X221507Y2115D01*
X221063Y1905D01*
X220601Y1740D01*
X220126Y1621D01*
X219640Y1549D01*
X219150Y1525D01*
X209150Y1525D01*
X208660Y1549D01*
X208175Y1621D01*
X207699Y1740D01*
X207237Y1905D01*
X206793Y2115D01*
X206372Y2368D01*
X205978Y2660D01*
X205614Y2989D01*
X205285Y3353D01*
X204993Y3747D01*
X204740Y4168D01*
X204531Y4611D01*
X204365Y5074D01*
X204246Y5549D01*
X204174Y6035D01*
X204150Y6525D01*
X204150Y76525D01*
X204174Y77015D01*
X204246Y77501D01*
X204365Y77976D01*
X204531Y78438D01*
X204740Y78882D01*
X204993Y79303D01*
X205285Y79697D01*
X205614Y80061D01*
X205978Y80390D01*
X206372Y80682D01*
X206793Y80935D01*
X207237Y81144D01*
X207699Y81310D01*
X208175Y81429D01*
X208660Y81501D01*
X209150Y81525D01*
X219150Y81525D01*
X219640Y81501D01*
G36*
X294640Y81501D02*
X295126Y81429D01*
X295601Y81310D01*
X296063Y81144D01*
X296507Y80935D01*
X296928Y80682D01*
X297322Y80390D01*
X297686Y80061D01*
X298015Y79697D01*
X298307Y79303D01*
X298560Y78882D01*
X298769Y78438D01*
X298935Y77976D01*
X299054Y77501D01*
X299126Y77015D01*
X299150Y76525D01*
X299150Y6525D01*
X299126Y6035D01*
X299054Y5549D01*
X298935Y5074D01*
X298769Y4611D01*
X298560Y4168D01*
X298307Y3747D01*
X298015Y3353D01*
X297686Y2989D01*
X297322Y2660D01*
X296928Y2368D01*
X296507Y2115D01*
X296063Y1905D01*
X295601Y1740D01*
X295126Y1621D01*
X294640Y1549D01*
X294150Y1525D01*
X284150Y1525D01*
X283660Y1549D01*
X283175Y1621D01*
X282699Y1740D01*
X282237Y1905D01*
X281793Y2115D01*
X281372Y2368D01*
X280978Y2660D01*
X280614Y2989D01*
X280285Y3353D01*
X279993Y3747D01*
X279740Y4168D01*
X279531Y4611D01*
X279365Y5074D01*
X279246Y5549D01*
X279174Y6035D01*
X279150Y6525D01*
X279150Y76525D01*
X279174Y77015D01*
X279246Y77501D01*
X279365Y77976D01*
X279531Y78438D01*
X279740Y78882D01*
X279993Y79303D01*
X280285Y79697D01*
X280614Y80061D01*
X280978Y80390D01*
X281372Y80682D01*
X281793Y80935D01*
X282237Y81144D01*
X282699Y81310D01*
X283175Y81429D01*
X283660Y81501D01*
X284150Y81525D01*
X294150Y81525D01*
X294640Y81501D01*
G37*
G54D11*
X294640Y81501D02*
X295126Y81429D01*
X295601Y81310D01*
X296063Y81144D01*
X296507Y80935D01*
X296928Y80682D01*
X297322Y80390D01*
X297686Y80061D01*
X298015Y79697D01*
X298307Y79303D01*
X298560Y78882D01*
X298769Y78438D01*
X298935Y77976D01*
X299054Y77501D01*
X299126Y77015D01*
X299150Y76525D01*
X299150Y6525D01*
X299126Y6035D01*
X299054Y5549D01*
X298935Y5074D01*
X298769Y4611D01*
X298560Y4168D01*
X298307Y3747D01*
X298015Y3353D01*
X297686Y2989D01*
X297322Y2660D01*
X296928Y2368D01*
X296507Y2115D01*
X296063Y1905D01*
X295601Y1740D01*
X295126Y1621D01*
X294640Y1549D01*
X294150Y1525D01*
X284150Y1525D01*
X283660Y1549D01*
X283175Y1621D01*
X282699Y1740D01*
X282237Y1905D01*
X281793Y2115D01*
X281372Y2368D01*
X280978Y2660D01*
X280614Y2989D01*
X280285Y3353D01*
X279993Y3747D01*
X279740Y4168D01*
X279531Y4611D01*
X279365Y5074D01*
X279246Y5549D01*
X279174Y6035D01*
X279150Y6525D01*
X279150Y76525D01*
X279174Y77015D01*
X279246Y77501D01*
X279365Y77976D01*
X279531Y78438D01*
X279740Y78882D01*
X279993Y79303D01*
X280285Y79697D01*
X280614Y80061D01*
X280978Y80390D01*
X281372Y80682D01*
X281793Y80935D01*
X282237Y81144D01*
X282699Y81310D01*
X283175Y81429D01*
X283660Y81501D01*
X284150Y81525D01*
X294150Y81525D01*
X294640Y81501D01*
G36*
X419640Y81501D02*
X420126Y81429D01*
X420601Y81310D01*
X421063Y81144D01*
X421507Y80935D01*
X421928Y80682D01*
X422322Y80390D01*
X422686Y80061D01*
X423015Y79697D01*
X423307Y79303D01*
X423560Y78882D01*
X423769Y78438D01*
X423935Y77976D01*
X424054Y77501D01*
X424126Y77015D01*
X424150Y76525D01*
X424150Y6525D01*
X424126Y6035D01*
X424054Y5549D01*
X423935Y5074D01*
X423769Y4611D01*
X423560Y4168D01*
X423307Y3747D01*
X423015Y3353D01*
X422686Y2989D01*
X422322Y2660D01*
X421928Y2368D01*
X421507Y2115D01*
X421063Y1905D01*
X420601Y1740D01*
X420126Y1621D01*
X419640Y1549D01*
X419150Y1525D01*
X409150Y1525D01*
X408660Y1549D01*
X408175Y1621D01*
X407699Y1740D01*
X407237Y1905D01*
X406793Y2115D01*
X406372Y2368D01*
X405978Y2660D01*
X405614Y2989D01*
X405285Y3353D01*
X404993Y3747D01*
X404740Y4168D01*
X404531Y4611D01*
X404365Y5074D01*
X404246Y5549D01*
X404174Y6035D01*
X404150Y6525D01*
X404150Y76525D01*
X404174Y77015D01*
X404246Y77501D01*
X404365Y77976D01*
X404531Y78438D01*
X404740Y78882D01*
X404993Y79303D01*
X405285Y79697D01*
X405614Y80061D01*
X405978Y80390D01*
X406372Y80682D01*
X406793Y80935D01*
X407237Y81144D01*
X407699Y81310D01*
X408175Y81429D01*
X408660Y81501D01*
X409150Y81525D01*
X419150Y81525D01*
X419640Y81501D01*
G37*
G54D11*
X419640Y81501D02*
X420126Y81429D01*
X420601Y81310D01*
X421063Y81144D01*
X421507Y80935D01*
X421928Y80682D01*
X422322Y80390D01*
X422686Y80061D01*
X423015Y79697D01*
X423307Y79303D01*
X423560Y78882D01*
X423769Y78438D01*
X423935Y77976D01*
X424054Y77501D01*
X424126Y77015D01*
X424150Y76525D01*
X424150Y6525D01*
X424126Y6035D01*
X424054Y5549D01*
X423935Y5074D01*
X423769Y4611D01*
X423560Y4168D01*
X423307Y3747D01*
X423015Y3353D01*
X422686Y2989D01*
X422322Y2660D01*
X421928Y2368D01*
X421507Y2115D01*
X421063Y1905D01*
X420601Y1740D01*
X420126Y1621D01*
X419640Y1549D01*
X419150Y1525D01*
X409150Y1525D01*
X408660Y1549D01*
X408175Y1621D01*
X407699Y1740D01*
X407237Y1905D01*
X406793Y2115D01*
X406372Y2368D01*
X405978Y2660D01*
X405614Y2989D01*
X405285Y3353D01*
X404993Y3747D01*
X404740Y4168D01*
X404531Y4611D01*
X404365Y5074D01*
X404246Y5549D01*
X404174Y6035D01*
X404150Y6525D01*
X404150Y76525D01*
X404174Y77015D01*
X404246Y77501D01*
X404365Y77976D01*
X404531Y78438D01*
X404740Y78882D01*
X404993Y79303D01*
X405285Y79697D01*
X405614Y80061D01*
X405978Y80390D01*
X406372Y80682D01*
X406793Y80935D01*
X407237Y81144D01*
X407699Y81310D01*
X408175Y81429D01*
X408660Y81501D01*
X409150Y81525D01*
X419150Y81525D01*
X419640Y81501D01*
G36*
X194640Y81501D02*
X195126Y81429D01*
X195601Y81310D01*
X196063Y81144D01*
X196507Y80935D01*
X196928Y80682D01*
X197322Y80390D01*
X197686Y80061D01*
X198015Y79697D01*
X198307Y79303D01*
X198560Y78882D01*
X198769Y78438D01*
X198935Y77976D01*
X199054Y77501D01*
X199126Y77015D01*
X199150Y76525D01*
X199150Y6525D01*
X199126Y6035D01*
X199054Y5549D01*
X198935Y5074D01*
X198769Y4611D01*
X198560Y4168D01*
X198307Y3747D01*
X198015Y3353D01*
X197686Y2989D01*
X197322Y2660D01*
X196928Y2368D01*
X196507Y2115D01*
X196063Y1905D01*
X195601Y1740D01*
X195126Y1621D01*
X194640Y1549D01*
X194150Y1525D01*
X184150Y1525D01*
X183660Y1549D01*
X183175Y1621D01*
X182699Y1740D01*
X182237Y1905D01*
X181793Y2115D01*
X181372Y2368D01*
X180978Y2660D01*
X180614Y2989D01*
X180285Y3353D01*
X179993Y3747D01*
X179740Y4168D01*
X179531Y4611D01*
X179365Y5074D01*
X179246Y5549D01*
X179174Y6035D01*
X179150Y6525D01*
X179150Y76525D01*
X179174Y77015D01*
X179246Y77501D01*
X179365Y77976D01*
X179531Y78438D01*
X179740Y78882D01*
X179993Y79303D01*
X180285Y79697D01*
X180614Y80061D01*
X180978Y80390D01*
X181372Y80682D01*
X181793Y80935D01*
X182237Y81144D01*
X182699Y81310D01*
X183175Y81429D01*
X183660Y81501D01*
X184150Y81525D01*
X194150Y81525D01*
X194640Y81501D01*
G37*
G54D11*
X194640Y81501D02*
X195126Y81429D01*
X195601Y81310D01*
X196063Y81144D01*
X196507Y80935D01*
X196928Y80682D01*
X197322Y80390D01*
X197686Y80061D01*
X198015Y79697D01*
X198307Y79303D01*
X198560Y78882D01*
X198769Y78438D01*
X198935Y77976D01*
X199054Y77501D01*
X199126Y77015D01*
X199150Y76525D01*
X199150Y6525D01*
X199126Y6035D01*
X199054Y5549D01*
X198935Y5074D01*
X198769Y4611D01*
X198560Y4168D01*
X198307Y3747D01*
X198015Y3353D01*
X197686Y2989D01*
X197322Y2660D01*
X196928Y2368D01*
X196507Y2115D01*
X196063Y1905D01*
X195601Y1740D01*
X195126Y1621D01*
X194640Y1549D01*
X194150Y1525D01*
X184150Y1525D01*
X183660Y1549D01*
X183175Y1621D01*
X182699Y1740D01*
X182237Y1905D01*
X181793Y2115D01*
X181372Y2368D01*
X180978Y2660D01*
X180614Y2989D01*
X180285Y3353D01*
X179993Y3747D01*
X179740Y4168D01*
X179531Y4611D01*
X179365Y5074D01*
X179246Y5549D01*
X179174Y6035D01*
X179150Y6525D01*
X179150Y76525D01*
X179174Y77015D01*
X179246Y77501D01*
X179365Y77976D01*
X179531Y78438D01*
X179740Y78882D01*
X179993Y79303D01*
X180285Y79697D01*
X180614Y80061D01*
X180978Y80390D01*
X181372Y80682D01*
X181793Y80935D01*
X182237Y81144D01*
X182699Y81310D01*
X183175Y81429D01*
X183660Y81501D01*
X184150Y81525D01*
X194150Y81525D01*
X194640Y81501D01*
G36*
X569640Y81501D02*
X570126Y81429D01*
X570601Y81310D01*
X571064Y81144D01*
X571507Y80935D01*
X571928Y80682D01*
X572322Y80390D01*
X572686Y80061D01*
X573015Y79697D01*
X573307Y79303D01*
X573560Y78882D01*
X573769Y78438D01*
X573935Y77976D01*
X574054Y77501D01*
X574126Y77015D01*
X574150Y76525D01*
X574150Y6525D01*
X574126Y6035D01*
X574054Y5549D01*
X573935Y5074D01*
X573769Y4611D01*
X573560Y4168D01*
X573307Y3747D01*
X573015Y3353D01*
X572686Y2989D01*
X572322Y2660D01*
X571928Y2368D01*
X571507Y2115D01*
X571064Y1905D01*
X570601Y1740D01*
X570126Y1621D01*
X569640Y1549D01*
X569150Y1525D01*
X559150Y1525D01*
X558660Y1549D01*
X558175Y1621D01*
X557699Y1740D01*
X557237Y1905D01*
X556793Y2115D01*
X556372Y2368D01*
X555978Y2660D01*
X555614Y2989D01*
X555285Y3353D01*
X554993Y3747D01*
X554740Y4168D01*
X554531Y4611D01*
X554365Y5074D01*
X554246Y5549D01*
X554174Y6035D01*
X554150Y6525D01*
X554150Y76525D01*
X554174Y77015D01*
X554246Y77501D01*
X554365Y77976D01*
X554531Y78438D01*
X554740Y78882D01*
X554993Y79303D01*
X555285Y79697D01*
X555614Y80061D01*
X555978Y80390D01*
X556372Y80682D01*
X556793Y80935D01*
X557237Y81144D01*
X557699Y81310D01*
X558175Y81429D01*
X558660Y81501D01*
X559150Y81525D01*
X569150Y81525D01*
X569640Y81501D01*
G37*
G54D11*
X569640Y81501D02*
X570126Y81429D01*
X570601Y81310D01*
X571064Y81144D01*
X571507Y80935D01*
X571928Y80682D01*
X572322Y80390D01*
X572686Y80061D01*
X573015Y79697D01*
X573307Y79303D01*
X573560Y78882D01*
X573769Y78438D01*
X573935Y77976D01*
X574054Y77501D01*
X574126Y77015D01*
X574150Y76525D01*
X574150Y6525D01*
X574126Y6035D01*
X574054Y5549D01*
X573935Y5074D01*
X573769Y4611D01*
X573560Y4168D01*
X573307Y3747D01*
X573015Y3353D01*
X572686Y2989D01*
X572322Y2660D01*
X571928Y2368D01*
X571507Y2115D01*
X571064Y1905D01*
X570601Y1740D01*
X570126Y1621D01*
X569640Y1549D01*
X569150Y1525D01*
X559150Y1525D01*
X558660Y1549D01*
X558175Y1621D01*
X557699Y1740D01*
X557237Y1905D01*
X556793Y2115D01*
X556372Y2368D01*
X555978Y2660D01*
X555614Y2989D01*
X555285Y3353D01*
X554993Y3747D01*
X554740Y4168D01*
X554531Y4611D01*
X554365Y5074D01*
X554246Y5549D01*
X554174Y6035D01*
X554150Y6525D01*
X554150Y76525D01*
X554174Y77015D01*
X554246Y77501D01*
X554365Y77976D01*
X554531Y78438D01*
X554740Y78882D01*
X554993Y79303D01*
X555285Y79697D01*
X555614Y80061D01*
X555978Y80390D01*
X556372Y80682D01*
X556793Y80935D01*
X557237Y81144D01*
X557699Y81310D01*
X558175Y81429D01*
X558660Y81501D01*
X559150Y81525D01*
X569150Y81525D01*
X569640Y81501D01*
G36*
X144640Y81501D02*
X145126Y81429D01*
X145601Y81310D01*
X146063Y81144D01*
X146507Y80935D01*
X146928Y80682D01*
X147322Y80390D01*
X147686Y80061D01*
X148015Y79697D01*
X148307Y79303D01*
X148560Y78882D01*
X148769Y78438D01*
X148935Y77976D01*
X149054Y77501D01*
X149126Y77015D01*
X149150Y76525D01*
X149150Y6525D01*
X149126Y6035D01*
X149054Y5549D01*
X148935Y5074D01*
X148769Y4611D01*
X148560Y4168D01*
X148307Y3747D01*
X148015Y3353D01*
X147686Y2989D01*
X147322Y2660D01*
X146928Y2368D01*
X146507Y2115D01*
X146063Y1905D01*
X145601Y1740D01*
X145126Y1621D01*
X144640Y1549D01*
X144150Y1525D01*
X134150Y1525D01*
X133660Y1549D01*
X133175Y1621D01*
X132699Y1740D01*
X132237Y1905D01*
X131793Y2115D01*
X131372Y2368D01*
X130978Y2660D01*
X130614Y2989D01*
X130285Y3353D01*
X129993Y3747D01*
X129740Y4168D01*
X129531Y4611D01*
X129365Y5074D01*
X129246Y5549D01*
X129174Y6035D01*
X129150Y6525D01*
X129150Y76525D01*
X129174Y77015D01*
X129246Y77501D01*
X129365Y77976D01*
X129531Y78438D01*
X129740Y78882D01*
X129993Y79303D01*
X130285Y79697D01*
X130614Y80061D01*
X130978Y80390D01*
X131372Y80682D01*
X131793Y80935D01*
X132237Y81144D01*
X132699Y81310D01*
X133175Y81429D01*
X133660Y81501D01*
X134150Y81525D01*
X144150Y81525D01*
X144640Y81501D01*
G37*
G54D11*
X144640Y81501D02*
X145126Y81429D01*
X145601Y81310D01*
X146063Y81144D01*
X146507Y80935D01*
X146928Y80682D01*
X147322Y80390D01*
X147686Y80061D01*
X148015Y79697D01*
X148307Y79303D01*
X148560Y78882D01*
X148769Y78438D01*
X148935Y77976D01*
X149054Y77501D01*
X149126Y77015D01*
X149150Y76525D01*
X149150Y6525D01*
X149126Y6035D01*
X149054Y5549D01*
X148935Y5074D01*
X148769Y4611D01*
X148560Y4168D01*
X148307Y3747D01*
X148015Y3353D01*
X147686Y2989D01*
X147322Y2660D01*
X146928Y2368D01*
X146507Y2115D01*
X146063Y1905D01*
X145601Y1740D01*
X145126Y1621D01*
X144640Y1549D01*
X144150Y1525D01*
X134150Y1525D01*
X133660Y1549D01*
X133175Y1621D01*
X132699Y1740D01*
X132237Y1905D01*
X131793Y2115D01*
X131372Y2368D01*
X130978Y2660D01*
X130614Y2989D01*
X130285Y3353D01*
X129993Y3747D01*
X129740Y4168D01*
X129531Y4611D01*
X129365Y5074D01*
X129246Y5549D01*
X129174Y6035D01*
X129150Y6525D01*
X129150Y76525D01*
X129174Y77015D01*
X129246Y77501D01*
X129365Y77976D01*
X129531Y78438D01*
X129740Y78882D01*
X129993Y79303D01*
X130285Y79697D01*
X130614Y80061D01*
X130978Y80390D01*
X131372Y80682D01*
X131793Y80935D01*
X132237Y81144D01*
X132699Y81310D01*
X133175Y81429D01*
X133660Y81501D01*
X134150Y81525D01*
X144150Y81525D01*
X144640Y81501D01*
G36*
X94640Y81501D02*
X95125Y81429D01*
X95601Y81310D01*
X96063Y81144D01*
X96507Y80935D01*
X96928Y80682D01*
X97322Y80390D01*
X97686Y80061D01*
X98015Y79697D01*
X98307Y79303D01*
X98560Y78882D01*
X98769Y78438D01*
X98935Y77976D01*
X99054Y77501D01*
X99126Y77015D01*
X99150Y76525D01*
X99150Y6525D01*
X99126Y6035D01*
X99054Y5549D01*
X98935Y5074D01*
X98769Y4611D01*
X98560Y4168D01*
X98307Y3747D01*
X98015Y3353D01*
X97686Y2989D01*
X97322Y2660D01*
X96928Y2368D01*
X96507Y2115D01*
X96063Y1905D01*
X95601Y1740D01*
X95125Y1621D01*
X94640Y1549D01*
X94150Y1525D01*
X84150Y1525D01*
X83660Y1549D01*
X83175Y1621D01*
X82699Y1740D01*
X82237Y1905D01*
X81793Y2115D01*
X81372Y2368D01*
X80978Y2660D01*
X80614Y2989D01*
X80285Y3353D01*
X79993Y3747D01*
X79740Y4168D01*
X79531Y4611D01*
X79365Y5074D01*
X79246Y5549D01*
X79174Y6035D01*
X79150Y6525D01*
X79150Y76525D01*
X79174Y77015D01*
X79246Y77501D01*
X79365Y77976D01*
X79531Y78438D01*
X79740Y78882D01*
X79993Y79303D01*
X80285Y79697D01*
X80614Y80061D01*
X80978Y80390D01*
X81372Y80682D01*
X81793Y80935D01*
X82237Y81144D01*
X82699Y81310D01*
X83175Y81429D01*
X83660Y81501D01*
X84150Y81525D01*
X94150Y81525D01*
X94640Y81501D01*
G37*
G54D11*
X94640Y81501D02*
X95125Y81429D01*
X95601Y81310D01*
X96063Y81144D01*
X96507Y80935D01*
X96928Y80682D01*
X97322Y80390D01*
X97686Y80061D01*
X98015Y79697D01*
X98307Y79303D01*
X98560Y78882D01*
X98769Y78438D01*
X98935Y77976D01*
X99054Y77501D01*
X99126Y77015D01*
X99150Y76525D01*
X99150Y6525D01*
X99126Y6035D01*
X99054Y5549D01*
X98935Y5074D01*
X98769Y4611D01*
X98560Y4168D01*
X98307Y3747D01*
X98015Y3353D01*
X97686Y2989D01*
X97322Y2660D01*
X96928Y2368D01*
X96507Y2115D01*
X96063Y1905D01*
X95601Y1740D01*
X95125Y1621D01*
X94640Y1549D01*
X94150Y1525D01*
X84150Y1525D01*
X83660Y1549D01*
X83175Y1621D01*
X82699Y1740D01*
X82237Y1905D01*
X81793Y2115D01*
X81372Y2368D01*
X80978Y2660D01*
X80614Y2989D01*
X80285Y3353D01*
X79993Y3747D01*
X79740Y4168D01*
X79531Y4611D01*
X79365Y5074D01*
X79246Y5549D01*
X79174Y6035D01*
X79150Y6525D01*
X79150Y76525D01*
X79174Y77015D01*
X79246Y77501D01*
X79365Y77976D01*
X79531Y78438D01*
X79740Y78882D01*
X79993Y79303D01*
X80285Y79697D01*
X80614Y80061D01*
X80978Y80390D01*
X81372Y80682D01*
X81793Y80935D01*
X82237Y81144D01*
X82699Y81310D01*
X83175Y81429D01*
X83660Y81501D01*
X84150Y81525D01*
X94150Y81525D01*
X94640Y81501D01*
G36*
X44640Y81501D02*
X45125Y81429D01*
X45601Y81310D01*
X46063Y81144D01*
X46507Y80935D01*
X46928Y80682D01*
X47322Y80390D01*
X47686Y80061D01*
X48015Y79697D01*
X48307Y79303D01*
X48560Y78882D01*
X48769Y78438D01*
X48935Y77976D01*
X49054Y77501D01*
X49126Y77015D01*
X49150Y76525D01*
X49150Y6525D01*
X49126Y6035D01*
X49054Y5549D01*
X48935Y5074D01*
X48769Y4611D01*
X48560Y4168D01*
X48307Y3747D01*
X48015Y3353D01*
X47686Y2989D01*
X47322Y2660D01*
X46928Y2368D01*
X46507Y2115D01*
X46063Y1905D01*
X45601Y1740D01*
X45125Y1621D01*
X44640Y1549D01*
X44150Y1525D01*
X34150Y1525D01*
X33660Y1549D01*
X33175Y1621D01*
X32699Y1740D01*
X32237Y1905D01*
X31793Y2115D01*
X31372Y2368D01*
X30978Y2660D01*
X30614Y2989D01*
X30285Y3353D01*
X29993Y3747D01*
X29740Y4168D01*
X29531Y4611D01*
X29365Y5074D01*
X29246Y5549D01*
X29174Y6035D01*
X29150Y6525D01*
X29150Y76525D01*
X29174Y77015D01*
X29246Y77501D01*
X29365Y77976D01*
X29531Y78438D01*
X29740Y78882D01*
X29993Y79303D01*
X30285Y79697D01*
X30614Y80061D01*
X30978Y80390D01*
X31372Y80682D01*
X31793Y80935D01*
X32237Y81144D01*
X32699Y81310D01*
X33175Y81429D01*
X33660Y81501D01*
X34150Y81525D01*
X44150Y81525D01*
X44640Y81501D01*
G37*
G54D11*
X44640Y81501D02*
X45125Y81429D01*
X45601Y81310D01*
X46063Y81144D01*
X46507Y80935D01*
X46928Y80682D01*
X47322Y80390D01*
X47686Y80061D01*
X48015Y79697D01*
X48307Y79303D01*
X48560Y78882D01*
X48769Y78438D01*
X48935Y77976D01*
X49054Y77501D01*
X49126Y77015D01*
X49150Y76525D01*
X49150Y6525D01*
X49126Y6035D01*
X49054Y5549D01*
X48935Y5074D01*
X48769Y4611D01*
X48560Y4168D01*
X48307Y3747D01*
X48015Y3353D01*
X47686Y2989D01*
X47322Y2660D01*
X46928Y2368D01*
X46507Y2115D01*
X46063Y1905D01*
X45601Y1740D01*
X45125Y1621D01*
X44640Y1549D01*
X44150Y1525D01*
X34150Y1525D01*
X33660Y1549D01*
X33175Y1621D01*
X32699Y1740D01*
X32237Y1905D01*
X31793Y2115D01*
X31372Y2368D01*
X30978Y2660D01*
X30614Y2989D01*
X30285Y3353D01*
X29993Y3747D01*
X29740Y4168D01*
X29531Y4611D01*
X29365Y5074D01*
X29246Y5549D01*
X29174Y6035D01*
X29150Y6525D01*
X29150Y76525D01*
X29174Y77015D01*
X29246Y77501D01*
X29365Y77976D01*
X29531Y78438D01*
X29740Y78882D01*
X29993Y79303D01*
X30285Y79697D01*
X30614Y80061D01*
X30978Y80390D01*
X31372Y80682D01*
X31793Y80935D01*
X32237Y81144D01*
X32699Y81310D01*
X33175Y81429D01*
X33660Y81501D01*
X34150Y81525D01*
X44150Y81525D01*
X44640Y81501D01*
G36*
X169640Y81501D02*
X170126Y81429D01*
X170601Y81310D01*
X171063Y81144D01*
X171507Y80935D01*
X171928Y80682D01*
X172322Y80390D01*
X172686Y80061D01*
X173015Y79697D01*
X173307Y79303D01*
X173560Y78882D01*
X173769Y78438D01*
X173935Y77976D01*
X174054Y77501D01*
X174126Y77015D01*
X174150Y76525D01*
X174150Y6525D01*
X174126Y6035D01*
X174054Y5549D01*
X173935Y5074D01*
X173769Y4611D01*
X173560Y4168D01*
X173307Y3747D01*
X173015Y3353D01*
X172686Y2989D01*
X172322Y2660D01*
X171928Y2368D01*
X171507Y2115D01*
X171063Y1905D01*
X170601Y1740D01*
X170126Y1621D01*
X169640Y1549D01*
X169150Y1525D01*
X159150Y1525D01*
X158660Y1549D01*
X158175Y1621D01*
X157699Y1740D01*
X157237Y1905D01*
X156793Y2115D01*
X156372Y2368D01*
X155978Y2660D01*
X155614Y2989D01*
X155285Y3353D01*
X154993Y3747D01*
X154740Y4168D01*
X154531Y4611D01*
X154365Y5074D01*
X154246Y5549D01*
X154174Y6035D01*
X154150Y6525D01*
X154150Y76525D01*
X154174Y77015D01*
X154246Y77501D01*
X154365Y77976D01*
X154531Y78438D01*
X154740Y78882D01*
X154993Y79303D01*
X155285Y79697D01*
X155614Y80061D01*
X155978Y80390D01*
X156372Y80682D01*
X156793Y80935D01*
X157237Y81144D01*
X157699Y81310D01*
X158175Y81429D01*
X158660Y81501D01*
X159150Y81525D01*
X169150Y81525D01*
X169640Y81501D01*
G37*
G54D11*
X169640Y81501D02*
X170126Y81429D01*
X170601Y81310D01*
X171063Y81144D01*
X171507Y80935D01*
X171928Y80682D01*
X172322Y80390D01*
X172686Y80061D01*
X173015Y79697D01*
X173307Y79303D01*
X173560Y78882D01*
X173769Y78438D01*
X173935Y77976D01*
X174054Y77501D01*
X174126Y77015D01*
X174150Y76525D01*
X174150Y6525D01*
X174126Y6035D01*
X174054Y5549D01*
X173935Y5074D01*
X173769Y4611D01*
X173560Y4168D01*
X173307Y3747D01*
X173015Y3353D01*
X172686Y2989D01*
X172322Y2660D01*
X171928Y2368D01*
X171507Y2115D01*
X171063Y1905D01*
X170601Y1740D01*
X170126Y1621D01*
X169640Y1549D01*
X169150Y1525D01*
X159150Y1525D01*
X158660Y1549D01*
X158175Y1621D01*
X157699Y1740D01*
X157237Y1905D01*
X156793Y2115D01*
X156372Y2368D01*
X155978Y2660D01*
X155614Y2989D01*
X155285Y3353D01*
X154993Y3747D01*
X154740Y4168D01*
X154531Y4611D01*
X154365Y5074D01*
X154246Y5549D01*
X154174Y6035D01*
X154150Y6525D01*
X154150Y76525D01*
X154174Y77015D01*
X154246Y77501D01*
X154365Y77976D01*
X154531Y78438D01*
X154740Y78882D01*
X154993Y79303D01*
X155285Y79697D01*
X155614Y80061D01*
X155978Y80390D01*
X156372Y80682D01*
X156793Y80935D01*
X157237Y81144D01*
X157699Y81310D01*
X158175Y81429D01*
X158660Y81501D01*
X159150Y81525D01*
X169150Y81525D01*
X169640Y81501D01*
G36*
X394640Y81501D02*
X395126Y81429D01*
X395601Y81310D01*
X396063Y81144D01*
X396507Y80935D01*
X396928Y80682D01*
X397322Y80390D01*
X397686Y80061D01*
X398015Y79697D01*
X398307Y79303D01*
X398560Y78882D01*
X398769Y78438D01*
X398935Y77976D01*
X399054Y77501D01*
X399126Y77015D01*
X399150Y76525D01*
X399150Y6525D01*
X399126Y6035D01*
X399054Y5549D01*
X398935Y5074D01*
X398769Y4611D01*
X398560Y4168D01*
X398307Y3747D01*
X398015Y3353D01*
X397686Y2989D01*
X397322Y2660D01*
X396928Y2368D01*
X396507Y2115D01*
X396063Y1905D01*
X395601Y1740D01*
X395126Y1621D01*
X394640Y1549D01*
X394150Y1525D01*
X384150Y1525D01*
X383660Y1549D01*
X383175Y1621D01*
X382699Y1740D01*
X382237Y1905D01*
X381793Y2115D01*
X381372Y2368D01*
X380978Y2660D01*
X380614Y2989D01*
X380285Y3353D01*
X379993Y3747D01*
X379740Y4168D01*
X379531Y4611D01*
X379365Y5074D01*
X379246Y5549D01*
X379174Y6035D01*
X379150Y6525D01*
X379150Y76525D01*
X379174Y77015D01*
X379246Y77501D01*
X379365Y77976D01*
X379531Y78438D01*
X379740Y78882D01*
X379993Y79303D01*
X380285Y79697D01*
X380614Y80061D01*
X380978Y80390D01*
X381372Y80682D01*
X381793Y80935D01*
X382237Y81144D01*
X382699Y81310D01*
X383175Y81429D01*
X383660Y81501D01*
X384150Y81525D01*
X394150Y81525D01*
X394640Y81501D01*
G37*
G54D11*
X394640Y81501D02*
X395126Y81429D01*
X395601Y81310D01*
X396063Y81144D01*
X396507Y80935D01*
X396928Y80682D01*
X397322Y80390D01*
X397686Y80061D01*
X398015Y79697D01*
X398307Y79303D01*
X398560Y78882D01*
X398769Y78438D01*
X398935Y77976D01*
X399054Y77501D01*
X399126Y77015D01*
X399150Y76525D01*
X399150Y6525D01*
X399126Y6035D01*
X399054Y5549D01*
X398935Y5074D01*
X398769Y4611D01*
X398560Y4168D01*
X398307Y3747D01*
X398015Y3353D01*
X397686Y2989D01*
X397322Y2660D01*
X396928Y2368D01*
X396507Y2115D01*
X396063Y1905D01*
X395601Y1740D01*
X395126Y1621D01*
X394640Y1549D01*
X394150Y1525D01*
X384150Y1525D01*
X383660Y1549D01*
X383175Y1621D01*
X382699Y1740D01*
X382237Y1905D01*
X381793Y2115D01*
X381372Y2368D01*
X380978Y2660D01*
X380614Y2989D01*
X380285Y3353D01*
X379993Y3747D01*
X379740Y4168D01*
X379531Y4611D01*
X379365Y5074D01*
X379246Y5549D01*
X379174Y6035D01*
X379150Y6525D01*
X379150Y76525D01*
X379174Y77015D01*
X379246Y77501D01*
X379365Y77976D01*
X379531Y78438D01*
X379740Y78882D01*
X379993Y79303D01*
X380285Y79697D01*
X380614Y80061D01*
X380978Y80390D01*
X381372Y80682D01*
X381793Y80935D01*
X382237Y81144D01*
X382699Y81310D01*
X383175Y81429D01*
X383660Y81501D01*
X384150Y81525D01*
X394150Y81525D01*
X394640Y81501D01*
G36*
X244640Y81501D02*
X245126Y81429D01*
X245601Y81310D01*
X246063Y81144D01*
X246507Y80935D01*
X246928Y80682D01*
X247322Y80390D01*
X247686Y80061D01*
X248015Y79697D01*
X248307Y79303D01*
X248560Y78882D01*
X248769Y78438D01*
X248935Y77976D01*
X249054Y77501D01*
X249126Y77015D01*
X249150Y76525D01*
X249150Y6525D01*
X249126Y6035D01*
X249054Y5549D01*
X248935Y5074D01*
X248769Y4611D01*
X248560Y4168D01*
X248307Y3747D01*
X248015Y3353D01*
X247686Y2989D01*
X247322Y2660D01*
X246928Y2368D01*
X246507Y2115D01*
X246063Y1905D01*
X245601Y1740D01*
X245126Y1621D01*
X244640Y1549D01*
X244150Y1525D01*
X234150Y1525D01*
X233660Y1549D01*
X233175Y1621D01*
X232699Y1740D01*
X232237Y1905D01*
X231793Y2115D01*
X231372Y2368D01*
X230978Y2660D01*
X230614Y2989D01*
X230285Y3353D01*
X229993Y3747D01*
X229740Y4168D01*
X229531Y4611D01*
X229365Y5074D01*
X229246Y5549D01*
X229174Y6035D01*
X229150Y6525D01*
X229150Y76525D01*
X229174Y77015D01*
X229246Y77501D01*
X229365Y77976D01*
X229531Y78438D01*
X229740Y78882D01*
X229993Y79303D01*
X230285Y79697D01*
X230614Y80061D01*
X230978Y80390D01*
X231372Y80682D01*
X231793Y80935D01*
X232237Y81144D01*
X232699Y81310D01*
X233175Y81429D01*
X233660Y81501D01*
X234150Y81525D01*
X244150Y81525D01*
X244640Y81501D01*
G37*
G54D11*
X244640Y81501D02*
X245126Y81429D01*
X245601Y81310D01*
X246063Y81144D01*
X246507Y80935D01*
X246928Y80682D01*
X247322Y80390D01*
X247686Y80061D01*
X248015Y79697D01*
X248307Y79303D01*
X248560Y78882D01*
X248769Y78438D01*
X248935Y77976D01*
X249054Y77501D01*
X249126Y77015D01*
X249150Y76525D01*
X249150Y6525D01*
X249126Y6035D01*
X249054Y5549D01*
X248935Y5074D01*
X248769Y4611D01*
X248560Y4168D01*
X248307Y3747D01*
X248015Y3353D01*
X247686Y2989D01*
X247322Y2660D01*
X246928Y2368D01*
X246507Y2115D01*
X246063Y1905D01*
X245601Y1740D01*
X245126Y1621D01*
X244640Y1549D01*
X244150Y1525D01*
X234150Y1525D01*
X233660Y1549D01*
X233175Y1621D01*
X232699Y1740D01*
X232237Y1905D01*
X231793Y2115D01*
X231372Y2368D01*
X230978Y2660D01*
X230614Y2989D01*
X230285Y3353D01*
X229993Y3747D01*
X229740Y4168D01*
X229531Y4611D01*
X229365Y5074D01*
X229246Y5549D01*
X229174Y6035D01*
X229150Y6525D01*
X229150Y76525D01*
X229174Y77015D01*
X229246Y77501D01*
X229365Y77976D01*
X229531Y78438D01*
X229740Y78882D01*
X229993Y79303D01*
X230285Y79697D01*
X230614Y80061D01*
X230978Y80390D01*
X231372Y80682D01*
X231793Y80935D01*
X232237Y81144D01*
X232699Y81310D01*
X233175Y81429D01*
X233660Y81501D01*
X234150Y81525D01*
X244150Y81525D01*
X244640Y81501D01*
G36*
X594640Y81501D02*
X595126Y81429D01*
X595601Y81310D01*
X596064Y81144D01*
X596507Y80935D01*
X596928Y80682D01*
X597322Y80390D01*
X597686Y80061D01*
X598015Y79697D01*
X598307Y79303D01*
X598560Y78882D01*
X598769Y78438D01*
X598935Y77976D01*
X599054Y77501D01*
X599126Y77015D01*
X599150Y76525D01*
X599150Y6525D01*
X599126Y6035D01*
X599054Y5549D01*
X598935Y5074D01*
X598769Y4611D01*
X598560Y4168D01*
X598307Y3747D01*
X598015Y3353D01*
X597686Y2989D01*
X597322Y2660D01*
X596928Y2368D01*
X596507Y2115D01*
X596064Y1905D01*
X595601Y1740D01*
X595126Y1621D01*
X594640Y1549D01*
X594150Y1525D01*
X584150Y1525D01*
X583660Y1549D01*
X583175Y1621D01*
X582699Y1740D01*
X582237Y1905D01*
X581793Y2115D01*
X581372Y2368D01*
X580978Y2660D01*
X580614Y2989D01*
X580285Y3353D01*
X579993Y3747D01*
X579740Y4168D01*
X579531Y4611D01*
X579365Y5074D01*
X579246Y5549D01*
X579174Y6035D01*
X579150Y6525D01*
X579150Y76525D01*
X579174Y77015D01*
X579246Y77501D01*
X579365Y77976D01*
X579531Y78438D01*
X579740Y78882D01*
X579993Y79303D01*
X580285Y79697D01*
X580614Y80061D01*
X580978Y80390D01*
X581372Y80682D01*
X581793Y80935D01*
X582237Y81144D01*
X582699Y81310D01*
X583175Y81429D01*
X583660Y81501D01*
X584150Y81525D01*
X594150Y81525D01*
X594640Y81501D01*
G37*
G54D11*
X594640Y81501D02*
X595126Y81429D01*
X595601Y81310D01*
X596064Y81144D01*
X596507Y80935D01*
X596928Y80682D01*
X597322Y80390D01*
X597686Y80061D01*
X598015Y79697D01*
X598307Y79303D01*
X598560Y78882D01*
X598769Y78438D01*
X598935Y77976D01*
X599054Y77501D01*
X599126Y77015D01*
X599150Y76525D01*
X599150Y6525D01*
X599126Y6035D01*
X599054Y5549D01*
X598935Y5074D01*
X598769Y4611D01*
X598560Y4168D01*
X598307Y3747D01*
X598015Y3353D01*
X597686Y2989D01*
X597322Y2660D01*
X596928Y2368D01*
X596507Y2115D01*
X596064Y1905D01*
X595601Y1740D01*
X595126Y1621D01*
X594640Y1549D01*
X594150Y1525D01*
X584150Y1525D01*
X583660Y1549D01*
X583175Y1621D01*
X582699Y1740D01*
X582237Y1905D01*
X581793Y2115D01*
X581372Y2368D01*
X580978Y2660D01*
X580614Y2989D01*
X580285Y3353D01*
X579993Y3747D01*
X579740Y4168D01*
X579531Y4611D01*
X579365Y5074D01*
X579246Y5549D01*
X579174Y6035D01*
X579150Y6525D01*
X579150Y76525D01*
X579174Y77015D01*
X579246Y77501D01*
X579365Y77976D01*
X579531Y78438D01*
X579740Y78882D01*
X579993Y79303D01*
X580285Y79697D01*
X580614Y80061D01*
X580978Y80390D01*
X581372Y80682D01*
X581793Y80935D01*
X582237Y81144D01*
X582699Y81310D01*
X583175Y81429D01*
X583660Y81501D01*
X584150Y81525D01*
X594150Y81525D01*
X594640Y81501D01*
G36*
X494640Y81501D02*
X495126Y81429D01*
X495601Y81310D01*
X496063Y81144D01*
X496507Y80935D01*
X496928Y80682D01*
X497322Y80390D01*
X497686Y80061D01*
X498015Y79697D01*
X498307Y79303D01*
X498560Y78882D01*
X498769Y78438D01*
X498935Y77976D01*
X499054Y77501D01*
X499126Y77015D01*
X499150Y76525D01*
X499150Y6525D01*
X499126Y6035D01*
X499054Y5549D01*
X498935Y5074D01*
X498769Y4611D01*
X498560Y4168D01*
X498307Y3747D01*
X498015Y3353D01*
X497686Y2989D01*
X497322Y2660D01*
X496928Y2368D01*
X496507Y2115D01*
X496063Y1905D01*
X495601Y1740D01*
X495126Y1621D01*
X494640Y1549D01*
X494150Y1525D01*
X484150Y1525D01*
X483660Y1549D01*
X483175Y1621D01*
X482699Y1740D01*
X482237Y1905D01*
X481793Y2115D01*
X481372Y2368D01*
X480978Y2660D01*
X480614Y2989D01*
X480285Y3353D01*
X479993Y3747D01*
X479740Y4168D01*
X479531Y4611D01*
X479365Y5074D01*
X479246Y5549D01*
X479174Y6035D01*
X479150Y6525D01*
X479150Y76525D01*
X479174Y77015D01*
X479246Y77501D01*
X479365Y77976D01*
X479531Y78438D01*
X479740Y78882D01*
X479993Y79303D01*
X480285Y79697D01*
X480614Y80061D01*
X480978Y80390D01*
X481372Y80682D01*
X481793Y80935D01*
X482237Y81144D01*
X482699Y81310D01*
X483175Y81429D01*
X483660Y81501D01*
X484150Y81525D01*
X494150Y81525D01*
X494640Y81501D01*
G37*
G54D11*
X494640Y81501D02*
X495126Y81429D01*
X495601Y81310D01*
X496063Y81144D01*
X496507Y80935D01*
X496928Y80682D01*
X497322Y80390D01*
X497686Y80061D01*
X498015Y79697D01*
X498307Y79303D01*
X498560Y78882D01*
X498769Y78438D01*
X498935Y77976D01*
X499054Y77501D01*
X499126Y77015D01*
X499150Y76525D01*
X499150Y6525D01*
X499126Y6035D01*
X499054Y5549D01*
X498935Y5074D01*
X498769Y4611D01*
X498560Y4168D01*
X498307Y3747D01*
X498015Y3353D01*
X497686Y2989D01*
X497322Y2660D01*
X496928Y2368D01*
X496507Y2115D01*
X496063Y1905D01*
X495601Y1740D01*
X495126Y1621D01*
X494640Y1549D01*
X494150Y1525D01*
X484150Y1525D01*
X483660Y1549D01*
X483175Y1621D01*
X482699Y1740D01*
X482237Y1905D01*
X481793Y2115D01*
X481372Y2368D01*
X480978Y2660D01*
X480614Y2989D01*
X480285Y3353D01*
X479993Y3747D01*
X479740Y4168D01*
X479531Y4611D01*
X479365Y5074D01*
X479246Y5549D01*
X479174Y6035D01*
X479150Y6525D01*
X479150Y76525D01*
X479174Y77015D01*
X479246Y77501D01*
X479365Y77976D01*
X479531Y78438D01*
X479740Y78882D01*
X479993Y79303D01*
X480285Y79697D01*
X480614Y80061D01*
X480978Y80390D01*
X481372Y80682D01*
X481793Y80935D01*
X482237Y81144D01*
X482699Y81310D01*
X483175Y81429D01*
X483660Y81501D01*
X484150Y81525D01*
X494150Y81525D01*
X494640Y81501D01*
G36*
X544640Y81501D02*
X545126Y81429D01*
X545601Y81310D01*
X546064Y81144D01*
X546507Y80935D01*
X546928Y80682D01*
X547322Y80390D01*
X547686Y80061D01*
X548015Y79697D01*
X548307Y79303D01*
X548560Y78882D01*
X548769Y78438D01*
X548935Y77976D01*
X549054Y77501D01*
X549126Y77015D01*
X549150Y76525D01*
X549150Y6525D01*
X549126Y6035D01*
X549054Y5549D01*
X548935Y5074D01*
X548769Y4611D01*
X548560Y4168D01*
X548307Y3747D01*
X548015Y3353D01*
X547686Y2989D01*
X547322Y2660D01*
X546928Y2368D01*
X546507Y2115D01*
X546064Y1905D01*
X545601Y1740D01*
X545126Y1621D01*
X544640Y1549D01*
X544150Y1525D01*
X534150Y1525D01*
X533660Y1549D01*
X533175Y1621D01*
X532699Y1740D01*
X532237Y1905D01*
X531793Y2115D01*
X531372Y2368D01*
X530978Y2660D01*
X530614Y2989D01*
X530285Y3353D01*
X529993Y3747D01*
X529740Y4168D01*
X529531Y4611D01*
X529365Y5074D01*
X529246Y5549D01*
X529174Y6035D01*
X529150Y6525D01*
X529150Y76525D01*
X529174Y77015D01*
X529246Y77501D01*
X529365Y77976D01*
X529531Y78438D01*
X529740Y78882D01*
X529993Y79303D01*
X530285Y79697D01*
X530614Y80061D01*
X530978Y80390D01*
X531372Y80682D01*
X531793Y80935D01*
X532237Y81144D01*
X532699Y81310D01*
X533175Y81429D01*
X533660Y81501D01*
X534150Y81525D01*
X544150Y81525D01*
X544640Y81501D01*
G37*
G54D11*
X544640Y81501D02*
X545126Y81429D01*
X545601Y81310D01*
X546064Y81144D01*
X546507Y80935D01*
X546928Y80682D01*
X547322Y80390D01*
X547686Y80061D01*
X548015Y79697D01*
X548307Y79303D01*
X548560Y78882D01*
X548769Y78438D01*
X548935Y77976D01*
X549054Y77501D01*
X549126Y77015D01*
X549150Y76525D01*
X549150Y6525D01*
X549126Y6035D01*
X549054Y5549D01*
X548935Y5074D01*
X548769Y4611D01*
X548560Y4168D01*
X548307Y3747D01*
X548015Y3353D01*
X547686Y2989D01*
X547322Y2660D01*
X546928Y2368D01*
X546507Y2115D01*
X546064Y1905D01*
X545601Y1740D01*
X545126Y1621D01*
X544640Y1549D01*
X544150Y1525D01*
X534150Y1525D01*
X533660Y1549D01*
X533175Y1621D01*
X532699Y1740D01*
X532237Y1905D01*
X531793Y2115D01*
X531372Y2368D01*
X530978Y2660D01*
X530614Y2989D01*
X530285Y3353D01*
X529993Y3747D01*
X529740Y4168D01*
X529531Y4611D01*
X529365Y5074D01*
X529246Y5549D01*
X529174Y6035D01*
X529150Y6525D01*
X529150Y76525D01*
X529174Y77015D01*
X529246Y77501D01*
X529365Y77976D01*
X529531Y78438D01*
X529740Y78882D01*
X529993Y79303D01*
X530285Y79697D01*
X530614Y80061D01*
X530978Y80390D01*
X531372Y80682D01*
X531793Y80935D01*
X532237Y81144D01*
X532699Y81310D01*
X533175Y81429D01*
X533660Y81501D01*
X534150Y81525D01*
X544150Y81525D01*
X544640Y81501D01*
G36*
X519640Y81501D02*
X520126Y81429D01*
X520601Y81310D01*
X521063Y81144D01*
X521507Y80935D01*
X521928Y80682D01*
X522322Y80390D01*
X522686Y80061D01*
X523015Y79697D01*
X523307Y79303D01*
X523560Y78882D01*
X523769Y78438D01*
X523935Y77976D01*
X524054Y77501D01*
X524126Y77015D01*
X524150Y76525D01*
X524150Y6525D01*
X524126Y6035D01*
X524054Y5549D01*
X523935Y5074D01*
X523769Y4611D01*
X523560Y4168D01*
X523307Y3747D01*
X523015Y3353D01*
X522686Y2989D01*
X522322Y2660D01*
X521928Y2368D01*
X521507Y2115D01*
X521063Y1905D01*
X520601Y1740D01*
X520126Y1621D01*
X519640Y1549D01*
X519150Y1525D01*
X509150Y1525D01*
X508660Y1549D01*
X508175Y1621D01*
X507699Y1740D01*
X507237Y1905D01*
X506793Y2115D01*
X506372Y2368D01*
X505978Y2660D01*
X505614Y2989D01*
X505285Y3353D01*
X504993Y3747D01*
X504740Y4168D01*
X504531Y4611D01*
X504365Y5074D01*
X504246Y5549D01*
X504174Y6035D01*
X504150Y6525D01*
X504150Y76525D01*
X504174Y77015D01*
X504246Y77501D01*
X504365Y77976D01*
X504531Y78438D01*
X504740Y78882D01*
X504993Y79303D01*
X505285Y79697D01*
X505614Y80061D01*
X505978Y80390D01*
X506372Y80682D01*
X506793Y80935D01*
X507237Y81144D01*
X507699Y81310D01*
X508175Y81429D01*
X508660Y81501D01*
X509150Y81525D01*
X519150Y81525D01*
X519640Y81501D01*
G37*
G54D11*
X519640Y81501D02*
X520126Y81429D01*
X520601Y81310D01*
X521063Y81144D01*
X521507Y80935D01*
X521928Y80682D01*
X522322Y80390D01*
X522686Y80061D01*
X523015Y79697D01*
X523307Y79303D01*
X523560Y78882D01*
X523769Y78438D01*
X523935Y77976D01*
X524054Y77501D01*
X524126Y77015D01*
X524150Y76525D01*
X524150Y6525D01*
X524126Y6035D01*
X524054Y5549D01*
X523935Y5074D01*
X523769Y4611D01*
X523560Y4168D01*
X523307Y3747D01*
X523015Y3353D01*
X522686Y2989D01*
X522322Y2660D01*
X521928Y2368D01*
X521507Y2115D01*
X521063Y1905D01*
X520601Y1740D01*
X520126Y1621D01*
X519640Y1549D01*
X519150Y1525D01*
X509150Y1525D01*
X508660Y1549D01*
X508175Y1621D01*
X507699Y1740D01*
X507237Y1905D01*
X506793Y2115D01*
X506372Y2368D01*
X505978Y2660D01*
X505614Y2989D01*
X505285Y3353D01*
X504993Y3747D01*
X504740Y4168D01*
X504531Y4611D01*
X504365Y5074D01*
X504246Y5549D01*
X504174Y6035D01*
X504150Y6525D01*
X504150Y76525D01*
X504174Y77015D01*
X504246Y77501D01*
X504365Y77976D01*
X504531Y78438D01*
X504740Y78882D01*
X504993Y79303D01*
X505285Y79697D01*
X505614Y80061D01*
X505978Y80390D01*
X506372Y80682D01*
X506793Y80935D01*
X507237Y81144D01*
X507699Y81310D01*
X508175Y81429D01*
X508660Y81501D01*
X509150Y81525D01*
X519150Y81525D01*
X519640Y81501D01*
X139950Y238375D02*
G54D12*
D03*
X189950Y238375D02*
G54D12*
D03*
G36*
X388490Y327655D02*
X404490Y327655D01*
X404490Y311655D01*
X388490Y311655D01*
X388490Y327655D01*
G37*
G54D13*
X625090Y395855D02*
X625090Y395855D01*
G54D13*
X421890Y319655D02*
X421890Y319655D01*
G54D13*
X599690Y395855D02*
X599690Y395855D01*
G54D13*
X447290Y319655D02*
X447290Y319655D01*
G54D13*
X574290Y395855D02*
X574290Y395855D01*
G54D13*
X472690Y319655D02*
X472690Y319655D01*
G54D13*
X548890Y395855D02*
X548890Y395855D01*
G54D13*
X498090Y319655D02*
X498090Y319655D01*
G54D13*
X523490Y395855D02*
X523490Y395855D01*
G54D13*
X523490Y319655D02*
X523490Y319655D01*
G54D13*
X498090Y395855D02*
X498090Y395855D01*
G54D13*
X548890Y319655D02*
X548890Y319655D01*
G54D13*
X472690Y395855D02*
X472690Y395855D01*
G54D13*
X574290Y319655D02*
X574290Y319655D01*
G54D13*
X447290Y395855D02*
X447290Y395855D01*
G54D13*
X599690Y319655D02*
X599690Y319655D01*
G54D13*
X421890Y395855D02*
X421890Y395855D01*
G54D13*
X625090Y319655D02*
X625090Y319655D01*
G54D13*
X396490Y395855D02*
X396490Y395855D01*
G54D13*
X383790Y240915D02*
X383790Y240915D01*
G54D13*
X612390Y164715D02*
X612390Y164715D01*
G54D13*
X409190Y240915D02*
X409190Y240915D01*
G54D13*
X586990Y164715D02*
X586990Y164715D01*
G54D13*
X434590Y240915D02*
X434590Y240915D01*
G54D13*
X561590Y164715D02*
X561590Y164715D01*
G54D13*
X459990Y240915D02*
X459990Y240915D01*
G54D13*
X536190Y164715D02*
X536190Y164715D01*
G54D13*
X485390Y240915D02*
X485390Y240915D01*
G54D13*
X510790Y164715D02*
X510790Y164715D01*
G54D13*
X510790Y240915D02*
X510790Y240915D01*
G54D13*
X485390Y164715D02*
X485390Y164715D01*
G54D13*
X536190Y240915D02*
X536190Y240915D01*
G54D13*
X459990Y164715D02*
X459990Y164715D01*
G54D13*
X561590Y240915D02*
X561590Y240915D01*
G54D13*
X434590Y164715D02*
X434590Y164715D01*
G54D13*
X586990Y240915D02*
X586990Y240915D01*
G54D13*
X409190Y164715D02*
X409190Y164715D01*
G54D13*
X612390Y240915D02*
X612390Y240915D01*
G36*
X375790Y172715D02*
X391790Y172715D01*
X391790Y156715D01*
X375790Y156715D01*
X375790Y172715D01*
G37*
X83900Y702825D02*
G54D14*
D03*
X108900Y702825D02*
G54D14*
D03*
X133900Y702825D02*
G54D14*
D03*
X158900Y702825D02*
G54D14*
D03*
X183900Y702825D02*
G54D14*
D03*
X208900Y702825D02*
G54D14*
D03*
X233200Y702825D02*
G54D14*
D03*
X250200Y702825D02*
G54D14*
D03*
X58900Y702825D02*
G54D14*
D03*
X263200Y702825D02*
G54D15*
D03*
X275200Y702825D02*
G54D15*
D03*
X38150Y720825D02*
G54D16*
D03*
X16210Y873225D02*
G54D17*
D03*
X289150Y873225D02*
G54D17*
D03*
X289150Y720825D02*
G54D16*
D03*
G36*
X736208Y645179D02*
X753208Y645179D01*
X753208Y628179D01*
X736208Y628179D01*
X736208Y645179D01*
G37*
G36*
X436851Y703763D02*
X437088Y703728D01*
X437320Y703670D01*
X437545Y703589D01*
X437762Y703487D01*
X437967Y703364D01*
X438159Y703222D01*
X438336Y703061D01*
X438497Y702884D01*
X438639Y702692D01*
X438762Y702487D01*
X438864Y702270D01*
X438945Y702045D01*
X439003Y701813D01*
X439038Y701576D01*
X439050Y701337D01*
X439050Y696463D01*
X439038Y696223D01*
X439003Y695987D01*
X438945Y695755D01*
X438864Y695530D01*
X438762Y695313D01*
X438639Y695108D01*
X438497Y694916D01*
X438336Y694739D01*
X438159Y694578D01*
X437967Y694436D01*
X437762Y694313D01*
X437545Y694211D01*
X437320Y694130D01*
X437088Y694072D01*
X436851Y694037D01*
X436612Y694025D01*
X427488Y694025D01*
X427249Y694037D01*
X427012Y694072D01*
X426780Y694130D01*
X426555Y694211D01*
X426338Y694313D01*
X426133Y694436D01*
X425941Y694578D01*
X425764Y694739D01*
X425603Y694916D01*
X425461Y695108D01*
X425338Y695313D01*
X425236Y695530D01*
X425155Y695755D01*
X425097Y695987D01*
X425062Y696223D01*
X425050Y696463D01*
X425050Y701337D01*
X425062Y701576D01*
X425097Y701813D01*
X425155Y702045D01*
X425236Y702270D01*
X425338Y702487D01*
X425461Y702692D01*
X425603Y702884D01*
X425764Y703061D01*
X425941Y703222D01*
X426133Y703364D01*
X426338Y703487D01*
X426555Y703589D01*
X426780Y703670D01*
X427012Y703728D01*
X427249Y703763D01*
X427488Y703775D01*
X436612Y703775D01*
X436851Y703763D01*
G37*
G54D11*
X436851Y703763D02*
X437088Y703728D01*
X437320Y703670D01*
X437545Y703589D01*
X437762Y703487D01*
X437967Y703364D01*
X438159Y703222D01*
X438336Y703061D01*
X438497Y702884D01*
X438639Y702692D01*
X438762Y702487D01*
X438864Y702270D01*
X438945Y702045D01*
X439003Y701813D01*
X439038Y701576D01*
X439050Y701337D01*
X439050Y696463D01*
X439038Y696223D01*
X439003Y695987D01*
X438945Y695755D01*
X438864Y695530D01*
X438762Y695313D01*
X438639Y695108D01*
X438497Y694916D01*
X438336Y694739D01*
X438159Y694578D01*
X437967Y694436D01*
X437762Y694313D01*
X437545Y694211D01*
X437320Y694130D01*
X437088Y694072D01*
X436851Y694037D01*
X436612Y694025D01*
X427488Y694025D01*
X427249Y694037D01*
X427012Y694072D01*
X426780Y694130D01*
X426555Y694211D01*
X426338Y694313D01*
X426133Y694436D01*
X425941Y694578D01*
X425764Y694739D01*
X425603Y694916D01*
X425461Y695108D01*
X425338Y695313D01*
X425236Y695530D01*
X425155Y695755D01*
X425097Y695987D01*
X425062Y696223D01*
X425050Y696463D01*
X425050Y701337D01*
X425062Y701576D01*
X425097Y701813D01*
X425155Y702045D01*
X425236Y702270D01*
X425338Y702487D01*
X425461Y702692D01*
X425603Y702884D01*
X425764Y703061D01*
X425941Y703222D01*
X426133Y703364D01*
X426338Y703487D01*
X426555Y703589D01*
X426780Y703670D01*
X427012Y703728D01*
X427249Y703763D01*
X427488Y703775D01*
X436612Y703775D01*
X436851Y703763D01*
G36*
X436851Y722513D02*
X437088Y722478D01*
X437320Y722420D01*
X437545Y722339D01*
X437762Y722237D01*
X437967Y722114D01*
X438159Y721972D01*
X438336Y721811D01*
X438497Y721634D01*
X438639Y721442D01*
X438762Y721237D01*
X438864Y721020D01*
X438945Y720795D01*
X439003Y720563D01*
X439038Y720326D01*
X439050Y720087D01*
X439050Y715213D01*
X439038Y714973D01*
X439003Y714737D01*
X438945Y714505D01*
X438864Y714280D01*
X438762Y714063D01*
X438639Y713858D01*
X438497Y713666D01*
X438336Y713489D01*
X438159Y713328D01*
X437967Y713186D01*
X437762Y713063D01*
X437545Y712961D01*
X437320Y712880D01*
X437088Y712822D01*
X436851Y712787D01*
X436612Y712775D01*
X427488Y712775D01*
X427249Y712787D01*
X427012Y712822D01*
X426780Y712880D01*
X426555Y712961D01*
X426338Y713063D01*
X426133Y713186D01*
X425941Y713328D01*
X425764Y713489D01*
X425603Y713666D01*
X425461Y713858D01*
X425338Y714063D01*
X425236Y714280D01*
X425155Y714505D01*
X425097Y714737D01*
X425062Y714973D01*
X425050Y715213D01*
X425050Y720087D01*
X425062Y720326D01*
X425097Y720563D01*
X425155Y720795D01*
X425236Y721020D01*
X425338Y721237D01*
X425461Y721442D01*
X425603Y721634D01*
X425764Y721811D01*
X425941Y721972D01*
X426133Y722114D01*
X426338Y722237D01*
X426555Y722339D01*
X426780Y722420D01*
X427012Y722478D01*
X427249Y722513D01*
X427488Y722525D01*
X436612Y722525D01*
X436851Y722513D01*
G37*
G54D11*
X436851Y722513D02*
X437088Y722478D01*
X437320Y722420D01*
X437545Y722339D01*
X437762Y722237D01*
X437967Y722114D01*
X438159Y721972D01*
X438336Y721811D01*
X438497Y721634D01*
X438639Y721442D01*
X438762Y721237D01*
X438864Y721020D01*
X438945Y720795D01*
X439003Y720563D01*
X439038Y720326D01*
X439050Y720087D01*
X439050Y715213D01*
X439038Y714973D01*
X439003Y714737D01*
X438945Y714505D01*
X438864Y714280D01*
X438762Y714063D01*
X438639Y713858D01*
X438497Y713666D01*
X438336Y713489D01*
X438159Y713328D01*
X437967Y713186D01*
X437762Y713063D01*
X437545Y712961D01*
X437320Y712880D01*
X437088Y712822D01*
X436851Y712787D01*
X436612Y712775D01*
X427488Y712775D01*
X427249Y712787D01*
X427012Y712822D01*
X426780Y712880D01*
X426555Y712961D01*
X426338Y713063D01*
X426133Y713186D01*
X425941Y713328D01*
X425764Y713489D01*
X425603Y713666D01*
X425461Y713858D01*
X425338Y714063D01*
X425236Y714280D01*
X425155Y714505D01*
X425097Y714737D01*
X425062Y714973D01*
X425050Y715213D01*
X425050Y720087D01*
X425062Y720326D01*
X425097Y720563D01*
X425155Y720795D01*
X425236Y721020D01*
X425338Y721237D01*
X425461Y721442D01*
X425603Y721634D01*
X425764Y721811D01*
X425941Y721972D01*
X426133Y722114D01*
X426338Y722237D01*
X426555Y722339D01*
X426780Y722420D01*
X427012Y722478D01*
X427249Y722513D01*
X427488Y722525D01*
X436612Y722525D01*
X436851Y722513D01*
G36*
X411451Y722513D02*
X411688Y722478D01*
X411920Y722420D01*
X412145Y722339D01*
X412362Y722237D01*
X412567Y722114D01*
X412759Y721972D01*
X412936Y721811D01*
X413097Y721634D01*
X413239Y721442D01*
X413362Y721237D01*
X413464Y721020D01*
X413545Y720795D01*
X413603Y720563D01*
X413638Y720326D01*
X413650Y720087D01*
X413650Y715213D01*
X413638Y714973D01*
X413603Y714737D01*
X413545Y714505D01*
X413464Y714280D01*
X413362Y714063D01*
X413239Y713858D01*
X413097Y713666D01*
X412936Y713489D01*
X412759Y713328D01*
X412567Y713186D01*
X412362Y713063D01*
X412145Y712961D01*
X411920Y712880D01*
X411688Y712822D01*
X411451Y712787D01*
X411212Y712775D01*
X402088Y712775D01*
X401849Y712787D01*
X401612Y712822D01*
X401380Y712880D01*
X401155Y712961D01*
X400938Y713063D01*
X400733Y713186D01*
X400541Y713328D01*
X400364Y713489D01*
X400203Y713666D01*
X400061Y713858D01*
X399938Y714063D01*
X399836Y714280D01*
X399755Y714505D01*
X399697Y714737D01*
X399662Y714973D01*
X399650Y715213D01*
X399650Y720087D01*
X399662Y720326D01*
X399697Y720563D01*
X399755Y720795D01*
X399836Y721020D01*
X399938Y721237D01*
X400061Y721442D01*
X400203Y721634D01*
X400364Y721811D01*
X400541Y721972D01*
X400733Y722114D01*
X400938Y722237D01*
X401155Y722339D01*
X401380Y722420D01*
X401612Y722478D01*
X401849Y722513D01*
X402088Y722525D01*
X411212Y722525D01*
X411451Y722513D01*
G37*
G54D11*
X411451Y722513D02*
X411688Y722478D01*
X411920Y722420D01*
X412145Y722339D01*
X412362Y722237D01*
X412567Y722114D01*
X412759Y721972D01*
X412936Y721811D01*
X413097Y721634D01*
X413239Y721442D01*
X413362Y721237D01*
X413464Y721020D01*
X413545Y720795D01*
X413603Y720563D01*
X413638Y720326D01*
X413650Y720087D01*
X413650Y715213D01*
X413638Y714973D01*
X413603Y714737D01*
X413545Y714505D01*
X413464Y714280D01*
X413362Y714063D01*
X413239Y713858D01*
X413097Y713666D01*
X412936Y713489D01*
X412759Y713328D01*
X412567Y713186D01*
X412362Y713063D01*
X412145Y712961D01*
X411920Y712880D01*
X411688Y712822D01*
X411451Y712787D01*
X411212Y712775D01*
X402088Y712775D01*
X401849Y712787D01*
X401612Y712822D01*
X401380Y712880D01*
X401155Y712961D01*
X400938Y713063D01*
X400733Y713186D01*
X400541Y713328D01*
X400364Y713489D01*
X400203Y713666D01*
X400061Y713858D01*
X399938Y714063D01*
X399836Y714280D01*
X399755Y714505D01*
X399697Y714737D01*
X399662Y714973D01*
X399650Y715213D01*
X399650Y720087D01*
X399662Y720326D01*
X399697Y720563D01*
X399755Y720795D01*
X399836Y721020D01*
X399938Y721237D01*
X400061Y721442D01*
X400203Y721634D01*
X400364Y721811D01*
X400541Y721972D01*
X400733Y722114D01*
X400938Y722237D01*
X401155Y722339D01*
X401380Y722420D01*
X401612Y722478D01*
X401849Y722513D01*
X402088Y722525D01*
X411212Y722525D01*
X411451Y722513D01*
G36*
X411451Y703763D02*
X411688Y703728D01*
X411920Y703670D01*
X412145Y703589D01*
X412362Y703487D01*
X412567Y703364D01*
X412759Y703222D01*
X412936Y703061D01*
X413097Y702884D01*
X413239Y702692D01*
X413362Y702487D01*
X413464Y702270D01*
X413545Y702045D01*
X413603Y701813D01*
X413638Y701576D01*
X413650Y701337D01*
X413650Y696463D01*
X413638Y696223D01*
X413603Y695987D01*
X413545Y695755D01*
X413464Y695530D01*
X413362Y695313D01*
X413239Y695108D01*
X413097Y694916D01*
X412936Y694739D01*
X412759Y694578D01*
X412567Y694436D01*
X412362Y694313D01*
X412145Y694211D01*
X411920Y694130D01*
X411688Y694072D01*
X411451Y694037D01*
X411212Y694025D01*
X402088Y694025D01*
X401849Y694037D01*
X401612Y694072D01*
X401380Y694130D01*
X401155Y694211D01*
X400938Y694313D01*
X400733Y694436D01*
X400541Y694578D01*
X400364Y694739D01*
X400203Y694916D01*
X400061Y695108D01*
X399938Y695313D01*
X399836Y695530D01*
X399755Y695755D01*
X399697Y695987D01*
X399662Y696223D01*
X399650Y696463D01*
X399650Y701337D01*
X399662Y701576D01*
X399697Y701813D01*
X399755Y702045D01*
X399836Y702270D01*
X399938Y702487D01*
X400061Y702692D01*
X400203Y702884D01*
X400364Y703061D01*
X400541Y703222D01*
X400733Y703364D01*
X400938Y703487D01*
X401155Y703589D01*
X401380Y703670D01*
X401612Y703728D01*
X401849Y703763D01*
X402088Y703775D01*
X411212Y703775D01*
X411451Y703763D01*
G37*
G54D11*
X411451Y703763D02*
X411688Y703728D01*
X411920Y703670D01*
X412145Y703589D01*
X412362Y703487D01*
X412567Y703364D01*
X412759Y703222D01*
X412936Y703061D01*
X413097Y702884D01*
X413239Y702692D01*
X413362Y702487D01*
X413464Y702270D01*
X413545Y702045D01*
X413603Y701813D01*
X413638Y701576D01*
X413650Y701337D01*
X413650Y696463D01*
X413638Y696223D01*
X413603Y695987D01*
X413545Y695755D01*
X413464Y695530D01*
X413362Y695313D01*
X413239Y695108D01*
X413097Y694916D01*
X412936Y694739D01*
X412759Y694578D01*
X412567Y694436D01*
X412362Y694313D01*
X412145Y694211D01*
X411920Y694130D01*
X411688Y694072D01*
X411451Y694037D01*
X411212Y694025D01*
X402088Y694025D01*
X401849Y694037D01*
X401612Y694072D01*
X401380Y694130D01*
X401155Y694211D01*
X400938Y694313D01*
X400733Y694436D01*
X400541Y694578D01*
X400364Y694739D01*
X400203Y694916D01*
X400061Y695108D01*
X399938Y695313D01*
X399836Y695530D01*
X399755Y695755D01*
X399697Y695987D01*
X399662Y696223D01*
X399650Y696463D01*
X399650Y701337D01*
X399662Y701576D01*
X399697Y701813D01*
X399755Y702045D01*
X399836Y702270D01*
X399938Y702487D01*
X400061Y702692D01*
X400203Y702884D01*
X400364Y703061D01*
X400541Y703222D01*
X400733Y703364D01*
X400938Y703487D01*
X401155Y703589D01*
X401380Y703670D01*
X401612Y703728D01*
X401849Y703763D01*
X402088Y703775D01*
X411212Y703775D01*
X411451Y703763D01*
G36*
X388490Y441955D02*
X404490Y441955D01*
X404490Y425955D01*
X388490Y425955D01*
X388490Y441955D01*
G37*
G54D13*
X421890Y433955D02*
X421890Y433955D01*
G54D13*
X447290Y433955D02*
X447290Y433955D01*
G54D13*
X472690Y433955D02*
X472690Y433955D01*
G54D13*
X498090Y433955D02*
X498090Y433955D01*
G54D13*
X523490Y433955D02*
X523490Y433955D01*
G54D13*
X548890Y433955D02*
X548890Y433955D01*
G54D13*
X599690Y433955D02*
X599690Y433955D01*
G54D13*
X625090Y433955D02*
X625090Y433955D01*
G36*
X375790Y287015D02*
X391790Y287015D01*
X391790Y271015D01*
X375790Y271015D01*
X375790Y287015D01*
G37*
G54D13*
X409190Y279015D02*
X409190Y279015D01*
G54D13*
X434590Y279015D02*
X434590Y279015D01*
G54D13*
X459990Y279015D02*
X459990Y279015D01*
G54D13*
X485390Y279015D02*
X485390Y279015D01*
G54D13*
X510790Y279015D02*
X510790Y279015D01*
G54D13*
X536190Y279015D02*
X536190Y279015D01*
G54D13*
X561590Y279015D02*
X561590Y279015D01*
G54D13*
X586990Y279015D02*
X586990Y279015D01*
X771775Y942981D02*
G54D18*
D03*
X771775Y897981D02*
G54D18*
D03*
X706775Y942981D02*
G54D18*
D03*
X706775Y897981D02*
G54D18*
D03*
X707569Y698750D02*
G54D18*
D03*
X707569Y743750D02*
G54D18*
D03*
X772569Y698750D02*
G54D18*
D03*
X772569Y743750D02*
G54D18*
D03*
X771775Y842969D02*
G54D18*
D03*
X771775Y797969D02*
G54D18*
D03*
X706775Y842969D02*
G54D18*
D03*
X706775Y797969D02*
G54D18*
D03*
G36*
X17650Y614675D02*
X33650Y614675D01*
X33650Y598675D01*
X17650Y598675D01*
X17650Y614675D01*
G37*
G54D13*
X178050Y276475D02*
X178050Y276475D01*
G54D13*
X178050Y301875D02*
X178050Y301875D01*
G54D13*
X178050Y327275D02*
X178050Y327275D01*
G54D13*
X178050Y352675D02*
X178050Y352675D01*
G54D13*
X178050Y378075D02*
X178050Y378075D01*
G54D13*
X25650Y479675D02*
X25650Y479675D01*
G54D13*
X178050Y403475D02*
X178050Y403475D01*
G54D13*
X25650Y454275D02*
X25650Y454275D01*
G54D13*
X178050Y428875D02*
X178050Y428875D01*
G54D13*
X25650Y428875D02*
X25650Y428875D01*
G54D13*
X178050Y454275D02*
X178050Y454275D01*
G54D13*
X25650Y403475D02*
X25650Y403475D01*
G54D13*
X178050Y479675D02*
X178050Y479675D01*
G54D13*
X25650Y378075D02*
X25650Y378075D01*
G54D13*
X25650Y352675D02*
X25650Y352675D01*
G54D13*
X25650Y327275D02*
X25650Y327275D01*
G54D13*
X25650Y301875D02*
X25650Y301875D01*
G54D13*
X25650Y276475D02*
X25650Y276475D01*
G36*
X220850Y411475D02*
X236850Y411475D01*
X236850Y395475D01*
X220850Y395475D01*
X220850Y411475D01*
G37*
G54D13*
X305050Y251075D02*
X305050Y251075D01*
G54D13*
X228850Y378075D02*
X228850Y378075D01*
G54D13*
X305050Y276475D02*
X305050Y276475D01*
G54D13*
X228850Y352675D02*
X228850Y352675D01*
G54D13*
X305050Y301875D02*
X305050Y301875D01*
G54D13*
X228850Y327275D02*
X228850Y327275D01*
G54D13*
X305050Y327275D02*
X305050Y327275D01*
G54D13*
X228850Y301875D02*
X228850Y301875D01*
G54D13*
X305050Y352675D02*
X305050Y352675D01*
G54D13*
X228850Y276475D02*
X228850Y276475D01*
G54D13*
X305050Y378075D02*
X305050Y378075D01*
G54D13*
X228850Y251075D02*
X228850Y251075D01*
G54D13*
X305050Y403475D02*
X305050Y403475D01*
X317191Y183938D02*
G54D19*
D03*
X390091Y707139D02*
G54D19*
D03*
X204058Y485927D02*
G54D19*
D03*
X533650Y515317D02*
G54D19*
D03*
X472690Y138673D02*
G54D19*
D03*
X235009Y515477D02*
G54D19*
D03*
X396490Y356644D02*
G54D19*
D03*
X496991Y545195D02*
G54D19*
D03*
X609274Y529751D02*
G54D19*
D03*
X485390Y414905D02*
G54D19*
D03*
X331031Y427005D02*
G54D19*
D03*
X524063Y453732D02*
G54D19*
D03*
X487064Y199401D02*
G54D19*
D03*
X377539Y205122D02*
G54D19*
D03*
X621974Y555875D02*
G54D19*
D03*
X350204Y211015D02*
G54D19*
D03*
X360707Y332159D02*
G54D19*
D03*
X105628Y653392D02*
G54D19*
D03*
X121047Y663896D02*
G54D19*
D03*
X303218Y608030D02*
G54D19*
D03*
X319162Y618534D02*
G54D19*
D03*
X432050Y670933D02*
G54D19*
D03*
G54D20*
X305050Y301875D02*
X305050Y276475D01*
G54D20*
X189950Y238375D02*
X189950Y263176D01*
X39150Y263176D01*
X39150Y276475D01*
X25650Y276475D01*
X6612Y276475D01*
X6612Y627056D01*
X133900Y627056D01*
X133900Y702825D01*
X133900Y718004D01*
X208900Y718004D01*
X208900Y702825D01*
X208900Y673858D01*
X254250Y673858D01*
X254250Y644775D01*
G54D20*
X178050Y403475D02*
X190606Y403475D01*
X190606Y263176D01*
X189950Y263176D01*
G54D20*
X228850Y251075D02*
X189950Y251075D01*
G54D20*
X89150Y41525D02*
X89150Y101659D01*
X39150Y101659D01*
X39150Y263176D01*
G54D20*
X39150Y41525D02*
X39150Y101659D01*
G54D21*
X772569Y743750D02*
X790575Y726281D01*
X790575Y682625D01*
X744708Y636679D01*
X686522Y578457D01*
X686594Y566341D01*
X686594Y510381D01*
X686050Y492375D01*
X686050Y319655D01*
X625090Y319655D01*
G54D21*
X707569Y743750D02*
X772569Y743750D01*
G54D21*
X706775Y942981D02*
X771775Y942981D01*
G54D20*
X599690Y319655D02*
X599690Y164715D01*
X612390Y164715D01*
X614150Y164715D01*
X614150Y41525D01*
G54D22*
X491978Y939653D02*
X491728Y921147D01*
X483791Y913209D01*
X373312Y913063D01*
X319088Y912813D01*
X307590Y901315D01*
X307590Y686046D01*
X301154Y679610D01*
X279650Y679610D01*
X279650Y644775D01*
X294891Y629534D01*
X332991Y629534D01*
X332990Y615342D01*
X332990Y601595D01*
X325370Y593975D01*
X273668Y593975D01*
G54D20*
X432050Y717650D02*
X406650Y717650D01*
G54D20*
X305050Y492375D02*
X305050Y555506D01*
X419926Y555506D01*
X419926Y660430D01*
X443017Y660430D01*
X443017Y681797D01*
X495984Y681797D01*
X560784Y681831D01*
X673894Y794941D01*
X673784Y864644D01*
X706775Y897981D01*
G54D20*
X390091Y707139D02*
X393374Y707139D01*
X393374Y570514D01*
X279073Y570514D01*
X279073Y510501D01*
X254250Y510501D01*
X254250Y492375D01*
G54D20*
X279650Y492375D02*
X279650Y480251D01*
X318326Y480251D01*
X318326Y549503D01*
X445326Y549503D01*
X445326Y654427D01*
X449020Y654427D01*
X449020Y675793D01*
X563166Y675878D01*
X686055Y798366D01*
X706775Y797969D01*
G54D20*
X421890Y395855D02*
X421890Y433955D01*
X421890Y472476D01*
X444955Y472476D01*
X444955Y519662D01*
X482850Y519662D01*
X482850Y644775D01*
G54D20*
X612390Y240915D02*
X612390Y395855D01*
X625090Y395855D01*
X625090Y428181D01*
X635250Y428181D01*
X635250Y492375D01*
G54D20*
X625090Y433955D02*
X625090Y428181D01*
G54D20*
X447290Y395855D02*
X447290Y433955D01*
X447290Y460469D01*
X459298Y460469D01*
X459298Y477936D01*
X469574Y477936D01*
X469574Y492375D01*
X482850Y492375D01*
G54D20*
X25650Y555875D02*
X140068Y555875D01*
X140068Y492571D01*
X204058Y492571D01*
X204058Y485927D01*
G54D20*
X472690Y395855D02*
X472690Y433955D01*
X475459Y433955D01*
X475459Y465929D01*
X490699Y465929D01*
X490699Y473241D01*
X501553Y473241D01*
X501553Y479244D01*
X533650Y479244D01*
X533650Y492375D01*
G54D20*
X498090Y395855D02*
X498090Y433955D01*
X502705Y433955D01*
X502705Y455232D01*
X513559Y455232D01*
X513559Y466389D01*
X571174Y466389D01*
X571174Y644775D01*
X584450Y644775D01*
G54D20*
X533650Y515317D02*
X533650Y644775D01*
G54D20*
X523490Y395855D02*
X523490Y433955D01*
G54D20*
X548890Y433955D02*
X548890Y395855D01*
G54D20*
X472690Y319655D02*
X472690Y138673D01*
G54D20*
X25650Y403475D02*
X81591Y403475D01*
X81591Y441379D01*
X367974Y441379D01*
X367974Y492375D01*
X381250Y492375D01*
G54D20*
X574290Y433955D02*
X574290Y395855D01*
G54D20*
X266950Y581275D02*
X235009Y581275D01*
X235009Y555875D01*
X235009Y515477D01*
G54D20*
X178050Y555875D02*
X235009Y555875D01*
G54D20*
X599690Y433955D02*
X599690Y395855D01*
G54D20*
X396490Y319655D02*
X396490Y356644D01*
G54D20*
X409190Y240915D02*
X409190Y279015D01*
X409190Y301146D01*
X434590Y301146D01*
X434590Y466472D01*
X453295Y466472D01*
X453295Y492375D01*
X457450Y492375D01*
G54D20*
X434590Y240915D02*
X434590Y279015D01*
X440789Y279015D01*
X440789Y301148D01*
X460186Y301148D01*
X460186Y454466D01*
X469456Y454466D01*
X469456Y471932D01*
X475692Y471932D01*
X475692Y479244D01*
X495550Y479244D01*
X495550Y497532D01*
X496991Y497532D01*
X508250Y497532D01*
X508250Y492375D01*
G54D20*
X496991Y545195D02*
X496991Y497532D01*
G54D20*
X609274Y529751D02*
X609274Y644775D01*
X609850Y644775D01*
G54D20*
X459990Y279015D02*
X459990Y240915D01*
G54D20*
X178050Y428875D02*
X331031Y428875D01*
X331031Y427005D01*
G54D20*
X485390Y240915D02*
X485390Y279015D01*
X485390Y414905D01*
X485390Y459926D01*
X496702Y459926D01*
X496702Y467238D01*
X507556Y467238D01*
X507556Y473240D01*
X545774Y473240D01*
X545774Y644775D01*
X559050Y644775D01*
G54D20*
X510790Y240915D02*
X510790Y279015D01*
X510790Y449229D01*
X524063Y449229D01*
X524063Y453732D01*
G54D20*
X25650Y428875D02*
X75587Y428875D01*
X75587Y466779D01*
X342574Y466779D01*
X342574Y510501D01*
X406650Y510501D01*
X406650Y492375D01*
G54D20*
X355850Y492375D02*
X355850Y504498D01*
X393373Y504498D01*
X393373Y466357D01*
X375248Y466357D01*
X375248Y415979D01*
X292547Y415979D01*
X292547Y390971D01*
X371211Y390971D01*
X371211Y205122D01*
X377539Y205122D01*
G54D20*
X487064Y199401D02*
X536190Y199401D01*
X536190Y240915D01*
X536190Y279015D01*
G54D20*
X25650Y378075D02*
X143325Y378075D01*
X143325Y415979D01*
X292547Y415979D01*
G54D20*
X508250Y644775D02*
X508250Y656899D01*
X596574Y656899D01*
X596574Y460385D01*
X561590Y460385D01*
X561590Y279015D01*
X561590Y240915D01*
G54D20*
X586990Y240915D02*
X586990Y279015D01*
X586990Y454381D01*
X621974Y454381D01*
X621974Y555875D01*
G54D20*
X228850Y327275D02*
X228850Y314675D01*
X216346Y314675D01*
X216346Y378075D01*
X228850Y378075D01*
G54D20*
X350204Y211015D02*
X266950Y211015D01*
X266950Y302074D01*
X228850Y302074D01*
X228850Y314675D01*
G54D20*
X228850Y301875D02*
X228850Y302074D01*
G54D20*
X214150Y41525D02*
X214150Y200512D01*
X360707Y200512D01*
X360707Y332159D01*
G54D20*
X83900Y702825D02*
X83900Y653392D01*
X105628Y653392D01*
G54D20*
X121047Y663896D02*
X108900Y663896D01*
X108900Y702825D01*
G54D22*
X158900Y702825D02*
X158900Y644775D01*
X228850Y644775D01*
G54D20*
X183900Y702825D02*
X183900Y667854D01*
X240974Y667854D01*
X242130Y666698D01*
X242130Y623875D01*
X247210Y618795D01*
X272610Y618795D01*
X283375Y608030D01*
X303218Y608030D01*
G54D20*
X517775Y940050D02*
X532856Y955038D01*
X555228Y955278D01*
X564910Y945117D01*
X565150Y929084D01*
X533400Y896541D01*
X337898Y896623D01*
X330450Y889083D01*
X330450Y644775D01*
G54D20*
X543175Y940050D02*
X542925Y925513D01*
X521744Y904542D01*
X324247Y904875D01*
X317103Y897731D01*
X317058Y839455D01*
X317058Y644775D01*
X305050Y644775D01*
G54D20*
X432050Y698900D02*
X432050Y670933D01*
G54D20*
X178050Y301875D02*
X63632Y301875D01*
X63632Y365179D01*
X13146Y365179D01*
X13146Y568379D01*
X146072Y568379D01*
X146072Y543371D01*
X222732Y543371D01*
X222732Y504973D01*
X240974Y504973D01*
X240974Y480251D01*
X266950Y480251D01*
X266950Y504498D01*
X285077Y504498D01*
X285077Y564510D01*
X406650Y564510D01*
X406650Y644775D01*
X406650Y698900D01*
G54D20*
X305050Y378075D02*
X292546Y378075D01*
X292546Y251075D01*
X305050Y251075D01*
G54D22*
X289150Y935825D02*
X289150Y720821D01*
X236275Y720821D01*
X236275Y720833D01*
X208672Y720833D01*
G54D22*
X208672Y720833D02*
X111725Y720702D01*
X38150Y720825D01*
X16150Y720825D01*
X16150Y935825D01*
G54D22*
X383790Y240915D02*
X383790Y215891D01*
X389039Y210642D01*
X389039Y199602D01*
X379375Y189938D01*
X323191Y189938D01*
X317191Y183938D01*
G54D22*
X383790Y279015D02*
X383790Y292015D01*
X382990Y292815D01*
X382990Y393669D01*
X385176Y395855D01*
X396490Y395855D01*
X396490Y433955D01*
G54D22*
X305050Y403475D02*
X377556Y403475D01*
X385176Y395855D01*
G54D23*
X343149Y629534D02*
X343726Y630111D01*
X343726Y632651D01*
G54D22*
X178050Y606675D02*
X198370Y606675D01*
X211070Y593975D01*
X260232Y593975D01*
G54D22*
X332991Y629534D02*
X343149Y629534D01*
X343149Y639694D01*
G54D20*
X260232Y593975D02*
X261870Y593975D01*
X273668Y593975D01*
G54D22*
X406650Y717650D02*
X399650Y717650D01*
X398661Y718639D01*
X358594Y718639D01*
X343150Y703195D01*
X343150Y651493D01*
G54D20*
X343149Y639694D02*
X343149Y651492D01*
X343150Y651493D01*
G54D23*
X561590Y164715D02*
X561590Y144395D01*
X589150Y116835D01*
X589150Y41525D01*
G54D23*
X536190Y164715D02*
X536190Y141855D01*
X564150Y113895D01*
X564150Y41525D01*
G54D23*
X510790Y164715D02*
X510790Y141855D01*
X539150Y113495D01*
X539150Y41525D01*
G54D23*
X485390Y164715D02*
X485390Y144395D01*
X514150Y115635D01*
X514150Y41525D01*
G54D23*
X459990Y164715D02*
X459990Y126615D01*
X472690Y113915D01*
X477770Y113915D01*
X489150Y102535D01*
X489150Y41525D01*
G54D23*
X434590Y164715D02*
X434590Y139315D01*
X464150Y109755D01*
X464150Y41525D01*
G54D23*
X409190Y164715D02*
X409190Y141855D01*
X439150Y111895D01*
X439150Y41525D01*
G54D23*
X383790Y164715D02*
X383790Y134235D01*
X414150Y103875D01*
X414150Y41525D01*
G54D20*
X457450Y644775D02*
X457450Y525665D01*
X418774Y525665D01*
X418774Y479365D01*
X408994Y479365D01*
X408994Y307150D01*
X396294Y307150D01*
X396294Y188506D01*
X387546Y179758D01*
X370893Y179758D01*
X366010Y174875D01*
X366010Y134235D01*
X389150Y111095D01*
X389150Y41525D01*
G54D20*
X319162Y618534D02*
X281356Y618534D01*
X266370Y633520D01*
X266370Y675835D01*
X256863Y685342D01*
X233200Y685342D01*
X233200Y702825D01*
G36*
X164131Y406965D02*
X165351Y404745D01*
X176780Y404745D01*
X176780Y404945D01*
X179320Y404945D01*
X179320Y404745D01*
X190749Y404745D01*
X191969Y406965D01*
X191616Y408129D01*
X214469Y408129D01*
X214469Y395475D01*
X214592Y394230D01*
X214955Y393033D01*
X215545Y391930D01*
X216338Y390963D01*
X217305Y390170D01*
X218408Y389580D01*
X219605Y389217D01*
X219690Y389209D01*
X217704Y387223D01*
X216837Y385925D01*
X216732Y385925D01*
X216346Y385963D01*
X215960Y385925D01*
X214807Y385811D01*
X213327Y385363D01*
X211964Y384634D01*
X210768Y383653D01*
X209787Y382457D01*
X209058Y381094D01*
X208610Y379614D01*
X208458Y378075D01*
X208496Y377689D01*
X208496Y315061D01*
X208458Y314675D01*
X208610Y313136D01*
X209058Y311656D01*
X209787Y310293D01*
X210552Y309362D01*
X210768Y309097D01*
X211964Y308116D01*
X213327Y307387D01*
X214807Y306939D01*
X215391Y306881D01*
X215052Y306061D01*
X214500Y303288D01*
X214500Y300462D01*
X215052Y297689D01*
X216133Y295078D01*
X217704Y292727D01*
X219702Y290729D01*
X222028Y289175D01*
X219702Y287621D01*
X217704Y285623D01*
X216133Y283272D01*
X215052Y280661D01*
X214500Y277888D01*
X214500Y275062D01*
X215052Y272289D01*
X216133Y269678D01*
X217704Y267327D01*
X219702Y265329D01*
X222053Y263758D01*
X222159Y263714D01*
X220299Y262599D01*
X218215Y260709D01*
X216540Y258449D01*
X215338Y255906D01*
X214931Y254565D01*
X216151Y252345D01*
X227580Y252345D01*
X227580Y252545D01*
X230120Y252545D01*
X230120Y252345D01*
X241549Y252345D01*
X242769Y254565D01*
X242362Y255906D01*
X241160Y258449D01*
X239485Y260709D01*
X237401Y262599D01*
X235541Y263714D01*
X235647Y263758D01*
X237998Y265329D01*
X239996Y267327D01*
X241567Y269678D01*
X242648Y272289D01*
X243200Y275062D01*
X243200Y277888D01*
X242648Y280661D01*
X241567Y283272D01*
X239996Y285623D01*
X237998Y287621D01*
X235672Y289175D01*
X237998Y290729D01*
X239996Y292727D01*
X240996Y294224D01*
X259100Y294224D01*
X259100Y211401D01*
X259062Y211015D01*
X259214Y209476D01*
X259552Y208362D01*
X214536Y208362D01*
X214150Y208400D01*
X213764Y208362D01*
X212611Y208249D01*
X211131Y207799D01*
X209768Y207071D01*
X208572Y206090D01*
X207591Y204894D01*
X206862Y203531D01*
X206414Y202051D01*
X206262Y200512D01*
X206300Y200126D01*
X206300Y87496D01*
X204795Y87039D01*
X202827Y85988D01*
X201650Y85021D01*
X200473Y85988D01*
X198505Y87039D01*
X196370Y87687D01*
X194150Y87906D01*
X184150Y87906D01*
X181930Y87687D01*
X179795Y87039D01*
X177827Y85988D01*
X176650Y85021D01*
X175473Y85988D01*
X173505Y87039D01*
X171370Y87687D01*
X169150Y87906D01*
X159150Y87906D01*
X156930Y87687D01*
X154795Y87039D01*
X152827Y85988D01*
X151650Y85021D01*
X150473Y85988D01*
X148505Y87039D01*
X146370Y87687D01*
X144150Y87906D01*
X134150Y87906D01*
X131930Y87687D01*
X129795Y87039D01*
X127827Y85988D01*
X126650Y85021D01*
X125473Y85988D01*
X123505Y87039D01*
X121370Y87687D01*
X119150Y87906D01*
X109150Y87906D01*
X106930Y87687D01*
X104795Y87039D01*
X103369Y86277D01*
X102695Y86830D01*
X101592Y87420D01*
X100395Y87783D01*
X99150Y87906D01*
X92008Y87875D01*
X90420Y86287D01*
X90420Y74545D01*
X87880Y74545D01*
X87880Y86287D01*
X86292Y87875D01*
X79150Y87906D01*
X77905Y87783D01*
X76708Y87420D01*
X75605Y86830D01*
X74931Y86277D01*
X73505Y87039D01*
X71370Y87687D01*
X69150Y87906D01*
X59150Y87906D01*
X56930Y87687D01*
X54795Y87039D01*
X53369Y86277D01*
X52695Y86830D01*
X51592Y87420D01*
X50395Y87783D01*
X49150Y87906D01*
X42008Y87875D01*
X40420Y86287D01*
X40420Y74545D01*
X37880Y74545D01*
X37880Y86287D01*
X36292Y87875D01*
X29150Y87906D01*
X27905Y87783D01*
X26708Y87420D01*
X25605Y86830D01*
X24638Y86037D01*
X23845Y85070D01*
X23255Y83967D01*
X22892Y82770D01*
X22769Y81525D01*
X20820Y81445D01*
X20820Y104143D01*
X20850Y104544D01*
X20781Y105113D01*
X20724Y105684D01*
X20702Y105758D01*
X20693Y105835D01*
X20514Y106379D01*
X20347Y106928D01*
X20311Y106996D01*
X20286Y107070D01*
X20005Y107569D01*
X19734Y108075D01*
X19685Y108134D01*
X19647Y108202D01*
X19273Y108636D01*
X18910Y109079D01*
X18598Y109335D01*
X6850Y120549D01*
X6850Y239985D01*
X123600Y239985D01*
X123600Y236765D01*
X124228Y233606D01*
X125461Y230630D01*
X127250Y227953D01*
X129528Y225675D01*
X132205Y223886D01*
X135181Y222653D01*
X138340Y222025D01*
X141560Y222025D01*
X144719Y222653D01*
X147695Y223886D01*
X150372Y225675D01*
X151718Y227021D01*
X180392Y227021D01*
X181350Y224377D01*
X184246Y222968D01*
X187361Y222151D01*
X190576Y221958D01*
X193767Y222395D01*
X196811Y223447D01*
X198550Y224377D01*
X199508Y227021D01*
X189950Y236579D01*
X180392Y227021D01*
X151718Y227021D01*
X152650Y227953D01*
X154439Y230630D01*
X155672Y233606D01*
X156300Y236765D01*
X156300Y237749D01*
X173533Y237749D01*
X173970Y234558D01*
X175022Y231514D01*
X175952Y229775D01*
X178596Y228817D01*
X188154Y238375D01*
X191746Y238375D01*
X201304Y228817D01*
X203948Y229775D01*
X205357Y232671D01*
X206174Y235786D01*
X206367Y239001D01*
X205930Y242192D01*
X204878Y245236D01*
X203948Y246975D01*
X202266Y247585D01*
X214931Y247585D01*
X215338Y246244D01*
X216540Y243701D01*
X218215Y241441D01*
X220299Y239551D01*
X222711Y238104D01*
X225360Y237156D01*
X227580Y238369D01*
X227580Y249805D01*
X230120Y249805D01*
X230120Y238369D01*
X232340Y237156D01*
X234989Y238104D01*
X237401Y239551D01*
X239485Y241441D01*
X241160Y243701D01*
X242362Y246244D01*
X242769Y247585D01*
X241549Y249805D01*
X230120Y249805D01*
X227580Y249805D01*
X216151Y249805D01*
X214931Y247585D01*
X202266Y247585D01*
X201304Y247933D01*
X191746Y238375D01*
X188154Y238375D01*
X178596Y247933D01*
X175952Y246975D01*
X174543Y244079D01*
X173726Y240964D01*
X173533Y237749D01*
X156300Y237749D01*
X156300Y239985D01*
X155672Y243144D01*
X154439Y246119D01*
X152650Y248797D01*
X151718Y249729D01*
X180392Y249729D01*
X189950Y240171D01*
X199508Y249729D01*
X198550Y252373D01*
X195654Y253782D01*
X192539Y254599D01*
X189324Y254792D01*
X186133Y254355D01*
X183089Y253303D01*
X181350Y252373D01*
X180392Y249729D01*
X151718Y249729D01*
X150372Y251075D01*
X147695Y252864D01*
X144719Y254097D01*
X141560Y254725D01*
X138340Y254725D01*
X135181Y254097D01*
X132205Y252864D01*
X129528Y251075D01*
X127250Y248797D01*
X125461Y246119D01*
X124228Y243144D01*
X123600Y239985D01*
X6850Y239985D01*
X6850Y272985D01*
X11731Y272985D01*
X12138Y271644D01*
X13340Y269101D01*
X15015Y266841D01*
X17099Y264951D01*
X19511Y263504D01*
X22160Y262556D01*
X24380Y263769D01*
X24380Y275205D01*
X26920Y275205D01*
X26920Y263769D01*
X29140Y262556D01*
X31789Y263504D01*
X34201Y264951D01*
X36285Y266841D01*
X37960Y269101D01*
X39162Y271644D01*
X39569Y272985D01*
X38349Y275205D01*
X26920Y275205D01*
X24380Y275205D01*
X12951Y275205D01*
X11731Y272985D01*
X6850Y272985D01*
X6850Y360477D01*
X7518Y359663D01*
X7568Y359601D01*
X8764Y358620D01*
X10127Y357891D01*
X11607Y357443D01*
X12073Y357397D01*
X11852Y356861D01*
X11300Y354088D01*
X11300Y351262D01*
X11852Y348489D01*
X12933Y345878D01*
X14504Y343527D01*
X16502Y341529D01*
X18828Y339975D01*
X16502Y338421D01*
X14504Y336423D01*
X12933Y334072D01*
X11852Y331461D01*
X11300Y328688D01*
X11300Y325862D01*
X11852Y323089D01*
X12933Y320478D01*
X14504Y318127D01*
X16502Y316129D01*
X18828Y314575D01*
X16502Y313021D01*
X14504Y311023D01*
X12933Y308672D01*
X11852Y306061D01*
X11300Y303288D01*
X11300Y300462D01*
X11852Y297689D01*
X12933Y295078D01*
X14504Y292727D01*
X16502Y290729D01*
X18853Y289158D01*
X18959Y289114D01*
X17099Y287999D01*
X15015Y286109D01*
X13340Y283849D01*
X12138Y281306D01*
X11731Y279965D01*
X12951Y277745D01*
X24380Y277745D01*
X24380Y277945D01*
X26920Y277945D01*
X26920Y277745D01*
X38349Y277745D01*
X39569Y279965D01*
X39162Y281306D01*
X37960Y283849D01*
X36285Y286109D01*
X34201Y287999D01*
X32341Y289114D01*
X32447Y289158D01*
X34798Y290729D01*
X36796Y292727D01*
X38367Y295078D01*
X39448Y297689D01*
X40000Y300462D01*
X40000Y303288D01*
X39448Y306061D01*
X38367Y308672D01*
X36796Y311023D01*
X34798Y313021D01*
X32472Y314575D01*
X34798Y316129D01*
X36796Y318127D01*
X38367Y320478D01*
X39448Y323089D01*
X40000Y325862D01*
X40000Y328688D01*
X39448Y331461D01*
X38367Y334072D01*
X36796Y336423D01*
X34798Y338421D01*
X32472Y339975D01*
X34798Y341529D01*
X36796Y343527D01*
X38367Y345878D01*
X39448Y348489D01*
X40000Y351262D01*
X40000Y354088D01*
X39448Y356861D01*
X39255Y357329D01*
X55782Y357329D01*
X55782Y302261D01*
X55744Y301875D01*
X55896Y300336D01*
X56344Y298856D01*
X57073Y297493D01*
X57891Y296496D01*
X58054Y296297D01*
X59250Y295316D01*
X60613Y294587D01*
X62093Y294139D01*
X63632Y293987D01*
X64018Y294025D01*
X166037Y294025D01*
X166904Y292727D01*
X168902Y290729D01*
X171228Y289175D01*
X168902Y287621D01*
X166904Y285623D01*
X165333Y283272D01*
X164251Y280661D01*
X163700Y277888D01*
X163700Y275062D01*
X164251Y272289D01*
X165333Y269678D01*
X166904Y267327D01*
X168902Y265329D01*
X171253Y263758D01*
X173864Y262676D01*
X176637Y262125D01*
X179463Y262125D01*
X182236Y262676D01*
X184847Y263758D01*
X187198Y265329D01*
X189196Y267327D01*
X190767Y269678D01*
X191848Y272289D01*
X192400Y275062D01*
X192400Y277888D01*
X191848Y280661D01*
X190767Y283272D01*
X189196Y285623D01*
X187198Y287621D01*
X184872Y289175D01*
X187198Y290729D01*
X189196Y292727D01*
X190767Y295078D01*
X191848Y297689D01*
X192400Y300462D01*
X192400Y303288D01*
X191848Y306061D01*
X190767Y308672D01*
X189196Y311023D01*
X187198Y313021D01*
X184872Y314575D01*
X187198Y316129D01*
X189196Y318127D01*
X190767Y320478D01*
X191848Y323089D01*
X192400Y325862D01*
X192400Y328688D01*
X191848Y331461D01*
X190767Y334072D01*
X189196Y336423D01*
X187198Y338421D01*
X184872Y339975D01*
X187198Y341529D01*
X189196Y343527D01*
X190767Y345878D01*
X191848Y348489D01*
X192400Y351262D01*
X192400Y354088D01*
X191848Y356861D01*
X190767Y359472D01*
X189196Y361823D01*
X187198Y363821D01*
X184872Y365375D01*
X187198Y366929D01*
X189196Y368927D01*
X190767Y371278D01*
X191848Y373889D01*
X192400Y376662D01*
X192400Y379488D01*
X191848Y382261D01*
X190767Y384872D01*
X189196Y387223D01*
X187198Y389221D01*
X184847Y390792D01*
X184741Y390836D01*
X186601Y391951D01*
X188685Y393841D01*
X190360Y396101D01*
X191562Y398644D01*
X191969Y399985D01*
X190749Y402205D01*
X179320Y402205D01*
X179320Y402005D01*
X176780Y402005D01*
X176780Y402205D01*
X165351Y402205D01*
X164131Y399985D01*
X164538Y398644D01*
X165740Y396101D01*
X167415Y393841D01*
X169499Y391951D01*
X171359Y390836D01*
X171253Y390792D01*
X168902Y389221D01*
X166904Y387223D01*
X165333Y384872D01*
X164251Y382261D01*
X163700Y379488D01*
X163700Y376662D01*
X164251Y373889D01*
X165333Y371278D01*
X166904Y368927D01*
X168902Y366929D01*
X171228Y365375D01*
X168902Y363821D01*
X166904Y361823D01*
X165333Y359472D01*
X164251Y356861D01*
X163700Y354088D01*
X163700Y351262D01*
X164251Y348489D01*
X165333Y345878D01*
X166904Y343527D01*
X168902Y341529D01*
X171228Y339975D01*
X168902Y338421D01*
X166904Y336423D01*
X165333Y334072D01*
X164251Y331461D01*
X163700Y328688D01*
X163700Y325862D01*
X164251Y323089D01*
X165333Y320478D01*
X166904Y318127D01*
X168902Y316129D01*
X171228Y314575D01*
X168902Y313021D01*
X166904Y311023D01*
X166037Y309725D01*
X71482Y309725D01*
X71482Y364793D01*
X71520Y365179D01*
X71368Y366718D01*
X70920Y368198D01*
X70191Y369561D01*
X69646Y370225D01*
X142939Y370225D01*
X143325Y370187D01*
X143711Y370225D01*
X144864Y370339D01*
X146344Y370787D01*
X147707Y371516D01*
X148903Y372497D01*
X149884Y373693D01*
X150613Y375057D01*
X151061Y376536D01*
X151213Y378075D01*
X151175Y378461D01*
X151175Y408129D01*
X164484Y408129D01*
X164131Y406965D01*
G37*
G54D11*
X164131Y406965D02*
X165351Y404745D01*
X176780Y404745D01*
X176780Y404945D01*
X179320Y404945D01*
X179320Y404745D01*
X190749Y404745D01*
X191969Y406965D01*
X191616Y408129D01*
X214469Y408129D01*
X214469Y395475D01*
X214592Y394230D01*
X214955Y393033D01*
X215545Y391930D01*
X216338Y390963D01*
X217305Y390170D01*
X218408Y389580D01*
X219605Y389217D01*
X219690Y389209D01*
X217704Y387223D01*
X216837Y385925D01*
X216732Y385925D01*
X216346Y385963D01*
X215960Y385925D01*
X214807Y385811D01*
X213327Y385363D01*
X211964Y384634D01*
X210768Y383653D01*
X209787Y382457D01*
X209058Y381094D01*
X208610Y379614D01*
X208458Y378075D01*
X208496Y377689D01*
X208496Y315061D01*
X208458Y314675D01*
X208610Y313136D01*
X209058Y311656D01*
X209787Y310293D01*
X210552Y309362D01*
X210768Y309097D01*
X211964Y308116D01*
X213327Y307387D01*
X214807Y306939D01*
X215391Y306881D01*
X215052Y306061D01*
X214500Y303288D01*
X214500Y300462D01*
X215052Y297689D01*
X216133Y295078D01*
X217704Y292727D01*
X219702Y290729D01*
X222028Y289175D01*
X219702Y287621D01*
X217704Y285623D01*
X216133Y283272D01*
X215052Y280661D01*
X214500Y277888D01*
X214500Y275062D01*
X215052Y272289D01*
X216133Y269678D01*
X217704Y267327D01*
X219702Y265329D01*
X222053Y263758D01*
X222159Y263714D01*
X220299Y262599D01*
X218215Y260709D01*
X216540Y258449D01*
X215338Y255906D01*
X214931Y254565D01*
X216151Y252345D01*
X227580Y252345D01*
X227580Y252545D01*
X230120Y252545D01*
X230120Y252345D01*
X241549Y252345D01*
X242769Y254565D01*
X242362Y255906D01*
X241160Y258449D01*
X239485Y260709D01*
X237401Y262599D01*
X235541Y263714D01*
X235647Y263758D01*
X237998Y265329D01*
X239996Y267327D01*
X241567Y269678D01*
X242648Y272289D01*
X243200Y275062D01*
X243200Y277888D01*
X242648Y280661D01*
X241567Y283272D01*
X239996Y285623D01*
X237998Y287621D01*
X235672Y289175D01*
X237998Y290729D01*
X239996Y292727D01*
X240996Y294224D01*
X259100Y294224D01*
X259100Y211401D01*
X259062Y211015D01*
X259214Y209476D01*
X259552Y208362D01*
X214536Y208362D01*
X214150Y208400D01*
X213764Y208362D01*
X212611Y208249D01*
X211131Y207799D01*
X209768Y207071D01*
X208572Y206090D01*
X207591Y204894D01*
X206862Y203531D01*
X206414Y202051D01*
X206262Y200512D01*
X206300Y200126D01*
X206300Y87496D01*
X204795Y87039D01*
X202827Y85988D01*
X201650Y85021D01*
X200473Y85988D01*
X198505Y87039D01*
X196370Y87687D01*
X194150Y87906D01*
X184150Y87906D01*
X181930Y87687D01*
X179795Y87039D01*
X177827Y85988D01*
X176650Y85021D01*
X175473Y85988D01*
X173505Y87039D01*
X171370Y87687D01*
X169150Y87906D01*
X159150Y87906D01*
X156930Y87687D01*
X154795Y87039D01*
X152827Y85988D01*
X151650Y85021D01*
X150473Y85988D01*
X148505Y87039D01*
X146370Y87687D01*
X144150Y87906D01*
X134150Y87906D01*
X131930Y87687D01*
X129795Y87039D01*
X127827Y85988D01*
X126650Y85021D01*
X125473Y85988D01*
X123505Y87039D01*
X121370Y87687D01*
X119150Y87906D01*
X109150Y87906D01*
X106930Y87687D01*
X104795Y87039D01*
X103369Y86277D01*
X102695Y86830D01*
X101592Y87420D01*
X100395Y87783D01*
X99150Y87906D01*
X92008Y87875D01*
X90420Y86287D01*
X90420Y74545D01*
X87880Y74545D01*
X87880Y86287D01*
X86292Y87875D01*
X79150Y87906D01*
X77905Y87783D01*
X76708Y87420D01*
X75605Y86830D01*
X74931Y86277D01*
X73505Y87039D01*
X71370Y87687D01*
X69150Y87906D01*
X59150Y87906D01*
X56930Y87687D01*
X54795Y87039D01*
X53369Y86277D01*
X52695Y86830D01*
X51592Y87420D01*
X50395Y87783D01*
X49150Y87906D01*
X42008Y87875D01*
X40420Y86287D01*
X40420Y74545D01*
X37880Y74545D01*
X37880Y86287D01*
X36292Y87875D01*
X29150Y87906D01*
X27905Y87783D01*
X26708Y87420D01*
X25605Y86830D01*
X24638Y86037D01*
X23845Y85070D01*
X23255Y83967D01*
X22892Y82770D01*
X22769Y81525D01*
X20820Y81445D01*
X20820Y104143D01*
X20850Y104544D01*
X20781Y105113D01*
X20724Y105684D01*
X20702Y105758D01*
X20693Y105835D01*
X20514Y106379D01*
X20347Y106928D01*
X20311Y106996D01*
X20286Y107070D01*
X20005Y107569D01*
X19734Y108075D01*
X19685Y108134D01*
X19647Y108202D01*
X19273Y108636D01*
X18910Y109079D01*
X18598Y109335D01*
X6850Y120549D01*
X6850Y239985D01*
X123600Y239985D01*
X123600Y236765D01*
X124228Y233606D01*
X125461Y230630D01*
X127250Y227953D01*
X129528Y225675D01*
X132205Y223886D01*
X135181Y222653D01*
X138340Y222025D01*
X141560Y222025D01*
X144719Y222653D01*
X147695Y223886D01*
X150372Y225675D01*
X151718Y227021D01*
X180392Y227021D01*
X181350Y224377D01*
X184246Y222968D01*
X187361Y222151D01*
X190576Y221958D01*
X193767Y222395D01*
X196811Y223447D01*
X198550Y224377D01*
X199508Y227021D01*
X189950Y236579D01*
X180392Y227021D01*
X151718Y227021D01*
X152650Y227953D01*
X154439Y230630D01*
X155672Y233606D01*
X156300Y236765D01*
X156300Y237749D01*
X173533Y237749D01*
X173970Y234558D01*
X175022Y231514D01*
X175952Y229775D01*
X178596Y228817D01*
X188154Y238375D01*
X191746Y238375D01*
X201304Y228817D01*
X203948Y229775D01*
X205357Y232671D01*
X206174Y235786D01*
X206367Y239001D01*
X205930Y242192D01*
X204878Y245236D01*
X203948Y246975D01*
X202266Y247585D01*
X214931Y247585D01*
X215338Y246244D01*
X216540Y243701D01*
X218215Y241441D01*
X220299Y239551D01*
X222711Y238104D01*
X225360Y237156D01*
X227580Y238369D01*
X227580Y249805D01*
X230120Y249805D01*
X230120Y238369D01*
X232340Y237156D01*
X234989Y238104D01*
X237401Y239551D01*
X239485Y241441D01*
X241160Y243701D01*
X242362Y246244D01*
X242769Y247585D01*
X241549Y249805D01*
X230120Y249805D01*
X227580Y249805D01*
X216151Y249805D01*
X214931Y247585D01*
X202266Y247585D01*
X201304Y247933D01*
X191746Y238375D01*
X188154Y238375D01*
X178596Y247933D01*
X175952Y246975D01*
X174543Y244079D01*
X173726Y240964D01*
X173533Y237749D01*
X156300Y237749D01*
X156300Y239985D01*
X155672Y243144D01*
X154439Y246119D01*
X152650Y248797D01*
X151718Y249729D01*
X180392Y249729D01*
X189950Y240171D01*
X199508Y249729D01*
X198550Y252373D01*
X195654Y253782D01*
X192539Y254599D01*
X189324Y254792D01*
X186133Y254355D01*
X183089Y253303D01*
X181350Y252373D01*
X180392Y249729D01*
X151718Y249729D01*
X150372Y251075D01*
X147695Y252864D01*
X144719Y254097D01*
X141560Y254725D01*
X138340Y254725D01*
X135181Y254097D01*
X132205Y252864D01*
X129528Y251075D01*
X127250Y248797D01*
X125461Y246119D01*
X124228Y243144D01*
X123600Y239985D01*
X6850Y239985D01*
X6850Y272985D01*
X11731Y272985D01*
X12138Y271644D01*
X13340Y269101D01*
X15015Y266841D01*
X17099Y264951D01*
X19511Y263504D01*
X22160Y262556D01*
X24380Y263769D01*
X24380Y275205D01*
X26920Y275205D01*
X26920Y263769D01*
X29140Y262556D01*
X31789Y263504D01*
X34201Y264951D01*
X36285Y266841D01*
X37960Y269101D01*
X39162Y271644D01*
X39569Y272985D01*
X38349Y275205D01*
X26920Y275205D01*
X24380Y275205D01*
X12951Y275205D01*
X11731Y272985D01*
X6850Y272985D01*
X6850Y360477D01*
X7518Y359663D01*
X7568Y359601D01*
X8764Y358620D01*
X10127Y357891D01*
X11607Y357443D01*
X12073Y357397D01*
X11852Y356861D01*
X11300Y354088D01*
X11300Y351262D01*
X11852Y348489D01*
X12933Y345878D01*
X14504Y343527D01*
X16502Y341529D01*
X18828Y339975D01*
X16502Y338421D01*
X14504Y336423D01*
X12933Y334072D01*
X11852Y331461D01*
X11300Y328688D01*
X11300Y325862D01*
X11852Y323089D01*
X12933Y320478D01*
X14504Y318127D01*
X16502Y316129D01*
X18828Y314575D01*
X16502Y313021D01*
X14504Y311023D01*
X12933Y308672D01*
X11852Y306061D01*
X11300Y303288D01*
X11300Y300462D01*
X11852Y297689D01*
X12933Y295078D01*
X14504Y292727D01*
X16502Y290729D01*
X18853Y289158D01*
X18959Y289114D01*
X17099Y287999D01*
X15015Y286109D01*
X13340Y283849D01*
X12138Y281306D01*
X11731Y279965D01*
X12951Y277745D01*
X24380Y277745D01*
X24380Y277945D01*
X26920Y277945D01*
X26920Y277745D01*
X38349Y277745D01*
X39569Y279965D01*
X39162Y281306D01*
X37960Y283849D01*
X36285Y286109D01*
X34201Y287999D01*
X32341Y289114D01*
X32447Y289158D01*
X34798Y290729D01*
X36796Y292727D01*
X38367Y295078D01*
X39448Y297689D01*
X40000Y300462D01*
X40000Y303288D01*
X39448Y306061D01*
X38367Y308672D01*
X36796Y311023D01*
X34798Y313021D01*
X32472Y314575D01*
X34798Y316129D01*
X36796Y318127D01*
X38367Y320478D01*
X39448Y323089D01*
X40000Y325862D01*
X40000Y328688D01*
X39448Y331461D01*
X38367Y334072D01*
X36796Y336423D01*
X34798Y338421D01*
X32472Y339975D01*
X34798Y341529D01*
X36796Y343527D01*
X38367Y345878D01*
X39448Y348489D01*
X40000Y351262D01*
X40000Y354088D01*
X39448Y356861D01*
X39255Y357329D01*
X55782Y357329D01*
X55782Y302261D01*
X55744Y301875D01*
X55896Y300336D01*
X56344Y298856D01*
X57073Y297493D01*
X57891Y296496D01*
X58054Y296297D01*
X59250Y295316D01*
X60613Y294587D01*
X62093Y294139D01*
X63632Y293987D01*
X64018Y294025D01*
X166037Y294025D01*
X166904Y292727D01*
X168902Y290729D01*
X171228Y289175D01*
X168902Y287621D01*
X166904Y285623D01*
X165333Y283272D01*
X164251Y280661D01*
X163700Y277888D01*
X163700Y275062D01*
X164251Y272289D01*
X165333Y269678D01*
X166904Y267327D01*
X168902Y265329D01*
X171253Y263758D01*
X173864Y262676D01*
X176637Y262125D01*
X179463Y262125D01*
X182236Y262676D01*
X184847Y263758D01*
X187198Y265329D01*
X189196Y267327D01*
X190767Y269678D01*
X191848Y272289D01*
X192400Y275062D01*
X192400Y277888D01*
X191848Y280661D01*
X190767Y283272D01*
X189196Y285623D01*
X187198Y287621D01*
X184872Y289175D01*
X187198Y290729D01*
X189196Y292727D01*
X190767Y295078D01*
X191848Y297689D01*
X192400Y300462D01*
X192400Y303288D01*
X191848Y306061D01*
X190767Y308672D01*
X189196Y311023D01*
X187198Y313021D01*
X184872Y314575D01*
X187198Y316129D01*
X189196Y318127D01*
X190767Y320478D01*
X191848Y323089D01*
X192400Y325862D01*
X192400Y328688D01*
X191848Y331461D01*
X190767Y334072D01*
X189196Y336423D01*
X187198Y338421D01*
X184872Y339975D01*
X187198Y341529D01*
X189196Y343527D01*
X190767Y345878D01*
X191848Y348489D01*
X192400Y351262D01*
X192400Y354088D01*
X191848Y356861D01*
X190767Y359472D01*
X189196Y361823D01*
X187198Y363821D01*
X184872Y365375D01*
X187198Y366929D01*
X189196Y368927D01*
X190767Y371278D01*
X191848Y373889D01*
X192400Y376662D01*
X192400Y379488D01*
X191848Y382261D01*
X190767Y384872D01*
X189196Y387223D01*
X187198Y389221D01*
X184847Y390792D01*
X184741Y390836D01*
X186601Y391951D01*
X188685Y393841D01*
X190360Y396101D01*
X191562Y398644D01*
X191969Y399985D01*
X190749Y402205D01*
X179320Y402205D01*
X179320Y402005D01*
X176780Y402005D01*
X176780Y402205D01*
X165351Y402205D01*
X164131Y399985D01*
X164538Y398644D01*
X165740Y396101D01*
X167415Y393841D01*
X169499Y391951D01*
X171359Y390836D01*
X171253Y390792D01*
X168902Y389221D01*
X166904Y387223D01*
X165333Y384872D01*
X164251Y382261D01*
X163700Y379488D01*
X163700Y376662D01*
X164251Y373889D01*
X165333Y371278D01*
X166904Y368927D01*
X168902Y366929D01*
X171228Y365375D01*
X168902Y363821D01*
X166904Y361823D01*
X165333Y359472D01*
X164251Y356861D01*
X163700Y354088D01*
X163700Y351262D01*
X164251Y348489D01*
X165333Y345878D01*
X166904Y343527D01*
X168902Y341529D01*
X171228Y339975D01*
X168902Y338421D01*
X166904Y336423D01*
X165333Y334072D01*
X164251Y331461D01*
X163700Y328688D01*
X163700Y325862D01*
X164251Y323089D01*
X165333Y320478D01*
X166904Y318127D01*
X168902Y316129D01*
X171228Y314575D01*
X168902Y313021D01*
X166904Y311023D01*
X166037Y309725D01*
X71482Y309725D01*
X71482Y364793D01*
X71520Y365179D01*
X71368Y366718D01*
X70920Y368198D01*
X70191Y369561D01*
X69646Y370225D01*
X142939Y370225D01*
X143325Y370187D01*
X143711Y370225D01*
X144864Y370339D01*
X146344Y370787D01*
X147707Y371516D01*
X148903Y372497D01*
X149884Y373693D01*
X150613Y375057D01*
X151061Y376536D01*
X151213Y378075D01*
X151175Y378461D01*
X151175Y408129D01*
X164484Y408129D01*
X164131Y406965D01*
G54D24*
X164484Y408129D02*
X164131Y406965D01*
X165351Y404745D01*
X176780Y404745D01*
X176780Y404945D01*
X179320Y404945D01*
X179320Y404745D01*
X190749Y404745D01*
X191969Y406965D01*
X191616Y408129D01*
X214469Y408129D01*
X214469Y395475D01*
X214592Y394230D01*
X214955Y393033D01*
X215545Y391930D01*
X216338Y390963D01*
X217305Y390170D01*
X218408Y389580D01*
X219605Y389217D01*
X219690Y389209D01*
X217704Y387223D01*
X216837Y385925D01*
X216732Y385925D01*
X216346Y385963D01*
X215960Y385925D01*
X214807Y385811D01*
X213327Y385363D01*
X211964Y384634D01*
X210768Y383653D01*
X209787Y382457D01*
X209058Y381094D01*
X208610Y379614D01*
X208458Y378075D01*
X208496Y377689D01*
X208496Y315061D01*
X208458Y314675D01*
X208610Y313136D01*
X209058Y311656D01*
X209787Y310293D01*
X210552Y309362D01*
X210768Y309097D01*
X211964Y308116D01*
X213327Y307387D01*
X214807Y306939D01*
X215391Y306881D01*
X215052Y306061D01*
X214500Y303288D01*
X214500Y300462D01*
X215052Y297689D01*
X216133Y295078D01*
X217704Y292727D01*
X219702Y290729D01*
X222028Y289175D01*
X219702Y287621D01*
X217704Y285623D01*
X216133Y283272D01*
X215052Y280661D01*
X214500Y277888D01*
X214500Y275062D01*
X215052Y272289D01*
X216133Y269678D01*
X217704Y267327D01*
X219702Y265329D01*
X222053Y263758D01*
X222159Y263714D01*
X220299Y262599D01*
X218215Y260709D01*
X216540Y258449D01*
X215338Y255906D01*
X214931Y254565D01*
X216151Y252345D01*
X227580Y252345D01*
X227580Y252545D01*
X230120Y252545D01*
X230120Y252345D01*
X241549Y252345D01*
X242769Y254565D01*
X242362Y255906D01*
X241160Y258449D01*
X239485Y260709D01*
X237401Y262599D01*
X235541Y263714D01*
X235647Y263758D01*
X237998Y265329D01*
X239996Y267327D01*
X241567Y269678D01*
X242648Y272289D01*
X243200Y275062D01*
X243200Y277888D01*
X242648Y280661D01*
X241567Y283272D01*
X239996Y285623D01*
X237998Y287621D01*
X235672Y289175D01*
X237998Y290729D01*
X239996Y292727D01*
X240996Y294224D01*
X259100Y294224D01*
X259100Y211401D01*
X259062Y211015D01*
X259214Y209476D01*
X259552Y208362D01*
X214536Y208362D01*
X214150Y208400D01*
X213764Y208362D01*
X212611Y208249D01*
X211131Y207799D01*
X209768Y207071D01*
X208572Y206090D01*
X207591Y204894D01*
X206862Y203531D01*
X206414Y202051D01*
X206262Y200512D01*
X206300Y200126D01*
X206300Y87496D01*
X204795Y87039D01*
X202827Y85988D01*
X201650Y85021D01*
X200473Y85988D01*
X198505Y87039D01*
X196370Y87687D01*
X194150Y87906D01*
X184150Y87906D01*
X181930Y87687D01*
X179795Y87039D01*
X177827Y85988D01*
X176650Y85021D01*
X175473Y85988D01*
X173505Y87039D01*
X171370Y87687D01*
X169150Y87906D01*
X159150Y87906D01*
X156930Y87687D01*
X154795Y87039D01*
X152827Y85988D01*
X151650Y85021D01*
X150473Y85988D01*
X148505Y87039D01*
X146370Y87687D01*
X144150Y87906D01*
X134150Y87906D01*
X131930Y87687D01*
X129795Y87039D01*
X127827Y85988D01*
X126650Y85021D01*
X125473Y85988D01*
X123505Y87039D01*
X121370Y87687D01*
X119150Y87906D01*
X109150Y87906D01*
X106930Y87687D01*
X104795Y87039D01*
X103369Y86277D01*
X102695Y86830D01*
X101592Y87420D01*
X100395Y87783D01*
X99150Y87906D01*
X92008Y87875D01*
X90420Y86287D01*
X90420Y74545D01*
X87880Y74545D01*
X87880Y86287D01*
X86292Y87875D01*
X79150Y87906D01*
X77905Y87783D01*
X76708Y87420D01*
X75605Y86830D01*
X74931Y86277D01*
X73505Y87039D01*
X71370Y87687D01*
X69150Y87906D01*
X59150Y87906D01*
X56930Y87687D01*
X54795Y87039D01*
X53369Y86277D01*
X52695Y86830D01*
X51592Y87420D01*
X50395Y87783D01*
X49150Y87906D01*
X42008Y87875D01*
X40420Y86287D01*
X40420Y74545D01*
X37880Y74545D01*
X37880Y86287D01*
X36292Y87875D01*
X29150Y87906D01*
X27905Y87783D01*
X26708Y87420D01*
X25605Y86830D01*
X24638Y86037D01*
X23845Y85070D01*
X23255Y83967D01*
X22892Y82770D01*
X22769Y81525D01*
X20820Y81445D01*
X20820Y104143D01*
X20850Y104544D01*
X20781Y105113D01*
X20724Y105684D01*
X20702Y105758D01*
X20693Y105835D01*
X20514Y106379D01*
X20347Y106928D01*
X20311Y106996D01*
X20286Y107070D01*
X20005Y107569D01*
X19734Y108075D01*
X19685Y108134D01*
X19647Y108202D01*
X19273Y108636D01*
X18910Y109079D01*
X18598Y109335D01*
X6850Y120549D01*
X6850Y239985D01*
X123600Y239985D01*
X123600Y236765D01*
X124228Y233606D01*
X125461Y230630D01*
X127250Y227953D01*
X129528Y225675D01*
X132205Y223886D01*
X135181Y222653D01*
X138340Y222025D01*
X141560Y222025D01*
X144719Y222653D01*
X147695Y223886D01*
X150372Y225675D01*
X151718Y227021D01*
X180392Y227021D01*
X181350Y224377D01*
X184246Y222968D01*
X187361Y222151D01*
X190576Y221958D01*
X193767Y222395D01*
X196811Y223447D01*
X198550Y224377D01*
X199508Y227021D01*
X189950Y236579D01*
X180392Y227021D01*
X151718Y227021D01*
X152650Y227953D01*
X154439Y230630D01*
X155672Y233606D01*
X156300Y236765D01*
X156300Y237749D01*
X173533Y237749D01*
X173970Y234558D01*
X175022Y231514D01*
X175952Y229775D01*
X178596Y228817D01*
X188154Y238375D01*
X191746Y238375D01*
X201304Y228817D01*
X203948Y229775D01*
X205357Y232671D01*
X206174Y235786D01*
X206367Y239001D01*
X205930Y242192D01*
X204878Y245236D01*
X203948Y246975D01*
X202266Y247585D01*
X214931Y247585D01*
X215338Y246244D01*
X216540Y243701D01*
X218215Y241441D01*
X220299Y239551D01*
X222711Y238104D01*
X225360Y237156D01*
X227580Y238369D01*
X227580Y249805D01*
X230120Y249805D01*
X230120Y238369D01*
X232340Y237156D01*
X234989Y238104D01*
X237401Y239551D01*
X239485Y241441D01*
X241160Y243701D01*
X242362Y246244D01*
X242769Y247585D01*
X241549Y249805D01*
X230120Y249805D01*
X227580Y249805D01*
X216151Y249805D01*
X214931Y247585D01*
X202266Y247585D01*
X201304Y247933D01*
X191746Y238375D01*
X188154Y238375D01*
X178596Y247933D01*
X175952Y246975D01*
X174543Y244079D01*
X173726Y240964D01*
X173533Y237749D01*
X156300Y237749D01*
X156300Y239985D01*
X155672Y243144D01*
X154439Y246119D01*
X152650Y248797D01*
X151718Y249729D01*
X180392Y249729D01*
X189950Y240171D01*
X199508Y249729D01*
X198550Y252373D01*
X195654Y253782D01*
X192539Y254599D01*
X189324Y254792D01*
X186133Y254355D01*
X183089Y253303D01*
X181350Y252373D01*
X180392Y249729D01*
X151718Y249729D01*
X150372Y251075D01*
X147695Y252864D01*
X144719Y254097D01*
X141560Y254725D01*
X138340Y254725D01*
X135181Y254097D01*
X132205Y252864D01*
X129528Y251075D01*
X127250Y248797D01*
X125461Y246119D01*
X124228Y243144D01*
X123600Y239985D01*
X6850Y239985D01*
X6850Y272985D01*
X11731Y272985D01*
X12138Y271644D01*
X13340Y269101D01*
X15015Y266841D01*
X17099Y264951D01*
X19511Y263504D01*
X22160Y262556D01*
X24380Y263769D01*
X24380Y275205D01*
X26920Y275205D01*
X26920Y263769D01*
X29140Y262556D01*
X31789Y263504D01*
X34201Y264951D01*
X36285Y266841D01*
X37960Y269101D01*
X39162Y271644D01*
X39569Y272985D01*
X38349Y275205D01*
X26920Y275205D01*
X24380Y275205D01*
X12951Y275205D01*
X11731Y272985D01*
X6850Y272985D01*
X6850Y360477D01*
X7518Y359663D01*
X7568Y359601D01*
X8764Y358620D01*
X10127Y357891D01*
X11607Y357443D01*
X12073Y357397D01*
X11852Y356861D01*
X11300Y354088D01*
X11300Y351262D01*
X11852Y348489D01*
X12933Y345878D01*
X14504Y343527D01*
X16502Y341529D01*
X18828Y339975D01*
X16502Y338421D01*
X14504Y336423D01*
X12933Y334072D01*
X11852Y331461D01*
X11300Y328688D01*
X11300Y325862D01*
X11852Y323089D01*
X12933Y320478D01*
X14504Y318127D01*
X16502Y316129D01*
X18828Y314575D01*
X16502Y313021D01*
X14504Y311023D01*
X12933Y308672D01*
X11852Y306061D01*
X11300Y303288D01*
X11300Y300462D01*
X11852Y297689D01*
X12933Y295078D01*
X14504Y292727D01*
X16502Y290729D01*
X18853Y289158D01*
X18959Y289114D01*
X17099Y287999D01*
X15015Y286109D01*
X13340Y283849D01*
X12138Y281306D01*
X11731Y279965D01*
X12951Y277745D01*
X24380Y277745D01*
X24380Y277945D01*
X26920Y277945D01*
X26920Y277745D01*
X38349Y277745D01*
X39569Y279965D01*
X39162Y281306D01*
X37960Y283849D01*
X36285Y286109D01*
X34201Y287999D01*
X32341Y289114D01*
X32447Y289158D01*
X34798Y290729D01*
X36796Y292727D01*
X38367Y295078D01*
X39448Y297689D01*
X40000Y300462D01*
X40000Y303288D01*
X39448Y306061D01*
X38367Y308672D01*
X36796Y311023D01*
X34798Y313021D01*
X32472Y314575D01*
X34798Y316129D01*
X36796Y318127D01*
X38367Y320478D01*
X39448Y323089D01*
X40000Y325862D01*
X40000Y328688D01*
X39448Y331461D01*
X38367Y334072D01*
X36796Y336423D01*
X34798Y338421D01*
X32472Y339975D01*
X34798Y341529D01*
X36796Y343527D01*
X38367Y345878D01*
X39448Y348489D01*
X40000Y351262D01*
X40000Y354088D01*
X39448Y356861D01*
X39255Y357329D01*
X55782Y357329D01*
X55782Y302261D01*
X55744Y301875D01*
X55896Y300336D01*
X56344Y298856D01*
X57073Y297493D01*
X57891Y296496D01*
X58054Y296297D01*
X59250Y295316D01*
X60613Y294587D01*
X62093Y294139D01*
X63632Y293987D01*
X64018Y294025D01*
X166037Y294025D01*
X166904Y292727D01*
X168902Y290729D01*
X171228Y289175D01*
X168902Y287621D01*
X166904Y285623D01*
X165333Y283272D01*
X164251Y280661D01*
X163700Y277888D01*
X163700Y275062D01*
X164251Y272289D01*
X165333Y269678D01*
X166904Y267327D01*
X168902Y265329D01*
X171253Y263758D01*
X173864Y262676D01*
X176637Y262125D01*
X179463Y262125D01*
X182236Y262676D01*
X184847Y263758D01*
X187198Y265329D01*
X189196Y267327D01*
X190767Y269678D01*
X191848Y272289D01*
X192400Y275062D01*
X192400Y277888D01*
X191848Y280661D01*
X190767Y283272D01*
X189196Y285623D01*
X187198Y287621D01*
X184872Y289175D01*
X187198Y290729D01*
X189196Y292727D01*
X190767Y295078D01*
X191848Y297689D01*
X192400Y300462D01*
X192400Y303288D01*
X191848Y306061D01*
X190767Y308672D01*
X189196Y311023D01*
X187198Y313021D01*
X184872Y314575D01*
X187198Y316129D01*
X189196Y318127D01*
X190767Y320478D01*
X191848Y323089D01*
X192400Y325862D01*
X192400Y328688D01*
X191848Y331461D01*
X190767Y334072D01*
X189196Y336423D01*
X187198Y338421D01*
X184872Y339975D01*
X187198Y341529D01*
X189196Y343527D01*
X190767Y345878D01*
X191848Y348489D01*
X192400Y351262D01*
X192400Y354088D01*
X191848Y356861D01*
X190767Y359472D01*
X189196Y361823D01*
X187198Y363821D01*
X184872Y365375D01*
X187198Y366929D01*
X189196Y368927D01*
X190767Y371278D01*
X191848Y373889D01*
X192400Y376662D01*
X192400Y379488D01*
X191848Y382261D01*
X190767Y384872D01*
X189196Y387223D01*
X187198Y389221D01*
X184847Y390792D01*
X184741Y390836D01*
X186601Y391951D01*
X188685Y393841D01*
X190360Y396101D01*
X191562Y398644D01*
X191969Y399985D01*
X190749Y402205D01*
X179320Y402205D01*
X179320Y402005D01*
X176780Y402005D01*
X176780Y402205D01*
X165351Y402205D01*
X164131Y399985D01*
X164538Y398644D01*
X165740Y396101D01*
X167415Y393841D01*
X169499Y391951D01*
X171359Y390836D01*
X171253Y390792D01*
X168902Y389221D01*
X166904Y387223D01*
X165333Y384872D01*
X164251Y382261D01*
X163700Y379488D01*
X163700Y376662D01*
X164251Y373889D01*
X165333Y371278D01*
X166904Y368927D01*
X168902Y366929D01*
X171228Y365375D01*
X168902Y363821D01*
X166904Y361823D01*
X165333Y359472D01*
X164251Y356861D01*
X163700Y354088D01*
X163700Y351262D01*
X164251Y348489D01*
X165333Y345878D01*
X166904Y343527D01*
X168902Y341529D01*
X171228Y339975D01*
X168902Y338421D01*
X166904Y336423D01*
X165333Y334072D01*
X164251Y331461D01*
X163700Y328688D01*
X163700Y325862D01*
X164251Y323089D01*
X165333Y320478D01*
X166904Y318127D01*
X168902Y316129D01*
X171228Y314575D01*
X168902Y313021D01*
X166904Y311023D01*
X166037Y309725D01*
X71482Y309725D01*
X71482Y364793D01*
X71520Y365179D01*
X71368Y366718D01*
X70920Y368198D01*
X70191Y369561D01*
X69646Y370225D01*
X142939Y370225D01*
X143325Y370187D01*
X143711Y370225D01*
X144864Y370339D01*
X146344Y370787D01*
X147707Y371516D01*
X148903Y372497D01*
X149884Y373693D01*
X150613Y375057D01*
X151061Y376536D01*
X151213Y378075D01*
X151175Y378461D01*
X151175Y408129D01*
X164484Y408129D01*
G36*
X604540Y333158D02*
X603180Y333574D01*
X600960Y332354D01*
X600960Y320925D01*
X601160Y320925D01*
X601160Y318385D01*
X600960Y318385D01*
X600960Y306956D01*
X603180Y305736D01*
X604521Y306143D01*
X604540Y252928D01*
X603242Y252061D01*
X601244Y250063D01*
X599690Y247737D01*
X598136Y250063D01*
X596138Y252061D01*
X594840Y252928D01*
X594840Y267002D01*
X596138Y267869D01*
X598136Y269867D01*
X599707Y272218D01*
X600788Y274829D01*
X601340Y277602D01*
X601340Y280428D01*
X600788Y283201D01*
X599707Y285812D01*
X598136Y288163D01*
X596138Y290161D01*
X594840Y291029D01*
X594840Y306152D01*
X596200Y305736D01*
X598420Y306956D01*
X598420Y318385D01*
X598220Y318385D01*
X598220Y320925D01*
X598420Y320925D01*
X598420Y332354D01*
X596200Y333574D01*
X594859Y333167D01*
X594840Y382331D01*
X595504Y382057D01*
X598277Y381505D01*
X601103Y381505D01*
X603876Y382057D01*
X604540Y382331D01*
X604540Y333158D01*
G37*
G54D11*
X604540Y333158D02*
X603180Y333574D01*
X600960Y332354D01*
X600960Y320925D01*
X601160Y320925D01*
X601160Y318385D01*
X600960Y318385D01*
X600960Y306956D01*
X603180Y305736D01*
X604521Y306143D01*
X604540Y252928D01*
X603242Y252061D01*
X601244Y250063D01*
X599690Y247737D01*
X598136Y250063D01*
X596138Y252061D01*
X594840Y252928D01*
X594840Y267002D01*
X596138Y267869D01*
X598136Y269867D01*
X599707Y272218D01*
X600788Y274829D01*
X601340Y277602D01*
X601340Y280428D01*
X600788Y283201D01*
X599707Y285812D01*
X598136Y288163D01*
X596138Y290161D01*
X594840Y291029D01*
X594840Y306152D01*
X596200Y305736D01*
X598420Y306956D01*
X598420Y318385D01*
X598220Y318385D01*
X598220Y320925D01*
X598420Y320925D01*
X598420Y332354D01*
X596200Y333574D01*
X594859Y333167D01*
X594840Y382331D01*
X595504Y382057D01*
X598277Y381505D01*
X601103Y381505D01*
X603876Y382057D01*
X604540Y382331D01*
X604540Y333158D01*
G54D24*
X604540Y382331D02*
X604540Y333158D01*
X604521Y333167D01*
X603180Y333574D01*
X600960Y332354D01*
X600960Y320925D01*
X601160Y320925D01*
X601160Y318385D01*
X600960Y318385D01*
X600960Y306956D01*
X603180Y305736D01*
X604521Y306143D01*
X604540Y306152D01*
X604540Y252928D01*
X603242Y252061D01*
X601244Y250063D01*
X599690Y247737D01*
X598136Y250063D01*
X596138Y252061D01*
X594840Y252928D01*
X594840Y267002D01*
X596138Y267869D01*
X598136Y269867D01*
X599707Y272218D01*
X600788Y274829D01*
X601340Y277602D01*
X601340Y280428D01*
X600788Y283201D01*
X599707Y285812D01*
X598136Y288163D01*
X596138Y290161D01*
X594840Y291029D01*
X594840Y306152D01*
X594859Y306143D01*
X596200Y305736D01*
X598420Y306956D01*
X598420Y318385D01*
X598220Y318385D01*
X598220Y320925D01*
X598420Y320925D01*
X598420Y332354D01*
X596200Y333574D01*
X594859Y333167D01*
X594840Y333158D01*
X594840Y382331D01*
X595504Y382057D01*
X598277Y381505D01*
X601103Y381505D01*
X603876Y382057D01*
X604540Y382331D01*
G36*
X256188Y644916D02*
X256046Y644775D01*
X256188Y644634D01*
X254391Y642837D01*
X254250Y642979D01*
X254109Y642837D01*
X252312Y644634D01*
X252454Y644775D01*
X252312Y644916D01*
X254109Y646712D01*
X254250Y646571D01*
X254391Y646712D01*
X256188Y644916D01*
G37*
G54D11*
X256188Y644916D02*
X256046Y644775D01*
X256188Y644634D01*
X254391Y642837D01*
X254250Y642979D01*
X254109Y642837D01*
X252312Y644634D01*
X252454Y644775D01*
X252312Y644916D01*
X254109Y646712D01*
X254250Y646571D01*
X254391Y646712D01*
X256188Y644916D01*
G54D24*
X254391Y646712D02*
X256188Y644916D01*
X256046Y644775D01*
X256188Y644634D01*
X254391Y642837D01*
X254250Y642979D01*
X254109Y642837D01*
X252312Y644634D01*
X252454Y644775D01*
X252312Y644916D01*
X254109Y646712D01*
X254250Y646571D01*
X254391Y646712D01*
X517775Y940050D02*
G54D10*
D03*
X543175Y940050D02*
G54D10*
D03*
X745105Y661682D02*
G54D10*
D03*
X745105Y610882D02*
G54D10*
D03*
G36*
X703450Y652775D02*
X719450Y652775D01*
X719450Y636775D01*
X703450Y636775D01*
X703450Y652775D01*
G37*
X178050Y606675D02*
G54D10*
D03*
X178050Y581275D02*
G54D10*
D03*
X178050Y555875D02*
G54D10*
D03*
X178050Y530475D02*
G54D10*
D03*
X178050Y505075D02*
G54D10*
D03*
X25650Y581275D02*
G54D10*
D03*
X25650Y555875D02*
G54D10*
D03*
X25650Y530475D02*
G54D10*
D03*
X25650Y505075D02*
G54D10*
D03*
X25650Y479675D02*
G54D10*
D03*
X178050Y479675D02*
G54D10*
D03*
X178050Y454275D02*
G54D10*
D03*
X178050Y428875D02*
G54D10*
D03*
X178050Y403475D02*
G54D10*
D03*
X178050Y378075D02*
G54D10*
D03*
X178050Y352675D02*
G54D10*
D03*
X178050Y327275D02*
G54D10*
D03*
X178050Y301875D02*
G54D10*
D03*
X178050Y276475D02*
G54D10*
D03*
X25650Y276475D02*
G54D10*
D03*
X25650Y301875D02*
G54D10*
D03*
X25650Y327275D02*
G54D10*
D03*
X25650Y352675D02*
G54D10*
D03*
X25650Y378075D02*
G54D10*
D03*
X25650Y403475D02*
G54D10*
D03*
X25650Y428875D02*
G54D10*
D03*
X25650Y454275D02*
G54D10*
D03*
X228850Y378075D02*
G54D10*
D03*
X228850Y352675D02*
G54D10*
D03*
X228850Y327275D02*
G54D10*
D03*
X228850Y301875D02*
G54D10*
D03*
X228850Y276475D02*
G54D10*
D03*
X228850Y251075D02*
G54D10*
D03*
X305050Y251075D02*
G54D10*
D03*
X305050Y276475D02*
G54D10*
D03*
X305050Y301875D02*
G54D10*
D03*
X305050Y327275D02*
G54D10*
D03*
X305050Y352675D02*
G54D10*
D03*
X305050Y378075D02*
G54D10*
D03*
X305050Y403475D02*
G54D10*
D03*
X421890Y433955D02*
G54D10*
D03*
X447290Y433955D02*
G54D10*
D03*
X472690Y433955D02*
G54D10*
D03*
X498090Y433955D02*
G54D10*
D03*
X523490Y433955D02*
G54D10*
D03*
X548890Y433955D02*
G54D10*
D03*
X574290Y433955D02*
G54D10*
D03*
X599690Y433955D02*
G54D10*
D03*
X625090Y433955D02*
G54D10*
D03*
X396490Y395855D02*
G54D10*
D03*
X421890Y395855D02*
G54D10*
D03*
X447290Y395855D02*
G54D10*
D03*
X472690Y395855D02*
G54D10*
D03*
X498090Y395855D02*
G54D10*
D03*
X523490Y395855D02*
G54D10*
D03*
X548890Y395855D02*
G54D10*
D03*
X574290Y395855D02*
G54D10*
D03*
X599690Y395855D02*
G54D10*
D03*
X625090Y395855D02*
G54D10*
D03*
X421890Y319655D02*
G54D10*
D03*
X447290Y319655D02*
G54D10*
D03*
X472690Y319655D02*
G54D10*
D03*
X498090Y319655D02*
G54D10*
D03*
X523490Y319655D02*
G54D10*
D03*
X548890Y319655D02*
G54D10*
D03*
X574290Y319655D02*
G54D10*
D03*
X599690Y319655D02*
G54D10*
D03*
X625090Y319655D02*
G54D10*
D03*
X409190Y279015D02*
G54D10*
D03*
X434590Y279015D02*
G54D10*
D03*
X459990Y279015D02*
G54D10*
D03*
X485390Y279015D02*
G54D10*
D03*
X510790Y279015D02*
G54D10*
D03*
X536190Y279015D02*
G54D10*
D03*
X561590Y279015D02*
G54D10*
D03*
X586990Y279015D02*
G54D10*
D03*
X383790Y240915D02*
G54D10*
D03*
X409190Y240915D02*
G54D10*
D03*
X434590Y240915D02*
G54D10*
D03*
X459990Y240915D02*
G54D10*
D03*
X485390Y240915D02*
G54D10*
D03*
X510790Y240915D02*
G54D10*
D03*
X536190Y240915D02*
G54D10*
D03*
X561590Y240915D02*
G54D10*
D03*
X586990Y240915D02*
G54D10*
D03*
X612390Y240915D02*
G54D10*
D03*
X409190Y164715D02*
G54D10*
D03*
X434590Y164715D02*
G54D10*
D03*
X459990Y164715D02*
G54D10*
D03*
X485390Y164715D02*
G54D10*
D03*
X510790Y164715D02*
G54D10*
D03*
X536190Y164715D02*
G54D10*
D03*
X561590Y164715D02*
G54D10*
D03*
X586990Y164715D02*
G54D10*
D03*
X612390Y164715D02*
G54D10*
D03*
G54D21*
X772569Y743750D02*
X778675Y743750D01*
X790575Y755650D01*
X790575Y824169D01*
X771775Y842969D01*
G54D20*
X706775Y842969D02*
X771775Y842969D01*
G54D21*
X771775Y842969D02*
X781056Y842969D01*
X791369Y853281D01*
X791369Y923387D01*
X771775Y942981D01*
X491978Y939653D02*
G54D10*
D03*
G36*
X458475Y948550D02*
X475475Y948550D01*
X475475Y931550D01*
X458475Y931550D01*
X458475Y948550D01*
G37*
G36*
X33338Y949722D02*
X33338Y788987D01*
X54769Y767556D01*
X54769Y720328D01*
X131576Y720328D01*
X133900Y718004D01*
X211592Y718004D01*
X214709Y721122D01*
X214709Y727075D01*
X214312Y727472D01*
X275431Y727472D01*
X275828Y727869D01*
X275828Y947737D01*
X274638Y948928D01*
X34131Y948928D01*
X33338Y949722D01*
G37*
G54D11*
X33338Y949722D02*
X33338Y788987D01*
X54769Y767556D01*
X54769Y720328D01*
X131576Y720328D01*
X133900Y718004D01*
X211592Y718004D01*
X214709Y721122D01*
X214709Y727075D01*
X214312Y727472D01*
X275431Y727472D01*
X275828Y727869D01*
X275828Y947737D01*
X274638Y948928D01*
X34131Y948928D01*
X33338Y949722D01*
G36*
X338534Y748506D02*
X357981Y729059D01*
X443706Y729059D01*
X450850Y721916D01*
X450850Y694928D01*
X456009Y689769D01*
X558800Y689769D01*
X665559Y796528D01*
X665559Y869156D01*
X690166Y893763D01*
X690166Y913209D01*
X717153Y940197D01*
X709559Y940197D01*
X706775Y942981D01*
X594922Y942981D01*
X538956Y887016D01*
X345678Y887016D01*
X338534Y879872D01*
X338534Y748506D01*
G37*
G54D11*
X338534Y748506D02*
X357981Y729059D01*
X443706Y729059D01*
X450850Y721916D01*
X450850Y694928D01*
X456009Y689769D01*
X558800Y689769D01*
X665559Y796528D01*
X665559Y869156D01*
X690166Y893763D01*
X690166Y913209D01*
X717153Y940197D01*
X709559Y940197D01*
X706775Y942981D01*
X594922Y942981D01*
X538956Y887016D01*
X345678Y887016D01*
X338534Y879872D01*
X338534Y748506D01*
X45494Y936478D02*
G54D10*
D03*
X45494Y793603D02*
G54D10*
D03*
X264172Y737644D02*
G54D10*
D03*
X263775Y936478D02*
G54D10*
D03*
X65338Y737247D02*
G54D10*
D03*
X352278Y873772D02*
G54D10*
D03*
X352278Y754709D02*
G54D10*
D03*
X600325Y929334D02*
G54D10*
D03*
X651125Y802334D02*
G54D10*
D03*
X189956Y207816D02*
G54D10*
D03*
X20094Y124869D02*
G54D10*
D03*
G36*
X572691Y671513D02*
X572691Y673497D01*
X680244Y781050D01*
X695325Y781050D01*
X707231Y769144D01*
X707231Y720725D01*
X688578Y702072D01*
X688578Y677069D01*
X674688Y663178D01*
X575469Y663178D01*
X571897Y666750D01*
X571897Y672306D01*
X577056Y677466D01*
X572691Y671513D01*
G37*
G54D11*
X572691Y671513D02*
X572691Y673497D01*
X680244Y781050D01*
X695325Y781050D01*
X707231Y769144D01*
X707231Y720725D01*
X688578Y702072D01*
X688578Y677069D01*
X674688Y663178D01*
X575469Y663178D01*
X571897Y666750D01*
X571897Y672306D01*
X577056Y677466D01*
X572691Y671513D01*
X665016Y743994D02*
G54D10*
D03*
G36*
X722312Y303213D02*
X722312Y471091D01*
X732234Y481013D01*
X732234Y571897D01*
X765572Y605234D01*
X765572Y654050D01*
X779462Y667941D01*
X779462Y671513D01*
X790575Y682625D01*
X790575Y363934D01*
X722312Y303213D01*
G37*
G54D11*
X722312Y303213D02*
X722312Y471091D01*
X732234Y481013D01*
X732234Y571897D01*
X765572Y605234D01*
X765572Y654050D01*
X779462Y667941D01*
X779462Y671513D01*
X790575Y682625D01*
X790575Y363934D01*
X722312Y303213D01*
X734072Y330847D02*
G54D10*
D03*
X767634Y359409D02*
G54D10*
D03*
X743597Y565400D02*
G54D10*
D03*
X776934Y637631D02*
G54D10*
D03*
M02*
